/* XPM */
static char *barchart[] = {
/* columns rows colors chars-per-pixel */
"32 32 234 2 ",
"   c #6F4C5E",
".  c #7E4050",
"X  c #794657",
"o  c #774758",
"O  c #73495B",
"+  c #754859",
"@  c #774859",
"#  c #75495A",
"$  c #74495B",
"%  c #485468",
"&  c #485569",
"*  c #495569",
"=  c #4A5569",
"-  c #49566A",
";  c #4A566A",
":  c #5C566A",
">  c #5D566A",
",  c #57586D",
"<  c #57596E",
"1  c #555A6F",
"2  c #58586D",
"3  c #59586D",
"4  c #4E5B72",
"5  c #4B5C71",
"6  c #4A5C73",
"7  c #4C5C71",
"8  c #4D5D73",
"9  c #4E5C72",
"0  c #4F5C72",
"q  c #4F5C73",
"w  c #4E5D73",
"e  c #4F5D73",
"r  c #4B5D74",
"t  c #4C5D74",
"y  c #4D5D74",
"u  c #4E5D74",
"i  c #4D5E74",
"p  c #4C5F75",
"a  c #4E5E74",
"s  c #535B70",
"d  c #535B71",
"f  c #545A70",
"g  c #525C71",
"h  c #515C72",
"j  c #505D73",
"k  c #6B4E61",
"l  c #694F62",
"z  c #6C4E60",
"x  c #615367",
"c  c #655165",
"v  c #7C5664",
"b  c #745865",
"n  c #506275",
"m  c #576477",
"M  c #566378",
"N  c #566479",
"B  c #59657A",
"V  c #526879",
"C  c #536879",
"Z  c #53687A",
"A  c #53697A",
"S  c #54697A",
"D  c #516A7C",
"F  c #5C687B",
"G  c #5C697C",
"H  c #606272",
"J  c #616678",
"K  c #606C7D",
"L  c #606C7E",
"P  c #616D7E",
"I  c #606D7F",
"U  c #BE2128",
"Y  c #B9252D",
"T  c #AD2B35",
"R  c #AC2B36",
"E  c #AD2B36",
"W  c #A52F3B",
"Q  c #B02933",
"!  c #B92A32",
"~  c #A3303C",
"^  c #B53439",
"/  c #B63439",
"(  c #DB1217",
")  c #DC1116",
"_  c #ED0709",
"`  c #ED070A",
"'  c #EF080A",
"]  c #EE090B",
"[  c #EC0A0C",
"{  c #ED0A0C",
"}  c #ED0B0D",
"|  c #E80C0F",
" . c #F60405",
".. c #F50506",
"X. c #F40607",
"o. c #F80505",
"O. c #F80606",
"+. c #F90707",
"@. c #F20708",
"#. c #FD0B0A",
"$. c #FE0B0A",
"%. c #FF0D0D",
"&. c #FE0F0E",
"*. c #FF0F0F",
"=. c #E70D10",
"-. c #E11014",
";. c #F41213",
":. c #F61A19",
">. c #FB1B1A",
",. c #FF1A1A",
"<. c #F81D1E",
"1. c #FC1E1C",
"2. c #C71E25",
"3. c #C91B22",
"4. c #CD1920",
"5. c #CC1A20",
"6. c #C02129",
"7. c #DD322D",
"8. c #DC342E",
"9. c #FA2321",
"0. c #F72728",
"q. c #FF2828",
"w. c #F92E2B",
"e. c #FF2F2E",
"r. c #EE3735",
"t. c #E33E3D",
"y. c #F7413C",
"u. c #8C3C4A",
"i. c #9A3542",
"p. c #923947",
"a. c #953845",
"s. c #913A48",
"d. c #913B49",
"f. c #844150",
"g. c #814A5A",
"h. c #AE7267",
"j. c #AD7469",
"k. c #D54045",
"l. c #C05950",
"z. c #EA4F4C",
"x. c #F4514C",
"c. c #FF5555",
"v. c #FF5757",
"b. c #F25D57",
"n. c #FF5858",
"m. c #EF756D",
"M. c #EE776F",
"N. c #EA777A",
"B. c #FF7575",
"V. c #606F81",
"C. c #636F83",
"Z. c #637083",
"A. c #647083",
"S. c #627185",
"D. c #637185",
"F. c #647084",
"G. c #647285",
"H. c #5C8486",
"J. c #5E8988",
"K. c #5E8A88",
"L. c #76B2A4",
"P. c #76B3A4",
"I. c #7FB5A3",
"U. c #7FB6A4",
"Y. c #71B6A8",
"T. c #70B7A9",
"R. c #72B8A9",
"E. c #76C2AF",
"W. c #76C3AF",
"Q. c #75C4B1",
"!. c #77C4B0",
"~. c #77C5B1",
"^. c #74C5B2",
"/. c #878F97",
"(. c #888F96",
"). c #889093",
"_. c #8B9195",
"`. c #939899",
"'. c #93999A",
"]. c #A9959F",
"[. c #959EA7",
"{. c #999FA9",
"}. c #9BA3AF",
"|. c #A2A8B0",
" X c #A3A8B1",
".X c #D69992",
"XX c #ED8B82",
"oX c #EC9389",
"OX c #EB9D92",
"+X c #E99F95",
"@X c #FF9C9C",
"#X c #D3B7AE",
"$X c #FFB3B3",
"%X c #FFBCBC",
"&X c #D0C9BF",
"*X c #E4C0B3",
"=X c #E5C4B6",
"-X c #E4CBBD",
";X c #C8CBC2",
":X c #C8CCC3",
">X c #C8CEC5",
",X c #CFD1C6",
"<X c #CFD2C7",
"1X c #CFD2C8",
"2X c #CED4C9",
"3X c #D0D1C7",
"4X c #D1D2C7",
"5X c #C5CAD1",
"6X c #C5CBD2",
"7X c #E2CEC0",
"8X c #E2D0C2",
"9X c #EACFD1",
"0X c #E1DFD0",
"qX c #FDD2D2",
"wX c #FFD8D8",
"eX c #E0E0D1",
"rX c #E0E1D2",
"tX c #E1E1D2",
"yX c #E0E2D3",
"uX c #E1E2D3",
"iX c #E2E2D3",
"pX c #E3E3D3",
"aX c #E1E4D5",
"sX c #E2E4D4",
"dX c #E2E6D6",
"fX c #EAECEE",
"gX c #EAECEF",
"hX c #FFECEC",
"jX c #E9EFF1",
"kX c #FFF5F5",
"lX c #FFFAFA",
"zX c #FFFCFC",
"xX c white",
"cX c None",
/* pixels */
"cXcXcXcXcXcXcXcXcXcXcXcXe e e e e e e e cXcXcXcXcXcXcXcXcXcXcXcX",
"cXcXcXcXcXcXcXcXcXe e e e e e e e e e e e e e cXcXcXcXcXcXcXcXcX",
"cXcXcXcXcXcXcXe e e e e e e e e e e e e e e e e e cXcXcXcXcXcXcX",
"cXcXcXcXcXcXe e e e e e e e e i i i e e e e e e e e cXcXcXcXcXcX",
"cXcXcXcXcXe e e e e e e e i : O # : e e e e e e e e e cXcXcXcXcX",
"cXcXcXcXe e e e e e j e g s.( X. .) p.1 i e e e e e e e cXcXcXcX",
"cXcXcXe e e e e e e e 2 Q o.7.h.j.8.o.R 2 j j e e e e e e cXcXcX",
"cXcXe e e e e e e e g R o.l.I.^.^.U.l.o.R j e e e e e e e e cXcX",
"cXcXe e e e e e e e s. .^ P.Q.E.E.Q.P.^  .p.i e e e e e e e cXcX",
"cXe e e e e e e i z =.5.H Y.!.E.E.!.Y.H 5.|   i j e e e e e e cX",
"cXe e e e e j e g Y ' o D Y.E.E.E.E.Y.D O [ U 1 e e e e e e e cX",
"cXe e e e e e 6 o @.R e Z Y.!.E.E.!.Y.Z e ~ X.f.i e e e e e e cX",
"e e e e e e G P ! [ z i S Y.!.E.E.!.Y.Z e > =.2.g e e e e e e e ",
"e e e e e /.:X#X:.z.(.j S Y.E.E.E.E.Y.Z e e R [ l e e e e e e e ",
"e e e e F ;XdXoX#.OX>XB Z Y.!.E.E.!.Y.Z e 6 .  .u.6 e e e e e e ",
"e e e e P ,X0Xx.9.-X1XP Z Y.E.E.E.Q.Y.Z 4 S.].<.k.}.Z.e e e e e ",
"e e e 4 P 2X=X>.b.eX3XG Z Y.E.E.E.E.Y.S M 5XxXc.e.hX6XN e e e e ",
"e e e e P 2XXX#.+XdX3XP Z Y.E.E.E.E.Y.Z A.fXxX@X%.%XjXZ.e e e e ",
"e e e 4 P &Xy.w.7XeX,XP Z Y.!.E.E.E.Y.Z C.fXxXwX,.B.fXA.e e e e ",
"e e e e V..X*.M.dXeX3XG Z Y.E.E.E.E.Y.Z C.fXxXlXn.q.9XG.4 e e e ",
"cXe e e J t.1.*XeXeX3XP Z Y.Q.E.E.E.Y.Z C.fXxXxX$X%.N.S.e e e cX",
"cXe e i s.o.m.eXeXeX,XP N Y.!.E.E.W.Y.Z C.fXxXxXkXc.;.g.e e e cX",
"cXe 1 i._ r.7XdXpXeX4XP S R.~.~.Q.~.R.Z C.fXxXxXxXqX0._ p.e e cX",
"cXcXX ' 3.b ).'.'.`._.m n H.K.K.K.K.H.n B {. X|. X[.v 6.W e cXcX",
"cXcXc # 3 4 % % % % ; i j ; % ; ; % % e e % % % % % e g 1 e cXcX",
"cXcXcXi e j j i i j j j i j i j j j j e e e e e j i j i e cXcXcX",
"cXcXcXcXj j j j j j j j j j i j j j e e e e e e j i j j cXcXcXcX",
"cXcXcXcXcXj j i j j i j j j j j j j e e e e e e j j j cXcXcXcXcX",
"cXcXcXcXcXcXi j i j j i j j j j j j j i e e e e e e cXcXcXcXcXcX",
"cXcXcXcXcXcXcXj j j j j j j i j i j j j e e e e e cXcXcXcXcXcXcX",
"cXcXcXcXcXcXcXcXcXj j i i j i j j j j j e e e cXcXcXcXcXcXcXcXcX",
"cXcXcXcXcXcXcXcXcXcXcXcXj j j i n j j i cXcXcXcXcXcXcXcXcXcXcXcX"
};
