/* XPM */
static char *booklet[] = {
/* columns rows colors chars-per-pixel */
"32 32 85 1 ",
"  c #545667",
". c #5B596A",
"X c #4B5A70",
"o c #4C5A71",
"O c #4C5B71",
"+ c #4D5B71",
"@ c #4D5B72",
"# c #4E5C71",
"$ c #4D5C72",
"% c #4D5C73",
"& c #4D5D73",
"* c #4F5C72",
"= c #4E5C73",
"- c #4F5D73",
"; c #615462",
": c #506279",
"> c #52637A",
", c #52657D",
"< c #52667C",
"1 c #52667D",
"2 c #53667E",
"3 c #52677F",
"4 c #54677E",
"5 c #5F6B7C",
"6 c #606B7D",
"7 c #606C7D",
"8 c #9F585E",
"9 c #BB5B5C",
"0 c #8B5C67",
"q c #8B5D67",
"w c #895C68",
"e c #896674",
"r c #896774",
"t c #BE666A",
"y c #BF666A",
"u c #C85B5B",
"i c #CA5B5B",
"p c #C85C5C",
"a c #546980",
"s c #556A81",
"d c #546A82",
"f c #546B83",
"g c #566B83",
"h c #617386",
"j c #65798D",
"k c #5F849E",
"l c #60859E",
"z c #6592AD",
"x c #6791AE",
"c c #6892AF",
"v c #6795B0",
"b c #6997B2",
"n c #6E9AB3",
"m c #75A0B7",
"M c #70A7C6",
"N c #79A9C7",
"B c #72A9C8",
"V c #72A9C9",
"C c #73AACA",
"Z c #73ABCB",
"A c #75ADCD",
"S c #7BB1CE",
"D c #74AFD0",
"F c #75AFD0",
"G c #75B0D0",
"H c #75B0D1",
"J c #75B1D1",
"K c #76B1D1",
"L c #76B3D4",
"P c #77B3D4",
"I c #76B4D5",
"U c #77B4D5",
"Y c #939EA4",
"T c #999FA2",
"R c #99A0A3",
"E c #95A2A9",
"W c #80A9C6",
"Q c #81A9C6",
"! c #82B7D2",
"~ c #C4CBC4",
"^ c #C6CFC9",
"/ c #D1D3C7",
"( c #D2D3C7",
") c #D2D3C8",
"_ c None",
/* pixels */
"____________PPPPPPPP____________",
"_________PPPPPPPPPPPPPP_________",
"_______PPPPPPPPPPPPPPPPPP_______",
"______PPPPPPPPPPPPPPPPPPPP______",
"_____PPPPPPPPPPPPUPPUUPPPPP_____",
"____PPPPPZ!SVVVBZNQNQNZPPPPP____",
"___PPPPPvj^Y4aa41ryyyrgxPPPPP___",
"__PPPPPZg6)T##--&0iuuq#gZPPPPP__",
"__PPPPPV46)T@---%qi9pq&4ZPPPPP__",
"_PPPPPPV16)T@---%q8;8q&4ZPPPPPP_",
"_PPPPPPBa5)T@---&. X .-4BPPPPPP_",
"_PPPPPPM15)T@---&&&&##*4BPPPPPP_",
"PPPPPPPZ15/T%&--&***--*4ZUPPPPPP",
"PPPPPPPZa5/T@&--**-*-**4MUPPPPPP",
"PPPPPPUM15)T@&------**#4ZPPPPPPP",
"PPPPPPUZ15)T@&------**#1ZPPPPPPP",
"PPPPPPUVa5)T&---------*4VUPPPPPP",
"PPPPPPUV15)T#---------*4VUPPPPPP",
"PPPPPPUV15)T#&--------*4VUUUPPPP",
"PPPPPPUVa5)T#*--------*4VUUUPPPP",
"_PPPPPPV15/T#&&*------*4VUPPPPP_",
"_PPPPPPV15/T#***------*4VUPPPPP_",
"_PPPPPPV47/T#***-------4VUPPPPP_",
"__PPPPPB4g/T&**&------*4VUPPPP__",
"__PPPPUV35(R#&&&*****&&sVUPPPP__",
"___PPPPPkh~Y>>:<<>>>>><lPUPPP___",
"____PPPPMvmnxzzzzzzzzzcMPPPP____",
"_____PPPPPAPAGGGPAGGGGPPPPP_____",
"______PPPPPPPPPPPPPPPPPPPP______",
"_______PPPPPPPPPPPPPPPPPP_______",
"_________PPPPPPPPPPPPPP_________",
"____________PPPPPPPP____________"
};
