/* XPM */
static char *brightness[] = {
/* columns rows colors chars-per-pixel */
"32 32 88 1 ",
"  c #353636",
". c #353737",
"X c #373737",
"o c #393838",
"O c #3A3838",
"+ c #493C3C",
"@ c #533E3E",
"# c #5A4040",
"$ c #5B4040",
"% c #614242",
"& c #7A4848",
"* c #8B4D4D",
"= c #914E4E",
"- c #9E5151",
"; c #A95454",
": c #B05656",
"> c #BB5656",
", c #B15958",
"< c #B05A5A",
"1 c #B65858",
"2 c #B65E5D",
"3 c #B85858",
"4 c #BC5858",
"5 c #BE5A5A",
"6 c #BB5F5F",
"7 c #B26361",
"8 c #B66363",
"9 c #B86261",
"0 c #BF7A76",
"q c #BF7C77",
"w c #C15858",
"e c #C75C5C",
"r c #C85C5C",
"t c #C85F5F",
"y c #C76160",
"u c #C76362",
"i c #C86160",
"p c #C66866",
"a c #C06D6A",
"s c #CC6C6C",
"d c #C07A76",
"f c #CE7878",
"g c #D17979",
"h c #BB837E",
"j c #CE817D",
"k c #CE827D",
"l c #BD8B85",
"z c #C78580",
"x c #CC8383",
"c c #CF8984",
"v c #D68787",
"b c #CD958E",
"n c #CE9595",
"m c #D39790",
"M c #D19A93",
"N c #D99999",
"B c #DC9A9A",
"V c #CBA89F",
"C c #CCABA8",
"Z c #CCABA9",
"A c #D6AAA1",
"S c #CDB2A8",
"D c #CEB8AD",
"F c #CFB9AE",
"G c #D7BBB0",
"H c #DABDB2",
"J c #DEBFBF",
"K c #C1C2B7",
"L c #C6C6BD",
"P c #CCCCBE",
"I c #CCCBC3",
"U c #D7CDC0",
"Y c #DDCFC2",
"T c #D1D0C3",
"R c #DDD0C3",
"E c #DADCCD",
"W c #DFDCCE",
"Q c #EAC3C3",
"! c #EAD2D2",
"~ c #F1D5D5",
"^ c #E1E2D3",
"/ c #EDEEEB",
"( c #F8F0F0",
") c #FAF1F1",
"_ c #F9F9F8",
"` c #FDFAFA",
"' c #FDFDFD",
"] c white",
/* pixels */
"XXXXXXXXoo@&-;eeee:-&@oXXoXXXXXX",
"XXXXXXXo@=eerreeeeeee3=$XXXXXXXX",
"XXXXXX+*5reereeeeeeeerr5*+XXXXXX",
"XXXXX#;reeeeeeeeeeeeeeeee;$XXXXX",
"XXXX#1rreeeeeeerueeeeeeerr3%XXoX",
"XXX#1rrreeeeeeeAAeeeeeeerrr:@XXX",
"XX+;rereeeMceeeHHeeecneerree;+XX",
"XX*rreeeeuGRseeddeesRGueeeeee*XX",
"X#5reeeeee0VurgkxguuV0eeeeeer5@o",
"X=reeeeiee51N!]_](~B:>eeyreeer=o",
"@1rreeMGkesQ]]]]]]]]QsekHMrerr3@",
"&eeeeezUAiQ]]]]]]]]]]QiAPcrrrrr&",
"-reeee>77B]]]]]]]]]]]_B97>eerer-",
"1reeeeeei~]]]]]]]]]]]]~teeeeeer:",
"eeeeeeeeg(]]]]]]]]]]]](feeeeeerr",
"eeeeuAHkv]]]]]]]]]]]]]]vkHAueerr",
"eeeetCFfv_]]]]]]]]]]]]]v0DVrreee",
"eeeee:;4g(]]]]]]]]]]]](f>::eeeee",
"3eeeeeeee!]]]]]]]]]]]]~ieeeeere:",
"-eeeeeespn_]]]]]]]]]]]n8seeeerr-",
"&eeeeexYA1I]]]]]]]]]]J5ARceeeee&",
"+3eeeenD0eeP]]]]]]]]J7e0Dbeeer:@",
"o=eeee434ew3C/_]]]/C;>e>11eeee=o",
"X#5reeeereewlKLILLDleeeeeeeeee#X",
"Xo*rreeeeeeeMETIPUEMeeeeeeeer*oX",
"Xo+;rreeeeee7SEE^EDaeeeeeeer;+Xo",
"XXX@3eeeeeeer3hPP015eeeeeer1#XXX",
"XXXX#3reeeeerr51::eeeeeeee1%XXXX",
"XXXXX#;errreeeeerrrreeeee;@XXXXX",
"XXXXoo+*rreeeeeerrrrere5*+XXXXXX",
"XXXXXXXo@=:eeeeerrrrr5*#oXXXXXXX",
"XXXXXXXXXo+&;:rrrr:-&@oXXXXXXXXX"
};
