/* XPM */
static char *clock[] = {
/* columns rows colors chars-per-pixel */
"32 32 100 2 ",
"   c #353535",
".  c #373737",
"X  c #3D3D3D",
"o  c #3E3E3E",
"O  c #525250",
"+  c #5D5D59",
"@  c #4B5A71",
"#  c #576478",
"$  c #5D6A7C",
"%  c #676763",
"&  c #686863",
"*  c #6B6B66",
"=  c #6E6E69",
"-  c #70706B",
";  c #C65959",
":  c #C75A5A",
">  c #C75B5B",
",  c #C66060",
"<  c #C66261",
"1  c #C86262",
"2  c #C96564",
"3  c #C56867",
"4  c #C46C6A",
"5  c #CA6968",
"6  c #CB6E6C",
"7  c #C57572",
"8  c #CB7370",
"9  c #C87B77",
"0  c #CD7B78",
"q  c #CD7E7A",
"w  c #C1817D",
"e  c #CE817D",
"r  c #677280",
"t  c #687483",
"y  c #6A7583",
"u  c #77818D",
"i  c #8A8A83",
"p  c #808993",
"a  c #9F9F96",
"s  c #A6A69C",
"d  c #BFA99F",
"f  c #A7AAA6",
"g  c #A9ACA8",
"h  c #B2B2A7",
"j  c #BCBCB2",
"k  c #B9BDB8",
"l  c #C08984",
"z  c #C08A84",
"x  c #C08E88",
"c  c #CB948E",
"v  c #D1928C",
"b  c #C09790",
"n  c #C59D95",
"m  c #CA9891",
"M  c #D39D96",
"N  c #C0A299",
"B  c #D4A29A",
"V  c #D4A39B",
"C  c #C0A9A0",
"Z  c #C3AEA5",
"A  c #D7AEA5",
"S  c #D7AFA5",
"D  c #C6B1A7",
"F  c #C3B2A8",
"G  c #CCBAAF",
"H  c #D1B5AB",
"J  c #D0B8AE",
"K  c #D7BAAF",
"L  c #C5BFB4",
"P  c #D9BAB0",
"I  c #D9BCB1",
"U  c #BEC1BB",
"Y  c #C1C1B5",
"T  c #C3C3B8",
"R  c #CAC7BA",
"E  c #CDCCBF",
"W  c #D6C0B5",
"Q  c #DBC5B9",
"!  c #DCCBBE",
"~  c #CDCCC0",
"^  c #CDCDC0",
"/  c #CECEC1",
"(  c #CECFC2",
")  c #D0D0C2",
"_  c #D0D2C7",
"`  c #DDD0C3",
"'  c #DDD3C5",
"]  c #DED3C5",
"[  c #D5D7C8",
"{  c #D6D7CA",
"}  c #D9DACB",
"|  c #DFD9CB",
" . c #DADBCD",
".. c #DBDBCE",
"X. c #DEDED0",
"o. c #DEDFD0",
"O. c #DFE0D1",
"+. c #E1E0D1",
"@. c #E1E1D1",
"#. c #E0E2D3",
/* pixels */
". . . . . . . . . X + i h ^ X.+.+.X.^ h i + X . . . . . . . . . ",
". . . . . . . X = g ^ X.+.X.X.+.+.+.+.+.X._ g % X . . . . . . . ",
". . . . . . O a ] +.@.@.+.+.X.+.+.+.+.+.+.+.+.[ a O . . . . . . ",
". . . . . % Y +.+.X.@.@.@.+.+.+.+.+.+.+.+.+.+.+.+.L % . . . . . ",
". . . . = ^ +.+.@.@.X.@.@.| ] ] ] ] ] X.+.+.O.+.+.+.^ = . . . . ",
". . . & E +.+.+.@.@.@.P M l 5 3 5 5 q M Q X.+.+.+.+.+.^ % . . . ",
". . O Y +.+.+.+.@.` v 2 : : > , < , > ; 5 v ` +.+.+.+.+.j O . . ",
". X a +.+.+.O.+.P 8 : , 8 x d d Z d x 7 < > 5 P +.+.+.X.X.a X . ",
". & [ +.+.+.+.P 5 > 3 b T ^ [ X.| [ E Y b 4 > 5 P +.+.O.+.| = . ",
"X s +.+.+.+.] 8 > 7 D ^ O.O.+.+.+.+.+.X.E D 7 > 8 ] +.O.+.+.f X ",
"+ ) +.+.O.X.v > 5 h | O.O.O.O.X.[ X.O.O.+.| D 5 > v ] +.O.O.^ + ",
"i X.+.+.O.Q 5 > m | O.O.O.O.[ r u [ O.+.X.+.| N > 5 Q O.O.O.X.i ",
"h +.O.+.O.M > 7 _ +.+.+.O.O.[ # $ ) +.O.+.O.+.E 7 > M +.O.+.+.h ",
"^ +.+.+.| e > m O.+.+.+.+.+.) r $ [ O.O.+.O.+.X.m > e | O.O.X._ ",
"+.+.X.+.] 5 < H O.+.+.O.+.+.[ # r [ +.O.O.+.+.O.H < 5 ] +.+.+.O.",
"+.+.+.+.] 5 < W +.+.+.+.+.+.^ r # k +.+.+.+.O.+.W < 5 ] +.O.+.O.",
"+.+.X.+.] 5 5 W +.+.X.+.X.O.[ r @ r k X.| O.O.#.W 3 < ] O.O.+.+.",
"X.+.+.+.] 5 , P +.+.+.+.+.X.X.h r @ t U O.O.O.#.I 2 8 ] O.O.O.O.",
"E +.+.X.] 0 ; M O.+.X.+.+.+.+.[ f r @ t ^ O.+.+.V > 9 ] +.+.+._ ",
"h +.X.+.+.c > 0 | +.+.+.+.X.+.+.) f r @ u O.+.] e > c | +.O.O.h ",
"i +.+.+.O.G 4 < H +.+.+.+.+.+.+.O.[ g r u +.| S , < G +.+.+.O.i ",
"+ ) +.X.O.] l > 8 W +.+.+.X.X.+.O.O.] j T O.] 8 > z ] +.X.+._ + ",
"X h +.+.O.X.W 4 > e ! +.+.+.+.+.O.O.+.O.O.Q e > 3 G O.O.X.O.f X ",
"  & | +.O.X.| N < > 8 S | +.+.+.O.O.O.O.H 8 > < Z O.+.+.+.] &   ",
". X a O.O.+.+._ d 4 ; < 0 B P Q Q K V 0 < > 4 d ) +.+.+.+.s X . ",
". . O j O.O.+.O.| D w < ; ; < 1 < < > ; < w D | +.+.+.+.Y O . . ",
". . . & E X.+.+.+.| R h l 4 4 < 4 4 9 l d T | O.+.+.+.E % . . . ",
". . . . - _ +.+.+.+.| X.E Y U Z j D Y E | X.O.+.+.+._ = . . . . ",
". . . .   & Y +.X.X.O.+.O.O.| X.| | X.X.+.+.+.X.| j % . . . . . ",
". . . . X   O a | X.+.+.O.O.+.X.X.X.+.X.+.X.+.| s O . . . . . . ",
". . . . X     X % s E X.+.+.+.+.+.+.+.+.] E f % X . . . . . . . ",
". . . . .   X   X X + i h _ X.+.+.+.E h i + X . . . . . . . . . "
};
