/* XPM */
static char *download[] = {
/* columns rows colors chars-per-pixel */
"32 32 72 1 ",
"  c #373635",
". c #373737",
"X c #37383A",
"o c #37393B",
"O c #354350",
"+ c #33495D",
"@ c #324E68",
"# c #315271",
"$ c #2E6293",
"% c #2E6294",
"& c #2C6EAB",
"* c #2B72B4",
"= c #297AC6",
"- c #2882D5",
"; c #1786EE",
": c #1C8AF2",
"> c #1E8EF7",
", c #2689E5",
"< c #2689E6",
"1 c #268AE7",
"2 c #258AE9",
"3 c #268BEA",
"4 c #268DEE",
"5 c #338FE6",
"6 c #3590E6",
"7 c #258FF2",
"8 c #208FF8",
"9 c #2892F5",
"0 c #2592F9",
"q c #2193FF",
"w c #2496FF",
"e c #2596FF",
"r c #2B98FF",
"t c #2E9AFF",
"y c #329CFF",
"u c #399FFF",
"i c #3EA2FF",
"p c #53A1EB",
"a c #45A5FF",
"s c #55A6F1",
"d c #52ABFF",
"f c #57AEFF",
"g c #5FB1FF",
"h c #71B0EB",
"j c #77B5EF",
"k c #61ABF1",
"l c #60B2FF",
"z c #64B4FF",
"x c #73B6F4",
"c c #74BCFF",
"v c #78BEFF",
"b c #8BBEEE",
"n c #9CC8F2",
"m c #97CCFF",
"M c #AACFF2",
"N c #A0D1FF",
"B c #A9D5FF",
"V c #ABD6FF",
"C c #ADD7FF",
"Z c #B7D7F4",
"A c #B8DAF9",
"S c #B8DDFF",
"D c #C3DDF6",
"F c #C6E3FF",
"G c #DBEDFF",
"H c #E1EEFA",
"J c #E4F0FA",
"K c #E6F3FF",
"L c #E8F4FF",
"P c #F6FAFE",
"I c #F6FBFF",
"U c #F9FCFE",
/* pixels */
"........ X+%=18w881=%@X   X XX  ",
".......X@*3wwwwwrwwr82*@X  X   X",
"......O&2wwwwwrwwww8www2&OXX XX ",
".....@-wwwwww8wwwrwwwwwww=@X  X ",
"..XX#,wwwwwrwwwwww8wrwwrww<# X  ",
".X.@,wwwww8www8ww8wwwwwwwww<@  X",
"X.O=wwwwwwrw8wwwwrwww8r8wwww=O X",
"..&wwwwwwwwwffww8wllwwwwwwwwr&X ",
".@7wwww8wwyCUHawwiKUCiwwwwrww2@.",
".*www>wwwaDUUKuwwiKUUDuwww8rww*.",
"+2wwwwwwrCUUUKu7wuKUUUCr8wwwww2@",
"%w7wwwwwlUUUUKuwwiHUUUUlwww87ww$",
"=www7wwyCUUUUKuwwiKUUUUCwrwwwww=",
",wwwwtvFUUUMnjwwwwjbMUUGy8w8www1",
"wwwwtNUUUUUk;>wwww:;kUUKdwwrw8w8",
"www>vUUUUUUGiwwwwwwaGUUUKDfwwwwr",
"wwwyFUUUUUUUSywww8rSUUUUUUKlrwww",
"7wwuKUUUUUUUUmrwwrmUUUUUUUUSrwww",
"<wwuKUUUUUUUUUcwwvUUUUUUUUUKy7w<",
"=wwyFUUUUUUUUUKllKUUUUUUUUUKuww=",
"%ww8xUUUUUUUUUUUUUUUUUUUUUUAwww$",
"+2ww7nUUUUUUUUUUUUUUUUUUUUHswr<+",
"X*www2hDKHHKKKHHKKHKKKKJKZp>ww*.",
" @7www415665666555556656527ww2@ ",
" X&wwww88888w88888888888wwwww&XX",
"X +=wwwwww8rwwrwwwwwwwwwwwww=+  ",
"   @1wwwww8wwwwwwwwwwrwwwww1@XX ",
"X X #1wwwrwwwww8rwwwwwwwww1@   X",
" X   @=wwwwwr8wwwwwwww8ww=@  X  ",
"  XX  O&2rwwwwwwww8wwww7&OX X  X",
"X X  XXX@*18wwrwwrwww<*@X  XX X ",
"X   X  X X@%=18w881=%+X XX X  X "
};
