/* XPM */
static char *download[] = {
/* columns rows colors chars-per-pixel */
"32 32 117 2 ",
"   c #1786EE",
".  c #1C8AF2",
"X  c #1C8BF3",
"o  c #1E8EF7",
"O  c #2289EA",
"+  c #258AE9",
"@  c #268DEE",
"#  c #328FE6",
"$  c #338FE6",
"%  c #3590E6",
"&  c #208FF8",
"*  c #2892F5",
"=  c #2191FB",
"-  c #2192FB",
";  c #2193FE",
":  c #2193FF",
">  c #2293FE",
",  c #2194FF",
"<  c #2294FE",
"1  c #2394FE",
"2  c #2294FF",
"3  c #2394FF",
"4  c #2395FF",
"5  c #2495FF",
"6  c #2496FF",
"7  c #2596FF",
"8  c #2696FF",
"9  c #2797FF",
"0  c #2A97FD",
"q  c #2897FF",
"w  c #2C97FD",
"e  c #2998FF",
"r  c #2A98FF",
"t  c #2B98FF",
"y  c #2C98FD",
"u  c #2D98FD",
"i  c #2D99FF",
"p  c #2E9AFF",
"a  c #329CFF",
"s  c #339CFF",
"d  c #399FFF",
"f  c #3BA0FF",
"g  c #3CA0FF",
"h  c #3CA1FF",
"j  c #3DA1FF",
"k  c #3EA1FF",
"l  c #3EA2FF",
"z  c #53A1EB",
"x  c #45A5FF",
"c  c #55A6F1",
"v  c #52ABFF",
"b  c #57AEFF",
"n  c #5BB0FF",
"m  c #5DB1FF",
"M  c #5FB1FF",
"N  c #71B0EB",
"B  c #76B5EF",
"V  c #77B5EF",
"C  c #61ABF1",
"Z  c #60B2FF",
"A  c #63B3FF",
"S  c #63B4FF",
"D  c #64B4FF",
"F  c #73B6F4",
"G  c #74BCFF",
"H  c #78BEFF",
"J  c #8BBEEE",
"K  c #9CC8F2",
"L  c #97CCFF",
"P  c #AACFF2",
"I  c #A0D1FF",
"U  c #A9D5FF",
"Y  c #AAD6FF",
"T  c #ABD6FF",
"R  c #ADD7FF",
"E  c #B7D7F4",
"W  c #B8DAF9",
"Q  c #B8DDFF",
"!  c #BADEFF",
"~  c #BBDEFF",
"^  c #C3DDF6",
"/  c #C3E0FB",
"(  c #C1E1FF",
")  c #C5E3FF",
"_  c #C6E3FF",
"`  c #D5EAFF",
"'  c #D5EBFF",
"]  c #DBEDFF",
"[  c #DFF0FF",
"{  c #E0EEFA",
"}  c #E1EEFA",
"|  c #E4F0FA",
" . c #E4F0FB",
".. c #E1F0FE",
"X. c #E2F1FF",
"o. c #E3F1FF",
"O. c #E4F2FF",
"+. c #E5F2FF",
"@. c #E5F3FF",
"#. c #E6F3FF",
"$. c #E8F4FF",
"%. c #F1F8FF",
"&. c #F3F9FF",
"*. c #F4FAFF",
"=. c #F5FAFF",
"-. c #F6FAFE",
";. c #F6FAFF",
":. c #F6FBFF",
">. c #F8FBFE",
",. c #F9FBFE",
"<. c #F9FCFE",
"1. c #F9FCFF",
"2. c #FAFCFF",
"3. c #FCFEFF",
"4. c #FDFEFF",
"5. c white",
"6. c None",
/* pixels */
"6.6.6.6.6.6.6.6.6.6.6.6.5 5 5 5 5 5 5 5 6.6.6.6.6.6.6.6.6.6.6.6.",
"6.6.6.6.6.6.6.6.6.5 5 5 5 5 5 5 5 5 5 5 5 5 5 6.6.6.6.6.6.6.6.6.",
"6.6.6.6.6.6.6.5 5 5 5 5 5 5 5 5 5 5 5 5 5 5 5 5 5 6.6.6.6.6.6.6.",
"6.6.6.6.6.6.5 5 5 5 5 5 5 5 5 5 5 5 5 5 5 5 5 5 5 5 6.6.6.6.6.6.",
"6.6.6.6.6.5 5 5 5 5 5 5 5 5 5 5 5 5 5 5 5 5 5 5 5 5 5 6.6.6.6.6.",
"6.6.6.6.5 5 5 5 5 5 5 5 5 5 5 5 5 5 5 5 5 5 5 5 5 5 5 5 6.6.6.6.",
"6.6.6.5 5 5 5 5 5 5 5 5 5 5 5 5 5 5 5 5 5 5 5 5 5 5 5 5 5 6.6.6.",
"6.6.5 5 5 5 5 5 5 5 5 t m b 5 5 5 0 Z m t 5 5 5 5 5 5 5 5 5 6.6.",
"6.6.5 5 5 5 5 5 5 5 f U 2.] f 5 6 f | 2.U f 5 5 5 5 5 5 5 5 6.6.",
"6.5 5 5 5 5 5 5 5 f ) 2.2.$.f 5 5 f | 2.2.) f 5 5 5 5 5 5 5 5 6.",
"6.5 5 5 5 5 5 5 t U 2.2.2.$.d 5 5 f $.2.2.2.U t 5 5 5 5 5 5 5 6.",
"6.5 5 5 5 5 5 5 Z 2.2.2.2.| f 5 6 f $.2.2.2.2.Z 5 5 5 5 5 5 5 6.",
"5 5 5 5 5 5 5 a R 2.2.2.2.$.f 5 5 f | 2.2.2.2.U 5 5 5 5 5 5 5 5 ",
"5 5 5 5 5 t H _ 2.2.2.P K V 0 5 5 t N K P 2.2.] a 5 5 5 5 5 5 5 ",
"5 5 5 5 t I 2.2.2.2.2.C   . 5 5 5 5 .   C :.2.$.b 5 5 5 5 5 5 5 ",
"5 5 5 5 G 2.2.2.2.2.2.] f 5 5 5 5 5 5 x ] 2.2.2.| ! n 5 5 5 5 5 ",
"5 5 5 a _ 2.2.2.2.2.2.2.W a 5 5 5 5 t ! 2.2.2.2.2.2.$.m 5 5 5 5 ",
"5 5 5 f $.2.2.2.2.2.2.2.2.L 0 5 5 5 L 2.2.2.2.2.2.2.2.~ t 5 5 5 ",
"5 5 5 d | 2.2.2.2.2.2.2.2.:.G 5 5 G :.2.2.2.2.2.2.2.2.| f 5 5 5 ",
"5 5 5 a _ 2.2.2.2.2.2.2.2.2.$.Z Z $.2.2.2.2.2.2.2.2.2.| f 5 5 5 ",
"6.5 5 5 F 2.2.2.2.2.2.2.2.2.2.:.:.2.2.2.2.2.2.2.2.2.2.W t 5 5 6.",
"6.5 5 5 * K 2.2.2.2.2.2.2.2.2.2.2.2.2.2.2.2.2.2.2.2.| c 5 5 5 6.",
"6.5 5 5 5 + N ^ } | $.| } | } } $.| | | $.| | | | E z 5 5 5 5 6.",
"6.6.5 5 5 5 . + % % % % % % % # % % % % % % % % % + . 5 5 5 6.6.",
"6.6.5 5 5 5 5 5 5 5 . 5 & 5 o 5 o 5 o 5 o 5 o 5 5 5 5 5 5 5 6.6.",
"6.6.6.5 5 5 5 5 5 5 5 5 5 5 5 5 5 5 5 5 5 5 5 5 5 5 5 5 5 6.6.6.",
"6.6.6.6.5 5 5 5 5 5 5 5 5 5 5 5 5 5 5 5 5 5 5 5 5 5 5 5 6.6.6.6.",
"6.6.6.6.6.5 5 5 5 5 5 5 5 5 5 5 5 5 5 5 5 5 5 5 5 5 5 6.6.6.6.6.",
"6.6.6.6.6.6.5 5 5 5 5 5 5 5 5 5 5 5 5 5 5 5 5 5 5 5 6.6.6.6.6.6.",
"6.6.6.6.6.6.6.5 5 5 5 5 5 5 5 5 5 5 5 5 5 5 5 5 5 6.6.6.6.6.6.6.",
"6.6.6.6.6.6.6.6.6.5 5 5 5 5 5 5 5 5 5 5 5 5 5 6.6.6.6.6.6.6.6.6.",
"6.6.6.6.6.6.6.6.6.6.6.6.5 5 5 5 5 5 5 5 6.6.6.6.6.6.6.6.6.6.6.6."
};
