/* XPM */
static char *folder[] = {
/* columns rows colors chars-per-pixel */
"20 20 41 1 ",
"  c #DF975B",
". c #DC985F",
"X c #E0975A",
"o c #E0975B",
"O c #E0985C",
"+ c #E0985D",
"@ c #E0995D",
"# c #E0995E",
"$ c #E09A5F",
"% c #D29869",
"& c #D1996B",
"* c #D1996C",
"= c #DFA775",
"- c #E0A069",
"; c #E0A06A",
": c #E0A16C",
"> c #E0A26C",
", c #E3A26C",
"< c #E0A876",
"1 c #E3AC7E",
"2 c #E4B285",
"3 c #E9B58A",
"4 c #E9B68C",
"5 c #DFD3BC",
"6 c #DFD4BD",
"7 c #EDC5A3",
"8 c #EFCAAB",
"9 c #EFCAAC",
"0 c #DFD7C2",
"q c #DFD7C3",
"w c #EEDBC7",
"e c #EDEDE4",
"r c #EEEEE6",
"t c #EEEFE7",
"y c #F4EAE2",
"u c #F6F0EA",
"i c #F6F0EB",
"p c #FEFCFB",
"a c #FEFDFC",
"s c white",
"d c None",
/* pixels */
"ddddddd######ddddddd",
"ddddd##########ddddd",
"ddd##############ddd",
"dd################dd",
"dd########$%,;:;##dd",
"d###   #OO<50005<o#d",
"d##,788899wttttt2##d",
"## 3pssssssssssp4o##",
"## 4pssssssssssp4o##",
"#. 4pssssssssssp4o##",
"## 3pssssssssssp4o##",
"## 3sssssssssssp4o##",
"##O4pssssssssssp4o##",
"d#O4sssssssssssp3o#d",
"d##1yiiiiuiiiiiy1##d",
"dd#.%****%***%*%.#dd",
"dd####o###  .#####dd",
"ddd##############ddd",
"ddddd##########ddddd",
"ddddddd######ddddddd"
};
