/* XPM */
static char *plugin[] = {
/* columns rows colors chars-per-pixel */
"32 32 64 1 ",
"  c #373737",
". c #383939",
"X c #3F4846",
"o c #43524E",
"O c #465954",
"+ c #475A55",
"@ c #49605A",
"# c #4A5669",
"$ c #4E5B72",
"% c #505F74",
"& c #54776F",
"* c #516175",
"= c #516875",
"- c #546F78",
"; c #556F7C",
": c #57747E",
"> c #577A7C",
", c #5C887D",
"< c #597982",
"1 c #5B7D86",
"2 c #5B8183",
"3 c #5F8E82",
"4 c #5E858B",
"5 c #60898D",
"6 c #70838D",
"7 c #61928D",
"8 c #649A8D",
"9 c #7C8690",
"0 c #639192",
"q c #659D93",
"w c #659994",
"e c #66A095",
"r c #69A596",
"t c #6BA59E",
"y c #6BAA9D",
"u c #6EAFA1",
"i c #6EB1A0",
"p c #6FB3A2",
"a c #73B2A1",
"s c #70B6A4",
"d c #72B9A7",
"f c #72B6A8",
"g c #72B7A8",
"h c #72BAA8",
"j c #75BFAD",
"k c #79BAAB",
"l c #76C2AF",
"z c #76C3B0",
"x c #7AC3B0",
"c c #90B3A8",
"v c #97BCAD",
"b c #98C3B5",
"n c #93CAB8",
"m c #9ECDBC",
"M c #A1CEBD",
"N c #B0C8B9",
"B c #B6D4C3",
"V c #C4D8C8",
"C c #D0D2C7",
"Z c #D0D3C7",
"A c #D9DCCD",
"S c #DBE0D0",
"D c #E0E0D1",
"F c #E2E1D2",
/* pixels */
"        ..o&wpdllhp8&o..        ",
"       .+3pzllllzzzzhp7O        ",
"      X,fzzjllllllzzzzzp,X      ",
"     OrzzzzzlllllzzzzzzzlrO     ",
"    Opzlzzzzzzhzllxlllllzzp+    ",
"   OpzllzjjzhzxzllxMnllllzzpO   ",
"  XrzlllzzzzzzzzlxBFVxzlllllrX  ",
"  ,zzlllzzhzfuhzxBFAvzzzlllll,  ",
" Ohzlllllllz0$1kBSAvpllllllllhO ",
" 3zllllllllzw$$6ZSvplllllllllz3.",
"opzzllllzzzh1#$$9cazzllllxlllzpo",
"&lzlllllzxh1$##$$1fzllllmVnllll&",
"8zllllllzf1$%$$#$$1dllzmAFmlllz8",
"pllllllzh4$%$%$$#$$1dxmFFNpllllp",
"hzlllllzu%$$%$%$$#$$1bSFNdlllllh",
"zzllllll5$$%$%$%$##$%9ZNadzllzzz",
"zzjzzzzz1$$$*$*$$*##$$6ylzzllzhz",
"hzzzzzzh2$*$$*$$*$$$#$$1hlzzllzh",
"pzzzzzzz0$*$$$$$$$$$##$$wlzzzzza",
"wzjzzzzzp*$$*$*$$*$*$-32plzzzzzw",
"&hxzzzzzh4$$*$**$*$$:yhphlllzzz&",
"opzzzzhzp:#$$$$$*$$:ylzzzlllzzpo",
".3zzzzhp<$->=$$$$$>yllllzzllzz3.",
".Ohzzzz0$-wpw2::17plllllzzllzhO ",
". 3zzzzr2rfzlhpudhllllllzzzzz,. ",
"  XrzzzhphzzllllllllllllllzzrX  ",
"   opzzzlllllllllllllllllzzpo   ",
"    +pzzlllllllllllllllllzpO.   ",
"    .orzllllllllllllllllzrO     ",
"    ..X2hlzllllllllllllh,X      ",
"      . O3plllllzzlllp7o.       ",
"          o&8plllhp8&o.         "
};
