/* XPM */
static char *plugin[] = {
/* columns rows colors chars-per-pixel */
"32 32 124 2 ",
"   c #4A5669",
".  c #4B576B",
"X  c #4C5A6E",
"o  c #4E5B71",
"O  c #4E5B72",
"+  c #4E5C71",
"@  c #4E5C72",
"#  c #4F5C72",
"$  c #4E5D72",
"%  c #4E5C73",
"&  c #4F5C73",
"*  c #4F5D73",
"=  c #505F74",
"-  c #516175",
";  c #526777",
":  c #516875",
">  c #526778",
",  c #536B79",
"<  c #546F78",
"1  c #556F7C",
"2  c #56727C",
"3  c #56737D",
"4  c #57747E",
"5  c #577A7C",
"6  c #577280",
"7  c #587880",
"8  c #597B81",
"9  c #597982",
"0  c #597A82",
"q  c #5B7D86",
"w  c #5C7E86",
"e  c #6E7F89",
"r  c #5A8083",
"t  c #5B8183",
"y  c #5B8583",
"u  c #5C8385",
"i  c #5D8788",
"p  c #5E858B",
"a  c #60898D",
"s  c #618E8F",
"d  c #70838D",
"f  c #61928D",
"g  c #7C8690",
"h  c #639192",
"j  c #649393",
"k  c #659C93",
"l  c #659D93",
"z  c #659994",
"x  c #66A095",
"c  c #69A09A",
"v  c #69A09B",
"b  c #6BA59E",
"n  c #6BA89C",
"m  c #6BAA9D",
"M  c #6CAB9F",
"N  c #71AB9E",
"B  c #6EAFA1",
"V  c #6DB0A0",
"C  c #6EB1A1",
"Z  c #6EB2A1",
"A  c #6FB4A2",
"S  c #6FB0A4",
"D  c #6FB5A4",
"F  c #73B2A1",
"G  c #70B1A5",
"H  c #70B5A4",
"J  c #70B6A4",
"K  c #71B9A7",
"L  c #77B9A7",
"P  c #72B6A8",
"I  c #72B7A8",
"U  c #72B8A9",
"Y  c #72BAA8",
"T  c #72B9AA",
"R  c #73B9AA",
"E  c #73BDAA",
"W  c #74BDAB",
"Q  c #74BEAB",
"!  c #74BFAC",
"~  c #74BFAD",
"^  c #75BFAD",
"/  c #79BAAB",
"(  c #74C0AD",
")  c #75C0AD",
"_  c #75C0AE",
"`  c #75C1AE",
"'  c #76C1AE",
"]  c #74C2AE",
"[  c #74C2AF",
"{  c #75C2AF",
"}  c #76C2AE",
"|  c #76C2AF",
" . c #77C2AF",
".. c #76C3AF",
"X. c #76C3B0",
"o. c #77C3B0",
"O. c #77C4B0",
"+. c #7AC3B0",
"@. c #7CC4B1",
"#. c #7DC4B1",
"$. c #90B3A8",
"%. c #97BCAD",
"&. c #98C1B1",
"*. c #98C3B5",
"=. c #93CAB8",
"-. c #9ECDBC",
";. c #AFC7B8",
":. c #A0CCBB",
">. c #A0CEBC",
",. c #A1CEBD",
"<. c #B0C8B9",
"1. c #B6D4C3",
"2. c #B7D5C4",
"3. c #C4D8C8",
"4. c #D0D2C7",
"5. c #D0D3C7",
"6. c #D9DCCD",
"7. c #DADDCE",
"8. c #DADECF",
"9. c #DBE0D0",
"0. c #E0E0D1",
"q. c #E1E0D1",
"w. c #E2E1D2",
"e. c None",
/* pixels */
"e.e.e.e.e.e.e.e.e.e.e.e.| | | | | | | | e.e.e.e.e.e.e.e.e.e.e.e.",
"e.e.e.e.e.e.e.e.e.| | | | | | | | | | | | | | e.e.e.e.e.e.e.e.e.",
"e.e.e.e.e.e.e.| | | | | | | | | | | | | | | | | | e.e.e.e.e.e.e.",
"e.e.e.e.e.e.| | | | | | | | | | | | | | | | | | | | e.e.e.e.e.e.",
"e.e.e.e.e.| | | | | | | | | | | | | | | | | | | | | | e.e.e.e.e.",
"e.e.e.e.| | | | | | | | | | | | | | @.,.=.| | | | | | | e.e.e.e.",
"e.e.e.| | | | | | | | | | o.o.| | @.1.0.3. .| | | | | | | e.e.e.",
"e.e.| | | | | | | | | | U v U o.@.1.0.6.&.| | | | | | | | | e.e.",
"e.e.| | | | | | | | | o.h O q / 2.9.6.%.F | | | | | | | | | e.e.",
"e.| | | | | | | | | | o.z X O d 5.6.%.D o.| | | | | | | | | | e.",
"e.| | | | | | | | | o.U q   O O g $.D | o.| | | | @.| | | | | e.",
"e.| | | | | | | | | U q O X   O O q I o.| | | | -.3.=.| | | | e.",
"| | | | | | | | o.U q O = O X   O O q U | | | -.6.0.-.o.| | | | ",
"| | | | | | | | U p = O O = O O   O O q U o.,.9.0.;.L o.| | | | ",
"| | | | | | | o.B - O O = = O = X   O O q *.9.0.<.F U o.| | | | ",
"| | | | | | | | a O O = O O = O = X   O O g 4.<.F | | | | | | | ",
"| | | | | | | | w O O O O O = O O O X X X = d m | | | | | | | | ",
"| | | | | | | | p O = = = = O O = O O X   X O 8 U | | | | | | | ",
"| | | | | | | o.s O = O O = O = O = O = X   O O v | | | | | | | ",
"| | | | | | | o.B ; O O = O = O O O = O O 2 y y D | | | | | | | ",
"e.| | | | | | | U p O O = O = = = O O O 2 m L D U | | | | | | e.",
"e.| | | | | | o.D , X O O O O O O = O 2 m | | | o.| | | | | | e.",
"e.| | | | | o.D 6 O : 5 , O O O O - q m | | | | o.o.| | | | | e.",
"e.e.| | | o.o.h O , z D z y 5 2 5 f V | | | | | | | | | | | e.e.",
"e.e.| | | | o.m y z | | | L V V L U | | | | | | | | | | | | e.e.",
"e.e.e.| | | o.U D U | | | | | | | o.| | | | | | | | | | | e.e.e.",
"e.e.e.e.| | | | | | | | | | | | | | | | | | | | | | | | e.e.e.e.",
"e.e.e.e.e.| | | | | | | | | | | | | | | | | | | | | | e.e.e.e.e.",
"e.e.e.e.e.e.| | | | | | | | | | | | | | | | | | | | e.e.e.e.e.e.",
"e.e.e.e.e.e.e.| | | | | | | | | | | | | | | | | | e.e.e.e.e.e.e.",
"e.e.e.e.e.e.e.e.e.| | | | | | | | | | | | | | e.e.e.e.e.e.e.e.e.",
"e.e.e.e.e.e.e.e.e.e.e.e.| | | | | | | | e.e.e.e.e.e.e.e.e.e.e.e."
};
