/* XPM */
static char *polaroid[] = {
/* columns rows colors chars-per-pixel */
"20 20 45 1 ",
"  c #4B5970",
". c #4C5A70",
"X c #4D5B72",
"o c #4E5C72",
"O c #4F5D73",
"+ c #58667A",
"@ c #59667B",
"# c #5C697D",
"$ c #5E6B7F",
"% c #5F6B7F",
"& c #687487",
"* c #71AAC9",
"= c #72ABCB",
"- c #76B2D3",
"; c #76B2D4",
": c #76B3D4",
"> c #77B3D4",
", c #77B4D5",
"< c #7EB6D5",
"1 c #7FB7D6",
"2 c #7FB8D7",
"3 c #8C94A2",
"4 c #8C95A3",
"5 c #979EAB",
"6 c #87BCD9",
"7 c #88BDDA",
"8 c #89BDDA",
"9 c #B7D0DE",
"0 c #BCDAEA",
"q c #BDDAEA",
"w c #C4D6E1",
"e c #C5D7E1",
"r c #D4DDE4",
"t c #D4DEE5",
"y c #D5DEE5",
"u c #D6DFE6",
"i c #C9E1EE",
"p c #CAE1EE",
"a c #DDE0E4",
"s c #DEE6EC",
"d c #E1E3E7",
"f c #EAF1F6",
"g c #EFF6FA",
"h c white",
"j c None",
/* pixels */
"jjjjjjj>>>>>>jjjjjjj",
"jjjjj>>>>>>>>>>jjjjj",
"jjj>>>>>>>>>>>>>>jjj",
"jj>>>>>>>>>>>>>>>>jj",
"jj>>10iipppeii01>>jj",
"j>>>6s53344335s6>>>j",
"j>>>7t#OOOO O#t7>>>j",
">>>>7t#OOOOOO#t7>>>>",
">>1=8u$oOOOOO+r6>>>>",
">>>18u$oOOOOO&r6>>>>",
">>--8u$oOOOOO+r6>>>>",
">>--8r$oOOOO &t6>>>>",
">>>>7u&@@@@@+&t7>>>>",
"j>>>8fduauduudf6>>>j",
"j>>>6fhhhhhhhhg6>>>j",
"jj>>19wwwwwwww91>>jj",
"jj>>>======*=*=>>>jj",
"jjj>>>>>>>>>>>>>>jjj",
"jjjjj>>>>>>>>>>jjjjj",
"jjjjjjj>>>>>>jjjjjjj"
};
