/* XPM */
static char *power[] = {
/* columns rows colors chars-per-pixel */
"32 32 96 2 ",
"   c #B25555",
".  c #BA5555",
"X  c #BB5757",
"o  c #BE5757",
"O  c #B25E5E",
"+  c #B45D5D",
"@  c #B65D5D",
"#  c #B55E5E",
"$  c #BE5858",
"%  c #B46565",
"&  c #B86969",
"*  c #BA6969",
"=  c #BD6B6B",
"-  c #BE7B7B",
";  c #C15858",
":  c #C25959",
">  c #C35959",
",  c #C45959",
"<  c #C55959",
"1  c #C45A5A",
"2  c #C55B5B",
"3  c #C65A5A",
"4  c #C65B5B",
"5  c #C75B5B",
"6  c #C55C5C",
"7  c #C65C5C",
"8  c #C75C5C",
"9  c #C75D5D",
"0  c #C16262",
"q  c #C96161",
"w  c #C96262",
"e  c #C86363",
"r  c #C86565",
"t  c #CA6464",
"y  c #CA6565",
"u  c #C96666",
"i  c #CA6666",
"p  c #CB6767",
"a  c #CA6A6A",
"s  c #CC6B6B",
"d  c #CD6E6E",
"f  c #CD6F6F",
"g  c #CE6F6F",
"h  c #CA7070",
"j  c #CE7171",
"k  c #CD7272",
"l  c #CF7272",
"z  c #C47D7D",
"x  c #CB8080",
"c  c #C58888",
"v  c #C48989",
"b  c #CE8D8D",
"n  c #D48383",
"m  c #D98F8F",
"M  c #D99191",
"N  c #D6A7A7",
"B  c #DDBDBD",
"V  c #DEBDBD",
"C  c #E2ABAB",
"Z  c #E3BFBF",
"A  c #E8BCBC",
"S  c #E5C7C7",
"D  c #EAC1C1",
"F  c #EAC2C2",
"G  c #EAC3C3",
"H  c #E6CFCF",
"J  c #E7CFCF",
"K  c #EDCACA",
"L  c #EACECE",
"P  c #EECFCF",
"I  c #ECD7D7",
"U  c #EDDCDC",
"Y  c #F0D2D2",
"T  c #F0D3D3",
"R  c #F1DDDD",
"E  c #F4DEDE",
"W  c #F0E1E1",
"Q  c #F6E4E4",
"!  c #F4EAEA",
"~  c #F4EBEB",
"^  c #F7EEEE",
"/  c #F8EBEB",
"(  c #F8ECEC",
")  c #F9ECEC",
"_  c #F9EDED",
"`  c #F9EFEF",
"'  c #FAEFEF",
"]  c #FBF8F8",
"[  c #FDF9F9",
"{  c #FDFAFA",
"}  c #FCFBFB",
"|  c #FEFCFC",
" . c #FEFDFD",
".. c #FFFEFE",
"X. c white",
"o. c None",
/* pixels */
"o.o.o.o.o.o.o.o.o.o.o.o.8 8 8 8 8 8 8 8 o.o.o.o.o.o.o.o.o.o.o.o.",
"o.o.o.o.o.o.o.o.o.8 8 8 8 8 8 8 8 8 8 8 8 8 8 o.o.o.o.o.o.o.o.o.",
"o.o.o.o.o.o.o.8 8 8 8 8 8 8 8 8 8 8 8 8 8 8 8 8 8 o.o.o.o.o.o.o.",
"o.o.o.o.o.o.8 8 8 8 8 8 8 8 8 8 8 8 8 8 8 8 8 8 8 8 o.o.o.o.o.o.",
"o.o.o.o.o.8 8 8 8 8 8 8 8 8 8 i i 8 8 8 8 8 8 8 8 8 8 o.o.o.o.o.",
"o.o.o.o.8 8 8 8 8 8 8 8 8 8 i K K i 8 8 8 8 8 8 8 8 8 8 o.o.o.o.",
"o.o.o.8 8 8 8 8 8 8 8 8 8 8 j / / d 8 8 8 8 8 8 8 8 8 8 8 o.o.o.",
"o.o.8 8 8 8 8 8 8 8 8 i 5 8 j / / j 8 i i 8 8 8 8 8 8 8 8 8 o.o.",
"o.o.8 8 8 8 8 8 8 8 n K A q d / / d d Y Y n 9 9 8 8 8 8 8 8 o.o.",
"o.8 8 8 8 8 8 8 8 m / X.J q d / / d i I X./ m 9 8 8 8 8 8 8 8 o.",
"o.8 8 8 8 8 8 8 n / X.B & 8 j / / j , % A X./ z 8 8 8 8 8 8 8 o.",
"o.8 8 8 8 8 8 i Y X.B @ 8 5 j / / j 8 o @ B X.I i 8 8 8 8 8 8 o.",
"8 8 8 8 8 8 8 M X.U = 8 8 8 d / / j 5 5 , = U X.m 8 8 8 8 8 8 8 ",
"8 8 8 8 8 8 8 D X.N 8 5 8 8 j / / j 5 5 8 8 N X.D 8 8 8 8 8 8 8 ",
"8 8 8 8 8 8 i E X.z 5 5 8 , d / / j 5 5 5 5 z X.E i 8 8 8 8 8 8 ",
"8 8 8 8 8 8 d / ~ d 5 5 8 8 d / / j 5 5 5 5 j ~ / d 8 8 8 8 8 8 ",
"8 8 8 8 8 8 d ~ ~ d 8 8 8 8 i S J i 8 8 5 5 d / / d 8 8 8 8 8 8 ",
"8 8 8 8 8 8 i E X.n , 8 8 8 8 @ @ 8 8 8 5 , n X.E i 8 8 8 8 8 8 ",
"8 8 8 8 8 8 , A X.C 8 8 8 8 5 8 , 8 8 8 8 8 C X.A 8 8 8 8 8 8 8 ",
"8 8 8 8 8 8 , b X.W d 8 8 8 5 5 8 8 8 8 8 j W X.b 8 8 8 8 8 8 8 ",
"o.8 8 8 8 8 8 & K X.D i 8 8 8 5 8 8 8 8 i D X.J q 8 8 8 8 8 8 o.",
"o.8 8 8 8 8 8 8 z ~ X.D d 8 , 5 8 , 8 d D X.~ z $ 8 8 8 8 8 8 o.",
"o.8 8 8 8 8 8 8 $ v ~ X.W C n j d n C E X.~ c o 8 8 8 8 8 8 8 o.",
"o.o.8 8 8 8 8 8 8 o - J X.X.X.~ / X.X.X.J - o 8 8 8 8 8 8 8 o.o.",
"o.o.8 8 8 8 8 8 8 8 o @ v B U ~ ~ U B v @ $ 8 8 8 8 8 8 8 8 o.o.",
"o.o.o.8 8 8 8 8 8 8 8 8 .   @ % % O   . 8 8 8 8 8 8 8 8 8 o.o.o.",
"o.o.o.o.8 8 8 8 8 8 8 8 8 8 8 $ $ 8 8 8 8 8 8 8 8 8 8 8 o.o.o.o.",
"o.o.o.o.o.8 8 8 8 8 8 8 8 8 8 8 8 8 8 8 8 8 8 8 8 8 8 o.o.o.o.o.",
"o.o.o.o.o.o.8 8 8 8 8 8 8 8 8 8 8 8 8 8 8 8 8 8 8 8 o.o.o.o.o.o.",
"o.o.o.o.o.o.o.8 8 8 8 8 8 8 8 8 8 8 8 8 8 8 8 8 8 o.o.o.o.o.o.o.",
"o.o.o.o.o.o.o.o.o.8 8 8 8 8 8 8 8 8 8 8 8 8 8 o.o.o.o.o.o.o.o.o.",
"o.o.o.o.o.o.o.o.o.o.o.o.8 8 8 8 8 8 8 8 o.o.o.o.o.o.o.o.o.o.o.o."
};
