/* XPM */
static char *power[] = {
/* columns rows colors chars-per-pixel */
"32 32 55 1 ",
"  c #373737",
". c #393838",
"X c #493C3C",
"o c #533E3E",
"O c #5A4040",
"+ c #614242",
"@ c #7A4848",
"# c #8B4D4D",
"$ c #914E4E",
"% c #9E5151",
"& c #A95454",
"* c #B55757",
"= c #BE5757",
"- c #B65858",
"; c #B25E5E",
": c #BE5A5A",
"> c #B46565",
", c #B86969",
"< c #BD6B6B",
"1 c #BE7B7B",
"2 c #C15858",
"3 c #C75C5C",
"4 c #C85C5C",
"5 c #C95D5D",
"6 c #C86363",
"7 c #C86565",
"8 c #CD6E6E",
"9 c #CE6F6F",
"0 c #CE7171",
"q c #C47D7D",
"w c #C58888",
"e c #CE8D8D",
"r c #D48383",
"t c #D98F8F",
"y c #D99191",
"u c #D6A7A7",
"i c #DDBDBD",
"p c #E2ABAB",
"a c #E3BFBF",
"s c #E8BCBC",
"d c #E5C7C7",
"f c #EAC1C1",
"g c #E6CFCF",
"h c #E7CFCF",
"j c #EDCACA",
"k c #ECD7D7",
"l c #EDDCDC",
"z c #F0D3D3",
"x c #F4DEDE",
"c c #F0E1E1",
"v c #F4EAEA",
"b c #F8EBEB",
"n c #F9EFEF",
"m c #FDF9F9",
"M c white",
/* pixels */
"          o@%*3333*%@X.         ",
"       .o$:4443333333=$O.       ",
"      X#:44343333333344=#X      ",
"     O&433334333333333444&O     ",
"    O-44333344477333333334-+    ",
"   O-4443333447jf7333333334-O   ",
"  X&43433334448bb04333333334&X  ",
"  #443333334730bb047733333333#  ",
" O:4333333rjs78bb88kzr4433334:O ",
" $4333333tbMj78bb87kMbt4333334$ ",
"o-443333rbMi,20bb8=,aMbq333333:o",
"@3333337zMi-340bb033-iMk7333333@",
"%433333yMc,3330bb044=,xMt333333%",
"-433333fMu34338bb04433uMa333333-",
"3333337xMq43338vb84333qMx7333333",
"3333338bv843338vb833440bb8333333",
"3333438cv833336hd733448bb8333333",
"3333436xMr=3333**43342rmx7333333",
"-33344=aMp333333333343pMa333333*",
"%333333tMc833333333340cMe333333%",
"@333333,jMf7333333436dMh7333333@",
"o-333333qvMf83333340sMvq333333=X",
" $443333=wvMcpr08rpcMvw:333333$ ",
" O:433333:1hMMMbvMMMh1=3333343o ",
"  #4333333:-wilvvliw*=3333334#  ",
"  X&43333333:&->>-**33333333&X  ",
"   O-3333333333:3:333333333=o   ",
"    +-43333333333333333333*o    ",
"     O&433333333333333334&o     ",
"      X#333333333333333:#X.     ",
"        X$-33333333343$o..      ",
"          O@%-3333-%@o.         "
};
