/* XPM */
static char *print[] = {
/* columns rows colors chars-per-pixel */
"32 32 119 2 ",
"   c #4B596E",
".  c #4E5C72",
"X  c #515D71",
"o  c #546176",
"O  c #5C6777",
"+  c #5B6779",
"@  c #5D697C",
"#  c #A05757",
"$  c #A05B5A",
"%  c #B65656",
"&  c #BA5656",
"*  c #B45B5A",
"=  c #BF5858",
"-  c #AA6666",
";  c #A56865",
":  c #B56C69",
">  c #AF7B76",
",  c #BA7D78",
"<  c #C75C5C",
"1  c #C85E5E",
"2  c #C46362",
"3  c #C96362",
"4  c #CB6B6A",
"5  c #CE7372",
"6  c #CD7E7B",
"7  c #D27B7B",
"8  c #CC837F",
"9  c #6A7685",
"0  c #727C8A",
"q  c #7B8690",
"w  c #77B3D4",
"e  c #7BB5D5",
"r  c #8C949C",
"t  c #919A9F",
"y  c #BD8080",
"u  c #BD968F",
"i  c #8E95A0",
"p  c #9DA5A7",
"a  c #A6ADAD",
"s  c #A8AFAE",
"d  c #AAAFB8",
"f  c #AEB2BA",
"g  c #B4BAB6",
"h  c #BCBDB4",
"j  c #B9BFBA",
"k  c #D68A89",
"l  c #C1928B",
"z  c #D2928C",
"x  c #CE9D9D",
"c  c #DB9493",
"v  c #D49891",
"b  c #DB9C9C",
"n  c #C9A89F",
"m  c #D7A69D",
"M  c #D8ACA3",
"N  c #CAB1A7",
"B  c #CFB8AD",
"V  c #D7B0A6",
"C  c #D7B2A9",
"Z  c #DAB9AE",
"A  c #DBBDB2",
"S  c #E1A4A3",
"D  c #E5AFAE",
"F  c #E4B0B0",
"G  c #EBBFBF",
"H  c #BCC1BB",
"J  c #C6C6BB",
"K  c #CACABD",
"L  c #D3C1B5",
"P  c #DAC1B6",
"I  c #D4C6B9",
"U  c #DCC8BC",
"Y  c #84BAD8",
"T  c #8ABEDA",
"R  c #94C3DD",
"E  c #99C6DF",
"W  c #9DC9E1",
"Q  c #A5CDE3",
"!  c #A8CFE5",
"~  c #ABD0E4",
"^  c #B1D4E7",
"/  c #B4D6E9",
"(  c #BFDDED",
")  c #C7CAC1",
"_  c #CCCDC4",
"`  c #DDCFC2",
"'  c #D4D2C5",
"]  c #DBD2C5",
"[  c #D7D5CB",
"{  c #DFDECF",
"}  c #CACDD1",
"|  c #CFD1D4",
" . c #DED7D4",
".. c #DCDBD1",
"X. c #DBDCDD",
"o. c #EBC2C2",
"O. c #EFCBCB",
"+. c #E2DCD7",
"@. c #E6DAD9",
"#. c #F4DAD9",
"$. c #E1E3D4",
"%. c #C2DDEC",
"&. c #C8E1EF",
"*. c #CBE3F0",
"=. c #D5EAF4",
"-. c #DBEBF4",
";. c #E3E4E4",
":. c #EFEFED",
">. c #F6E2E2",
",. c #F5EBEC",
"<. c #E1F0F7",
"1. c #EEF1F3",
"2. c #EBF4F9",
"3. c #F6F3F4",
"4. c #FAF3F3",
"5. c #F0F5F8",
"6. c #F6FAFC",
"7. c #FEFEFE",
"8. c None",
/* pixels */
"8.8.8.8.8.8.8.8.8.8.8.8.1 < < < < < 1 < 8.8.8.8.8.8.8.8.8.8.8.8.",
"8.8.8.8.8.8.8.8.8.< 1 < < < < < < < < < < < 1 8.8.8.8.8.8.8.8.8.",
"8.8.8.8.8.8.8.< < < < < < < < < < 1 < < < < < < 1 8.8.8.8.8.8.8.",
"8.8.8.8.8.8.< < 1 < < < < < < 1 < < < < < < < < < < 8.8.8.8.8.8.",
"8.8.8.8.8.< < < < < < < < < < < < < < < < < < < < < 1 8.8.8.8.8.",
"8.8.8.8.< < 1 < < < < < < < < < < < < < < < < < < < < < 8.8.8.8.",
"8.8.8.< < < < < < < < < < < 3 5 k S b 3 < < < < < < < < < 8.8.8.",
"8.8.< < < < < < < 3 5 k S G #.,.3.2.4.7 < < < < < 1 < < < 1 8.8.",
"8.8.< < < 4 k S o.#.,.3.2.=.( Q R R 2.x 2 < < < < < < < < < 8.8.",
"8.< < < 1 o.6.2.=.( Q W Y e w w w e -.X.A Z M z 6 4 3 1 < < < 8.",
"8.1 < < < O.-.Y w w w w w w w w w w &.X.r a j _ ' ] C 3 < < < 8.",
"8.< < < < D <.e w w w w w e w w w w ^ ;.+ . o @ 9 s ` 4 < < 1 8.",
"< < < 1 < c 5.T w w w w w w w w w w E 1.0 . . .   a A 1 < < < < ",
"< < < < < 7 3.Q w w w w w w w w w w Y 2.r . . . X g M < < < < < ",
"< 1 < < < 4 #./ w w w w w w w w w w e -.f . . . + ) v < < < < 1 ",
"< < < < < < O.*.w w w w w w w w w w e *.} . . . 9 ' 8 < < < < < ",
"< < < < < < D <.Y w w w w w w w w e w ~ ;.+ . . q ' 5 < < < 1 < ",
"< < < < < < c 1.T w w w w w w w w w w W 1.0 . . t U 3 < < < < < ",
"< < < < < < 7 4.W w w w w w w w w e Y Q 6.r   . a Z 1 < 1 < < < ",
"< < < < < < 4 >.~ w w w e T R ! %.=.2.6.7.d   O j m < < < < < < ",
"8.< < < < < 1 O.=.R ~ %.-.2.6.7.7.7.7.7.7.}   @ _ k < < < < < 8.",
"8.1 < < < < < D 7.6.7.7.7.7.7.7.7.7.7.7.7.| o q ' 6 < < < < 1 8.",
"8.< < < < < < c 7.7.7.7.7.7.7.7.3.:.;.[ _ h h ) U 4 < < 1 < < 8.",
"8.8.< 1 < < < 7 4.7.6.,.@. .[ ) K J J K ' [ { $.P 3 < < < < 8.8.",
"8.8.< < 1 < < 3 c n , - # # ; > u N I ] { $.$.$.C 1 < 1 < < 8.8.",
"8.8.8.1 < < < < < % & < = < < & % * * : , l n B 8 < < < < 8.8.8.",
"8.8.8.8.< < < < 1 1 < 1 < < < < < < < < = & % * = < < < 8.8.8.8.",
"8.8.8.8.8.< < < < < < < < < < < < < < < < < 1 < 1 < < 8.8.8.8.8.",
"8.8.8.8.8.8.1 < < < < < 1 < < < < < < < < < < < < < 8.8.8.8.8.8.",
"8.8.8.8.8.8.8.< 1 < < < < < < < < < < < < < < < < 8.8.8.8.8.8.8.",
"8.8.8.8.8.8.8.8.8.< < < < < < < < < < < < 1 < 8.8.8.8.8.8.8.8.8.",
"8.8.8.8.8.8.8.8.8.8.8.8.< < < 1 < < < < 8.8.8.8.8.8.8.8.8.8.8.8."
};
