<?xml version="1.0" standalone="no"?>
<!DOCTYPE svg PUBLIC "-//W3C//DTD SVG 1.1//EN" "http://www.w3.org/Graphics/SVG/1.1/DTD/svg11.dtd" >
<svg xmlns="http://www.w3.org/2000/svg" xmlns:xlink="http://www.w3.org/1999/xlink" version="1.1">
<metadata></metadata>
<defs>
<font id="pfennigmedium" horiz-adv-x="1435" >
<font-face units-per-em="2048" ascent="1638" descent="-410" />
<missing-glyph horiz-adv-x="409" />
<glyph unicode="&#x268;&#x300;" horiz-adv-x="512" d="M21 0zM131 1458l240 -333l-64 -54l-286 295zM178 901h164v-280h127v-103h-127v-518h-164v518h-133v103h133v280z" />
<glyph unicode="&#x268;&#x301;" horiz-adv-x="512" d="M45 0zM393 1458l111 -92l-287 -295l-63 54zM178 901h164v-280h127v-103h-127v-518h-164v518h-133v103h133v280z" />
<glyph unicode="&#x268;&#x302;" horiz-adv-x="512" d="M0 0zM539 1164l-92 -91l-183 177l-184 -177l-92 91l276 208zM178 901h164v-280h127v-103h-127v-518h-164v518h-133v103h133v280z" />
<glyph unicode="&#x268;&#x30c;" horiz-adv-x="512" d="M21 0zM21 1045zM260 1045l-239 334l63 53l176 -180l176 180l64 -53zM178 901h164v-280h127v-103h-127v-518h-164v518h-133v103h133v280z" />
<glyph unicode="&#xfb00;" horiz-adv-x="1134" d="M524 1239q-24 31 -80 31t-85 -49t-29 -179v-141h411v195q0 125 67.5 200.5t188.5 75.5q85 0 146 -22l-43 -111q-25 31 -81 31t-85 -49t-29 -179v-141h162v-102h-162v-799h-164v799h-411v-799h-164v799h-135l30 102h105v195q0 125 67.5 200.5t188.5 75.5q84 0 145 -22z " />
<glyph unicode="fi" horiz-adv-x="985" d="M524 1239q-24 31 -80 31t-85 -49t-29 -179v-141h534v-901h-164v799h-370v-799h-164v799h-135l30 102h105v195q0 125 67.5 200.5t188.5 75.5q84 0 145 -22zM700 1229h164v-164h-164v164z" />
<glyph unicode="fl" horiz-adv-x="985" d="M815 1352v-1352h-164v1194q-18 34 -65 55t-115 21t-104.5 -50.5t-36.5 -177.5v-141h162v-102h-162v-799h-164v799h-135l30 102h105v195q0 124 77 200t209 76t199 -37v17h164z" />
<glyph unicode="&#xfb03;" horiz-adv-x="1560" d="M1276 1229h164v-164h-164v164zM524 1239q-24 31 -80 31t-85 -49t-29 -179v-141h411v195q0 125 67.5 200.5t188.5 75.5q85 0 146 -22l-43 -111q-25 31 -81 31t-85 -49t-29 -179v-141h535v-901h-164v799h-371v-799h-164v799h-411v-799h-164v799h-135l30 102h105v195 q0 125 67.5 200.5t188.5 75.5q84 0 145 -22z" />
<glyph unicode="&#xfb04;" horiz-adv-x="1511" d="M330 799v-799h-164v799h-135l30 102h105v195q0 125 67.5 200.5t188.5 75.5q84 0 145 -22l-43 -111q-24 31 -80 31t-85 -49t-29 -179v-141h411v195q0 124 77 200t209 76t200 -37v17h164v-1352h-164v1194q-18 34 -65 55t-115 21t-105 -50.5t-37 -177.5v-141h162v-102h-162 v-799h-164v799h-411z" />
<glyph unicode=" "  horiz-adv-x="409" />
<glyph unicode="&#x09;" horiz-adv-x="409" />
<glyph unicode="&#xa0;" horiz-adv-x="409" />
<glyph unicode="!" horiz-adv-x="356" d="M92 164h164v-164h-164v164zM256 1434l-31 -1065h-102l-31 1065h164z" />
<glyph unicode="&#x22;" horiz-adv-x="540" d="M92 1024zM236 1434l-31 -410h-82l-31 410h144zM441 1434l-31 -410h-82l-31 410h144z" />
<glyph unicode="#" horiz-adv-x="991" d="M373 410l-51 -287h-146l51 287h-125v102h142l59 328h-149v102h165l52 287h145l-51 -287h156l49 287h145l-49 -287h123v-102h-141l-58 -328h148v-102h-166l-49 -287h-146l49 287h-153zM389 512h156l57 328h-153z" />
<glyph unicode="$" horiz-adv-x="860" d="M729 1087l-119 -71q-65 53 -78 61v-325q128 -44 192 -121t64 -179.5t-69.5 -180.5t-186.5 -107v-164h-73v152q-16 -2 -51 -2h-31v-150h-74v160q-81 16 -155 66q-26 18 -87 61l89 75q8 -5 28.5 -20t27.5 -19.5t23 -15t25 -15.5q28 -16 49 -22v412q-113 38 -177.5 107 t-64.5 169t66 168.5t176 83.5v142h74v-138q41 0 82 -6v144h73v-160q88 -30 197 -105zM303 825v260q-78 -47 -78 -129.5t78 -130.5zM377 662v-408q18 -2 61 -2h21v391q-26 7 -82 19zM377 791q34 -10 82 -19v336q-32 4 -54 4t-28 -2v-319zM532 272q93 49 93 191q0 88 -93 147 v-338z" />
<glyph unicode="%" horiz-adv-x="1089" d="M682 369q0 -43 30.5 -74t73.5 -31t74 31t31 74t-31 73.5t-74 30.5t-73.5 -30.5t-30.5 -73.5zM573 369q0 89 62 151t151 62t151 -62t62 -151t-62 -151t-151 -62t-151 62t-62 151zM190 942q0 -43 31 -73.5t74 -30.5t73.5 30.5t30.5 73.5t-30.5 74t-73.5 31t-74 -31t-31 -74 zM82 942q0 89 62 151t151 62t151 -62t62 -151t-62 -151t-151 -62t-151 62t-62 151zM82 264l760 783h157l-759 -783h-158z" />
<glyph unicode="&#x26;" horiz-adv-x="1163" d="M889 1208l-158 -34q-24 51 -42 68q-28 28 -97.5 28t-105 -57.5t-35.5 -122.5q0 -66 33 -148q44 -110 114 -217l279 -436q86 187 86 588l122 -48q0 -404 -151 -630l127 -199h-133l-70 109q-132 -129 -334 -129t-332.5 129.5t-130.5 341.5q0 164 86 284t213 164 q-49 100 -49 182q0 155 71.5 223t235.5 68q197 0 271 -164zM418 799q-86 -37 -139.5 -128.5t-53.5 -239.5t91.5 -248.5t246.5 -100.5t246 102z" />
<glyph unicode="'" horiz-adv-x="335" d="M236 1434l-31 -410h-82l-31 410h144z" />
<glyph unicode="(" horiz-adv-x="548" d="M128 446q-26 128 -26 251.5t13.5 220t34.5 166t47 130t52 100.5q55 83 95 120h102q-111 -161 -160 -462q-20 -124 -20 -256t18 -254q16 -111 46 -202q56 -168 98 -232l18 -28h-102q-30 24 -78 96t-80 147t-58 203z" />
<glyph unicode=")" horiz-adv-x="548" d="M420 988q26 -128 26 -251.5t-13.5 -220t-34.5 -166.5t-47 -130q-28 -65 -51 -100q-53 -82 -95 -120h-103q114 164 162 462q20 121 20 249v7q0 132 -19 254t-46 202q-57 170 -99 232l-18 28h103q30 -24 77.5 -96t79.5 -147t58 -203z" />
<glyph unicode="*" horiz-adv-x="864" d="M391 1057l-22 295h127l-23 -295l275 112l38 -120l-288 -70l192 -225l-102 -76l-156 252l-156 -252l-102 76l193 225l-289 70l39 120zM391 1057zM367 979zM432 930zM498 979zM473 1057z" />
<glyph unicode="+" horiz-adv-x="856" d="M479 348v-295h-102v295h-295v103h295v294h102v-294h295v-103h-295z" />
<glyph unicode="," horiz-adv-x="356" d="M98 164h148q0 -237 -64 -344q-12 -19 -14 -23h-76q49 69 49 152q0 25 -21.5 95t-21.5 120z" />
<glyph unicode="-" horiz-adv-x="649" d="M82 451h485v-103h-485v103z" />
<glyph unicode="." horiz-adv-x="356" d="M92 164h164v-164h-164v164z" />
<glyph unicode="/" horiz-adv-x="831" d="M762 1434l-580 -1434h-121l580 1434h121z" />
<glyph unicode="0" horiz-adv-x="942" d="M748 543q0 110 -34 215q-33 106 -95 176t-137 70q-74 0 -141 -68t-106.5 -175t-39.5 -206t18 -179.5t52.5 -147t91 -106.5t128.5 -40t134 70.5t95.5 175.5t33.5 215zM911 543q0 -156 -58.5 -284.5t-164 -203.5t-234.5 -75t-227 81.5t-147 208.5t-49 270t62.5 274.5 t160.5 211.5t214 80t221 -75t163.5 -203.5t58.5 -284.5z" />
<glyph unicode="1" horiz-adv-x="942" d="M573 1096v-1096h-163v973l-105 -12v102z" />
<glyph unicode="2" horiz-adv-x="942" d="M123 0q1 184 105 302q74 83 172 150.5t144 106.5q104 88 105 203q0 113 -53 167t-124 54q-159 0 -220 -156l-129 50q99 208 377 208q133 0 222.5 -92t89.5 -227.5t-104 -229.5q-59 -53 -164.5 -123t-151.5 -109q-104 -88 -105 -202h532v-102h-696z" />
<glyph unicode="3" horiz-adv-x="942" d="M379 422v102q260 0 260 236q0 112 -53.5 167.5t-129 55.5t-119.5 -38t-75 -118l-129 50q47 98 129 153t221 55t229.5 -93t90.5 -232q0 -202 -164 -287q203 -98 203 -358q0 -148 -109.5 -260.5t-250.5 -112.5t-239 59.5t-143 153.5l129 49q30 -76 89.5 -118t136 -42 t150 79.5t73.5 191.5q0 127 -64 213q-72 94 -235 94z" />
<glyph unicode="4" horiz-adv-x="942" d="M96 68l475 1017h164v-983h111v-102h-111v-238h-164v238h-475v68zM571 102v742l-346 -742h346z" />
<glyph unicode="5" horiz-adv-x="942" d="M182 555l92 530h459v-102h-311l-57 -336q317 -33 418 -213q59 -105 59 -268q0 -93 -30 -174q-30 -80 -80 -134q-107 -116 -249 -116t-240 59.5t-143 153.5l129 49q30 -76 89.5 -118t140.5 -42q73 0 141 78q78 88 78 244q0 287 -253 360q-100 29 -243 29z" />
<glyph unicode="6" horiz-adv-x="942" d="M285 555q-11 -97 -11 -170q0 -145 52.5 -224t136 -79t144.5 80.5t61 180t-57 171.5t-139 72t-187 -31zM309 674q60 14 137 14q162 0 273.5 -94.5t111.5 -242.5t-100.5 -259.5t-252 -111.5t-259.5 110t-108 295q1 297 153 561q71 123 190 245q66 66 136 118q70 51 90 63 l20 12l70 -61q-53 -31 -124 -93.5t-128 -130.5t-117.5 -183t-91.5 -242z" />
<glyph unicode="7" horiz-adv-x="942" d="M170 1085h633v-102l-328 -1221h-166l328 1221h-498z" />
<glyph unicode="8" horiz-adv-x="942" d="M520 821q156 115 156 264q0 111 -64.5 189t-139 78t-131 -68t-56.5 -182q1 -104 73 -170q58 -54 162 -111zM645 752q173 -109 217 -251q18 -61 19 -136q0 -169 -115.5 -277t-297.5 -108t-294.5 113.5t-112.5 271.5q0 249 256 395q-63 39 -105 80t-71.5 108.5t-29.5 159 t52.5 173t140 127.5t188.5 46q149 0 253.5 -105.5t104.5 -263.5q0 -193 -205 -333zM430 698q-194 -109 -194 -333q0 -119 67 -201t181 -82q223 0 223 283q0 118 -65 187q-64 67 -152 114q-20 11 -60 32z" />
<glyph unicode="9" horiz-adv-x="942" d="M657 530q11 97 11 170q0 141 -65.5 222.5t-149.5 81.5q-179 0 -179 -271q0 -89 57 -161t140.5 -72t185.5 30zM633 412q-65 -15 -137 -15q-162 0 -273.5 94.5t-111.5 244.5t104 260t268 110q133 0 239 -108q109 -111 109 -295q-1 -300 -153 -564q-68 -119 -190 -245 q-64 -66 -135 -118t-91 -64l-20 -11l-70 61q112 66 232 204q166 194 229 446z" />
<glyph unicode=":" horiz-adv-x="356" d="M92 0zM92 164h164v-164h-164v164zM92 778h164v-164h-164v164z" />
<glyph unicode=";" horiz-adv-x="356" d="M92 0zM98 164h148q0 -237 -64 -344q-12 -19 -14 -23h-76q49 69 49 152q0 25 -21.5 95t-21.5 120zM92 778h164v-164h-164v164z" />
<glyph unicode="&#x3c;" horiz-adv-x="856" d="M115 504l567 397l59 -84l-448 -313l448 -311l-59 -84z" />
<glyph unicode="=" horiz-adv-x="708" d="M82 676h545v-103h-545v103zM82 451h545v-103h-545v103z" />
<glyph unicode="&#x3e;" horiz-adv-x="856" d="M741 506l-567 -397l-59 84l448 313l-448 311l59 84z" />
<glyph unicode="?" horiz-adv-x="882" d="M297 164h164v-164h-164v164zM446 483l-16 -114h-102l-31 215h72q125 0 206.5 79t81.5 244.5t-77.5 264t-221.5 98.5q-94 0 -146 -56q-22 -24 -48 -67l-123 47q68 86 149 132t199 46q199 0 315.5 -127.5t116.5 -343.5q0 -275 -236 -381q-66 -30 -139 -37z" />
<glyph unicode="@" horiz-adv-x="1331" d="M872 745l-4 -233q0 -86 14.5 -116.5t43.5 -30.5q125 0 125 358q0 93 -32 172t-82 128q-105 103 -210 103t-186 -33t-145.5 -95t-102 -161.5t-37.5 -215.5t33 -207.5t85 -151.5q54 -60 120 -101q125 -79 258 -79q238 0 356 182l121 -55q-80 -103 -213.5 -166t-294.5 -63 q-177 0 -339 100q-186 114 -259 304q-41 106 -41 223t36.5 216.5t97.5 172t139 126.5q156 107 324 107h3q244 0 393.5 -137t149.5 -369q0 -113 -49.5 -221t-126.5 -174t-148 -66t-100 57q-58 -40 -154 -40q-221 0 -221 335q0 137 65 224.5t159.5 87.5t158 -45t63.5 -136z M766 512l4 233q0 38 -30.5 76.5t-63.5 38.5q-71 0 -108.5 -67.5t-37.5 -181t34 -190.5t102 -77q44 0 65.5 11t42.5 42q-8 41 -8 115z" />
<glyph unicode="A" horiz-adv-x="1298" d="M39 0l522 1434h180l523 -1434h-164l-150 410h-598l-149 -410h-164zM651 1231l-262 -719h524z" />
<glyph unicode="B" horiz-adv-x="1116" d="M348 727v-625h266q122 0 186 83.5t64 181t-25 172.5t-84 131.5t-141 56.5h-266zM780 795q128 -52 193 -165.5t65 -242.5q0 -161 -105 -270q-113 -117 -349 -117h-410v1434h369q269 0 359 -151q50 -84 50 -208q0 -65 -41.5 -145.5t-130.5 -134.5zM348 1331v-502h180 q62 0 112 27q50 26 79 66q59 80 59 153q0 114 -58 189q-51 67 -147 67h-225z" />
<glyph unicode="C" horiz-adv-x="1331" d="M1249 209q-80 -103 -213.5 -166t-294.5 -63q-177 0 -340 113q-185 129 -258 351q-41 126 -41 273.5t37 272t97 208.5t139 143q151 113 327 113q373 0 541 -209l-153 -67q-55 78 -145 126t-196.5 48t-187.5 -39.5t-145.5 -115.5t-102 -200t-37.5 -267t33 -252 q33 -108 85 -180q54 -72 120 -122q170 -86 258 -94q238 0 356 182z" />
<glyph unicode="D" horiz-adv-x="1304" d="M670 0h-496v1434h496q534 0 534 -697q0 -361 -142.5 -549t-391.5 -188zM348 1331v-1229h352q137 0 230 147q100 157 100 488q0 375 -139 515q-78 79 -188 79h-3h-352z" />
<glyph unicode="E" horiz-adv-x="1118" d="M1034 0h-860v1434h827v-103h-653v-430h469v-102h-469v-697h686v-102z" />
<glyph unicode="F" horiz-adv-x="1067" d="M174 0v1434h827v-103h-653v-430h469v-102h-469v-799h-174z" />
<glyph unicode="G" horiz-adv-x="1372" d="M913 819h336v-610q-80 -103 -213.5 -166t-294.5 -63q-177 0 -340 113q-185 129 -258 351q-41 126 -41 273t37 269t97 204t139 138q149 106 327 106q389 0 541 -189l-153 -67q-108 153 -357 153q-187 0 -317 -145q-140 -156 -140 -469q0 -130 33 -239q33 -108 85 -180 q54 -72 120 -122q170 -86 258 -94q195 0 313 127v508h-172v102z" />
<glyph unicode="H" horiz-adv-x="1351" d="M348 1434v-615h660v615h174v-1434h-174v717h-660v-717h-174v1434h174z" />
<glyph unicode="I" horiz-adv-x="514" d="M346 1434v-1434h-174v1434h174z" />
<glyph unicode="J" horiz-adv-x="954" d="M788 487q0 -211 -25 -292t-54 -115.5t-79 -58.5q-85 -41 -252 -41t-343 92l102 106q137 -96 252 -96q140 0 179 58q33 48 38 102q8 74 8 200v992h174v-947z" />
<glyph unicode="K" horiz-adv-x="1243" d="M348 469v-469h-174v1434h174v-738l656 738h204l-585 -658l610 -776h-193l-520 662z" />
<glyph unicode="L" horiz-adv-x="1083" d="M348 102h686v-102h-860v1434h174v-1332z" />
<glyph unicode="M" horiz-adv-x="1626" d="M348 1098v-1098h-174v1434h174l467 -1002l467 1002h174v-1434h-174v1098l-467 -996z" />
<glyph unicode="N" horiz-adv-x="1406" d="M1059 0l-711 1157v-1157h-174v1434h176l713 -1160v1160h174v-1434h-178z" />
<glyph unicode="O" d="M946 24q-112 -44 -218.5 -44t-190 27t-162.5 86t-139.5 143t-97 208.5t-36.5 272.5t34 273q34 124 92 208q61 88 134 144q146 112 324 112q214 0 374 -112q277 -193 277 -622q0 -190 -51 -333q-51 -144 -139.5 -231.5t-200.5 -131.5zM703 1352q-62 0 -120 -24t-113 -76 q-54 -52 -98 -125q-96 -160 -96 -410q0 -129 30 -238.5t78 -180.5q48 -72 107 -122q112 -94 226 -94q132 0 244 100q202 181 202 535q0 370 -209 541q-115 94 -251 94z" />
<glyph unicode="P" horiz-adv-x="1089" d="M348 655v-655h-174v1434h420q263 0 382 -182q62 -95 62 -208q0 -112 -64 -208q-120 -181 -380 -181h-246zM348 1331v-573h277q124 0 185 98q54 87 54 188t-54 189q-60 98 -185 98h-277z" />
<glyph unicode="Q" d="M391.5 1190q-115.5 -162 -115.5 -473q0 -369 199 -541q109 -94 242 -94q171 0 303 156q64 76 103.5 200t39.5 283t-39 285q-40 124 -106 198q-133 148 -322 148t-304.5 -162zM625 -14q-205 33 -356 206q-76 87 -121.5 222.5t-45.5 293t34 282.5q34 124 92 208 q61 88 134 144q146 112 324 112q214 0 374 -112q277 -193 277 -622q0 -343 -158 -528q-147 -174 -378 -206q18 -65 79 -120t135 -83.5t140 -28.5v-102q-133 0 -231 35.5t-154 72.5t-96 95.5t-49 130.5z" />
<glyph unicode="R" horiz-adv-x="1118" d="M348 655v-655h-174v1434h420q263 0 382 -182q62 -95 62 -208q0 -107 -62 -208q-69 -111 -214 -156q104 -104 205.5 -322t101.5 -358h-168q0 142 -108 355t-222 300h-223zM348 1331v-573h277q124 0 185 98q54 87 54 188t-54 189q-60 98 -185 98h-277z" />
<glyph unicode="S" horiz-adv-x="1187" d="M102 350l160 31q15 -117 116 -208t202 -91q157 0 242 75t85 208q0 121 -94 199q-74 61 -176.5 103.5t-164 69t-117.5 60t-99 73.5q-94 89 -94 232q0 96 61.5 178.5t157 128t216.5 45.5t236 -63.5t179 -165.5l-152 -43q-92 170 -299 170q-116 0 -188 -116 q-37 -60 -37 -124t25.5 -108t68.5 -75.5t99 -59.5t117.5 -54.5t123.5 -54.5t118 -65t99 -81q94 -97 94 -257t-141.5 -268.5t-374.5 -108.5q-149 0 -287.5 111t-175.5 259z" />
<glyph unicode="T" horiz-adv-x="1280" d="M41 1434h1202v-103h-516v-1331h-174v1331h-512v103z" />
<glyph unicode="U" horiz-adv-x="1402" d="M1073 1434h174v-824q0 -420 -230 -555q-127 -75 -321 -75q-158 0 -284 75q-74 44 -129 111.5t-91 182t-36 261.5v824h174v-824q0 -407 244 -502q67 -26 126.5 -26t106.5 13t97 49.5t86 93.5q83 131 83 372v824z" />
<glyph unicode="V" horiz-adv-x="1153" d="M489 0l-464 1434h151l404 -1239l403 1239h152l-465 -1434h-181z" />
<glyph unicode="W" horiz-adv-x="1771" d="M500 0l-465 1434h151l404 -1241l231 708h137l232 -708l403 1241h152l-465 -1434h-180l-209 645l-211 -645h-180z" />
<glyph unicode="X" horiz-adv-x="1191" d="M258 0h-172l391 758l-350 676h174l262 -508l262 508h174l-348 -676l391 -758h-174l-305 590z" />
<glyph unicode="Y" horiz-adv-x="952" d="M479 899l273 535h184l-371 -725v-709h-174v711l-368 723h184z" />
<glyph unicode="Z" horiz-adv-x="1040" d="M750 1331h-678l30 103h873l-690 -1332h698v-102h-922z" />
<glyph unicode="[" horiz-adv-x="432" d="M340 0h-248v1352h248v-82h-135v-1188h135v-82z" />
<glyph unicode="\" horiz-adv-x="831" d="M61 1434h121l580 -1434h-121z" />
<glyph unicode="]" horiz-adv-x="432" d="M92 1352h248v-1352h-248v82h135v1188h-135v82z" />
<glyph unicode="^" horiz-adv-x="856" d="M426 819l397 -569l-82 -57l-315 446l-311 -446l-82 57z" />
<glyph unicode="_" horiz-adv-x="692" d="M0 -82h692v-102h-692v102z" />
<glyph unicode="`" horiz-adv-x="497" d="M74 1255zM184 1642l240 -333l-64 -54l-286 295z" />
<glyph unicode="a" horiz-adv-x="974" d="M115 829q178 93 323 93q188 0 270 -41q48 -24 76 -58.5t46 -95.5q28 -99 28 -313v-414h-164v16q-113 -36 -223 -36q-174 0 -275.5 78.5t-101.5 252.5q0 197 174 273q89 40 195 40h3q108 0 224 -18q-6 120 -51.5 166.5t-165 46.5t-256.5 -96zM694 125v373q-93 22 -193 22 t-171.5 -54t-71.5 -156t73 -165t173 -63t190 43z" />
<glyph unicode="b" horiz-adv-x="1079" d="M303 852q106 70 235.5 70t217.5 -37t138.5 -103t74.5 -148.5t24 -182.5t-24.5 -182.5t-75.5 -148.5q-108 -140 -344 -140q-229 0 -325 106q-84 94 -85 283v983h164v-500zM303 471v-168q1 -189 195 -216q36 -5 90.5 -5t103.5 33t78 87t44 117.5t15 131.5t-15 131.5 t-44 117.5q-64 119 -190 119q-91 -1 -155 -49q-122 -92 -122 -299z" />
<glyph unicode="c" horiz-adv-x="1017" d="M932 158q-141 -178 -379 -178q-202 0 -332.5 129.5t-130.5 341.5q0 104 37 194q37 89 97 149q129 128 275.5 128t243.5 -67.5t150 -178.5l-133 -68q-26 97 -81 154t-136 57q-120 0 -204.5 -102t-84.5 -268t91.5 -266.5t239.5 -100.5t224 123z" />
<glyph unicode="d" horiz-adv-x="1089" d="M780 823v529h164v-1352h-164v47q-105 -67 -276 -67q-190 0 -304 140q-110 136 -110 331q0 129 49.5 235.5t145.5 171t235.5 64.5t259.5 -99zM780 398q0 78 -12 148t-38.5 133.5t-76.5 101.5t-125.5 38t-141.5 -56.5t-99 -139.5t-33 -172t33 -172.5t99 -140t149 -56.5 q93 0 166 75q79 81 79 241z" />
<glyph unicode="e" horiz-adv-x="1028" d="M932 158q-141 -178 -379 -178q-202 0 -332.5 129.5t-130.5 341.5q0 104 37 194q37 89 97 149q129 128 288 128q103 0 187 -42q83 -42 135 -110q108 -143 108 -319h-688q0 -168 91.5 -268.5t239.5 -100.5t224 123zM264 553h506q-18 120 -76 193t-154 73t-173 -72 t-103 -194z" />
<glyph unicode="f" horiz-adv-x="559" d="M524 1239q-24 31 -80 31t-85 -49t-29 -179v-141h162v-102h-162v-799h-164v799h-135l30 102h105v195q0 125 67.5 200.5t188.5 75.5q84 0 145 -22z" />
<glyph unicode="g" horiz-adv-x="1038" d="M893 901v-741q0 -214 -23 -294t-51 -114q-29 -34 -77 -59q-83 -41 -249.5 -41t-342.5 92l102 106q137 -96 252 -96q71 0 113.5 13t66.5 47q41 57 45 209q-97 -43 -207 -43q-199 0 -315.5 127.5t-116.5 339.5t115.5 343.5t264.5 131.5t259 -78v57h164zM729 145v463 q-26 97 -81 154t-136 57q-116 0 -187 -100t-71 -270t77.5 -268.5t221.5 -98.5q107 0 176 63z" />
<glyph unicode="h" horiz-adv-x="1087" d="M311 723v-723h-164v1352h164v-482q99 52 209 52q216 0 322 -106t106 -324v-492h-164v467q0 210 -64 284q-58 68 -178 68t-231 -96z" />
<glyph unicode="i" horiz-adv-x="407" d="M123 1249h164v-164h-164v164zM123 901h164v-901h-164v901z" />
<glyph unicode="j" horiz-adv-x="536" d="M33 -195q36 -51 102 -51t91.5 58.5t25.5 187.5v901h164v-969q0 -204 -196 -264q-52 -16 -109 -16q-130 0 -207 92zM252 1249h164v-164h-164v164z" />
<glyph unicode="k" horiz-adv-x="980" d="M311 268v-268h-164v1352h164v-875l377 424h189l-357 -399l393 -502h-176l-313 395z" />
<glyph unicode="l" horiz-adv-x="456" d="M311 1352v-1352h-164v1352h164z" />
<glyph unicode="m" horiz-adv-x="1605" d="M311 729v-729h-164v901h164v-27q82 48 178 48q216 0 310 -107q58 45 135 76t139 31q191 0 292 -107.5t101 -322.5v-492h-163v500q0 196 -59 262q-50 56 -128 57q-166 0 -227 -100v-719h-164v500q0 199 -50 262q-27 34 -62 45.5t-93 11.5q-116 0 -209 -90z" />
<glyph unicode="n" horiz-adv-x="1087" d="M311 723v-723h-164v901h164v-31q99 52 209 52q216 0 322 -106t106 -324v-492h-164v467q0 210 -64 284q-58 68 -178 68t-231 -96z" />
<glyph unicode="o" horiz-adv-x="1056" d="M807 451q0 162 -74 265t-192 103t-202.5 -102t-84.5 -270.5t73 -266.5t202.5 -98t203.5 103.5t74 265.5zM971 451q0 -229 -126 -350t-328.5 -121t-314.5 127t-112 344q0 104 37 194q37 89 97 149q129 128 288 128q207 0 333 -121t126 -350z" />
<glyph unicode="p" horiz-adv-x="1087" d="M311 59v-469h-164v1315h164v-39q95 60 238 60t243 -64.5t154.5 -171.5t54.5 -235q0 -193 -132.5 -332t-321.5 -139q-139 0 -236 75zM311 508v-4q0 -308 156 -392q48 -26 114 -26t127 56t95.5 141t34.5 172.5t-29.5 171.5t-86 140t-124.5 56q-155 0 -221 -80.5t-66 -234.5 z" />
<glyph unicode="q" horiz-adv-x="1089" d="M780 49q-104 -69 -234 -69t-218 37t-139 103t-75 148.5t-24 182.5q0 101 24 183t76 148q109 140 345 140q229 0 325 -108q84 -94 84 -282v-942h-164v459zM780 430v168q0 136 -87 182q-73 40 -170 40h-3q-98 0 -157 -58q-109 -105 -109 -311q0 -140 60 -249 q66 -120 195.5 -120t200 98.5t70.5 249.5z" />
<glyph unicode="r" horiz-adv-x="677" d="M672 741q-41 78 -161 78t-200 -84v-735h-164v901h164v-27q79 48 179 48t182 -29v-152z" />
<glyph unicode="s" horiz-adv-x="897" d="M756 795l-119 -72q-82 72 -100.5 77t-36.5 11q-23 8 -82 8t-94 -34t-35 -97q0 -112 164 -141q362 -67 362 -285q0 -141 -105 -211.5t-276 -70.5q-114 0 -174 30t-85.5 47t-86.5 60l88 76q91 -64 139.5 -87.5t148.5 -23.5t143.5 46t43.5 134q0 126 -217 162 q-150 28 -229.5 96.5t-79.5 163.5t72 166.5t186 71.5t197.5 -30.5t175.5 -96.5z" />
<glyph unicode="t" horiz-adv-x="567" d="M352 799v-799h-164v799h-135l31 102h104v297l164 31v-328h162v-102h-162z" />
<glyph unicode="u" horiz-adv-x="1067" d="M780 172v729h164v-901h-164v33q-112 -53 -239 -53q-212 0 -305 104t-93 326v491h164v-467q0 -207 79 -284q70 -68 185.5 -68t208.5 90z" />
<glyph unicode="v" horiz-adv-x="849" d="M510 0h-164l-328 901h150l252 -696l254 696h164z" />
<glyph unicode="w" horiz-adv-x="1529" d="M430 205l254 696h150l251 -696l254 696h164l-327 -901h-148l-262 719l-262 -719h-148l-327 901h149z" />
<glyph unicode="x" horiz-adv-x="833" d="M330 494l-264 407h176l176 -272l178 272h176l-264 -407l321 -494h-178l-233 358l-232 -358h-178z" />
<glyph unicode="y" horiz-adv-x="880" d="M201 -348q-55 0 -101 33t-110 102l131 66q47 -64 68.5 -81.5t41.5 -17.5q40 0 73 67q14 28 52 134l17 45l-328 901h150l251 -696l254 696h164l-346 -950q-54 -148 -129 -223.5t-188 -75.5z" />
<glyph unicode="z" horiz-adv-x="860" d="M573 799h-530l31 102h743l-518 -799h524v-102h-770z" />
<glyph unicode="{" horiz-adv-x="530" d="M346 1434h103q-103 -76 -111 -279q-4 -83 -10 -166q-14 -197 -144 -272q60 -34 94 -93t42 -123.5t14 -138.5q6 -76 10 -140q11 -154 105 -222h-103q-110 63 -140 187q-21 87 -25 193q-5 106 -11 160q-15 124 -88 177q74 53 88 177q6 54 9 114.5t9 121.5q4 61 18 117 q30 124 140 187z" />
<glyph unicode="|" horiz-adv-x="305" d="M205 1434v-1434h-113v1434h113z" />
<glyph unicode="}" horiz-adv-x="530" d="M184 0h-102q104 76 112 279l8 166q13 197 144 272q-60 34 -94 93t-42 123.5t-14 138.5q-6 76 -10 140q-11 154 -104 222h102q65 -37 102 -98t46.5 -126.5t15 -140.5t8.5 -139q7 -150 93 -213q-86 -63 -93 -213q-8 -174 -21 -259q-25 -173 -151 -245z" />
<glyph unicode="~" horiz-adv-x="831" d="M666 602h84q-9 -78 -71.5 -130t-150.5 -52q-38 0 -127 32.5t-123 32.5t-71 -16.5t-41 -48.5h-84q9 78 71 130t150 52q38 0 127.5 -32.5t123.5 -32.5t71 16.5t41 48.5z" />
<glyph unicode="&#xa1;" horiz-adv-x="356" d="M256 1032h-164v164h164v-164zM92 -238l31 1065h102l31 -1065h-164z" />
<glyph unicode="&#xa2;" horiz-adv-x="944" d="M371 39q-269 76 -269 412q0 167 74 273t195 140v140h73v-125q12 2 40 2t42 -2v125h74v-140q78 -24 130 -82t93 -147l-133 -68q-21 78 -39.5 120.5t-50.5 66.5v-627q48 8 76 35t63 84l123 -47q-60 -75 -119 -117.5t-143 -54.5v-129h-74v122h-2q-17 0 -80 5v-127h-73v141z M371 172v563q-105 -76 -105 -281.5t105 -281.5zM444 137q34 -11 82 -14v655h-12q-39 0 -70 -8v-633z" />
<glyph unicode="&#xa3;" horiz-adv-x="903" d="M473 1169q-121 0 -121 -245v-125h215v-103h-215v-250q0 -174 -116 -312q-20 -24 -31 -32h616v-102h-770v102q20 0 55 52t64 136t29 156v250h-82l30 103h52v192q0 205 195 265q52 16 108 16q132 0 209 -92l-131 -62q-36 51 -107 51z" />
<glyph unicode="&#xa4;" horiz-adv-x="724" d="M254 453q0 -44 32 -76.5t76 -32.5t76.5 32.5t32.5 76.5t-32.5 76t-76.5 32t-76 -32t-32 -76zM186 348q-28 48 -28 104t28 105l-104 105l72 71l104 -104q48 28 104 28t105 -28l104 104l72 -71l-104 -105q28 -49 28 -105t-28 -104l104 -104l-72 -72l-104 104 q-49 -28 -105 -28t-104 28l-104 -104l-72 72z" />
<glyph unicode="&#xa5;" horiz-adv-x="1075" d="M539 899l272 535h184l-370 -725v-127h180v-103h-180v-119h180v-102h-180v-258h-174v258h-189v102h189v119h-189v103h189v129l-369 723h184z" />
<glyph unicode="&#xa6;" horiz-adv-x="305" d="M205 1434v-656h-113v656h113zM205 655v-655h-113v655h113z" />
<glyph unicode="&#xa7;" horiz-adv-x="808" d="M294 97q36 -13 86 -13q52 0 84 30q52 48 52 148q0 121 -162 174q-108 37 -167.5 116t-59.5 186t76 188q-72 78 -72 172q0 92 63 176q32 42 92 69t120 27q58 0 94 -10q42 -12 75 -32q81 -49 134 -193l-93 -21q-32 90 -74 120q-48 34 -111 34t-95 -30q-52 -48 -53 -148 q0 -122 161 -175q108 -38 168 -116t60 -185t-76 -188q72 -78 72 -172q0 -92 -63 -176q-32 -42 -92 -69t-119.5 -27t-95.5 10q-36 8 -74 32q-81 49 -134 193l92 21q44 -116 112 -141zM307 844q-28 -46 -28 -109t10 -94t33 -49.5t44.5 -28.5t60 -25t65.5 -30q28 46 28 109 t-10 94t-33 49.5t-44.5 28.5t-60 25t-65.5 30z" />
<glyph unicode="&#xa8;" horiz-adv-x="559" d="M12 1270zM544 1270zM380 1448h164v-178h-164v178zM12 1448h164v-178h-164v178z" />
<glyph unicode="&#xa9;" horiz-adv-x="1101" d="M233 504q0 -186 95.5 -314.5t216.5 -128.5t216 128.5t95 314.5t-95 314t-216 128t-216.5 -128t-95.5 -314zM119 504q0 115 39.5 215.5t101.5 166.5t137 104t148 38t148 -38t137 -104t101.5 -166.5t39.5 -215.5t-39.5 -215.5t-101.5 -166.5t-137 -104t-148 -38t-148 38 t-137 104t-101.5 166.5t-39.5 215.5zM686 670q-44 63 -127.5 63t-133.5 -59t-50 -177t61 -180.5t138 -62.5t128 76l68 -31q-80 -106 -219 -106q-93 1 -175 73q-40 36 -65.5 96.5t-25.5 136t23 134.5t60 93q75 69 167 69t144.5 -22t88.5 -68z" />
<glyph unicode="&#xaa;" horiz-adv-x="620" d="M72 410h477v-62h-477v62zM299 516q-193 0 -193 172q0 122 126 152q32 8 77 8t94 -6q-3 54 -25 75t-78 21t-128 -51l-59 61q93 51 167.5 51t115 -10.5t64.5 -42.5t31 -78t7 -129v-211h-92v7q-52 -19 -107 -19zM406 598v180q-39 8 -89.5 8t-84 -25t-33.5 -73.5t34.5 -79 t79.5 -30.5t93 20z" />
<glyph unicode="&#xab;" horiz-adv-x="856" d="M102 86zM479 453l274 -328l-77 -39l-308 367l308 364l77 -39zM213 453l274 -328l-77 -39l-308 367l308 364l77 -39z" />
<glyph unicode="&#xac;" horiz-adv-x="696" d="M82 451h532v-256h-82v153h-450v103z" />
<glyph unicode="&#xad;" horiz-adv-x="649" d="M82 348zM82 451h485v-103h-485v103z" />
<glyph unicode="&#xae;" horiz-adv-x="1101" d="M233 504q0 -186 95.5 -314.5t216.5 -128.5t216 128.5t95 314.5t-95 314t-216 128t-216.5 -128t-95.5 -314zM119 504q0 115 39.5 215.5t101.5 166.5t137 104t148 38t148 -38t137 -104t101.5 -166.5t39.5 -215.5t-39.5 -215.5t-101.5 -166.5t-137 -104t-148 -38t-148 38 t-137 104t-101.5 166.5t-39.5 215.5zM455 469v-262h-90v594h178q95 0 141.5 -52.5t46.5 -104.5t-26 -95.5t-76 -63.5q33 -38 73.5 -121.5t40.5 -156.5h-88q0 70 -43.5 150.5t-81.5 111.5h-75zM455 739v-209h100q42 0 64 32t22 72t-22 72.5t-64 32.5h-100z" />
<glyph unicode="&#xaf;" horiz-adv-x="593" d="M61 1270zM61 1352h472v-82h-472v82z" />
<glyph unicode="&#xb0;" horiz-adv-x="577" d="M199 1196q0 -37 26.5 -63.5t63.5 -26.5t63.5 26.5t26.5 63.5t-26.5 63.5t-63.5 26.5t-63.5 -26.5t-26.5 -63.5zM102 1196q0 76 55 131t132 55t131.5 -55t54.5 -131t-54.5 -131t-131.5 -55t-132 55t-55 131z" />
<glyph unicode="&#xb1;" horiz-adv-x="856" d="M82 156h692v-103h-692v103zM479 453v-193h-102v193h-295v102h295v193h102v-193h295v-102h-295z" />
<glyph unicode="&#xb2;" horiz-adv-x="559" d="M82 1235q60 123 215 123q74 0 125 -52.5t51 -133.5q0 -82 -73 -137q-57 -43 -113.5 -81t-79 -69.5t-23.5 -67.5h293v-65h-393q0 106 58 172q42 48 95 84q53 38 79 58q58 46 58 106q0 62 -29 91q-28 29 -66 29q-85 0 -115 -88z" />
<glyph unicode="&#xb3;" horiz-adv-x="583" d="M100 1235q28 59 74 91t124 32t130.5 -51t52.5 -105t-17 -82t-58 -53q96 -51 96 -140t-59.5 -137.5t-139.5 -48.5q-160 0 -221 125l82 31q30 -88 123 -88q39 0 76.5 29.5t37.5 77.5t-37 83t-126 35v66q143 0 143 94q0 48 -28 72q-27 24 -69 24t-64 -21t-40 -65z" />
<glyph unicode="&#xb4;" horiz-adv-x="497" d="M74 1255zM313 1642l111 -92l-287 -295l-63 54z" />
<glyph unicode="&#xb5;" horiz-adv-x="972" d="M719 186v715h164v-901h-164v49q-113 -69 -247 -69t-226 57v-330h-164v1194h164v-434q0 -202 73 -293.5t191 -91.5t209 104z" />
<glyph unicode="&#xb6;" horiz-adv-x="995" d="M772 1331h-131v-1331h-123v655q-256 3 -374 183q-62 96 -62 206q0 111 61 207q116 183 375 183h377v-1434h-123v1331zM518 758v573q-172 0 -234 -143q-28 -67 -28 -121.5t5 -87.5t22 -74.5t45 -72.5q66 -74 190 -74z" />
<glyph unicode="&#xb7;" horiz-adv-x="272" d="M53 414zM53 592h164v-178h-164v178z" />
<glyph unicode="&#xb8;" horiz-adv-x="471" d="M62 0zM270 0l-12 -111q66 -11 109 -46.5t43 -96.5t-91.5 -104t-256.5 -43v49q111 0 166 19t55 68t-32.5 70.5t-115.5 30.5l29 164h106z" />
<glyph unicode="&#xb9;" horiz-adv-x="321" d="M240 1366v-612h-101v534l-57 -6v66z" />
<glyph unicode="&#xba;" horiz-adv-x="620" d="M72 410h477v-62h-477v62zM444 758q0 79 -36.5 129.5t-92.5 50.5t-96.5 -49.5t-40.5 -132.5t35 -130.5t96.5 -47.5t98 50.5t36.5 129.5zM471 578.5q-64 -62.5 -167.5 -62.5t-161.5 65.5t-58 173t67 176t161.5 68.5t158.5 -62t64 -179t-64 -179.5z" />
<glyph unicode="&#xbb;" horiz-adv-x="856" d="M102 86zM643 451l-275 327l78 39l307 -366l-307 -365l-78 39zM377 451l-275 327l78 39l307 -366l-307 -365l-78 39z" />
<glyph unicode="&#xbc;" horiz-adv-x="1081" d="M418 1366v-612h-101v534l-57 -6v66zM82 264l760 783h157l-759 -783h-158zM471 174l262 432h98v-409h62v-66h-62v-131h-100v131h-260v43zM731 473l-166 -276h166v276z" />
<glyph unicode="&#xbd;" horiz-adv-x="1085" d="M418 1366v-612h-101v534l-57 -6v66zM82 264l760 783h157l-759 -783h-158zM608 483q60 123 215 123q74 0 125 -52.5t51 -117t-29 -105.5t-71 -69.5t-84 -55.5q-100 -65 -104 -140h293v-66h-394q0 106 58 172q42 48 95 84q53 38 79 58q58 46 58 106q0 62 -29 92 q-28 29 -66 29q-85 0 -115 -88z" />
<glyph unicode="&#xbe;" horiz-adv-x="1081" d="M100 1235q28 59 74 91t124 32t130.5 -51t52.5 -105t-17 -82t-58 -53q96 -51 96 -140t-59.5 -137.5t-139.5 -48.5q-160 0 -221 125l82 31q30 -88 123 -88q39 0 76.5 29.5t37.5 77.5t-37 83t-126 35v66q143 0 143 94q0 48 -28 72q-27 24 -69 24t-64 -21t-40 -65zM82 264 l760 783h157l-759 -783h-158zM471 174l262 432h98v-409h62v-66h-62v-131h-100v131h-260v43zM731 473l-166 -276h166v276z" />
<glyph unicode="&#xbf;" horiz-adv-x="882" d="M565 971h-164v164h164v-164zM416 651l16 115h103l30 -215h-71q-125 0 -207 -79.5t-82 -245t77.5 -263.5t221.5 -98q94 0 146 56q22 24 48 67l123 -47q-68 -87 -149 -133t-199 -46q-199 0 -315.5 127.5t-116.5 343.5q0 275 236 381q66 30 139 37z" />
<glyph unicode="&#xc0;" horiz-adv-x="1298" d="M39 0zM520 1888l240 -333l-64 -54l-286 295zM39 0l522 1434h180l523 -1434h-164l-150 410h-598l-149 -410h-164zM651 1231l-262 -719h524z" />
<glyph unicode="&#xc1;" horiz-adv-x="1298" d="M39 0zM782 1888l111 -92l-287 -295l-63 54zM39 0l522 1434h180l523 -1434h-164l-150 410h-598l-149 -410h-164zM651 1231l-262 -719h524z" />
<glyph unicode="&#xc2;" horiz-adv-x="1298" d="M39 0zM928 1594l-92 -91l-183 177l-184 -177l-92 91l276 208zM39 0l522 1434h180l523 -1434h-164l-150 410h-598l-149 -410h-164zM651 1231l-262 -719h524z" />
<glyph unicode="&#xc3;" horiz-adv-x="1298" d="M39 0zM860 1698h84q-9 -80 -62 -131t-139 -51q-38 0 -96.5 32.5t-77.5 32.5q-97 0 -106 -65h-84q9 80 62 131t139 51q38 0 96.5 -33t77.5 -33q97 0 106 66zM39 0l522 1434h180l523 -1434h-164l-150 410h-598l-149 -410h-164zM651 1231l-262 -719h524z" />
<glyph unicode="&#xc4;" horiz-adv-x="1298" d="M39 0zM915 1516zM751 1694h164v-178h-164v178zM383 1694h164v-178h-164v178zM39 0l522 1434h180l523 -1434h-164l-150 410h-598l-149 -410h-164zM651 1231l-262 -719h524z" />
<glyph unicode="&#xc5;" horiz-adv-x="1298" d="M573 1434q-77 46 -77 123t45.5 122.5t109.5 45.5t110 -45.5t46 -122.5t-77 -123h11l523 -1434h-164l-150 410h-598l-149 -410h-164l522 1434h12zM557 1569q0 -38 28 -66t66 -28t66 28t28 66t-28 66t-66 28t-66 -28t-28 -66zM651 1231l-262 -719h524z" />
<glyph unicode="&#xc6;" horiz-adv-x="1730" d="M786 512v819h-99l-298 -819h397zM786 410h-434l-149 -410h-164l522 1434h1053v-103h-654v-430h469v-102h-469v-697h687v-102h-861v410z" />
<glyph unicode="&#xc7;" horiz-adv-x="1331" d="M701 -19q-176 15 -324 129q-169 130 -237 346q-38 120 -38 264.5t37 269t97 208.5t139 143q151 113 327 113q373 0 541 -209l-153 -67q-55 78 -145 126t-196.5 48t-187.5 -39.5t-145.5 -115.5t-102 -200t-37.5 -267t33 -252q33 -108 85 -180q54 -72 120 -122 q170 -86 258 -94q238 0 356 182l121 -55q-71 -92 -185.5 -152.5t-254.5 -73.5l-10 -94q66 -11 108.5 -46.5t42.5 -96.5t-91.5 -104t-256.5 -43v49q111 0 166 19t55 68t-32 70.5t-115 30.5z" />
<glyph unicode="&#xc8;" horiz-adv-x="1118" d="M174 0zM483 1888l240 -333l-64 -54l-286 295zM1034 0h-860v1434h827v-103h-653v-430h469v-102h-469v-697h686v-102z" />
<glyph unicode="&#xc9;" horiz-adv-x="1118" d="M174 0zM745 1888l111 -92l-287 -295l-63 54zM1034 0h-860v1434h827v-103h-653v-430h469v-102h-469v-697h686v-102z" />
<glyph unicode="&#xca;" horiz-adv-x="1118" d="M174 0zM891 1594l-92 -91l-183 177l-184 -177l-92 91l276 208zM1034 0h-860v1434h827v-103h-653v-430h469v-102h-469v-697h686v-102z" />
<glyph unicode="&#xcb;" horiz-adv-x="1118" d="M174 0zM878 1516zM714 1694h164v-178h-164v178zM346 1694h164v-178h-164v178zM1034 0h-860v1434h827v-103h-653v-430h469v-102h-469v-697h686v-102z" />
<glyph unicode="&#xcc;" horiz-adv-x="514" d="M21 0zM131 1888l240 -333l-64 -54l-286 295zM346 1434v-1434h-174v1434h174z" />
<glyph unicode="&#xcd;" horiz-adv-x="514" d="M154 0zM393 1888l111 -92l-287 -295l-63 54zM346 1434v-1434h-174v1434h174z" />
<glyph unicode="&#xce;" horiz-adv-x="514" d="M0 0zM539 1594l-92 -91l-183 177l-184 -177l-92 91l276 208zM346 1434v-1434h-174v1434h174z" />
<glyph unicode="&#xcf;" horiz-adv-x="514" d="M0 0zM526 1516zM362 1694h164v-178h-164v178zM-6 1694h164v-178h-164v178zM346 1434v-1434h-174v1434h174z" />
<glyph unicode="&#xd0;" horiz-adv-x="1304" d="M670 0h-496v725h-113v102h113v607h496q534 0 534 -697q0 -361 -142.5 -549t-391.5 -188zM348 725v-623h352q137 0 230 147q100 157 100 488q0 375 -139 515q-78 79 -188 79h-3h-352v-504h316v-102h-316z" />
<glyph unicode="&#xd1;" horiz-adv-x="1406" d="M174 0zM926 1698h84q-9 -80 -62 -131t-139 -51q-38 0 -96.5 32.5t-77.5 32.5q-97 0 -106 -65h-84q9 80 62 131t139 51q38 0 96.5 -33t77.5 -33q97 0 106 66zM1059 0l-711 1157v-1157h-174v1434h176l713 -1160v1160h174v-1434h-178z" />
<glyph unicode="&#xd2;" d="M102 0zM575 1888l240 -333l-64 -54l-286 295zM946 24q-112 -44 -218.5 -44t-190 27t-162.5 86t-139.5 143t-97 208.5t-36.5 272.5t34 273q34 124 92 208q61 88 134 144q146 112 324 112q214 0 374 -112q277 -193 277 -622q0 -190 -51 -333q-51 -144 -139.5 -231.5 t-200.5 -131.5zM703 1352q-62 0 -120 -24t-113 -76q-54 -52 -98 -125q-96 -160 -96 -410q0 -129 30 -238.5t78 -180.5q48 -72 107 -122q112 -94 226 -94q132 0 244 100q202 181 202 535q0 370 -209 541q-115 94 -251 94z" />
<glyph unicode="&#xd3;" d="M102 0zM837 1888l111 -92l-287 -295l-63 54zM946 24q-112 -44 -218.5 -44t-190 27t-162.5 86t-139.5 143t-97 208.5t-36.5 272.5t34 273q34 124 92 208q61 88 134 144q146 112 324 112q214 0 374 -112q277 -193 277 -622q0 -190 -51 -333q-51 -144 -139.5 -231.5 t-200.5 -131.5zM703 1352q-62 0 -120 -24t-113 -76q-54 -52 -98 -125q-96 -160 -96 -410q0 -129 30 -238.5t78 -180.5q48 -72 107 -122q112 -94 226 -94q132 0 244 100q202 181 202 535q0 370 -209 541q-115 94 -251 94z" />
<glyph unicode="&#xd4;" d="M102 0zM983 1594l-92 -91l-183 177l-184 -177l-92 91l276 208zM946 24q-112 -44 -218.5 -44t-190 27t-162.5 86t-139.5 143t-97 208.5t-36.5 272.5t34 273q34 124 92 208q61 88 134 144q146 112 324 112q214 0 374 -112q277 -193 277 -622q0 -190 -51 -333 q-51 -144 -139.5 -231.5t-200.5 -131.5zM703 1352q-62 0 -120 -24t-113 -76q-54 -52 -98 -125q-96 -160 -96 -410q0 -129 30 -238.5t78 -180.5q48 -72 107 -122q112 -94 226 -94q132 0 244 100q202 181 202 535q0 370 -209 541q-115 94 -251 94z" />
<glyph unicode="&#xd5;" d="M102 0zM915 1698h84q-9 -80 -62 -131t-139 -51q-38 0 -96.5 32.5t-77.5 32.5q-97 0 -106 -65h-84q9 80 62 131t139 51q38 0 96.5 -33t77.5 -33q97 0 106 66zM946 24q-112 -44 -218.5 -44t-190 27t-162.5 86t-139.5 143t-97 208.5t-36.5 272.5t34 273q34 124 92 208 q61 88 134 144q146 112 324 112q214 0 374 -112q277 -193 277 -622q0 -190 -51 -333q-51 -144 -139.5 -231.5t-200.5 -131.5zM703 1352q-62 0 -120 -24t-113 -76q-54 -52 -98 -125q-96 -160 -96 -410q0 -129 30 -238.5t78 -180.5q48 -72 107 -122q112 -94 226 -94 q132 0 244 100q202 181 202 535q0 370 -209 541q-115 94 -251 94z" />
<glyph unicode="&#xd6;" d="M102 0zM970 1516zM806 1694h164v-178h-164v178zM438 1694h164v-178h-164v178zM946 24q-112 -44 -218.5 -44t-190 27t-162.5 86t-139.5 143t-97 208.5t-36.5 272.5t34 273q34 124 92 208q61 88 134 144q146 112 324 112q214 0 374 -112q277 -193 277 -622q0 -190 -51 -333 q-51 -144 -139.5 -231.5t-200.5 -131.5zM703 1352q-62 0 -120 -24t-113 -76q-54 -52 -98 -125q-96 -160 -96 -410q0 -129 30 -238.5t78 -180.5q48 -72 107 -122q112 -94 226 -94q132 0 244 100q202 181 202 535q0 370 -209 541q-115 94 -251 94z" />
<glyph unicode="&#xd7;" horiz-adv-x="856" d="M500 510l209 -209l-72 -72l-209 209l-209 -209l-72 72l209 209l-209 209l72 72l209 -209l209 209l72 -72z" />
<glyph unicode="&#xd8;" d="M942 1407l10 27h121l-33 -80q138 -88 217.5 -248t79.5 -367.5t-51 -351.5q-52 -143 -140 -231q-178 -176 -441 -176q-109 0 -203 40l-8 -20h-121l28 72q-135 90 -217 252t-82 393q0 425 260 625q146 112 324 112q132 0 256 -47zM989 1227l-440 -1092q85 -53 157.5 -53 t134.5 24t120 76t103 125q99 161 99 410q0 336 -174 510zM470 1252q-194 -183 -194 -521.5t181 -523.5l440 1091q-92 54 -206.5 54t-220.5 -100z" />
<glyph unicode="&#xd9;" horiz-adv-x="1402" d="M156 0zM590 1888l240 -333l-64 -54l-286 295zM1073 1434h174v-824q0 -420 -230 -555q-127 -75 -321 -75q-158 0 -284 75q-74 44 -129 111.5t-91 182t-36 261.5v824h174v-824q0 -407 244 -502q67 -26 126.5 -26t106.5 13t97 49.5t86 93.5q83 131 83 372v824z" />
<glyph unicode="&#xda;" horiz-adv-x="1402" d="M156 0zM852 1888l111 -92l-287 -295l-63 54zM1073 1434h174v-824q0 -420 -230 -555q-127 -75 -321 -75q-158 0 -284 75q-74 44 -129 111.5t-91 182t-36 261.5v824h174v-824q0 -407 244 -502q67 -26 126.5 -26t106.5 13t97 49.5t86 93.5q83 131 83 372v824z" />
<glyph unicode="&#xdb;" horiz-adv-x="1402" d="M156 0zM998 1594l-92 -91l-183 177l-184 -177l-92 91l276 208zM1073 1434h174v-824q0 -420 -230 -555q-127 -75 -321 -75q-158 0 -284 75q-74 44 -129 111.5t-91 182t-36 261.5v824h174v-824q0 -407 244 -502q67 -26 126.5 -26t106.5 13t97 49.5t86 93.5q83 131 83 372 v824z" />
<glyph unicode="&#xdc;" horiz-adv-x="1402" d="M156 0zM985 1516zM821 1694h164v-178h-164v178zM453 1694h164v-178h-164v178zM1073 1434h174v-824q0 -420 -230 -555q-127 -75 -321 -75q-158 0 -284 75q-74 44 -129 111.5t-91 182t-36 261.5v824h174v-824q0 -407 244 -502q67 -26 126.5 -26t106.5 13t97 49.5t86 93.5 q83 131 83 372v824z" />
<glyph unicode="&#xdd;" horiz-adv-x="952" d="M23 0zM608 1888l111 -92l-287 -295l-63 54zM479 899l273 535h184l-371 -725v-709h-174v711l-368 723h184z" />
<glyph unicode="&#xde;" horiz-adv-x="1089" d="M348 328v-328h-174v1434h174v-328h246q264 0 382 -181q62 -95 62 -208q0 -112 -64 -208q-120 -181 -380 -181h-246zM348 1004v-574h277q171 0 225 190q14 48 14 97t-13.5 97t-40.5 92q-60 98 -185 98h-277z" />
<glyph unicode="&#xdf;" horiz-adv-x="919" d="M571 502q279 -222 279 -400q0 -86 -76 -158q-75 -71 -137 -101q-104 -51 -151 -69l-21 -7l-51 81q35 9 88.5 35.5t89 53t65 71.5t29.5 94t-28 106t-68 103q-82 94 -148 146l-28 22l202 320h-313v-799h-164v864q0 215 11 269t22 87t25.5 52.5t37 38.5t49.5 29q26 10 64 18 q66 14 150 14t138 -14q77 -20 185 -78l-102 -106q-75 53 -122.5 74.5t-90.5 21.5t-70 -4t-47.5 -16t-34.5 -25t-24 -39t-15 -49t-8 -65q-4 -56 -4 -171h520z" />
<glyph unicode="&#xe0;" horiz-adv-x="974" d="M94 0zM358 1458l240 -333l-64 -54l-286 295zM115 829q178 93 323 93q188 0 270 -41q48 -24 76 -58.5t46 -95.5q28 -99 28 -313v-414h-164v16q-113 -36 -223 -36q-174 0 -275.5 78.5t-101.5 252.5q0 197 174 273q89 40 195 40h3q108 0 224 -18q-6 120 -51.5 166.5 t-165 46.5t-256.5 -96zM694 125v373q-93 22 -193 22t-171.5 -54t-71.5 -156t73 -165t173 -63t190 43z" />
<glyph unicode="&#xe1;" horiz-adv-x="974" d="M94 0zM620 1458l111 -92l-287 -295l-63 54zM115 829q178 93 323 93q188 0 270 -41q48 -24 76 -58.5t46 -95.5q28 -99 28 -313v-414h-164v16q-113 -36 -223 -36q-174 0 -275.5 78.5t-101.5 252.5q0 197 174 273q89 40 195 40h3q108 0 224 -18q-6 120 -51.5 166.5 t-165 46.5t-256.5 -96zM694 125v373q-93 22 -193 22t-171.5 -54t-71.5 -156t73 -165t173 -63t190 43z" />
<glyph unicode="&#xe2;" horiz-adv-x="974" d="M94 0zM766 1164l-92 -91l-183 177l-184 -177l-92 91l276 208zM115 829q178 93 323 93q188 0 270 -41q48 -24 76 -58.5t46 -95.5q28 -99 28 -313v-414h-164v16q-113 -36 -223 -36q-174 0 -275.5 78.5t-101.5 252.5q0 197 174 273q89 40 195 40h3q108 0 224 -18 q-6 120 -51.5 166.5t-165 46.5t-256.5 -96zM694 125v373q-93 22 -193 22t-171.5 -54t-71.5 -156t73 -165t173 -63t190 43z" />
<glyph unicode="&#xe3;" horiz-adv-x="974" d="M94 0zM698 1268h84q-9 -80 -62 -131t-139 -51q-38 0 -96.5 32.5t-77.5 32.5q-97 0 -106 -65h-84q9 80 62 131t139 51q38 0 96.5 -33t77.5 -33q97 0 106 66zM115 829q178 93 323 93q188 0 270 -41q48 -24 76 -58.5t46 -95.5q28 -99 28 -313v-414h-164v16 q-113 -36 -223 -36q-174 0 -275.5 78.5t-101.5 252.5q0 197 174 273q89 40 195 40h3q108 0 224 -18q-6 120 -51.5 166.5t-165 46.5t-256.5 -96zM694 125v373q-93 22 -193 22t-171.5 -54t-71.5 -156t73 -165t173 -63t190 43z" />
<glyph unicode="&#xe4;" horiz-adv-x="974" d="M94 0zM753 1086zM589 1264h164v-178h-164v178zM221 1264h164v-178h-164v178zM115 829q178 93 323 93q188 0 270 -41q48 -24 76 -58.5t46 -95.5q28 -99 28 -313v-414h-164v16q-113 -36 -223 -36q-174 0 -275.5 78.5t-101.5 252.5q0 197 174 273q89 40 195 40h3 q108 0 224 -18q-6 120 -51.5 166.5t-165 46.5t-256.5 -96zM694 125v373q-93 22 -193 22t-171.5 -54t-71.5 -156t73 -165t173 -63t190 43z" />
<glyph unicode="&#xe5;" horiz-adv-x="974" d="M94 0zM395 1139q0 -38 28 -66t66 -28t66 28t28 66t-28 66t-66 28t-66 -28t-28 -66zM334 1139q0 65 45.5 110.5t109.5 45.5t110 -45.5t46 -110.5t-46 -110.5t-110 -45.5t-109.5 45.5t-45.5 110.5zM115 829q178 93 323 93q188 0 270 -41q48 -24 76 -58.5t46 -95.5 q28 -99 28 -313v-414h-164v16q-113 -36 -223 -36q-174 0 -275.5 78.5t-101.5 252.5q0 197 174 273q89 40 195 40h3q108 0 224 -18q-6 120 -51.5 166.5t-165 46.5t-256.5 -96zM694 125v373q-93 22 -193 22t-171.5 -54t-71.5 -156t73 -165t173 -63t190 43z" />
<glyph unicode="&#xe6;" horiz-adv-x="1632" d="M1536 158q-141 -178 -379 -178q-188 0 -313 110q-77 -52 -177.5 -81t-195.5 -29q-174 0 -275.5 78.5t-101.5 252.5q0 197 174 273q89 40 195 40h3q108 0 224 -18q-6 120 -51.5 166.5t-165 46.5t-256.5 -96l-102 106q178 93 332.5 93t240.5 -32.5t123 -113.5 q62 69 142 107.5t173 38.5t177 -42q83 -42 135 -110q108 -143 108 -319h-688q0 -168 91.5 -268.5t239.5 -100.5t224 123zM694 125v373q-93 22 -193 22t-171.5 -54t-71.5 -156t73 -165t173 -63t190 43zM868 553h506q-18 120 -76 193t-154 73t-173 -72t-103 -194z" />
<glyph unicode="&#xe7;" horiz-adv-x="1017" d="M760 608q-26 97 -81 154t-136 57q-120 0 -204.5 -102t-84.5 -268t91.5 -266.5t239.5 -100.5t224 123l123 -47q-118 -150 -311 -174l-11 -95q66 -11 109 -46.5t43 -96.5t-91.5 -104t-256.5 -43v49q111 0 166 19t55 68t-32.5 70.5t-115.5 30.5l26 145q-187 14 -305 141.5 t-118 328.5q0 104 37 194q37 89 97 149q129 128 275.5 128t243.5 -67.5t150 -178.5z" />
<glyph unicode="&#xe8;" horiz-adv-x="1028" d="M90 0zM399 1458l240 -333l-64 -54l-286 295zM932 158q-141 -178 -379 -178q-202 0 -332.5 129.5t-130.5 341.5q0 104 37 194q37 89 97 149q129 128 288 128q103 0 187 -42q83 -42 135 -110q108 -143 108 -319h-688q0 -168 91.5 -268.5t239.5 -100.5t224 123zM264 553h506 q-18 120 -76 193t-154 73t-173 -72t-103 -194z" />
<glyph unicode="&#xe9;" horiz-adv-x="1028" d="M90 0zM661 1458l111 -92l-287 -295l-63 54zM932 158q-141 -178 -379 -178q-202 0 -332.5 129.5t-130.5 341.5q0 104 37 194q37 89 97 149q129 128 288 128q103 0 187 -42q83 -42 135 -110q108 -143 108 -319h-688q0 -168 91.5 -268.5t239.5 -100.5t224 123zM264 553h506 q-18 120 -76 193t-154 73t-173 -72t-103 -194z" />
<glyph unicode="&#xea;" horiz-adv-x="1028" d="M90 0zM807 1164l-92 -91l-183 177l-184 -177l-92 91l276 208zM932 158q-141 -178 -379 -178q-202 0 -332.5 129.5t-130.5 341.5q0 104 37 194q37 89 97 149q129 128 288 128q103 0 187 -42q83 -42 135 -110q108 -143 108 -319h-688q0 -168 91.5 -268.5t239.5 -100.5 t224 123zM264 553h506q-18 120 -76 193t-154 73t-173 -72t-103 -194z" />
<glyph unicode="&#xeb;" horiz-adv-x="1028" d="M90 0zM794 1086zM630 1264h164v-178h-164v178zM262 1264h164v-178h-164v178zM932 158q-141 -178 -379 -178q-202 0 -332.5 129.5t-130.5 341.5q0 104 37 194q37 89 97 149q129 128 288 128q103 0 187 -42q83 -42 135 -110q108 -143 108 -319h-688q0 -168 91.5 -268.5 t239.5 -100.5t224 123zM264 553h506q-18 120 -76 193t-154 73t-173 -72t-103 -194z" />
<glyph unicode="&#xec;" horiz-adv-x="407" d="M0 0zM76 1458l240 -333l-64 -54l-286 295zM123 901h164v-901h-164v901z" />
<glyph unicode="&#xed;" horiz-adv-x="407" d="M99 0zM338 1458l111 -92l-287 -295l-63 54zM123 901h164v-901h-164v901z" />
<glyph unicode="&#xee;" horiz-adv-x="407" d="M0 0zM484 1164l-92 -91l-183 177l-184 -177l-92 91l276 208zM123 901h164v-901h-164v901z" />
<glyph unicode="&#xef;" horiz-adv-x="407" d="M0 0zM471 1086zM307 1264h164v-178h-164v178zM-61 1264h164v-178h-164v178zM123 901h164v-901h-164v901z" />
<glyph unicode="&#xf0;" horiz-adv-x="1034" d="M612 1212q332 -349 332 -778q0 -272 -197 -390q-107 -63 -243 -64q-173 0 -293.5 138.5t-120.5 332.5q0 278 188 406q96 65 213.5 65t202.5 -39q-66 144 -178 250l-106 -89l-48 56l99 84q-54 46 -137 102l102 94q73 -57 133 -114l103 86l47 -58zM780 369q0 252 -52 351 t-193 99q-83 0 -149 -56.5t-99 -139.5t-33 -172t33 -172.5t99 -140t161.5 -56.5t162.5 75t70 212z" />
<glyph unicode="&#xf1;" horiz-adv-x="1087" d="M147 0zM758 1268h84q-9 -80 -62 -131t-139 -51q-38 0 -96.5 32.5t-77.5 32.5q-97 0 -106 -65h-84q9 80 62 131t139 51q38 0 96.5 -33t77.5 -33q97 0 106 66zM311 723v-723h-164v901h164v-31q99 52 209 52q216 0 322 -106t106 -324v-492h-164v467q0 210 -64 284 q-58 68 -178 68t-231 -96z" />
<glyph unicode="&#xf2;" horiz-adv-x="1056" d="M90 0zM403 1458l240 -333l-64 -54l-286 295zM807 451q0 162 -74 265t-192 103t-202.5 -102t-84.5 -270.5t73 -266.5t202.5 -98t203.5 103.5t74 265.5zM971 451q0 -229 -126 -350t-328.5 -121t-314.5 127t-112 344q0 104 37 194q37 89 97 149q129 128 288 128 q207 0 333 -121t126 -350z" />
<glyph unicode="&#xf3;" horiz-adv-x="1056" d="M90 0zM665 1458l111 -92l-287 -295l-63 54zM807 451q0 162 -74 265t-192 103t-202.5 -102t-84.5 -270.5t73 -266.5t202.5 -98t203.5 103.5t74 265.5zM971 451q0 -229 -126 -350t-328.5 -121t-314.5 127t-112 344q0 104 37 194q37 89 97 149q129 128 288 128 q207 0 333 -121t126 -350z" />
<glyph unicode="&#xf4;" horiz-adv-x="1056" d="M90 0zM811 1164l-92 -91l-183 177l-184 -177l-92 91l276 208zM807 451q0 162 -74 265t-192 103t-202.5 -102t-84.5 -270.5t73 -266.5t202.5 -98t203.5 103.5t74 265.5zM971 451q0 -229 -126 -350t-328.5 -121t-314.5 127t-112 344q0 104 37 194q37 89 97 149 q129 128 288 128q207 0 333 -121t126 -350z" />
<glyph unicode="&#xf5;" horiz-adv-x="1056" d="M90 0zM743 1268h84q-9 -80 -62 -131t-139 -51q-38 0 -96.5 32.5t-77.5 32.5q-97 0 -106 -65h-84q9 80 62 131t139 51q38 0 96.5 -33t77.5 -33q97 0 106 66zM807 451q0 162 -74 265t-192 103t-202.5 -102t-84.5 -270.5t73 -266.5t202.5 -98t203.5 103.5t74 265.5zM971 451 q0 -229 -126 -350t-328.5 -121t-314.5 127t-112 344q0 104 37 194q37 89 97 149q129 128 288 128q207 0 333 -121t126 -350z" />
<glyph unicode="&#xf6;" horiz-adv-x="1056" d="M90 0zM798 1086zM634 1264h164v-178h-164v178zM266 1264h164v-178h-164v178zM807 451q0 162 -74 265t-192 103t-202.5 -102t-84.5 -270.5t73 -266.5t202.5 -98t203.5 103.5t74 265.5zM971 451q0 -229 -126 -350t-328.5 -121t-314.5 127t-112 344q0 104 37 194 q37 89 97 149q129 128 288 128q207 0 333 -121t126 -350z" />
<glyph unicode="&#xf7;" horiz-adv-x="710" d="M274 266h150v-149h-150v149zM274 682h150v-150h-150v150zM82 451h547v-103h-547v103z" />
<glyph unicode="&#xf8;" horiz-adv-x="1056" d="M971 451q0 -229 -126 -350t-333 -121q-47 0 -102 10l-37 -92h-121l51 129q-103 54 -158 163.5t-55 237t37 217.5q37 89 97 149q129 128 288 128q74 0 145 -19l41 101h121l-57 -142q209 -117 209 -411zM354 150l264 657q-37 12 -75 12q-120 0 -204.5 -102t-84.5 -288 t100 -279zM453 94q40 -12 90 -12q116 0 190 103.5t74 277t-94 278.5z" />
<glyph unicode="&#xf9;" horiz-adv-x="1067" d="M143 0zM418 1458l240 -333l-64 -54l-286 295zM780 172v729h164v-901h-164v33q-112 -53 -239 -53q-212 0 -305 104t-93 326v491h164v-467q0 -207 79 -284q70 -68 185.5 -68t208.5 90z" />
<glyph unicode="&#xfa;" horiz-adv-x="1067" d="M143 0zM680 1458l111 -92l-287 -295l-63 54zM780 172v729h164v-901h-164v33q-112 -53 -239 -53q-212 0 -305 104t-93 326v491h164v-467q0 -207 79 -284q70 -68 185.5 -68t208.5 90z" />
<glyph unicode="&#xfb;" horiz-adv-x="1067" d="M143 0zM826 1164l-92 -91l-183 177l-184 -177l-92 91l276 208zM780 172v729h164v-901h-164v33q-112 -53 -239 -53q-212 0 -305 104t-93 326v491h164v-467q0 -207 79 -284q70 -68 185.5 -68t208.5 90z" />
<glyph unicode="&#xfc;" horiz-adv-x="1067" d="M143 0zM813 1086zM649 1264h164v-178h-164v178zM281 1264h164v-178h-164v178zM780 172v729h164v-901h-164v33q-112 -53 -239 -53q-212 0 -305 104t-93 326v491h164v-467q0 -207 79 -284q70 -68 185.5 -68t208.5 90z" />
<glyph unicode="&#xfd;" horiz-adv-x="880" d="M0 0zM592 1458l111 -92l-287 -295l-63 54zM201 -348q-55 0 -101 33t-110 102l131 66q47 -64 68.5 -81.5t41.5 -17.5q40 0 73 67q14 28 52 134l17 45l-328 901h150l251 -696l254 696h164l-346 -950q-54 -148 -129 -223.5t-188 -75.5z" />
<glyph unicode="&#xfe;" horiz-adv-x="1087" d="M311 0v-410h-164v1762h164v-486q95 60 277 60t298 -86q115 -86 115 -274q0 -227 -181 -388q-86 -78 -218 -125.5t-291 -52.5zM311 102q226 3 376.5 138.5t150.5 328.5q0 126 -64.5 190t-175.5 64q-155 0 -221 -80.5t-66 -234.5v-406z" />
<glyph unicode="&#xff;" horiz-adv-x="880" d="M0 0zM201 -348q-55 0 -101 33t-110 102l131 66q47 -64 68.5 -81.5t41.5 -17.5q40 0 73 67q14 28 52 134l17 45l-328 901h150l251 -696l254 696h164l-346 -950q-54 -148 -129 -223.5t-188 -75.5zM725 1086zM561 1264h164v-178h-164v178zM193 1264h164v-178h-164v178z" />
<glyph unicode="&#x100;" horiz-adv-x="1298" d="M39 0zM405 1639h472v-82h-472v82zM39 0l522 1434h180l523 -1434h-164l-150 410h-598l-149 -410h-164zM651 1231l-262 -719h524z" />
<glyph unicode="&#x101;" horiz-adv-x="974" d="M94 0zM243 1209h472v-82h-472v82zM115 829q178 93 323 93q188 0 270 -41q48 -24 76 -58.5t46 -95.5q28 -99 28 -313v-414h-164v16q-113 -36 -223 -36q-174 0 -275.5 78.5t-101.5 252.5q0 197 174 273q89 40 195 40h3q108 0 224 -18q-6 120 -51.5 166.5t-165 46.5 t-256.5 -96zM694 125v373q-93 22 -193 22t-171.5 -54t-71.5 -156t73 -165t173 -63t190 43z" />
<glyph unicode="&#x102;" horiz-adv-x="1298" d="M39 0zM549.5 1662q46.5 -30 102 -30t102 30t51.5 65l78 -21q-9 -78 -76.5 -134t-155.5 -56t-155 56t-76 134l78 21q5 -35 51.5 -65zM39 0l522 1434h180l523 -1434h-164l-150 410h-598l-149 -410h-164zM651 1231l-262 -719h524z" />
<glyph unicode="&#x103;" horiz-adv-x="974" d="M94 0zM387.5 1232q46.5 -30 102 -30t102 30t51.5 65l78 -21q-9 -78 -76.5 -134t-155.5 -56t-155 56t-76 134l78 21q5 -35 51.5 -65zM115 829q178 93 323 93q188 0 270 -41q48 -24 76 -58.5t46 -95.5q28 -99 28 -313v-414h-164v16q-113 -36 -223 -36q-174 0 -275.5 78.5 t-101.5 252.5q0 197 174 273q89 40 195 40h3q108 0 224 -18q-6 120 -51.5 166.5t-165 46.5t-256.5 -96zM694 125v373q-93 22 -193 22t-171.5 -54t-71.5 -156t73 -165t173 -63t190 43z" />
<glyph unicode="&#x104;" horiz-adv-x="1298" d="M651 1231l-262 -719h524zM39 0l522 1434h180l523 -1434h-164q-47 -24 -81 -62.5t-34 -96t36.5 -91t131.5 -33.5v-36h-5q-217 0 -266 87q-12 22 -12 46q0 68 68.5 124.5t153.5 83.5l-142 388h-598l-149 -410h-164z" />
<glyph unicode="&#x105;" horiz-adv-x="974" d="M694 125v373q-93 22 -193 22t-171.5 -54t-71.5 -156t73 -165t173 -63t190 43zM115 829q178 93 323 93q188 0 270 -41q48 -24 76 -58.5t46 -95.5q28 -99 28 -313v-414h-12q-47 -24 -81 -62.5t-34 -96t36.5 -91t131.5 -33.5v-36h-5q-217 0 -266 87q-12 22 -12 46 q0 55 47.5 104t117.5 82h-87v16q-113 -36 -223 -36q-174 0 -275.5 78.5t-101.5 252.5q0 197 174 273q89 40 195 40h3q108 0 224 -18q-6 120 -51.5 166.5t-165 46.5t-256.5 -96z" />
<glyph unicode="&#x106;" horiz-adv-x="1331" d="M102 0zM848 1888l111 -92l-287 -295l-63 54zM1249 209q-80 -103 -213.5 -166t-294.5 -63q-177 0 -340 113q-185 129 -258 351q-41 126 -41 273.5t37 272t97 208.5t139 143q151 113 327 113q373 0 541 -209l-153 -67q-55 78 -145 126t-196.5 48t-187.5 -39.5 t-145.5 -115.5t-102 -200t-37.5 -267t33 -252q33 -108 85 -180q54 -72 120 -122q170 -86 258 -94q238 0 356 182z" />
<glyph unicode="&#x107;" horiz-adv-x="1017" d="M90 0zM663 1458l111 -92l-287 -295l-63 54zM932 158q-141 -178 -379 -178q-202 0 -332.5 129.5t-130.5 341.5q0 104 37 194q37 89 97 149q129 128 275.5 128t243.5 -67.5t150 -178.5l-133 -68q-26 97 -81 154t-136 57q-120 0 -204.5 -102t-84.5 -268t91.5 -266.5 t239.5 -100.5t224 123z" />
<glyph unicode="&#x108;" horiz-adv-x="1331" d="M102 0zM994 1594l-92 -91l-183 177l-184 -177l-92 91l276 208zM1249 209q-80 -103 -213.5 -166t-294.5 -63q-177 0 -340 113q-185 129 -258 351q-41 126 -41 273.5t37 272t97 208.5t139 143q151 113 327 113q373 0 541 -209l-153 -67q-55 78 -145 126t-196.5 48 t-187.5 -39.5t-145.5 -115.5t-102 -200t-37.5 -267t33 -252q33 -108 85 -180q54 -72 120 -122q170 -86 258 -94q238 0 356 182z" />
<glyph unicode="&#x109;" horiz-adv-x="1017" d="M90 0zM809 1164l-92 -91l-183 177l-184 -177l-92 91l276 208zM932 158q-141 -178 -379 -178q-202 0 -332.5 129.5t-130.5 341.5q0 104 37 194q37 89 97 149q129 128 275.5 128t243.5 -67.5t150 -178.5l-133 -68q-26 97 -81 154t-136 57q-120 0 -204.5 -102t-84.5 -268 t91.5 -266.5t239.5 -100.5t224 123z" />
<glyph unicode="&#x10a;" horiz-adv-x="1331" d="M102 0zM631 1694h164v-178h-164v178zM1249 209q-80 -103 -213.5 -166t-294.5 -63q-177 0 -340 113q-185 129 -258 351q-41 126 -41 273.5t37 272t97 208.5t139 143q151 113 327 113q373 0 541 -209l-153 -67q-55 78 -145 126t-196.5 48t-187.5 -39.5t-145.5 -115.5 t-102 -200t-37.5 -267t33 -252q33 -108 85 -180q54 -72 120 -122q170 -86 258 -94q238 0 356 182z" />
<glyph unicode="&#x10b;" horiz-adv-x="1017" d="M90 0zM446 1264h164v-178h-164v178zM932 158q-141 -178 -379 -178q-202 0 -332.5 129.5t-130.5 341.5q0 104 37 194q37 89 97 149q129 128 275.5 128t243.5 -67.5t150 -178.5l-133 -68q-26 97 -81 154t-136 57q-120 0 -204.5 -102t-84.5 -268t91.5 -266.5t239.5 -100.5 t224 123z" />
<glyph unicode="&#x10c;" horiz-adv-x="1331" d="M1249 209q-80 -103 -213.5 -166t-294.5 -63q-177 0 -340 113q-185 129 -258 351q-41 126 -41 270.5t34 265t90 203.5t130 143q141 114 312 127l-191 265l64 54l176 -181l176 181l63 -54l-190 -266q324 -17 477 -207l-153 -67q-55 78 -145 126t-196.5 48t-187.5 -39.5 t-145.5 -115.5t-102 -200t-37.5 -267t33 -252q33 -108 85 -180q54 -72 120 -122q170 -86 258 -94q238 0 356 182z" />
<glyph unicode="&#x10d;" horiz-adv-x="1017" d="M90 0zM532 955l-239 334l63 53l176 -180l176 180l64 -53zM932 158q-141 -178 -379 -178q-202 0 -332.5 129.5t-130.5 341.5q0 104 37 194q37 89 97 149q129 128 275.5 128t243.5 -67.5t150 -178.5l-133 -68q-26 97 -81 154t-136 57q-120 0 -204.5 -102t-84.5 -268 t91.5 -266.5t239.5 -100.5t224 123z" />
<glyph unicode="&#x10e;" horiz-adv-x="1304" d="M348 1331v-1229h352q137 0 230 147q100 157 100 488q0 375 -139 515q-78 79 -188 79h-3h-352zM670 0h-496v1434h372l-204 284l64 54l176 -181l176 181l63 -54l-204 -284h53q534 0 534 -697q0 -361 -142.5 -549t-391.5 -188z" />
<glyph unicode="&#x10f;" horiz-adv-x="1191" d="M90 0zM1044 1352h148q0 -237 -64 -344q-12 -19 -14 -23h-76q49 69 49 152q0 25 -21.5 95t-21.5 120zM780 823v529h164v-1352h-164v47q-105 -67 -276 -67q-190 0 -304 140q-110 136 -110 331q0 129 49.5 235.5t145.5 171t235.5 64.5t259.5 -99zM780 398q0 78 -12 148 t-38.5 133.5t-76.5 101.5t-125.5 38t-141.5 -56.5t-99 -139.5t-33 -172t33 -172.5t99 -140t149 -56.5q93 0 166 75q79 81 79 241z" />
<glyph unicode="&#x110;" horiz-adv-x="1304" d="M61 0zM670 0h-496v725h-113v102h113v607h496q534 0 534 -697q0 -361 -142.5 -549t-391.5 -188zM348 725v-623h352q137 0 230 147q100 157 100 488q0 375 -139 515q-78 79 -188 79h-3h-352v-504h316v-102h-316z" />
<glyph unicode="&#x111;" horiz-adv-x="1089" d="M944 1085v-1085h-164v47q-105 -67 -276 -67q-190 0 -304 140q-110 136 -110 331q0 129 49.5 235.5t145.5 171t235.5 64.5t259.5 -99v262h-190v103h190v164h164v-164h68v-103h-68zM780 397v4q0 157 -50 279q-26 64 -76.5 101.5t-126 37.5t-141.5 -56.5t-99 -139.5 t-33 -172t33 -172.5t99 -140t160.5 -56.5t164 86.5t69.5 228.5z" />
<glyph unicode="&#x112;" horiz-adv-x="1118" d="M174 0zM368 1639h472v-82h-472v82zM1034 0h-860v1434h827v-103h-653v-430h469v-102h-469v-697h686v-102z" />
<glyph unicode="&#x113;" horiz-adv-x="1028" d="M90 0zM284 1209h472v-82h-472v82zM932 158q-141 -178 -379 -178q-202 0 -332.5 129.5t-130.5 341.5q0 104 37 194q37 89 97 149q129 128 288 128q103 0 187 -42q83 -42 135 -110q108 -143 108 -319h-688q0 -168 91.5 -268.5t239.5 -100.5t224 123zM264 553h506 q-18 120 -76 193t-154 73t-173 -72t-103 -194z" />
<glyph unicode="&#x114;" horiz-adv-x="1118" d="M174 0zM1034 0h-860v1434h827v-103h-653v-430h469v-102h-469v-697h686v-102zM512.5 1662q46.5 -30 102 -30t102 30t51.5 65l78 -21q-9 -78 -76.5 -134t-155.5 -56t-155 56t-76 134l78 21q5 -35 51.5 -65z" />
<glyph unicode="&#x115;" horiz-adv-x="1028" d="M90 0zM932 158q-141 -178 -379 -178q-202 0 -332.5 129.5t-130.5 341.5q0 104 37 194q37 89 97 149q129 128 288 128q103 0 187 -42q83 -42 135 -110q108 -143 108 -319h-688q0 -168 91.5 -268.5t239.5 -100.5t224 123zM264 553h506q-18 120 -76 193t-154 73t-173 -72 t-103 -194zM428.5 1232q46.5 -30 102 -30t102 30t51.5 65l78 -21q-9 -78 -76.5 -134t-155.5 -56t-155 56t-76 134l78 21q5 -35 51.5 -65z" />
<glyph unicode="&#x116;" horiz-adv-x="1118" d="M174 0zM528 1694h164v-178h-164v178zM1034 0h-860v1434h827v-103h-653v-430h469v-102h-469v-697h686v-102z" />
<glyph unicode="&#x117;" horiz-adv-x="1028" d="M90 0zM444 1264h164v-178h-164v178zM932 158q-141 -178 -379 -178q-202 0 -332.5 129.5t-130.5 341.5q0 104 37 194q37 89 97 149q129 128 288 128q103 0 187 -42q83 -42 135 -110q108 -143 108 -319h-688q0 -168 91.5 -268.5t239.5 -100.5t224 123zM264 553h506 q-18 120 -76 193t-154 73t-173 -72t-103 -194z" />
<glyph unicode="&#x118;" horiz-adv-x="1118" d="M846 0q-47 -24 -81 -62.5t-34 -96t36.5 -91t131.5 -33.5v-36h-5q-217 0 -266 87q-12 22 -12 46q0 55 47.5 104t117.5 82h-607v1434h827v-103h-653v-430h469v-102h-469v-697h686v-102h-188z" />
<glyph unicode="&#x119;" horiz-adv-x="1028" d="M264 553h506q-18 120 -76 193t-154 73t-173 -72t-103 -194zM358 -186q0 94 132 169q-178 21 -289 147t-111 321q0 104 37 194q37 89 97 149q129 128 288 128q103 0 187 -42q83 -42 135 -110q108 -143 108 -319h-688q0 -168 91.5 -268.5t239.5 -100.5t224 123l123 -47 q-141 -178 -379 -178q-80 -55 -80 -125.5t36.5 -104t131.5 -33.5v-36h-5q-217 0 -266 87q-12 22 -12 46z" />
<glyph unicode="&#x11a;" horiz-adv-x="1118" d="M1034 0h-860v1434h405l-204 284l63 54l176 -181l177 181l63 -54l-204 -284h351v-103h-653v-430h469v-102h-469v-697h686v-102z" />
<glyph unicode="&#x11b;" horiz-adv-x="1028" d="M90 0zM530 955l-239 334l63 53l176 -180l176 180l64 -53zM932 158q-141 -178 -379 -178q-202 0 -332.5 129.5t-130.5 341.5q0 104 37 194q37 89 97 149q129 128 288 128q103 0 187 -42q83 -42 135 -110q108 -143 108 -319h-688q0 -168 91.5 -268.5t239.5 -100.5t224 123z M264 553h506q-18 120 -76 193t-154 73t-173 -72t-103 -194z" />
<glyph unicode="&#x11c;" horiz-adv-x="1372" d="M102 0zM994 1594l-92 -91l-183 177l-184 -177l-92 91l276 208zM913 819h336v-610q-80 -103 -213.5 -166t-294.5 -63q-177 0 -340 113q-185 129 -258 351q-41 126 -41 273t37 269t97 204t139 138q149 106 327 106q389 0 541 -189l-153 -67q-108 153 -357 153 q-187 0 -317 -145q-140 -156 -140 -469q0 -130 33 -239q33 -108 85 -180q54 -72 120 -122q170 -86 258 -94q195 0 313 127v508h-172v102z" />
<glyph unicode="&#x11d;" horiz-adv-x="1038" d="M90 0zM783 1164l-92 -91l-183 177l-184 -177l-92 91l276 208zM893 901v-741q0 -214 -23 -294t-51 -114q-29 -34 -77 -59q-83 -41 -249.5 -41t-342.5 92l102 106q137 -96 252 -96q71 0 113.5 13t66.5 47q41 57 45 209q-97 -43 -207 -43q-199 0 -315.5 127.5t-116.5 339.5 t115.5 343.5t264.5 131.5t259 -78v57h164zM729 145v463q-26 97 -81 154t-136 57q-116 0 -187 -100t-71 -270t77.5 -268.5t221.5 -98.5q107 0 176 63z" />
<glyph unicode="&#x11e;" horiz-adv-x="1372" d="M102 0zM615.5 1662q46.5 -30 102 -30t102 30t51.5 65l78 -21q-9 -78 -76.5 -134t-155.5 -56t-155 56t-76 134l78 21q5 -35 51.5 -65zM913 819h336v-610q-80 -103 -213.5 -166t-294.5 -63q-177 0 -340 113q-185 129 -258 351q-41 126 -41 273t37 269t97 204t139 138 q149 106 327 106q389 0 541 -189l-153 -67q-108 153 -357 153q-187 0 -317 -145q-140 -156 -140 -469q0 -130 33 -239q33 -108 85 -180q54 -72 120 -122q170 -86 258 -94q195 0 313 127v508h-172v102z" />
<glyph unicode="&#x11f;" horiz-adv-x="1038" d="M90 0zM404.5 1232q46.5 -30 102 -30t102 30t51.5 65l78 -21q-9 -78 -76.5 -134t-155.5 -56t-155 56t-76 134l78 21q5 -35 51.5 -65zM893 901v-741q0 -214 -23 -294t-51 -114q-29 -34 -77 -59q-83 -41 -249.5 -41t-342.5 92l102 106q137 -96 252 -96q71 0 113.5 13 t66.5 47q41 57 45 209q-97 -43 -207 -43q-199 0 -315.5 127.5t-116.5 339.5t115.5 343.5t264.5 131.5t259 -78v57h164zM729 145v463q-26 97 -81 154t-136 57q-116 0 -187 -100t-71 -270t77.5 -268.5t221.5 -98.5q107 0 176 63z" />
<glyph unicode="&#x120;" horiz-adv-x="1372" d="M102 0zM631 1694h164v-178h-164v178zM913 819h336v-610q-80 -103 -213.5 -166t-294.5 -63q-177 0 -340 113q-185 129 -258 351q-41 126 -41 273t37 269t97 204t139 138q149 106 327 106q389 0 541 -189l-153 -67q-108 153 -357 153q-187 0 -317 -145q-140 -156 -140 -469 q0 -130 33 -239q33 -108 85 -180q54 -72 120 -122q170 -86 258 -94q195 0 313 127v508h-172v102z" />
<glyph unicode="&#x121;" horiz-adv-x="1038" d="M90 0zM420 1264h164v-178h-164v178zM893 901v-741q0 -214 -23 -294t-51 -114q-29 -34 -77 -59q-83 -41 -249.5 -41t-342.5 92l102 106q137 -96 252 -96q71 0 113.5 13t66.5 47q41 57 45 209q-97 -43 -207 -43q-199 0 -315.5 127.5t-116.5 339.5t115.5 343.5t264.5 131.5 t259 -78v57h164zM729 145v463q-26 97 -81 154t-136 57q-116 0 -187 -100t-71 -270t77.5 -268.5t221.5 -98.5q107 0 176 63z" />
<glyph unicode="&#x122;" horiz-adv-x="1372" d="M102 0zM676 -106q118 0 196.5 -42t78.5 -104t-91.5 -105.5t-256.5 -43.5v49q111 0 166 19t55 68t-32.5 70.5t-115.5 30.5v58zM913 819h336v-610q-80 -103 -213.5 -166t-294.5 -63q-177 0 -340 113q-185 129 -258 351q-41 126 -41 273t37 269t97 204t139 138 q149 106 327 106q389 0 541 -189l-153 -67q-108 153 -357 153q-187 0 -317 -145q-140 -156 -140 -469q0 -130 33 -239q33 -108 85 -180q54 -72 120 -122q170 -86 258 -94q195 0 313 127v508h-172v102z" />
<glyph unicode="&#x123;" horiz-adv-x="1038" d="M90 0zM574 1086h-148q0 202 34 284q15 37 28.5 57.5t15.5 24.5h76q-49 -69 -49 -151q0 -25 21.5 -95t21.5 -120zM893 901v-741q0 -214 -23 -294t-51 -114q-29 -34 -77 -59q-83 -41 -249.5 -41t-342.5 92l102 106q137 -96 252 -96q71 0 113.5 13t66.5 47q41 57 45 209 q-97 -43 -207 -43q-199 0 -315.5 127.5t-116.5 339.5t115.5 343.5t264.5 131.5t259 -78v57h164zM729 145v463q-26 97 -81 154t-136 57q-116 0 -187 -100t-71 -270t77.5 -268.5t221.5 -98.5q107 0 176 63z" />
<glyph unicode="&#x124;" horiz-adv-x="1351" d="M174 0zM963 1594l-92 -91l-183 177l-184 -177l-92 91l276 208zM348 1434v-615h660v615h174v-1434h-174v717h-660v-717h-174v1434h174z" />
<glyph unicode="&#x125;" horiz-adv-x="1087" d="M113 0zM664 1594l-92 -91l-183 177l-184 -177l-92 91l276 208zM311 723v-723h-164v1352h164v-482q99 52 209 52q216 0 322 -106t106 -324v-492h-164v467q0 210 -64 284q-58 68 -178 68t-231 -96z" />
<glyph unicode="&#x126;" horiz-adv-x="1351" d="M1008 1159h-660v-340h660v340zM174 1159h-82v103h82v172h174v-172h660v172h174v-172h82v-103h-82v-1159h-174v717h-660v-717h-174v1159z" />
<glyph unicode="&#x127;" horiz-adv-x="1087" d="M311 723v-723h-164v1085h-81v103h81v164h164v-164h176v-103h-176v-215q99 52 209 52q216 0 322 -106t106 -324v-492h-164v467q0 210 -64 284q-58 68 -178 68t-231 -96z" />
<glyph unicode="&#x128;" horiz-adv-x="514" d="M0 0zM471 1698h84q-9 -80 -62 -131t-139 -51q-38 0 -96.5 32.5t-77.5 32.5q-97 0 -106 -65h-84q9 80 62 131t139 51q38 0 96.5 -33t77.5 -33q97 0 106 66zM346 1434v-1434h-174v1434h174z" />
<glyph unicode="&#x129;" horiz-adv-x="407" d="M0 0zM416 1268h84q-9 -80 -62 -131t-139 -51q-38 0 -96.5 32.5t-77.5 32.5q-97 0 -106 -65h-84q9 80 62 131t139 51q38 0 96.5 -33t77.5 -33q97 0 106 66zM123 901h164v-901h-164v901z" />
<glyph unicode="&#x12a;" horiz-adv-x="514" d="M16 0zM16 1639h472v-82h-472v82zM346 1434v-1434h-174v1434h174z" />
<glyph unicode="&#x12b;" horiz-adv-x="471" d="M0 0zM0 1209h472v-82h-472v82zM174 901h164v-901h-164v901z" />
<glyph unicode="&#x12c;" horiz-adv-x="514" d="M31 0zM346 1434v-1434h-174v1434h174zM160.5 1662q46.5 -30 102 -30t102 30t51.5 65l78 -21q-9 -78 -76.5 -134t-155.5 -56t-155 56t-76 134l78 21q5 -35 51.5 -65z" />
<glyph unicode="&#x12d;" horiz-adv-x="407" d="M0 0zM123 901h164v-901h-164v901zM105.5 1232q46.5 -30 102 -30t102 30t51.5 65l78 -21q-9 -78 -76.5 -134t-155.5 -56t-155 56t-76 134l78 21q5 -35 51.5 -65z" />
<glyph unicode="&#x12e;" horiz-adv-x="514" d="M346 1434v-1434h-110q-47 -24 -81 -62.5t-34 -96t36.5 -91t131.5 -33.5v-36h-5q-217 0 -266 87q-12 22 -12 46q0 56 48 105t118 82v1433h174z" />
<glyph unicode="&#x12f;" horiz-adv-x="407" d="M123 1249h164v-164h-164v164zM123 901h164v-901h-8q-47 -24 -81 -62.5t-34 -96t36.5 -91t131.5 -33.5v-36h-5q-216 0 -265 87q-12 22 -13 46q0 55 47.5 104t116.5 82h-90v901z" />
<glyph unicode="&#x130;" horiz-adv-x="514" d="M172 0zM176 1694h164v-178h-164v178zM346 1434v-1434h-174v1434h174z" />
<glyph unicode="&#x131;" horiz-adv-x="407" d="M123 901h164v-901h-164v901z" />
<glyph unicode="&#x132;" horiz-adv-x="1392" d="M172 0zM1226 487q0 -211 -25 -292t-54 -115.5t-79 -58.5q-85 -41 -252 -41t-343 92l102 106q137 -96 252 -96q140 0 179 58q33 48 38 102q8 74 8 200v992h174v-947zM346 1434v-1434h-174v1434h174z" />
<glyph unicode="&#x133;" horiz-adv-x="843" d="M123 0zM340 -195q36 -51 102 -51t91.5 58.5t25.5 187.5v901h164v-969q0 -204 -196 -264q-52 -16 -109 -16q-130 0 -207 92zM559 1249h164v-164h-164v164zM123 1249h164v-164h-164v164zM123 901h164v-901h-164v901z" />
<glyph unicode="&#x134;" horiz-adv-x="954" d="M35 0zM981 1594l-92 -91l-183 177l-184 -177l-92 91l276 208zM788 487q0 -211 -25 -292t-54 -115.5t-79 -58.5q-85 -41 -252 -41t-343 92l102 106q137 -96 252 -96q140 0 179 58q33 48 38 102q8 74 8 200v992h174v-947z" />
<glyph unicode="&#x135;" horiz-adv-x="536" d="M0 0zM611 1164l-92 -91l-183 177l-184 -177l-92 91l276 208zM33 -195q36 -51 102 -51t91.5 58.5t25.5 187.5v901h164v-969q0 -204 -196 -264q-52 -16 -109 -16q-130 0 -207 92z" />
<glyph unicode="&#x136;" horiz-adv-x="1243" d="M174 0zM573 -106q118 0 196.5 -42t78.5 -104t-91.5 -105.5t-256.5 -43.5v49q111 0 166 19t55 68t-32.5 70.5t-115.5 30.5v58zM348 469v-469h-174v1434h174v-738l656 738h204l-585 -658l610 -776h-193l-520 662z" />
<glyph unicode="&#x137;" horiz-adv-x="980" d="M147 0zM426 -106q118 0 196.5 -42t78.5 -104t-91.5 -105.5t-256.5 -43.5v49q111 0 166 19t55 68t-32.5 70.5t-115.5 30.5v58zM311 268v-268h-164v1352h164v-875l377 424h189l-357 -399l393 -502h-176l-313 395z" />
<glyph unicode="&#x138;" horiz-adv-x="980" d="M311 268v-268h-164v901h164v-424l377 424h189l-357 -399l393 -502h-176l-313 395z" />
<glyph unicode="&#x139;" horiz-adv-x="1083" d="M174 0zM571 1888l111 -92l-287 -295l-63 54zM348 102h686v-102h-860v1434h174v-1332z" />
<glyph unicode="&#x13a;" horiz-adv-x="456" d="M121 0zM360 1888l111 -92l-287 -295l-63 54zM311 1352v-1352h-164v1352h164z" />
<glyph unicode="&#x13b;" horiz-adv-x="1083" d="M174 0zM514 -106q118 0 196.5 -42t78.5 -104t-91.5 -105.5t-256.5 -43.5v49q111 0 166 19t55 68t-32.5 70.5t-115.5 30.5v58zM348 102h686v-102h-860v1434h174v-1332z" />
<glyph unicode="&#x13c;" horiz-adv-x="456" d="M68 0zM141 -106q118 0 196.5 -42t78.5 -104t-91.5 -105.5t-256.5 -43.5v49q111 0 166 19t55 68t-32.5 70.5t-115.5 30.5v58zM311 1352v-1352h-164v1352h164z" />
<glyph unicode="&#x13d;" horiz-adv-x="1083" d="M174 0zM504 1434h148q0 -237 -64 -344q-12 -19 -14 -23h-76q49 69 49 152q0 25 -21.5 95t-21.5 120zM348 102h686v-102h-860v1434h174v-1332z" />
<glyph unicode="&#x13e;" horiz-adv-x="620" d="M147 0zM473 1352h148q0 -237 -64 -344q-12 -19 -14 -23h-76q49 69 49 152q0 25 -21.5 95t-21.5 120zM311 1352v-1352h-164v1352h164z" />
<glyph unicode="&#x13f;" horiz-adv-x="1083" d="M174 0zM522 639zM522 817h164v-178h-164v178zM348 102h686v-102h-860v1434h174v-1332z" />
<glyph unicode="&#x140;" horiz-adv-x="729" d="M147 0zM448 639zM448 817h164v-178h-164v178zM311 1352v-1352h-164v1352h164z" />
<glyph unicode="&#x141;" horiz-adv-x="1083" d="M348 102h686v-102h-860v705l-100 -84l-66 79l166 140v594h174v-449l113 94l65 -80l-178 -149v-748z" />
<glyph unicode="&#x142;" horiz-adv-x="456" d="M147 713l-110 -92l-66 79l176 148v504h164v-367l113 94l65 -80l-178 -149v-850h-164v713z" />
<glyph unicode="&#x143;" horiz-adv-x="1406" d="M174 0zM848 1888l111 -92l-287 -295l-63 54zM1059 0l-711 1157v-1157h-174v1434h176l713 -1160v1160h174v-1434h-178z" />
<glyph unicode="&#x144;" horiz-adv-x="1087" d="M147 0zM680 1458l111 -92l-287 -295l-63 54zM311 723v-723h-164v901h164v-31q99 52 209 52q216 0 322 -106t106 -324v-492h-164v467q0 210 -64 284q-58 68 -178 68t-231 -96z" />
<glyph unicode="&#x145;" horiz-adv-x="1406" d="M174 0zM614 -106q118 0 196.5 -42t78.5 -104t-91.5 -105.5t-256.5 -43.5v49q111 0 166 19t55 68t-32.5 70.5t-115.5 30.5v58zM1059 0l-711 1157v-1157h-174v1434h176l713 -1160v1160h174v-1434h-178z" />
<glyph unicode="&#x146;" horiz-adv-x="1087" d="M147 0zM458 -106q118 0 196.5 -42t78.5 -104t-91.5 -105.5t-256.5 -43.5v49q111 0 166 19t55 68t-32.5 70.5t-115.5 30.5v58zM311 723v-723h-164v901h164v-31q99 52 209 52q216 0 322 -106t106 -324v-492h-164v467q0 210 -64 284q-58 68 -178 68t-231 -96z" />
<glyph unicode="&#x147;" horiz-adv-x="1406" d="M174 0zM717 1385l-239 334l63 53l176 -180l176 180l64 -53zM1059 0l-711 1157v-1157h-174v1434h176l713 -1160v1160h174v-1434h-178z" />
<glyph unicode="&#x148;" horiz-adv-x="1087" d="M147 0zM549 955l-239 334l63 53l176 -180l176 180l64 -53zM311 723v-723h-164v901h164v-31q99 52 209 52q216 0 322 -106t106 -324v-492h-164v467q0 210 -64 284q-58 68 -178 68t-231 -96z" />
<glyph unicode="&#x149;" horiz-adv-x="1198" d="M61 0zM422 723v-723h-164v901h164v-31q99 52 209 52q216 0 322 -106t106 -324v-492h-164v467q0 210 -64 284q-58 68 -178 68t-231 -96zM67 1353h148q-1 -202 -35 -284q-15 -37 -28 -57.5t-15 -24.5h-76q49 69 49 151q0 25 -21.5 95t-21.5 120z" />
<glyph unicode="&#x14a;" horiz-adv-x="1251" d="M528 178q135 -96 228 -96q97 0 134 75q20 41 32 77q12 38 17 110q7 102 7 250v324q0 352 -287 352q-99 0 -186.5 -40t-150.5 -95v-1135h-175v1352h175v-70q2 1 21.5 11.5t26 13.5t26 12.5t31.5 13.5t32.5 12t37.5 11.5t39 7.5q37 8 93 8q224 0 357.5 -109.5t133.5 -320.5 v-303q0 -404 -118 -546q-94 -113 -277 -113q-77 0 -145 23.5t-154 68.5z" />
<glyph unicode="&#x14b;" horiz-adv-x="1087" d="M948 492v-560q0 -204 -196 -264q-52 -16 -109 -16q-130 0 -207 92l129 61q36 -51 102.5 -51t91.5 58.5t25 187.5v467q0 210 -64 284q-58 68 -178 68t-231 -96v-723h-164v901h164v-31q99 52 209 52q216 0 322 -106t106 -324z" />
<glyph unicode="&#x14c;" d="M102 0zM460 1639h472v-82h-472v82zM946 24q-112 -44 -218.5 -44t-190 27t-162.5 86t-139.5 143t-97 208.5t-36.5 272.5t34 273q34 124 92 208q61 88 134 144q146 112 324 112q214 0 374 -112q277 -193 277 -622q0 -190 -51 -333q-51 -144 -139.5 -231.5t-200.5 -131.5z M703 1352q-62 0 -120 -24t-113 -76q-54 -52 -98 -125q-96 -160 -96 -410q0 -129 30 -238.5t78 -180.5q48 -72 107 -122q112 -94 226 -94q132 0 244 100q202 181 202 535q0 370 -209 541q-115 94 -251 94z" />
<glyph unicode="&#x14d;" horiz-adv-x="1056" d="M90 0zM288 1209h472v-82h-472v82zM807 451q0 162 -74 265t-192 103t-202.5 -102t-84.5 -270.5t73 -266.5t202.5 -98t203.5 103.5t74 265.5zM971 451q0 -229 -126 -350t-328.5 -121t-314.5 127t-112 344q0 104 37 194q37 89 97 149q129 128 288 128q207 0 333 -121 t126 -350z" />
<glyph unicode="&#x14e;" d="M102 0zM946 24q-112 -44 -218.5 -44t-190 27t-162.5 86t-139.5 143t-97 208.5t-36.5 272.5t34 273q34 124 92 208q61 88 134 144q146 112 324 112q214 0 374 -112q277 -193 277 -622q0 -190 -51 -333q-51 -144 -139.5 -231.5t-200.5 -131.5zM703 1352q-62 0 -120 -24 t-113 -76q-54 -52 -98 -125q-96 -160 -96 -410q0 -129 30 -238.5t78 -180.5q48 -72 107 -122q112 -94 226 -94q132 0 244 100q202 181 202 535q0 370 -209 541q-115 94 -251 94zM604.5 1662q46.5 -30 102 -30t102 30t51.5 65l78 -21q-9 -78 -76.5 -134t-155.5 -56t-155 56 t-76 134l78 21q5 -35 51.5 -65z" />
<glyph unicode="&#x14f;" horiz-adv-x="1056" d="M90 0zM807 451q0 162 -74 265t-192 103t-202.5 -102t-84.5 -270.5t73 -266.5t202.5 -98t203.5 103.5t74 265.5zM971 451q0 -229 -126 -350t-328.5 -121t-314.5 127t-112 344q0 104 37 194q37 89 97 149q129 128 288 128q207 0 333 -121t126 -350zM432.5 1232 q46.5 -30 102 -30t102 30t51.5 65l78 -21q-9 -78 -76.5 -134t-155.5 -56t-155 56t-76 134l78 21q5 -35 51.5 -65z" />
<glyph unicode="&#x150;" d="M102 0zM1071 1501zM960 1888l111 -92l-287 -295l-63 54zM714 1888l111 -92l-287 -295l-63 54zM946 24q-112 -44 -218.5 -44t-190 27t-162.5 86t-139.5 143t-97 208.5t-36.5 272.5t34 273q34 124 92 208q61 88 134 144q146 112 324 112q214 0 374 -112q277 -193 277 -622 q0 -190 -51 -333q-51 -144 -139.5 -231.5t-200.5 -131.5zM703 1352q-62 0 -120 -24t-113 -76q-54 -52 -98 -125q-96 -160 -96 -410q0 -129 30 -238.5t78 -180.5q48 -72 107 -122q112 -94 226 -94q132 0 244 100q202 181 202 535q0 370 -209 541q-115 94 -251 94z" />
<glyph unicode="&#x151;" horiz-adv-x="1056" d="M90 0zM899 1071zM788 1458l111 -92l-287 -295l-63 54zM542 1458l111 -92l-287 -295l-63 54zM807 451q0 162 -74 265t-192 103t-202.5 -102t-84.5 -270.5t73 -266.5t202.5 -98t203.5 103.5t74 265.5zM971 451q0 -229 -126 -350t-328.5 -121t-314.5 127t-112 344 q0 104 37 194q37 89 97 149q129 128 288 128q207 0 333 -121t126 -350z" />
<glyph unicode="&#x152;" horiz-adv-x="1955" d="M1872 0h-860v53q-137 -73 -307 -73q-179 0 -330 113q-171 127 -237 351q-36 124 -36 272.5t34 273.5q34 124 92 208q61 88 134 144q146 112 325 112t325 -82v62h827v-103h-653v-430h469v-102h-469v-697h686v-102zM1012 1202q-134 150 -314 150q-122 0 -228 -100 q-194 -183 -194 -535q0 -129 30 -238.5t78 -180.5q48 -72 107 -122q112 -94 226 -94q76 0 154.5 38.5t140.5 112.5v969z" />
<glyph unicode="&#x153;" horiz-adv-x="1746" d="M807 451q0 162 -74 265t-192 103t-202.5 -102t-84.5 -270.5t73 -266.5t202.5 -98t203.5 103.5t74 265.5zM895 162q-118 -182 -383 -182q-198 0 -310 127t-112 344q0 104 37 194q37 89 97 149q129 128 288 128q126 0 226 -47t159 -138q61 87 150 136t188 49t183 -42 t136 -110q107 -143 107 -319h-688q0 -168 91.5 -268.5t239.5 -100.5t224 123l123 -47q-141 -178 -379 -178q-119 0 -217 47.5t-160 134.5zM983 553h506q-18 120 -76 193t-154 73t-173 -72t-103 -194z" />
<glyph unicode="&#x154;" horiz-adv-x="1118" d="M174 0zM692 1888l111 -92l-287 -295l-63 54zM348 655v-655h-174v1434h420q263 0 382 -182q62 -95 62 -208q0 -107 -62 -208q-69 -111 -214 -156q104 -104 205.5 -322t101.5 -358h-168q0 142 -108 355t-222 300h-223zM348 1331v-573h277q124 0 185 98q54 87 54 188 t-54 189q-60 98 -185 98h-277z" />
<glyph unicode="&#x155;" horiz-adv-x="677" d="M147 0zM528 1458l111 -92l-287 -295l-63 54zM672 741q-41 78 -161 78t-200 -84v-735h-164v901h164v-27q79 48 179 48t182 -29v-152z" />
<glyph unicode="&#x156;" horiz-adv-x="1118" d="M174 0zM508 -106q118 0 196.5 -42t78.5 -104t-91.5 -105.5t-256.5 -43.5v49q111 0 166 19t55 68t-32.5 70.5t-115.5 30.5v58zM348 655v-655h-174v1434h420q263 0 382 -182q62 -95 62 -208q0 -107 -62 -208q-69 -111 -214 -156q104 -104 205.5 -322t101.5 -358h-168 q0 142 -108 355t-222 300h-223zM348 1331v-573h277q124 0 185 98q54 87 54 188t-54 189q-60 98 -185 98h-277z" />
<glyph unicode="&#x157;" horiz-adv-x="677" d="M70 0zM143 -106q118 0 196.5 -42t78.5 -104t-91.5 -105.5t-256.5 -43.5v49q111 0 166 19t55 68t-32.5 70.5t-115.5 30.5v58zM672 741q-41 78 -161 78t-200 -84v-735h-164v901h164v-27q79 48 179 48t182 -29v-152z" />
<glyph unicode="&#x158;" horiz-adv-x="1118" d="M348 1331v-573h277q124 0 185 98q54 87 54 188t-54 189q-60 98 -185 98h-277zM348 655v-655h-174v1434h352l-204 284l63 54l176 -181l176 181l64 -54l-205 -284q260 0 380 -183q62 -95 62 -207q0 -107 -62 -208q-69 -111 -214 -156q104 -104 205.5 -322t101.5 -358h-168 q0 142 -108 355t-222 300h-223z" />
<glyph unicode="&#x159;" horiz-adv-x="677" d="M147 0zM397 955l-239 334l63 53l176 -180l176 180l64 -53zM672 741q-41 78 -161 78t-200 -84v-735h-164v901h164v-27q79 48 179 48t182 -29v-152z" />
<glyph unicode="&#x15a;" horiz-adv-x="1187" d="M102 0zM700 1888l111 -92l-287 -295l-63 54zM102 350l160 31q15 -117 116 -208t202 -91q157 0 242 75t85 208q0 121 -94 199q-74 61 -176.5 103.5t-164 69t-117.5 60t-99 73.5q-94 89 -94 232q0 96 61.5 178.5t157 128t216.5 45.5t236 -63.5t179 -165.5l-152 -43 q-92 170 -299 170q-116 0 -188 -116q-37 -60 -37 -124t25.5 -108t68.5 -75.5t99 -59.5t117.5 -54.5t123.5 -54.5t118 -65t99 -81q94 -97 94 -257t-141.5 -268.5t-374.5 -108.5q-149 0 -287.5 111t-175.5 259z" />
<glyph unicode="&#x15b;" horiz-adv-x="897" d="M88 0zM547 1458l111 -92l-287 -295l-63 54zM756 795l-119 -72q-82 72 -100.5 77t-36.5 11q-23 8 -82 8t-94 -34t-35 -97q0 -112 164 -141q362 -67 362 -285q0 -141 -105 -211.5t-276 -70.5q-114 0 -174 30t-85.5 47t-86.5 60l88 76q91 -64 139.5 -87.5t148.5 -23.5 t143.5 46t43.5 134q0 126 -217 162q-150 28 -229.5 96.5t-79.5 163.5t72 166.5t186 71.5t197.5 -30.5t175.5 -96.5z" />
<glyph unicode="&#x15c;" horiz-adv-x="1187" d="M102 0zM846 1594l-92 -91l-183 177l-184 -177l-92 91l276 208zM102 350l160 31q15 -117 116 -208t202 -91q157 0 242 75t85 208q0 121 -94 199q-74 61 -176.5 103.5t-164 69t-117.5 60t-99 73.5q-94 89 -94 232q0 96 61.5 178.5t157 128t216.5 45.5t236 -63.5t179 -165.5 l-152 -43q-92 170 -299 170q-116 0 -188 -116q-37 -60 -37 -124t25.5 -108t68.5 -75.5t99 -59.5t117.5 -54.5t123.5 -54.5t118 -65t99 -81q94 -97 94 -257t-141.5 -268.5t-374.5 -108.5q-149 0 -287.5 111t-175.5 259z" />
<glyph unicode="&#x15d;" horiz-adv-x="897" d="M88 0zM693 1164l-92 -91l-183 177l-184 -177l-92 91l276 208zM756 795l-119 -72q-82 72 -100.5 77t-36.5 11q-23 8 -82 8t-94 -34t-35 -97q0 -112 164 -141q362 -67 362 -285q0 -141 -105 -211.5t-276 -70.5q-114 0 -174 30t-85.5 47t-86.5 60l88 76q91 -64 139.5 -87.5 t148.5 -23.5t143.5 46t43.5 134q0 126 -217 162q-150 28 -229.5 96.5t-79.5 163.5t72 166.5t186 71.5t197.5 -30.5t175.5 -96.5z" />
<glyph unicode="&#x15e;" horiz-adv-x="1187" d="M102 350l160 31q15 -117 116 -208t202 -91q157 0 242 75t85 208q0 121 -94 199q-74 61 -176.5 103.5t-164 69t-117.5 60t-99 73.5q-94 89 -94 232q0 96 61.5 178.5t157 128t216.5 45.5t236 -63.5t179 -165.5l-152 -43q-92 170 -299 170q-116 0 -188 -116 q-37 -60 -37 -124t25.5 -108t68.5 -75.5t99 -59.5t117.5 -54.5t123.5 -54.5t118 -65t99 -81q94 -97 94 -251.5t-124 -260.5t-332 -120l-11 -93q66 -11 109 -46.5t43 -96.5t-91.5 -104t-256.5 -43v49q111 0 166 19t55 68t-32 70.5t-115 30.5l25 147q-139 19 -260 125.5 t-155 241.5z" />
<glyph unicode="&#x15f;" horiz-adv-x="897" d="M756 795l-119 -72q-82 72 -100.5 77t-36.5 11q-23 8 -82 8t-94 -34t-35 -97q0 -112 164 -141q362 -67 362 -285q0 -127 -85.5 -197t-229.5 -83l-11 -93q66 -11 109 -46.5t43 -96.5t-91.5 -104t-256.5 -43v49q111 0 166 19t55 68t-32 70.5t-115 30.5l25 145 q-112 7 -201 64q-33 21 -103 72l88 76q91 -64 139.5 -87.5t148.5 -23.5t143.5 46t43.5 134q0 126 -217 162q-150 28 -229.5 96.5t-79.5 163.5t72 166.5t186 71.5t197.5 -30.5t175.5 -96.5z" />
<glyph unicode="&#x160;" horiz-adv-x="1187" d="M102 350l160 31q15 -117 116 -208t202 -91q157 0 242 75t85 208q0 121 -94 199q-74 61 -176.5 103.5t-164 69t-117.5 60t-99 73.5q-94 89 -94 226.5t107.5 236t252.5 117.5l-192 268l63 54l176 -181l176 181l64 -54l-191 -265q127 -9 231 -71.5t163 -156.5l-152 -43 q-92 170 -299 170q-116 0 -188 -116q-37 -60 -37 -124t25.5 -108t68.5 -75.5t99 -59.5t117.5 -54.5t123.5 -54.5t118 -65t99 -81q94 -97 94 -257t-141.5 -268.5t-374.5 -108.5q-149 0 -287.5 111t-175.5 259z" />
<glyph unicode="&#x161;" horiz-adv-x="897" d="M88 0zM416 955l-239 334l63 53l176 -180l176 180l64 -53zM756 795l-119 -72q-82 72 -100.5 77t-36.5 11q-23 8 -82 8t-94 -34t-35 -97q0 -112 164 -141q362 -67 362 -285q0 -141 -105 -211.5t-276 -70.5q-114 0 -174 30t-85.5 47t-86.5 60l88 76q91 -64 139.5 -87.5 t148.5 -23.5t143.5 46t43.5 134q0 126 -217 162q-150 28 -229.5 96.5t-79.5 163.5t72 166.5t186 71.5t197.5 -30.5t175.5 -96.5z" />
<glyph unicode="&#x162;" horiz-adv-x="1280" d="M41 1434h1202v-103h-516v-1331h-14l-13 -111q66 -11 109 -46.5t43 -96.5t-91.5 -104t-256.5 -43v49q111 0 166 19t55 68t-32 70.5t-115 30.5l28 164h-53v1331h-512v103z" />
<glyph unicode="&#x163;" horiz-adv-x="567" d="M352 799v-799h-35l-12 -111q66 -11 109 -46.5t43 -96.5t-91.5 -104t-256.5 -43v49q111 0 166 19t55 68t-32.5 70.5t-115.5 30.5l29 164h-23v799h-135l31 102h104v297l164 31v-328h162v-102h-162z" />
<glyph unicode="&#x164;" horiz-adv-x="1280" d="M610 1434l-204 284l63 54l176 -181l176 181l64 -54l-205 -284h563v-103h-516v-1331h-174v1331h-512v103h569z" />
<glyph unicode="&#x165;" horiz-adv-x="567" d="M53 0zM405 1352h148q0 -237 -64 -344q-12 -19 -14 -23h-76q49 69 49 152q0 25 -21.5 95t-21.5 120zM352 799v-799h-164v799h-135l31 102h104v297l164 31v-328h162v-102h-162z" />
<glyph unicode="&#x166;" horiz-adv-x="1280" d="M41 1434h1202v-103h-516v-327h205v-103h-205v-901h-174v901h-205v103h205v327h-512v103z" />
<glyph unicode="&#x167;" horiz-adv-x="567" d="M186 500h-155v102h155v197h-135l31 102h104v297l164 31v-328h162v-102h-162v-197h178v-102h-178v-500h-164v500z" />
<glyph unicode="&#x168;" horiz-adv-x="1402" d="M156 0zM930 1698h84q-9 -80 -62 -131t-139 -51q-38 0 -96.5 32.5t-77.5 32.5q-97 0 -106 -65h-84q9 80 62 131t139 51q38 0 96.5 -33t77.5 -33q97 0 106 66zM1073 1434h174v-824q0 -420 -230 -555q-127 -75 -321 -75q-158 0 -284 75q-74 44 -129 111.5t-91 182t-36 261.5 v824h174v-824q0 -407 244 -502q67 -26 126.5 -26t106.5 13t97 49.5t86 93.5q83 131 83 372v824z" />
<glyph unicode="&#x169;" horiz-adv-x="1067" d="M143 0zM758 1268h84q-9 -80 -62 -131t-139 -51q-38 0 -96.5 32.5t-77.5 32.5q-97 0 -106 -65h-84q9 80 62 131t139 51q38 0 96.5 -33t77.5 -33q97 0 106 66zM780 172v729h164v-901h-164v33q-112 -53 -239 -53q-212 0 -305 104t-93 326v491h164v-467q0 -207 79 -284 q70 -68 185.5 -68t208.5 90z" />
<glyph unicode="&#x16a;" horiz-adv-x="1402" d="M156 0zM475 1639h472v-82h-472v82zM1073 1434h174v-824q0 -420 -230 -555q-127 -75 -321 -75q-158 0 -284 75q-74 44 -129 111.5t-91 182t-36 261.5v824h174v-824q0 -407 244 -502q67 -26 126.5 -26t106.5 13t97 49.5t86 93.5q83 131 83 372v824z" />
<glyph unicode="&#x16b;" horiz-adv-x="1067" d="M143 0zM303 1209h472v-82h-472v82zM780 172v729h164v-901h-164v33q-112 -53 -239 -53q-212 0 -305 104t-93 326v491h164v-467q0 -207 79 -284q70 -68 185.5 -68t208.5 90z" />
<glyph unicode="&#x16c;" horiz-adv-x="1402" d="M156 0zM619.5 1662q46.5 -30 102 -30t102 30t51.5 65l78 -21q-9 -78 -76.5 -134t-155.5 -56t-155 56t-76 134l78 21q5 -35 51.5 -65zM1073 1434h174v-824q0 -420 -230 -555q-127 -75 -321 -75q-158 0 -284 75q-74 44 -129 111.5t-91 182t-36 261.5v824h174v-824 q0 -407 244 -502q67 -26 126.5 -26t106.5 13t97 49.5t86 93.5q83 131 83 372v824z" />
<glyph unicode="&#x16d;" horiz-adv-x="1067" d="M143 0zM447.5 1232q46.5 -30 102 -30t102 30t51.5 65l78 -21q-9 -78 -76.5 -134t-155.5 -56t-155 56t-76 134l78 21q5 -35 51.5 -65zM780 172v729h164v-901h-164v33q-112 -53 -239 -53q-212 0 -305 104t-93 326v491h164v-467q0 -207 79 -284q70 -68 185.5 -68t208.5 90z " />
<glyph unicode="&#x16e;" horiz-adv-x="1402" d="M156 0zM627 1569q0 -38 28 -66t66 -28t66 28t28 66t-28 66t-66 28t-66 -28t-28 -66zM566 1569q0 65 45.5 110.5t109.5 45.5t110 -45.5t46 -110.5t-46 -110.5t-110 -45.5t-109.5 45.5t-45.5 110.5zM1073 1434h174v-824q0 -420 -230 -555q-127 -75 -321 -75q-158 0 -284 75 q-74 44 -129 111.5t-91 182t-36 261.5v824h174v-824q0 -407 244 -502q67 -26 126.5 -26t106.5 13t97 49.5t86 93.5q83 131 83 372v824z" />
<glyph unicode="&#x16f;" horiz-adv-x="1067" d="M143 0zM455 1139q0 -38 28 -66t66 -28t66 28t28 66t-28 66t-66 28t-66 -28t-28 -66zM394 1139q0 65 45.5 110.5t109.5 45.5t110 -45.5t46 -110.5t-46 -110.5t-110 -45.5t-109.5 45.5t-45.5 110.5zM780 172v729h164v-901h-164v33q-112 -53 -239 -53q-212 0 -305 104 t-93 326v491h164v-467q0 -207 79 -284q70 -68 185.5 -68t208.5 90z" />
<glyph unicode="&#x170;" horiz-adv-x="1402" d="M156 0zM1086 1501zM975 1888l111 -92l-287 -295l-63 54zM729 1888l111 -92l-287 -295l-63 54zM1073 1434h174v-824q0 -420 -230 -555q-127 -75 -321 -75q-158 0 -284 75q-74 44 -129 111.5t-91 182t-36 261.5v824h174v-824q0 -407 244 -502q67 -26 126.5 -26t106.5 13 t97 49.5t86 93.5q83 131 83 372v824z" />
<glyph unicode="&#x171;" horiz-adv-x="1067" d="M143 0zM914 1071zM803 1458l111 -92l-287 -295l-63 54zM557 1458l111 -92l-287 -295l-63 54zM780 172v729h164v-901h-164v33q-112 -53 -239 -53q-212 0 -305 104t-93 326v491h164v-467q0 -207 79 -284q70 -68 185.5 -68t208.5 90z" />
<glyph unicode="&#x172;" horiz-adv-x="1402" d="M557 -186q0 92 126 166q-155 4 -279 80q-72 44 -125.5 112t-88 181t-34.5 257v824h174v-824q0 -407 244 -502q67 -26 126.5 -26t106.5 13t97 49.5t86 93.5q83 131 83 372v824h174v-824q0 -500 -337 -604q-65 -20 -156 -25q-82 -55 -82 -126t36.5 -104.5t131.5 -33.5v-36 h-5q-216 0 -265 87q-12 22 -13 46z" />
<glyph unicode="&#x173;" horiz-adv-x="1067" d="M780 172v729h164v-901h-8q-47 -24 -81 -62.5t-34 -96t36.5 -91t131.5 -33.5v-36h-5q-215 0 -264 87q-12 22 -13 46q0 55 47.5 104t116.5 82h-91v33q-112 -53 -239 -53q-212 0 -305 104t-93 326v491h164v-467q0 -207 79 -284q70 -68 185.5 -68t208.5 90z" />
<glyph unicode="&#x174;" horiz-adv-x="1771" d="M35 0zM1151 1198l-92 -91l-183 177l-184 -177l-92 91l276 208zM500 0l-465 1434h151l404 -1241l231 708h137l232 -708l403 1241h152l-465 -1434h-180l-209 645l-211 -645h-180z" />
<glyph unicode="&#x175;" horiz-adv-x="1529" d="M29 0zM1037 1164l-92 -91l-183 177l-184 -177l-92 91l276 208zM430 205l254 696h150l251 -696l254 696h164l-327 -901h-148l-262 719l-262 -719h-148l-327 901h149z" />
<glyph unicode="&#x176;" horiz-adv-x="952" d="M23 0zM754 1594l-92 -91l-183 177l-184 -177l-92 91l276 208zM479 899l273 535h184l-371 -725v-709h-174v711l-368 723h184z" />
<glyph unicode="&#x177;" horiz-adv-x="880" d="M0 0zM738 1164l-92 -91l-183 177l-184 -177l-92 91l276 208zM201 -348q-55 0 -101 33t-110 102l131 66q47 -64 68.5 -81.5t41.5 -17.5q40 0 73 67q14 28 52 134l17 45l-328 901h150l251 -696l254 696h164l-346 -950q-54 -148 -129 -223.5t-188 -75.5z" />
<glyph unicode="&#x178;" horiz-adv-x="952" d="M23 0zM741 1516zM577 1694h164v-178h-164v178zM209 1694h164v-178h-164v178zM479 899l273 535h184l-371 -725v-709h-174v711l-368 723h184z" />
<glyph unicode="&#x179;" horiz-adv-x="1040" d="M61 0zM643 1888l111 -92l-287 -295l-63 54zM750 1331h-678l30 103h873l-690 -1332h698v-102h-922z" />
<glyph unicode="&#x17a;" horiz-adv-x="860" d="M43 0zM569 1458l111 -92l-287 -295l-63 54zM573 799h-530l31 102h743l-518 -799h524v-102h-770z" />
<glyph unicode="&#x17b;" horiz-adv-x="1040" d="M61 0zM426 1694h164v-178h-164v178zM750 1331h-678l30 103h873l-690 -1332h698v-102h-922z" />
<glyph unicode="&#x17c;" horiz-adv-x="860" d="M43 0zM352 1264h164v-178h-164v178zM573 799h-530l31 102h743l-518 -799h524v-102h-770z" />
<glyph unicode="&#x17d;" horiz-adv-x="1040" d="M750 1331h-678l30 103h375l-205 284l64 54l176 -181l176 181l64 -54l-205 -284h428l-690 -1332h698v-102h-922z" />
<glyph unicode="&#x17e;" horiz-adv-x="860" d="M43 0zM438 955l-239 334l63 53l176 -180l176 180l64 -53zM573 799h-530l31 102h743l-518 -799h524v-102h-770z" />
<glyph unicode="&#x17f;" horiz-adv-x="731" d="M139 0v864q0 215 11 269t22 87t25.5 52.5t37 38.5t49.5 29q26 10 64 18q66 14 150 14t138 -14q77 -20 185 -78l-102 -106q-75 53 -122.5 74.5t-87.5 21.5t-63.5 -2.5t-42 -10t-32.5 -14t-25 -23.5t-18 -29t-12 -39t-7.5 -45.5t-4 -57t-1.5 -64.5v-985h-164z" />
<glyph unicode="&#x180;" horiz-adv-x="1120" d="M344 471v-168q0 -189 194 -216q36 -5 91 -5t104 33t78 87t44 117.5t15 131.5t-15 131.5t-44 117.5q-64 119 -190 119q-91 -1 -155 -49q-122 -92 -122 -299zM344 852q106 70 235.5 70t217.5 -37t138.5 -103t74.5 -148.5t24 -182.5t-24.5 -182.5t-75.5 -148.5 q-108 -140 -344 -140q-230 0 -326 106q-84 94 -84 283v716h-98v103h98v164h164v-164h223v-103h-223v-233z" />
<glyph unicode="&#x181;" horiz-adv-x="1341" d="M573 1331v-502h181q62 0 112 27q50 26 79 66q59 80 59 153q0 114 -58 189q-51 67 -147 67h-226zM1006 795q128 -52 193 -165.5t65 -242.5q0 -161 -105 -270q-113 -117 -350 -117h-410v1325q-87 -14 -132.5 -64.5t-45.5 -107t7 -81t14.5 -31t25.5 -17.5l-26 -106 q-144 51 -182 126q-18 37 -19 84q0 134 102 220t256 86h369q268 0 360 -151q50 -83 50 -208q0 -65 -41.5 -145.5t-130.5 -134.5zM573 727v-625h267q122 0 186 83.5t64 181t-25 172.5t-84 131.5t-141 56.5h-267z" />
<glyph unicode="&#x186;" horiz-adv-x="1331" d="M618 1352q-231 0 -356 -174l-153 67q168 209 540 209q176 0 327 -113q169 -125 236 -351q37 -124 37 -272t-41 -273.5t-107 -209t-151 -142.5q-255 -114 -323 -114q-5 0 -9 1q-169 0 -302.5 63t-213.5 166l121 55q118 -182 357 -182q132 0 258 94q145 109 204 302 q33 109 33 252t-37.5 267t-101.5 200q-132 155 -318 155z" />
<glyph unicode="&#x187;" horiz-adv-x="1523" d="M702 1434q292 0 449 -109q42 60 111.5 89.5t146.5 29.5q130 0 207 -92l-129 -62q-36 51 -102.5 51t-91.5 -58t-25 -187l-154 -68q0 194 -172 266q-89 38 -193 38h-3q-106 0 -186 -37t-144 -109q-140 -156 -140 -469q0 -130 33 -239q33 -108 85 -180q54 -72 120 -122 q170 -86 258 -94q238 0 356 182l121 -55q-80 -103 -213.5 -166t-294.5 -63q-177 0 -340 113q-185 129 -258 351q-41 126 -41 273.5t37 270t97 203.5t139 137q150 106 327 106z" />
<glyph unicode="&#x188;" horiz-adv-x="1140" d="M932 158q-141 -178 -379 -178q-202 0 -332.5 129.5t-130.5 341.5q0 104 37 194q37 89 97 149q129 128 288 128q125 0 217 -58q11 192 199 246q50 14 106 14q130 0 207 -92l-129 -61q-36 51 -108 51q-34 0 -57 -19q-54 -45 -54 -215v-112l-133 -68q-26 97 -81 154t-136 57 q-120 0 -204.5 -102t-84.5 -268t91.5 -266.5t239.5 -100.5t224 123z" />
<glyph unicode="&#x189;" horiz-adv-x="1304" d="M61 0zM61 0zM670 0h-496v725h-113v102h113v607h496q534 0 534 -697q0 -361 -142.5 -549t-391.5 -188zM348 725v-623h352q137 0 230 147q100 157 100 488q0 375 -139 515q-78 79 -188 79h-3h-352v-504h316v-102h-316z" />
<glyph unicode="&#x18a;" horiz-adv-x="1529" d="M573 1331v-1229h353q138 0 230 147q99 156 99 481v7q-1 373 -139 515q-77 79 -187 79h-3h-353zM895 0h-496v1325q-87 -14 -132.5 -64.5t-45.5 -107t7 -81t14.5 -31t25.5 -17.5l-26 -106q-144 51 -182 126q-18 37 -19 84q0 134 102 220t256 86h496q256 0 395.5 -168.5 t139.5 -529t-143 -548.5t-392 -188z" />
<glyph unicode="&#x18e;" horiz-adv-x="1118" d="M96 0v102h686v697h-469v102h469v430h-653v103h827v-1434h-860z" />
<glyph unicode="&#x18f;" horiz-adv-x="1402" d="M1143 614h-881q30 -296 228 -452q127 -73 184 -80q83 0 155.5 31t139 92.5t114 167.5t60.5 241zM690 1352q-231 0 -356 -174l-154 67q168 209 541 209q171 0 323 -113q172 -127 240 -351q38 -122 38 -274q0 -156 -39 -284q-38 -128 -100.5 -210.5t-146.5 -138.5 q-154 -103 -352 -103q-139 0 -277 77q-137 76 -229 241q-96 170 -96 419h1065q0 157 -39.5 280t-105.5 199q-136 156 -312 156z" />
<glyph unicode="&#x190;" horiz-adv-x="1077" d="M836 285l151 -41q-45 -120 -149.5 -192t-262.5 -72q-103 0 -189 32.5t-140 82.5q-56 51 -94 113q-70 114 -70 232q0 104 56 216q63 128 206 194q-105 44 -153 120.5t-48 166.5q0 131 109.5 224t302.5 93q113 0 221 -56t164 -159l-152 -41q-11 84 -77 119t-174 35 t-164 -60.5t-56 -158.5t75 -165t233 -67h71v-102h-133q-145 0 -237 -133q-43 -63 -56.5 -128.5t-13.5 -106.5t17.5 -99.5t51 -116t91.5 -95.5t129 -38q132 0 200 47.5t91 155.5z" />
<glyph unicode="&#x191;" horiz-adv-x="1087" d="M348 -68q0 -203 -204 -264q-54 -16 -111 -16q-130 0 -207 92l129 61q36 -51 102 -51t91.5 58.5t25.5 187.5v1434h827v-103h-653v-430h469v-102h-469v-867z" />
<glyph unicode="&#x192;" horiz-adv-x="559" d="M330 -68q0 -204 -196 -264q-52 -16 -109 -16q-130 0 -207 92l129 61q36 -51 102 -51t91.5 58.5t25.5 187.5v799h-135l30 102h105v195q0 125 67.5 200.5t188.5 75.5q84 0 145 -22l-43 -111q-25 31 -80.5 31t-84.5 -49t-29 -179v-141h162v-102h-162v-867z" />
<glyph unicode="&#x193;" horiz-adv-x="1523" d="M702 1434q292 0 449 -109q42 60 111.5 89.5t146.5 29.5q130 0 207 -92l-129 -62q-36 51 -102.5 51t-91.5 -58t-25 -187l-154 -68q0 194 -172 266q-89 38 -193 38h-3q-106 0 -186 -37t-144 -109q-140 -156 -140 -469q0 -130 33 -239q33 -108 85 -180q54 -72 120 -122 q170 -86 258 -94q195 0 313 127v508h-172v102h336v-610q-80 -103 -213.5 -166t-294.5 -63q-177 0 -340 113q-185 129 -258 351q-41 126 -41 273.5t37 270t97 203.5t139 137q150 106 327 106z" />
<glyph unicode="&#x194;" horiz-adv-x="1153" d="M578 -123q-31 -105 -31 -148.5t32.5 -43.5t32.5 38.5t-34 153.5zM451 -379q-50 39 -50 127.5t101 357.5l-477 1328h161l394 -1110l395 1110h160l-480 -1325q101 -288 101 -368.5t-49 -119.5t-127.5 -39t-128.5 39z" />
<glyph unicode="&#x196;" horiz-adv-x="641" d="M172 1434h174v-1106q0 -155 8 -179t16 -40q14 -27 47 -27t46.5 9.5t36.5 41.5l129 -61q-41 -49 -80 -70.5t-95.5 -21.5t-105 15.5t-88.5 47.5q-88 69 -88 217v1174z" />
<glyph unicode="&#x197;" horiz-adv-x="514" d="M47 799v102h125v533h174v-533h125v-102h-125v-799h-174v799h-125z" />
<glyph unicode="&#x198;" horiz-adv-x="1374" d="M623 776l610 -776h-193l-520 662l-172 -193v-469h-174v1434h174v-738l508 570q81 90 153 139t172 49t182.5 -70t82.5 -190t-117 -206q-24 -18 -39 -21l-61 114q40 26 57 54t17 79.5t-33.5 89t-76.5 37.5t-79 -27t-115 -116z" />
<glyph unicode="&#x199;" horiz-adv-x="980" d="M311 477l377 424h189l-357 -399l393 -502h-176l-313 395l-113 -127v-268h-164v1092q1 168 137 240q76 40 169 40q129 0 206 -92l-129 -61q-36 51 -102 51t-91.5 -58.5t-25.5 -187.5v-547z" />
<glyph unicode="&#x19c;" horiz-adv-x="1871" d="M602 -20q-430 0 -430 430v942h174v-918q0 -204 59 -281q55 -71 166 -71q117 2 197 75q86 79 86 253v942h174v-918q0 -204 59 -281q55 -71 166 -71q141 0 241 160q24 38 36 73v1037h174v-1352h-174v102q-86 -122 -237.5 -122t-230.5 35t-134 112q-64 -76 -154.5 -111.5 t-171.5 -35.5z" />
<glyph unicode="&#x19d;" horiz-adv-x="1275" d="M147 1352h175v-70q2 1 21.5 11.5t26 13.5t26 12.5t31.5 13.5t32.5 12t37.5 11.5t39 7.5q37 8 93 8q224 0 357.5 -109.5t133.5 -320.5v-942h-174v918q0 352 -287 352q-99 0 -186.5 -40t-150.5 -95v-1203q0 -203 -206 -264q-54 -16 -110 -16q-130 0 -207 92l129 61 q36 -51 102.5 -51t91.5 58.5t25 187.5v1352z" />
<glyph unicode="&#x19e;" horiz-adv-x="1087" d="M311 723v-723h-164v901h164v-31q99 52 209 52q216 0 322 -106t106 -324v-900h-164v875q0 210 -64 284q-58 68 -178 68t-231 -96z" />
<glyph unicode="&#x19f;" d="M946 24q-112 -44 -218.5 -44t-190 27t-162.5 86t-139.5 143t-97 208.5t-36.5 272.5t34 273q34 124 92 208q61 88 134 144q146 112 324 112q214 0 374 -112q277 -193 277 -622q0 -190 -51 -333q-51 -144 -139.5 -231.5t-200.5 -131.5zM1161 666h-882q17 -333 221 -497 q109 -87 217 -87q125 0 235 92q120 102 174 280q30 98 35 212zM1161 768q-14 340 -216 497q-112 87 -247 87q-114 0 -218 -92q-186 -165 -201 -492h882z" />
<glyph unicode="&#x1a0;" d="M1259.5 1348.5q-24.5 38.5 -24.5 69.5t33 49t61 18t42 -14.5t19 -43.5q7 -41 7 -119.5t-35.5 -142t-89.5 -88.5q65 -148 65 -347t-51 -343q-52 -143 -140 -231q-178 -176 -441 -176q-179 0 -330 113q-171 127 -237 351q-36 124 -36 272.5t34 273.5q34 124 92 208 q61 88 134 144q146 112 325 112t330 -86t236 -254q33 12 56.5 42t23.5 58.5t-24.5 62t-49 72zM703 1352q-62 0 -120 -24t-113 -76q-54 -52 -98 -125q-96 -160 -96 -410q0 -129 30 -238.5t78 -180.5q48 -72 107 -122q112 -94 226 -94q132 0 244 100q202 181 202 535 q0 370 -209 541q-115 94 -251 94z" />
<glyph unicode="&#x1a1;" horiz-adv-x="1056" d="M914.5 914q-15.5 31 -15.5 58t33 44.5t61 17.5t42 -14.5t19 -43.5q7 -41 7 -117t-33 -138.5t-82 -89.5q25 -83 25 -180q0 -229 -126 -350t-328.5 -121t-314.5 127t-112 344q0 104 37 194q37 89 97 149q129 128 283 128t263.5 -64t161.5 -188q29 15 47 42t18 51 t-15.5 50.5t-33.5 48t-33.5 52.5zM807 451q0 162 -74 265t-192 103t-202.5 -102t-84.5 -270.5t73 -266.5t202.5 -98t203.5 103.5t74 265.5z" />
<glyph unicode="&#x1a2;" horiz-adv-x="1765" d="M1595 -412h-174v1301q0 155 -7 179q-8 24 -16 40q-14 27 -47 27t-46.5 -9.5t-36.5 -42.5q69 -160 69 -356t-51 -340q-52 -143 -140 -231q-178 -176 -441 -176q-179 0 -330 113q-171 127 -237 351q-36 124 -36 272.5t34 273.5q34 124 92 208q61 88 134 144 q146 112 313 112q347 0 525 -250q47 33 115 33q119 0 199.5 -69.5t80.5 -211.5v-1368zM703 1352q-62 0 -120 -24t-113 -76q-54 -52 -98 -125q-96 -160 -96 -410q0 -129 30 -238.5t78 -180.5q48 -72 107 -122q112 -94 226 -94q132 0 244 100q202 181 202 535q0 370 -209 541 q-115 94 -251 94z" />
<glyph unicode="&#x1a3;" horiz-adv-x="1392" d="M1247 -410h-174v910q0 156 -7.5 179t-15.5 39q-14 27 -47.5 27t-46.5 -9t-36 -42q51 -105 51 -243q0 -229 -126 -350t-328.5 -121t-314.5 127t-112 344q0 104 37 194q37 89 97 149q129 128 288 128q205 0 328 -117q52 43 127 43q119 0 199.5 -69.5t80.5 -211.5v-977z M807 451q0 162 -74 265t-192 103t-202.5 -102t-84.5 -270.5t73 -266.5t202.5 -98t203.5 103.5t74 265.5z" />
<glyph unicode="&#x1a4;" horiz-adv-x="1314" d="M573 1331v-573h277q62 0 110.5 27t75.5 71q54 87 54 188q0 134 -80 222q-59 65 -157 65h-3h-277zM573 655v-655h-174v1325q-87 -14 -132.5 -64.5t-45.5 -107t7 -81t14.5 -31t25.5 -17.5l-26 -106q-144 51 -182 126q-18 37 -19 84q0 134 102 220t256 86h420 q263 0 382 -182q63 -96 63 -208t-64 -208q-120 -181 -381 -181h-246z" />
<glyph unicode="&#x1a5;" horiz-adv-x="1087" d="M147 973q1 167 137 239q76 40 169 41q129 0 206 -92l-129 -61q-36 51 -102 51t-91.5 -58.5t-25.5 -187.5v-39q95 60 238 60t243 -64.5t154.5 -171.5t54.5 -235q0 -193 -132.5 -332t-321.5 -139q-139 0 -236 75v-469h-164v1383zM311 508v-4q0 -308 156 -392 q48 -26 114 -26t127 56t95.5 141t34.5 172.5t-29.5 171.5t-86 140t-124.5 56q-155 0 -221 -80.5t-66 -234.5z" />
<glyph unicode="&#x1a9;" horiz-adv-x="1040" d="M317 1331l416 -606l-426 -623h676v-102h-922l488 725l-479 709h872l31 -103h-656z" />
<glyph unicode="&#x1ac;" horiz-adv-x="1314" d="M1243 1434v-103h-516v-1331h-174v1331h-139q-85 0 -139 -59.5t-54 -117t7 -82t14.5 -31t25.5 -17.5l-26 -106q-144 51 -182 126q-18 37 -19 84q0 134 102 220t256 86h844z" />
<glyph unicode="&#x1ad;" horiz-adv-x="669" d="M352 328q0 -155 8 -179t16 -40q14 -27 47 -27t46.5 9.5t36.5 41.5l129 -61q-41 -49 -80 -70.5t-95.5 -21.5t-103.5 16q-48 16 -86 48q-82 70 -82 216v539h-135l31 102h104v191q0 168 136 240q76 40 170 40q129 0 206 -92l-129 -61q-36 51 -102 51t-91.5 -58.5 t-25.5 -187.5v-123h162v-102h-162v-471z" />
<glyph unicode="&#x1ae;" horiz-adv-x="1280" d="M727 0q0 -129 25.5 -187.5t91.5 -58.5t102 51l129 -61q-77 -92 -207 -92q-116 0 -211 64q-104 70 -104 216v1399h-512v103h1202v-103h-516v-1331z" />
<glyph unicode="&#x1af;" horiz-adv-x="1402" d="M1073 1434h174v-326h62q45 0 80.5 34.5t35.5 67.5t-24.5 66.5t-49 72t-24.5 69.5t33 49t61 18t42 -14.5t19 -43.5q7 -40 7 -71v-33q0 -118 -55.5 -188t-124.5 -70h-62v-455q0 -420 -230 -555q-127 -75 -321 -75q-158 0 -284 75q-74 44 -129 111.5t-91 182t-36 261.5v824 h174v-824q0 -407 244 -502q67 -26 126.5 -26t106.5 13t97 49.5t86 93.5q83 131 83 372v824z" />
<glyph unicode="&#x1b0;" horiz-adv-x="1110" d="M780 172v729h164v-244h60q45 0 80.5 35t35.5 68t-24.5 66.5t-49 72t-24.5 69.5t33 48.5t61 17.5t42 -14.5t19 -43.5q7 -41 7 -104q0 -118 -55.5 -188t-124.5 -70h-60v-614h-164v33q-112 -53 -239 -53q-212 0 -305 104t-93 326v491h164v-467q0 -207 79 -284 q70 -68 185.5 -68t208.5 90z" />
<glyph unicode="&#x1b1;" horiz-adv-x="1402" d="M698 -20q-81 0 -158.5 23.5t-149.5 76.5q-74 53 -128 129q-119 166 -119 437q0 176 79 335.5t181 257.5v92h-153v103h328v-246q-74 -20 -134.5 -100.5t-93.5 -196t-33 -240.5q0 -277 104 -423t276.5 -146t276 146t103.5 423q0 267 -126 437q-60 80 -134 100v246h328v-103 h-154v-92q102 -98 181 -257.5t79 -314t-32.5 -268.5t-86.5 -190t-126 -129t-149.5 -76.5t-158.5 -23.5z" />
<glyph unicode="&#x1b2;" horiz-adv-x="1402" d="M827 1434h195q92 -156 103.5 -185t31.5 -73.5t27 -73t21 -76t19 -89t12 -96.5q11 -86 11 -234t-49 -267t-128.5 -196t-177 -120.5t-173.5 -43.5t-121.5 4.5t-103 20.5t-103 42.5t-91.5 74.5t-76 113q-68 146 -68 379v820h174v-820q0 -444 244 -514q62 -18 147 -18t170 77 t133.5 195.5t48.5 215t-4 159t-8.5 111.5t-16.5 101t-19.5 85.5t-26 80t-27.5 69t-33 67.5t-34 61q-28 50 -77 130z" />
<glyph unicode="&#x1b3;" horiz-adv-x="1189" d="M1087 1198q0 63 -36.5 105.5t-87 42.5t-83 -39.5t-58 -91.5t-29.5 -60l-228 -446v-709h-174v711l-368 723h184l272 -535l146 285q72 145 156 209.5t195 64.5t183 -75.5t72 -172.5z" />
<glyph unicode="&#x1b4;" horiz-adv-x="1116" d="M598 623q54 148 129 223.5t188 75.5q55 0 100.5 -33t110.5 -103l-131 -65q-57 81 -86 93q-10 4 -24 5q-40 0 -73 -67q-14 -28 -52 -134l-242 -667q-54 -148 -129 -223.5t-188 -75.5q-55 0 -101 33t-110 102l131 66q47 -64 68.5 -81.5t41.5 -17.5q40 0 73 67q14 28 52 134 l17 45l-328 901h150l251 -696z" />
<glyph unicode="&#x1b5;" horiz-adv-x="1040" d="M750 1331h-678l30 103h873l-330 -635h168v-103h-221l-307 -594h698v-102h-922l361 696h-176v103h229z" />
<glyph unicode="&#x1b6;" horiz-adv-x="860" d="M573 799h-530l31 102h743l-248 -383h111v-102h-178l-203 -314h524v-102h-770l271 416h-129v102h196z" />
<glyph unicode="&#x1b7;" horiz-adv-x="1030" d="M453 782h-123l327 549h-499v103h743l-326 -549q125 0 239 -124q54 -58 88 -149.5t34 -195.5t-52 -203t-150 -166t-216 -67q-217 0 -328 92t-129 254l138 14q12 -119 85.5 -188.5t202.5 -69.5q78 0 142.5 50t98.5 125.5t34 150t-16 136.5t-50.5 117t-97 88t-145.5 33z" />
<glyph unicode="&#x1c0;" horiz-adv-x="456" d="M174 0zM287 1434v-1434h-113v1434h113z" />
<glyph unicode="&#x1c1;" horiz-adv-x="722" d="M174 0zM553 1434v-1434h-113v1434h113zM287 1434v-1434h-113v1434h113z" />
<glyph unicode="&#x1c2;" horiz-adv-x="708" d="M303 573h-221v103h221v123h-221v102h221v533h113v-533h211v-102h-211v-123h211v-103h-211v-573h-113v573z" />
<glyph unicode="&#x1c3;" horiz-adv-x="356" d="M92 0zM92 164h164v-164h-164v164zM256 1434l-31 -1065h-102l-31 1065h164z" />
<glyph unicode="&#x1cd;" horiz-adv-x="1298" d="M651 1516l-239 334l63 53l176 -180l176 180l64 -53zM651 1231l-262 -719h524zM39 0l522 1434h180l523 -1434h-164l-150 410h-598l-149 -410h-164z" />
<glyph unicode="&#x1ce;" horiz-adv-x="974" d="M94 0zM199 1045zM438 1045l-239 334l63 53l176 -180l176 180l64 -53zM115 829q178 93 323 93q188 0 270 -41q48 -24 76 -58.5t46 -95.5q28 -99 28 -313v-414h-164v16q-113 -36 -223 -36q-174 0 -275.5 78.5t-101.5 252.5q0 197 174 273q89 40 195 40h3q108 0 224 -18 q-6 120 -51.5 166.5t-165 46.5t-256.5 -96zM694 125v373q-93 22 -193 22t-171.5 -54t-71.5 -156t73 -165t173 -63t190 43z" />
<glyph unicode="&#x1cf;" horiz-adv-x="514" d="M258 1516l-239 334l63 53l176 -180l176 180l64 -53zM346 1434v-1434h-174v1434h174z" />
<glyph unicode="&#x1d0;" horiz-adv-x="407" d="M0 0zM-34 1045zM205 1045l-239 334l63 53l176 -180l176 180l64 -53zM123 901h164v-901h-164v901z" />
<glyph unicode="&#x1d1;" d="M102 0zM474 1516zM713 1516l-239 334l63 53l176 -180l176 180l64 -53zM946 24q-112 -44 -218.5 -44t-190 27t-162.5 86t-139.5 143t-97 208.5t-36.5 272.5t34 273q34 124 92 208q61 88 134 144q146 112 324 112q214 0 374 -112q277 -193 277 -622q0 -190 -51 -333 q-51 -144 -139.5 -231.5t-200.5 -131.5zM703 1352q-62 0 -120 -24t-113 -76q-54 -52 -98 -125q-96 -160 -96 -410q0 -129 30 -238.5t78 -180.5q48 -72 107 -122q112 -94 226 -94q132 0 244 100q202 181 202 535q0 370 -209 541q-115 94 -251 94z" />
<glyph unicode="&#x1d2;" horiz-adv-x="1056" d="M90 0zM273 1045zM512 1045l-239 334l63 53l176 -180l176 180l64 -53zM807 451q0 162 -74 265t-192 103t-202.5 -102t-84.5 -270.5t73 -266.5t202.5 -98t203.5 103.5t74 265.5zM971 451q0 -229 -126 -350t-328.5 -121t-314.5 127t-112 344q0 104 37 194q37 89 97 149 q129 128 288 128q207 0 333 -121t126 -350z" />
<glyph unicode="&#x1d3;" horiz-adv-x="1402" d="M156 0zM461 1434zM700 1434l-239 334l63 53l176 -180l176 180l64 -53zM1073 1434h174v-824q0 -420 -230 -555q-127 -75 -321 -75q-158 0 -284 75q-74 44 -129 111.5t-91 182t-36 261.5v824h174v-824q0 -407 244 -502q67 -26 126.5 -26t106.5 13t97 49.5t86 93.5 q83 131 83 372v824z" />
<glyph unicode="&#x1d4;" horiz-adv-x="1067" d="M143 0zM305 1045zM544 1045l-239 334l63 53l176 -180l176 180l64 -53zM780 172v729h164v-901h-164v33q-112 -53 -239 -53q-212 0 -305 104t-93 326v491h164v-467q0 -207 79 -284q70 -68 185.5 -68t208.5 90z" />
<glyph unicode="&#x1d5;" horiz-adv-x="1402" d="M156 0zM475 1884h472v-82h-472v82zM156 0zM985 1516zM821 1694h164v-178h-164v178zM453 1694h164v-178h-164v178zM1073 1434h174v-824q0 -420 -230 -555q-127 -75 -321 -75q-158 0 -284 75q-74 44 -129 111.5t-91 182t-36 261.5v824h174v-824q0 -407 244 -502 q67 -26 126.5 -26t106.5 13t97 49.5t86 93.5q83 131 83 372v824z" />
<glyph unicode="&#x1d6;" horiz-adv-x="1067" d="M143 0zM303 1454h472v-82h-472v82zM143 0zM813 1086zM649 1264h164v-178h-164v178zM281 1264h164v-178h-164v178zM780 172v729h164v-901h-164v33q-112 -53 -239 -53q-212 0 -305 104t-93 326v491h164v-467q0 -207 79 -284q70 -68 185.5 -68t208.5 90z" />
<glyph unicode="&#x1d7;" horiz-adv-x="1402" d="M156 0zM854 1978l111 -92l-213 -186l-64 53zM985 1434zM821 1612h164v-178h-164v178zM453 1612h164v-178h-164v178zM1073 1434h174v-824q0 -420 -230 -555q-127 -75 -321 -75q-158 0 -284 75q-74 44 -129 111.5t-91 182t-36 261.5v824h174v-824q0 -407 244 -502 q67 -26 126.5 -26t106.5 13t97 49.5t86 93.5q83 131 83 372v824z" />
<glyph unicode="&#x1d8;" horiz-adv-x="1067" d="M143 0zM484 1386zM484 1386zM723 1773l111 -92l-287 -295l-63 54zM143 0zM813 1086zM649 1264h164v-178h-164v178zM281 1264h164v-178h-164v178zM780 172v729h164v-901h-164v33q-112 -53 -239 -53q-212 0 -305 104t-93 326v491h164v-467q0 -207 79 -284q70 -68 185.5 -68 t208.5 90z" />
<glyph unicode="&#x1d9;" horiz-adv-x="1402" d="M156 0zM476 1612zM715 1612l-239 334l63 53l176 -180l176 180l64 -53zM985 1434zM821 1612h164v-178h-164v178zM453 1612h164v-178h-164v178zM1073 1434h174v-824q0 -420 -230 -555q-127 -75 -321 -75q-158 0 -284 75q-74 44 -129 111.5t-91 182t-36 261.5v824h174v-824 q0 -407 244 -502q67 -26 126.5 -26t106.5 13t97 49.5t86 93.5q83 131 83 372v824z" />
<glyph unicode="&#x1da;" horiz-adv-x="1067" d="M143 0zM308 1258zM547 1258l-239 334l63 53l176 -180l176 180l64 -53zM143 0zM813 1086zM649 1264h164v-178h-164v178zM281 1264h164v-178h-164v178zM780 172v729h164v-901h-164v33q-112 -53 -239 -53q-212 0 -305 104t-93 326v491h164v-467q0 -207 79 -284 q70 -68 185.5 -68t208.5 90z" />
<glyph unicode="&#x1db;" horiz-adv-x="1402" d="M156 0zM604 1978l166 -225l-64 -53l-213 186zM985 1434zM821 1612h164v-178h-164v178zM453 1612h164v-178h-164v178zM1073 1434h174v-824q0 -420 -230 -555q-127 -75 -321 -75q-158 0 -284 75q-74 44 -129 111.5t-91 182t-36 261.5v824h174v-824q0 -407 244 -502 q67 -26 126.5 -26t106.5 13t97 49.5t86 93.5q83 131 83 372v824z" />
<glyph unicode="&#x1dc;" horiz-adv-x="1067" d="M143 0zM260 1386zM260 1386zM370 1773l240 -333l-64 -54l-286 295zM143 0zM813 1086zM649 1264h164v-178h-164v178zM281 1264h164v-178h-164v178zM780 172v729h164v-901h-164v33q-112 -53 -239 -53q-212 0 -305 104t-93 326v491h164v-467q0 -207 79 -284 q70 -68 185.5 -68t208.5 90z" />
<glyph unicode="&#x1dd;" horiz-adv-x="1028" d="M100 743q142 179 379 179q202 0 332.5 -129.5t130.5 -341.5q0 -104 -37 -194q-37 -89 -97 -149q-129 -127 -288 -128q-103 0 -187 42q-83 42 -135 110q-108 143 -108 319h688q0 168 -91 268t-239.5 100t-224.5 -123zM768 348h-506q18 -120 76 -193t154 -73t173 72 t103 194z" />
<glyph unicode="&#x1de;" horiz-adv-x="1298" d="M39 0zM401 1884h472v-82h-472v82zM39 0zM915 1516zM751 1694h164v-178h-164v178zM383 1694h164v-178h-164v178zM39 0l522 1434h180l523 -1434h-164l-150 410h-598l-149 -410h-164zM651 1231l-262 -719h524z" />
<glyph unicode="&#x1df;" horiz-adv-x="974" d="M94 0zM243 1442h472v-82h-472v82zM94 0zM753 1086zM589 1264h164v-178h-164v178zM221 1264h164v-178h-164v178zM115 829q178 93 323 93q188 0 270 -41q48 -24 76 -58.5t46 -95.5q28 -99 28 -313v-414h-164v16q-113 -36 -223 -36q-174 0 -275.5 78.5t-101.5 252.5 q0 197 174 273q89 40 195 40h3q108 0 224 -18q-6 120 -51.5 166.5t-165 46.5t-256.5 -96zM694 125v373q-93 22 -193 22t-171.5 -54t-71.5 -156t73 -165t173 -63t190 43z" />
<glyph unicode="&#x1e4;" horiz-adv-x="1458" d="M913 819h336v-266h137v-102h-137v-242q-80 -103 -213.5 -166t-294.5 -63q-177 0 -340 113q-185 129 -258 351q-41 126 -41 273t37 269t97 204t139 138q149 106 327 106q389 0 541 -189l-153 -67q-108 153 -357 153q-187 0 -317 -145q-140 -156 -140 -469q0 -130 33 -239 q33 -108 85 -180q54 -72 120 -122q170 -86 258 -94q195 0 313 127v242h-184v102h184v164h-172v102z" />
<glyph unicode="&#x1e5;" horiz-adv-x="1058" d="M729 186v422q-26 97 -81 154t-136 57q-118 0 -188 -91t-70 -258.5t76.5 -257t222.5 -89.5q107 0 176 63zM893 901v-721q0 -162 -12 -241h147v-103h-172q-36 -102 -123.5 -143t-247 -41t-335.5 92l102 106q137 -96 260 -96t174 82h-143v103h176q6 39 10 124 q-97 -43 -207 -43q-201 0 -316.5 118.5t-115.5 332.5q0 212 118 334q114 117 262.5 117t258.5 -78v57h164z" />
<glyph unicode="&#x1e6;" horiz-adv-x="1372" d="M913 819h336v-610q-80 -103 -213.5 -166t-294.5 -63q-177 0 -340 113q-185 129 -258 351q-41 126 -41 271t35 265t93 200t134 138q143 108 318 115l-205 285l64 54l176 -181l176 181l63 -54l-204 -285q348 -11 491 -188l-153 -67q-108 153 -357 153q-187 0 -317 -145 q-140 -156 -140 -469q0 -130 33 -239q33 -108 85 -180q54 -72 120 -122q170 -86 258 -94q195 0 313 127v508h-172v102z" />
<glyph unicode="&#x1e7;" horiz-adv-x="1038" d="M90 0zM532 955l-239 334l63 53l176 -180l176 180l64 -53zM893 901v-741q0 -214 -23 -294t-51 -114q-29 -34 -77 -59q-83 -41 -249.5 -41t-342.5 92l102 106q137 -96 252 -96q71 0 113.5 13t66.5 47q41 57 45 209q-97 -43 -207 -43q-199 0 -315.5 127.5t-116.5 339.5 t115.5 343.5t264.5 131.5t259 -78v57h164zM729 145v463q-26 97 -81 154t-136 57q-116 0 -187 -100t-71 -270t77.5 -268.5t221.5 -98.5q107 0 176 63z" />
<glyph unicode="&#x1e8;" horiz-adv-x="1243" d="M174 0zM405 1385zM644 1385l-239 334l63 53l176 -180l176 180l64 -53zM348 469v-469h-174v1434h174v-738l656 738h204l-585 -658l610 -776h-193l-520 662z" />
<glyph unicode="&#x1e9;" horiz-adv-x="980" d="M147 0zM232 1309zM471 1309l-239 334l63 53l176 -180l176 180l64 -53zM311 268v-268h-164v1352h164v-875l377 424h189l-357 -399l393 -502h-176l-313 395z" />
<glyph unicode="&#x1ea;" d="M703 1352q-62 0 -120 -24t-113 -76q-54 -52 -98 -125q-96 -160 -96 -410q0 -129 30 -238.5t78 -180.5q48 -72 107 -122q112 -94 226 -94q132 0 244 100q202 181 202 535q0 370 -209 541q-115 94 -251 94zM641 -186q0 94 131 169q-33 -3 -92 -3t-142.5 27t-162.5 86 t-139.5 143t-97 208.5t-36.5 272.5t34 273q34 124 92 208q61 88 134 144q146 112 324 112q214 0 374 -112q277 -193 277 -622q0 -365 -191 -564q-112 -117 -279 -158q-46 -24 -78.5 -62t-32.5 -95t36.5 -90.5t131.5 -33.5v-36h-5q-216 0 -265 87q-12 22 -13 46z" />
<glyph unicode="&#x1eb;" horiz-adv-x="1056" d="M807 451q0 162 -74 265t-192 103t-202.5 -102t-84.5 -270.5t73 -266.5t202.5 -98t203.5 103.5t74 265.5zM502 -20q-193 3 -302.5 130t-109.5 341q0 104 37 194q37 89 97 149q129 128 288 128q207 0 333 -121t126 -340.5t-107 -339t-288 -138.5q-84 -55 -84 -127 t36 -105.5t131 -33.5v-36h-5q-215 0 -264 87q-12 22 -13 46q0 92 125 166z" />
<glyph unicode="&#x1ee;" horiz-adv-x="1030" d="M453 782h-123l327 549h-499v103h319l-205 284l64 54l176 -181l176 181l64 -54l-205 -284h354l-326 -549q125 0 239 -124q54 -58 88 -149.5t34 -195.5t-52 -203t-150 -166t-216 -67q-217 0 -328 92t-129 254l138 14q12 -119 85.5 -188.5t202.5 -69.5q78 0 142.5 50 t98.5 125.5t34 150t-16 136.5t-50.5 117t-97 88t-145.5 33z" />
<glyph unicode="&#x1ef;" horiz-adv-x="940" d="M33 0zM438 955l-239 334l63 53l176 -180l176 180l64 -53zM385 270h-123l328 529h-531l31 102h744l-326 -528q102 0 190 -60q160 -110 160 -350q0 -155 -113.5 -264t-278.5 -109t-277 61t-156 152l129 50q29 -73 101.5 -116.5t156.5 -43.5q122 0 198 75t76 195 q0 307 -309 307z" />
<glyph unicode="&#x1f0;" horiz-adv-x="536" d="M0 0zM95 1045zM334 1045l-239 334l63 53l176 -180l176 180l64 -53zM33 -195q36 -51 102 -51t91.5 58.5t25.5 187.5v901h164v-969q0 -204 -196 -264q-52 -16 -109 -16q-130 0 -207 92z" />
<glyph unicode="&#x1f4;" horiz-adv-x="1372" d="M102 0zM848 1888l111 -92l-287 -295l-63 54zM913 819h336v-610q-80 -103 -213.5 -166t-294.5 -63q-177 0 -340 113q-185 129 -258 351q-41 126 -41 273t37 269t97 204t139 138q149 106 327 106q389 0 541 -189l-153 -67q-108 153 -357 153q-187 0 -317 -145 q-140 -156 -140 -469q0 -130 33 -239q33 -108 85 -180q54 -72 120 -122q170 -86 258 -94q195 0 313 127v508h-172v102z" />
<glyph unicode="&#x1f5;" horiz-adv-x="1038" d="M90 0zM637 1458l111 -92l-287 -295l-63 54zM893 901v-741q0 -214 -23 -294t-51 -114q-29 -34 -77 -59q-83 -41 -249.5 -41t-342.5 92l102 106q137 -96 252 -96q71 0 113.5 13t66.5 47q41 57 45 209q-97 -43 -207 -43q-199 0 -315.5 127.5t-116.5 339.5t115.5 343.5 t264.5 131.5t259 -78v57h164zM729 145v463q-26 97 -81 154t-136 57q-116 0 -187 -100t-71 -270t77.5 -268.5t221.5 -98.5q107 0 176 63z" />
<glyph unicode="&#x1f8;" horiz-adv-x="1406" d="M174 0zM419 1577zM419 1577zM529 1964l240 -333l-64 -54l-286 295zM1059 0l-711 1157v-1157h-174v1434h176l713 -1160v1160h174v-1434h-178z" />
<glyph unicode="&#x1f9;" horiz-adv-x="1087" d="M147 0zM261 1044zM261 1044zM371 1431l240 -333l-64 -54l-286 295zM311 723v-723h-164v901h164v-31q99 52 209 52q216 0 322 -106t106 -324v-492h-164v467q0 210 -64 284q-58 68 -178 68t-231 -96z" />
<glyph unicode="&#x1fa;" horiz-adv-x="1298" d="M39 0zM740 2054l111 -92l-213 -186l-64 53zM573 1434q-77 46 -77 123t45.5 122.5t109.5 45.5t110 -45.5t46 -122.5t-77 -123h11l523 -1434h-164l-150 410h-598l-149 -410h-164l522 1434h12zM557 1569q0 -38 28 -66t66 -28t66 28t28 66t-28 66t-66 28t-66 -28t-28 -66z M651 1231l-262 -719h524z" />
<glyph unicode="&#x1fb;" horiz-adv-x="974" d="M94 0zM620 1740l111 -92l-287 -295l-63 54zM94 0zM395 1139q0 -38 28 -66t66 -28t66 28t28 66t-28 66t-66 28t-66 -28t-28 -66zM334 1139q0 65 45.5 110.5t109.5 45.5t110 -45.5t46 -110.5t-46 -110.5t-110 -45.5t-109.5 45.5t-45.5 110.5zM115 829q178 93 323 93 q188 0 270 -41q48 -24 76 -58.5t46 -95.5q28 -99 28 -313v-414h-164v16q-113 -36 -223 -36q-174 0 -275.5 78.5t-101.5 252.5q0 197 174 273q89 40 195 40h3q108 0 224 -18q-6 120 -51.5 166.5t-165 46.5t-256.5 -96zM694 125v373q-93 22 -193 22t-171.5 -54t-71.5 -156 t73 -165t173 -63t190 43z" />
<glyph unicode="&#x1fc;" horiz-adv-x="1730" d="M39 0zM1034 1888l111 -92l-287 -295l-63 54zM786 512v819h-99l-298 -819h397zM786 410h-434l-149 -410h-164l522 1434h1053v-103h-654v-430h469v-102h-469v-697h687v-102h-861v410z" />
<glyph unicode="&#x1fd;" horiz-adv-x="1632" d="M94 0zM993 1458l111 -92l-287 -295l-63 54zM1536 158q-141 -178 -379 -178q-188 0 -313 110q-77 -52 -177.5 -81t-195.5 -29q-174 0 -275.5 78.5t-101.5 252.5q0 197 174 273q89 40 195 40h3q108 0 224 -18q-6 120 -51.5 166.5t-165 46.5t-256.5 -96l-102 106 q178 93 332.5 93t240.5 -32.5t123 -113.5q62 69 142 107.5t173 38.5t177 -42q83 -42 135 -110q108 -143 108 -319h-688q0 -168 91.5 -268.5t239.5 -100.5t224 123zM694 125v373q-93 22 -193 22t-171.5 -54t-71.5 -156t73 -165t173 -63t190 43zM868 553h506q-18 120 -76 193 t-154 73t-173 -72t-103 -194z" />
<glyph unicode="&#x1fe;" d="M102 0zM657 1577zM657 1577zM896 1964l111 -92l-287 -295l-63 54zM942 1407l10 27h121l-33 -80q138 -88 217.5 -248t79.5 -367.5t-51 -351.5q-52 -143 -140 -231q-178 -176 -441 -176q-109 0 -203 40l-8 -20h-121l28 72q-135 90 -217 252t-82 393q0 425 260 625 q146 112 324 112q132 0 256 -47zM989 1227l-440 -1092q85 -53 157.5 -53t134.5 24t120 76t103 125q99 161 99 410q0 336 -174 510zM470 1252q-194 -183 -194 -521.5t181 -523.5l440 1091q-92 54 -206.5 54t-220.5 -100z" />
<glyph unicode="&#x1ff;" horiz-adv-x="1056" d="M90 0zM467 1126zM467 1126zM706 1513l111 -92l-287 -295l-63 54zM971 451q0 -229 -126 -350t-333 -121q-47 0 -102 10l-37 -92h-121l51 129q-103 54 -158 163.5t-55 237t37 217.5q37 89 97 149q129 128 288 128q74 0 145 -19l41 101h121l-57 -142q209 -117 209 -411z M354 150l264 657q-37 12 -75 12q-120 0 -204.5 -102t-84.5 -288t100 -279zM453 94q40 -12 90 -12q116 0 190 103.5t74 277t-94 278.5z" />
<glyph unicode="&#x200;" horiz-adv-x="1298" d="M39 0zM838 1577zM352 1964l240 -333l-64 -54l-286 295zM598 1964l240 -333l-64 -54l-286 295zM39 0l522 1434h180l523 -1434h-164l-150 410h-598l-149 -410h-164zM651 1231l-262 -719h524z" />
<glyph unicode="&#x201;" horiz-adv-x="974" d="M29 0zM625 1044zM139 1431l240 -333l-64 -54l-286 295zM385 1431l240 -333l-64 -54l-286 295zM115 829q178 93 323 93q188 0 270 -41q48 -24 76 -58.5t46 -95.5q28 -99 28 -313v-414h-164v16q-113 -36 -223 -36q-174 0 -275.5 78.5t-101.5 252.5q0 197 174 273 q89 40 195 40h3q108 0 224 -18q-6 120 -51.5 166.5t-165 46.5t-256.5 -96zM694 125v373q-93 22 -193 22t-171.5 -54t-71.5 -156t73 -165t173 -63t190 43z" />
<glyph unicode="&#x202;" horiz-adv-x="1298" d="M39 0zM651 1589q-56 0 -102 -29.5t-51 -64.5l-78 21q9 78 76 134t155 56t155.5 -56t76.5 -134l-78 -21q-5 35 -51.5 64.5t-102.5 29.5zM39 0l522 1434h180l523 -1434h-164l-150 410h-598l-149 -410h-164zM651 1231l-262 -719h524z" />
<glyph unicode="&#x203;" horiz-adv-x="974" d="M94 0zM489 1159q-56 0 -102 -29.5t-51 -64.5l-78 21q9 78 76 134t155 56t155.5 -56t76.5 -134l-78 -21q-5 35 -51.5 64.5t-102.5 29.5zM115 829q178 93 323 93q188 0 270 -41q48 -24 76 -58.5t46 -95.5q28 -99 28 -313v-414h-164v16q-113 -36 -223 -36 q-174 0 -275.5 78.5t-101.5 252.5q0 197 174 273q89 40 195 40h3q108 0 224 -18q-6 120 -51.5 166.5t-165 46.5t-256.5 -96zM694 125v373q-93 22 -193 22t-171.5 -54t-71.5 -156t73 -165t173 -63t190 43z" />
<glyph unicode="&#x204;" horiz-adv-x="1118" d="M174 0zM774 1577zM288 1964l240 -333l-64 -54l-286 295zM534 1964l240 -333l-64 -54l-286 295zM1034 0h-860v1434h827v-103h-653v-430h469v-102h-469v-697h686v-102z" />
<glyph unicode="&#x205;" horiz-adv-x="1028" d="M90 0zM699 1044zM213 1431l240 -333l-64 -54l-286 295zM459 1431l240 -333l-64 -54l-286 295zM932 158q-141 -178 -379 -178q-202 0 -332.5 129.5t-130.5 341.5q0 104 37 194q37 89 97 149q129 128 288 128q103 0 187 -42q83 -42 135 -110q108 -143 108 -319h-688 q0 -168 91.5 -268.5t239.5 -100.5t224 123zM264 553h506q-18 120 -76 193t-154 73t-173 -72t-103 -194z" />
<glyph unicode="&#x206;" horiz-adv-x="1118" d="M174 0zM614 1589q-56 0 -102 -29.5t-51 -64.5l-78 21q9 78 76 134t155 56t155.5 -56t76.5 -134l-78 -21q-5 35 -51.5 64.5t-102.5 29.5zM1034 0h-860v1434h827v-103h-653v-430h469v-102h-469v-697h686v-102z" />
<glyph unicode="&#x207;" horiz-adv-x="1028" d="M90 0zM530 1159q-56 0 -102 -29.5t-51 -64.5l-78 21q9 78 76 134t155 56t155.5 -56t76.5 -134l-78 -21q-5 35 -51.5 64.5t-102.5 29.5zM932 158q-141 -178 -379 -178q-202 0 -332.5 129.5t-130.5 341.5q0 104 37 194q37 89 97 149q129 128 288 128q103 0 187 -42 q83 -42 135 -110q108 -143 108 -319h-688q0 -168 91.5 -268.5t239.5 -100.5t224 123zM264 553h506q-18 120 -76 193t-154 73t-173 -72t-103 -194z" />
<glyph unicode="&#x208;" horiz-adv-x="514" d="M0 0zM446 1577zM-40 1964l240 -333l-64 -54l-286 295zM206 1964l240 -333l-64 -54l-286 295zM346 1434v-1434h-174v1434h174z" />
<glyph unicode="&#x209;" horiz-adv-x="407" d="M0 0zM391 1044zM-95 1431l240 -333l-64 -54l-286 295zM151 1431l240 -333l-64 -54l-286 295zM123 901h164v-901h-164v901z" />
<glyph unicode="&#x20a;" horiz-adv-x="514" d="M31 0zM262 1589q-56 0 -102 -29.5t-51 -64.5l-78 21q9 78 76 134t155 56t155.5 -56t76.5 -134l-78 -21q-5 35 -51.5 64.5t-102.5 29.5zM346 1434v-1434h-174v1434h174z" />
<glyph unicode="&#x20b;" horiz-adv-x="407" d="M0 0zM207 1159q-56 0 -102 -29.5t-51 -64.5l-78 21q9 78 76 134t155 56t155.5 -56t76.5 -134l-78 -21q-5 35 -51.5 64.5t-102.5 29.5zM123 901h164v-901h-164v901z" />
<glyph unicode="&#x20c;" d="M102 0zM873 1577zM387 1964l240 -333l-64 -54l-286 295zM633 1964l240 -333l-64 -54l-286 295zM946 24q-112 -44 -218.5 -44t-190 27t-162.5 86t-139.5 143t-97 208.5t-36.5 272.5t34 273q34 124 92 208q61 88 134 144q146 112 324 112q214 0 374 -112q277 -193 277 -622 q0 -190 -51 -333q-51 -144 -139.5 -231.5t-200.5 -131.5zM703 1352q-62 0 -120 -24t-113 -76q-54 -52 -98 -125q-96 -160 -96 -410q0 -129 30 -238.5t78 -180.5q48 -72 107 -122q112 -94 226 -94q132 0 244 100q202 181 202 535q0 370 -209 541q-115 94 -251 94z" />
<glyph unicode="&#x20d;" horiz-adv-x="1056" d="M90 0zM699 1044zM213 1431l240 -333l-64 -54l-286 295zM459 1431l240 -333l-64 -54l-286 295zM807 451q0 162 -74 265t-192 103t-202.5 -102t-84.5 -270.5t73 -266.5t202.5 -98t203.5 103.5t74 265.5zM971 451q0 -229 -126 -350t-328.5 -121t-314.5 127t-112 344 q0 104 37 194q37 89 97 149q129 128 288 128q207 0 333 -121t126 -350z" />
<glyph unicode="&#x20e;" d="M102 0zM706 1589q-56 0 -102 -29.5t-51 -64.5l-78 21q9 78 76 134t155 56t155.5 -56t76.5 -134l-78 -21q-5 35 -51.5 64.5t-102.5 29.5zM946 24q-112 -44 -218.5 -44t-190 27t-162.5 86t-139.5 143t-97 208.5t-36.5 272.5t34 273q34 124 92 208q61 88 134 144 q146 112 324 112q214 0 374 -112q277 -193 277 -622q0 -190 -51 -333q-51 -144 -139.5 -231.5t-200.5 -131.5zM703 1352q-62 0 -120 -24t-113 -76q-54 -52 -98 -125q-96 -160 -96 -410q0 -129 30 -238.5t78 -180.5q48 -72 107 -122q112 -94 226 -94q132 0 244 100 q202 181 202 535q0 370 -209 541q-115 94 -251 94z" />
<glyph unicode="&#x20f;" horiz-adv-x="1056" d="M90 0zM534 1159q-56 0 -102 -29.5t-51 -64.5l-78 21q9 78 76 134t155 56t155.5 -56t76.5 -134l-78 -21q-5 35 -51.5 64.5t-102.5 29.5zM807 451q0 162 -74 265t-192 103t-202.5 -102t-84.5 -270.5t73 -266.5t202.5 -98t203.5 103.5t74 265.5zM971 451q0 -229 -126 -350 t-328.5 -121t-314.5 127t-112 344q0 104 37 194q37 89 97 149q129 128 288 128q207 0 333 -121t126 -350z" />
<glyph unicode="&#x210;" horiz-adv-x="1118" d="M0 0zM571 1577zM85 1964l240 -333l-64 -54l-286 295zM331 1964l240 -333l-64 -54l-286 295zM348 655v-655h-174v1434h420q263 0 382 -182q62 -95 62 -208q0 -107 -62 -208q-69 -111 -214 -156q104 -104 205.5 -322t101.5 -358h-168q0 142 -108 355t-222 300h-223z M348 1331v-573h277q124 0 185 98q54 87 54 188t-54 189q-60 98 -185 98h-277z" />
<glyph unicode="&#x211;" horiz-adv-x="677" d="M0 0zM596 1044zM110 1431l240 -333l-64 -54l-286 295zM356 1431l240 -333l-64 -54l-286 295zM672 741q-41 78 -161 78t-200 -84v-735h-164v901h164v-27q79 48 179 48t182 -29v-152z" />
<glyph unicode="&#x212;" horiz-adv-x="1118" d="M174 0zM561 1589q-56 0 -102 -29.5t-51 -64.5l-78 21q9 78 76 134t155 56t155.5 -56t76.5 -134l-78 -21q-5 35 -51.5 64.5t-102.5 29.5zM348 655v-655h-174v1434h420q263 0 382 -182q62 -95 62 -208q0 -107 -62 -208q-69 -111 -214 -156q104 -104 205.5 -322t101.5 -358 h-168q0 142 -108 355t-222 300h-223zM348 1331v-573h277q124 0 185 98q54 87 54 188t-54 189q-60 98 -185 98h-277z" />
<glyph unicode="&#x213;" horiz-adv-x="677" d="M147 0zM397 1159q-56 0 -102 -29.5t-51 -64.5l-78 21q9 78 76 134t155 56t155.5 -56t76.5 -134l-78 -21q-5 35 -51.5 64.5t-102.5 29.5zM672 741q-41 78 -161 78t-200 -84v-735h-164v901h164v-27q79 48 179 48t182 -29v-152z" />
<glyph unicode="&#x214;" horiz-adv-x="1402" d="M156 0zM888 1577zM402 1964l240 -333l-64 -54l-286 295zM648 1964l240 -333l-64 -54l-286 295zM1073 1434h174v-824q0 -420 -230 -555q-127 -75 -321 -75q-158 0 -284 75q-74 44 -129 111.5t-91 182t-36 261.5v824h174v-824q0 -407 244 -502q67 -26 126.5 -26t106.5 13 t97 49.5t86 93.5q83 131 83 372v824z" />
<glyph unicode="&#x215;" horiz-adv-x="1067" d="M134 0zM730 1044zM244 1431l240 -333l-64 -54l-286 295zM490 1431l240 -333l-64 -54l-286 295zM780 172v729h164v-901h-164v33q-112 -53 -239 -53q-212 0 -305 104t-93 326v491h164v-467q0 -207 79 -284q70 -68 185.5 -68t208.5 90z" />
<glyph unicode="&#x216;" horiz-adv-x="1402" d="M156 0zM721 1589q-56 0 -102 -29.5t-51 -64.5l-78 21q9 78 76 134t155 56t155.5 -56t76.5 -134l-78 -21q-5 35 -51.5 64.5t-102.5 29.5zM1073 1434h174v-824q0 -420 -230 -555q-127 -75 -321 -75q-158 0 -284 75q-74 44 -129 111.5t-91 182t-36 261.5v824h174v-824 q0 -407 244 -502q67 -26 126.5 -26t106.5 13t97 49.5t86 93.5q83 131 83 372v824z" />
<glyph unicode="&#x217;" horiz-adv-x="1067" d="M143 0zM549 1159q-56 0 -102 -29.5t-51 -64.5l-78 21q9 78 76 134t155 56t155.5 -56t76.5 -134l-78 -21q-5 35 -51.5 64.5t-102.5 29.5zM780 172v729h164v-901h-164v33q-112 -53 -239 -53q-212 0 -305 104t-93 326v491h164v-467q0 -207 79 -284q70 -68 185.5 -68 t208.5 90z" />
<glyph unicode="&#x218;" horiz-adv-x="1187" d="M102 0zM491 -106q118 0 196.5 -42t78.5 -104t-91.5 -105.5t-256.5 -43.5v49q111 0 166 19t55 68t-32.5 70.5t-115.5 30.5v58zM102 350l160 31q15 -117 116 -208t202 -91q157 0 242 75t85 208q0 121 -94 199q-74 61 -176.5 103.5t-164 69t-117.5 60t-99 73.5 q-94 89 -94 232q0 96 61.5 178.5t157 128t216.5 45.5t236 -63.5t179 -165.5l-152 -43q-92 170 -299 170q-116 0 -188 -116q-37 -60 -37 -124t25.5 -108t68.5 -75.5t99 -59.5t117.5 -54.5t123.5 -54.5t118 -65t99 -81q94 -97 94 -257t-141.5 -268.5t-374.5 -108.5 q-149 0 -287.5 111t-175.5 259z" />
<glyph unicode="&#x219;" horiz-adv-x="897" d="M88 0zM366 -106q118 0 196.5 -42t78.5 -104t-91.5 -105.5t-256.5 -43.5v49q111 0 166 19t55 68t-32.5 70.5t-115.5 30.5v58zM756 795l-119 -72q-82 72 -100.5 77t-36.5 11q-23 8 -82 8t-94 -34t-35 -97q0 -112 164 -141q362 -67 362 -285q0 -141 -105 -211.5t-276 -70.5 q-114 0 -174 30t-85.5 47t-86.5 60l88 76q91 -64 139.5 -87.5t148.5 -23.5t143.5 46t43.5 134q0 126 -217 162q-150 28 -229.5 96.5t-79.5 163.5t72 166.5t186 71.5t197.5 -30.5t175.5 -96.5z" />
<glyph unicode="&#x21a;" horiz-adv-x="1280" d="M41 0zM577 -106q118 0 196.5 -42t78.5 -104t-91.5 -105.5t-256.5 -43.5v49q111 0 166 19t55 68t-32.5 70.5t-115.5 30.5v58zM41 1434h1202v-103h-516v-1331h-174v1331h-512v103z" />
<glyph unicode="&#x21b;" horiz-adv-x="567" d="M53 0zM182 -106q118 0 196.5 -42t78.5 -104t-91.5 -105.5t-256.5 -43.5v49q111 0 166 19t55 68t-32.5 70.5t-115.5 30.5v58zM352 799v-799h-164v799h-135l31 102h104v297l164 31v-328h162v-102h-162z" />
<glyph unicode="&#x21e;" horiz-adv-x="1351" d="M174 0zM446 1385zM685 1385l-239 334l63 53l176 -180l176 180l64 -53zM348 1434v-615h660v615h174v-1434h-174v717h-660v-717h-174v1434h174z" />
<glyph unicode="&#x21f;" horiz-adv-x="1087" d="M147 0zM232 1309zM471 1309l-239 334l63 53l176 -180l176 180l64 -53zM311 723v-723h-164v1352h164v-482q99 52 209 52q216 0 322 -106t106 -324v-492h-164v467q0 210 -64 284q-58 68 -178 68t-231 -96z" />
<glyph unicode="&#x220;" horiz-adv-x="1275" d="M147 0v1434h175v-70q2 1 21.5 11.5t26 13.5t26 12.5t31.5 13.5t32.5 12t37.5 11.5t39 7.5q37 8 93 8q224 0 357.5 -109.5t133.5 -320.5v-1436h-174v1411q0 353 -287 353q-99 0 -186.5 -40t-150.5 -95v-1217h-175z" />
<glyph unicode="&#x222;" horiz-adv-x="1126" d="M639 1454q144 0 254.5 -109t110.5 -260q0 -141 -80 -213q-71 -65 -187 -106q220 -113 274 -262q23 -63 23 -139q0 -168 -133 -276.5t-342 -108.5t-338 113.5t-129 271.5q0 227 214 339q41 22 95 44q-117 60 -168 118q-92 103 -92 237.5t107.5 242.5t247.5 108v-102 q-72 0 -126.5 -73.5t-54.5 -178.5q0 -106 123 -183q55 -35 168 -88q108 46 165.5 103.5t57.5 155t-60.5 181t-129.5 83.5v102zM522 692q-190 -72 -236 -202q-20 -55 -20 -125q0 -118 84.5 -200.5t221.5 -82.5t212.5 74.5t75.5 208.5q0 137 -140 226q-63 40 -128.5 69.5 t-69.5 31.5z" />
<glyph unicode="&#x223;" horiz-adv-x="1003" d="M389 1126q-74 0 -74 -127q1 -77 63 -123q51 -38 146 -77q87 47 135 103t48 138q0 189 -150 189v102q149 0 236.5 -72t87.5 -219q0 -117 -70 -187q-60 -60 -160 -108q191 -95 239 -239q20 -62 21 -141q0 -196 -105.5 -290.5t-303 -94.5t-304 97.5t-106.5 287.5 q0 135 82 221q67 71 182 129q-102 48 -158.5 112.5t-56.5 171t69 167.5t175 61q48 0 100 -15l-26 -98q-41 12 -70 12zM475 662q-154 -79 -193 -192q-16 -47 -16 -105q0 -118 68.5 -200.5t169 -82.5t167 77t66.5 206q0 169 -182 260q-32 16 -80 37z" />
<glyph unicode="&#x226;" horiz-adv-x="1298" d="M39 0zM569 1577zM569 1755h164v-178h-164v178zM39 0l522 1434h180l523 -1434h-164l-150 410h-598l-149 -410h-164zM651 1231l-262 -719h524z" />
<glyph unicode="&#x227;" horiz-adv-x="974" d="M94 0zM356 1045zM356 1223h164v-178h-164v178zM115 829q178 93 323 93q188 0 270 -41q48 -24 76 -58.5t46 -95.5q28 -99 28 -313v-414h-164v16q-113 -36 -223 -36q-174 0 -275.5 78.5t-101.5 252.5q0 197 174 273q89 40 195 40h3q108 0 224 -18q-6 120 -51.5 166.5 t-165 46.5t-256.5 -96zM694 125v373q-93 22 -193 22t-171.5 -54t-71.5 -156t73 -165t173 -63t190 43z" />
<glyph unicode="&#x228;" horiz-adv-x="1118" d="M657 0l-12 -109q66 -11 109 -46.5t43 -96.5t-91.5 -104t-256.5 -43v49q111 0 166 19t55 68t-32.5 70.5t-115.5 30.5l29 162h-377v1434h827v-103h-653v-430h469v-102h-469v-697h686v-102h-377z" />
<glyph unicode="&#x229;" horiz-adv-x="1028" d="M264 553h506q-18 120 -76 193t-154 73t-173 -72t-103 -194zM254 451q0 -168 91.5 -268.5t239.5 -100.5t224 123l123 -47q-122 -157 -328 -176l-10 -93q66 -11 108.5 -46.5t42.5 -96.5t-91.5 -104t-256.5 -43v49q111 0 166 19t55 68t-32 70.5t-115 30.5l26 146 q-181 18 -294 145t-113 324q0 104 37 194q37 89 97 149q129 128 288 128q103 0 187 -42q83 -42 135 -110q108 -143 108 -319h-688z" />
<glyph unicode="&#x22a;" d="M102 0zM464 1884h472v-82h-472v82zM102 0zM970 1516zM806 1694h164v-178h-164v178zM438 1694h164v-178h-164v178zM946 24q-112 -44 -218.5 -44t-190 27t-162.5 86t-139.5 143t-97 208.5t-36.5 272.5t34 273q34 124 92 208q61 88 134 144q146 112 324 112q214 0 374 -112 q277 -193 277 -622q0 -190 -51 -333q-51 -144 -139.5 -231.5t-200.5 -131.5zM703 1352q-62 0 -120 -24t-113 -76q-54 -52 -98 -125q-96 -160 -96 -410q0 -129 30 -238.5t78 -180.5q48 -72 107 -122q112 -94 226 -94q132 0 244 100q202 181 202 535q0 370 -209 541 q-115 94 -251 94z" />
<glyph unicode="&#x22b;" horiz-adv-x="1056" d="M90 0zM288 1454h472v-82h-472v82zM90 0zM798 1086zM634 1264h164v-178h-164v178zM266 1264h164v-178h-164v178zM807 451q0 162 -74 265t-192 103t-202.5 -102t-84.5 -270.5t73 -266.5t202.5 -98t203.5 103.5t74 265.5zM971 451q0 -229 -126 -350t-328.5 -121t-314.5 127 t-112 344q0 104 37 194q37 89 97 149q129 128 288 128q207 0 333 -121t126 -350z" />
<glyph unicode="&#x22c;" d="M102 0zM460 1864h472v-82h-472v82zM102 0zM915 1698h84q-9 -80 -62 -131t-139 -51q-38 0 -96.5 32.5t-77.5 32.5q-97 0 -106 -65h-84q9 80 62 131t139 51q38 0 96.5 -33t77.5 -33q97 0 106 66zM946 24q-112 -44 -218.5 -44t-190 27t-162.5 86t-139.5 143t-97 208.5 t-36.5 272.5t34 273q34 124 92 208q61 88 134 144q146 112 324 112q214 0 374 -112q277 -193 277 -622q0 -190 -51 -333q-51 -144 -139.5 -231.5t-200.5 -131.5zM703 1352q-62 0 -120 -24t-113 -76q-54 -52 -98 -125q-96 -160 -96 -410q0 -129 30 -238.5t78 -180.5 q48 -72 107 -122q112 -94 226 -94q132 0 244 100q202 181 202 535q0 370 -209 541q-115 94 -251 94z" />
<glyph unicode="&#x22d;" horiz-adv-x="1056" d="M90 0zM288 1454h472v-82h-472v82zM90 0zM743 1268h84q-9 -80 -62 -131t-139 -51q-38 0 -96.5 32.5t-77.5 32.5q-97 0 -106 -65h-84q9 80 62 131t139 51q38 0 96.5 -33t77.5 -33q97 0 106 66zM807 451q0 162 -74 265t-192 103t-202.5 -102t-84.5 -270.5t73 -266.5 t202.5 -98t203.5 103.5t74 265.5zM971 451q0 -229 -126 -350t-328.5 -121t-314.5 127t-112 344q0 104 37 194q37 89 97 149q129 128 288 128q207 0 333 -121t126 -350z" />
<glyph unicode="&#x22e;" d="M102 0zM622 1694h164v-178h-164v178zM946 24q-112 -44 -218.5 -44t-190 27t-162.5 86t-139.5 143t-97 208.5t-36.5 272.5t34 273q34 124 92 208q61 88 134 144q146 112 324 112q214 0 374 -112q277 -193 277 -622q0 -190 -51 -333q-51 -144 -139.5 -231.5t-200.5 -131.5z M703 1352q-62 0 -120 -24t-113 -76q-54 -52 -98 -125q-96 -160 -96 -410q0 -129 30 -238.5t78 -180.5q48 -72 107 -122q112 -94 226 -94q132 0 244 100q202 181 202 535q0 370 -209 541q-115 94 -251 94z" />
<glyph unicode="&#x22f;" horiz-adv-x="1056" d="M90 0zM467 1264h164v-178h-164v178zM807 451q0 162 -74 265t-192 103t-202.5 -102t-84.5 -270.5t73 -266.5t202.5 -98t203.5 103.5t74 265.5zM971 451q0 -229 -126 -350t-328.5 -121t-314.5 127t-112 344q0 104 37 194q37 89 97 149q129 128 288 128q207 0 333 -121 t126 -350z" />
<glyph unicode="&#x230;" d="M102 0zM460 1864h472v-82h-472v82zM102 0zM622 1694h164v-178h-164v178zM946 24q-112 -44 -218.5 -44t-190 27t-162.5 86t-139.5 143t-97 208.5t-36.5 272.5t34 273q34 124 92 208q61 88 134 144q146 112 324 112q214 0 374 -112q277 -193 277 -622q0 -190 -51 -333 q-51 -144 -139.5 -231.5t-200.5 -131.5zM703 1352q-62 0 -120 -24t-113 -76q-54 -52 -98 -125q-96 -160 -96 -410q0 -129 30 -238.5t78 -180.5q48 -72 107 -122q112 -94 226 -94q132 0 244 100q202 181 202 535q0 370 -209 541q-115 94 -251 94z" />
<glyph unicode="&#x231;" horiz-adv-x="1056" d="M90 0zM303 1428h472v-82h-472v82zM90 0zM467 1264h164v-178h-164v178zM807 451q0 162 -74 265t-192 103t-202.5 -102t-84.5 -270.5t73 -266.5t202.5 -98t203.5 103.5t74 265.5zM971 451q0 -229 -126 -350t-328.5 -121t-314.5 127t-112 344q0 104 37 194q37 89 97 149 q129 128 288 128q207 0 333 -121t126 -350z" />
<glyph unicode="&#x232;" horiz-adv-x="952" d="M23 0zM231 1598h472v-82h-472v82zM479 899l273 535h184l-371 -725v-709h-174v711l-368 723h184z" />
<glyph unicode="&#x233;" horiz-adv-x="880" d="M0 0zM215 1168h472v-82h-472v82zM201 -348q-55 0 -101 33t-110 102l131 66q47 -64 68.5 -81.5t41.5 -17.5q40 0 73 67q14 28 52 134l17 45l-328 901h150l251 -696l254 696h164l-346 -950q-54 -148 -129 -223.5t-188 -75.5z" />
<glyph unicode="&#x237;" horiz-adv-x="536" d="M33 -195q36 -51 102 -51t91.5 58.5t25.5 187.5v901h164v-969q0 -204 -196 -264q-52 -16 -109 -16q-130 0 -207 92z" />
<glyph unicode="&#x23b;" horiz-adv-x="1331" d="M1249 209q-80 -103 -213.5 -166t-293.5 -63t-312 94l-61 -115h-121l96 178q-111 96 -176.5 242t-65.5 316t37 294.5t97 208.5t139 143q151 113 331 113t318 -53l39 74h121l-66 -121q73 -44 125 -109l-153 -67q-24 32 -39 47l-557 -1035q128 -108 278 -108q238 0 356 182z M416 270l549 1022q-99 60 -211 60t-193 -39.5t-145.5 -115.5t-102 -200t-37.5 -280q0 -273 140 -447z" />
<glyph unicode="&#x23c;" horiz-adv-x="1017" d="M248 84q-158 133 -158 367q0 104 37 194q37 89 97 149q129 128 288 128q109 0 201 -50l41 70h120l-77 -131q56 -53 96 -135l-133 -68q-10 37 -33 86l-328 -559q77 -53 185 -53q149 0 225 123l123 -47q-141 -178 -379 -178q-121 0 -217 47l-41 -68h-121zM322 211l335 569 q-51 39 -114 39q-120 0 -204.5 -102t-84.5 -256t68 -250z" />
<glyph unicode="&#x241;" horiz-adv-x="933" d="M389 0h-164v655h119q128 1 224 65q110 74 110 236.5t-74.5 238t-224.5 75.5q-72 0 -113.5 -29.5t-81.5 -93.5l-123 47q68 86 149.5 132t199.5 46q205 0 318.5 -104t113.5 -314q0 -93 -39 -170q-39 -78 -103 -126q-134 -101 -308 -101h-3v-557z" />
<glyph unicode="&#x242;" horiz-adv-x="872" d="M389 0h-164v246h82q239 0 301 163q19 50 19 115q0 295 -248 295q-75 -1 -120 -45q-37 -36 -75 -98l-123 47q74 94 154 146.5t177.5 52.5t163.5 -22t120 -69q114 -98 115 -307q-1 -210 -185 -318q-101 -58 -217 -59v-147z" />
<glyph unicode="&#x243;" horiz-adv-x="1157" d="M389 1331v-502h180q61 0 111 27q50 26 80 66q59 80 59 157q0 111 -57 185q-51 67 -148 67h-225zM821 795q128 -52 193 -165.5t65 -242.5q0 -161 -105 -270q-113 -117 -349 -117h-410v389h-133v103h133v942h369q269 0 359 -151q50 -84 50 -208q0 -65 -41.5 -145.5 t-130.5 -134.5zM389 492h178v-103h-178v-287h266q122 0 186 83.5t64 181t-25 172.5t-84 131.5t-141 56.5h-266v-235z" />
<glyph unicode="&#x244;" horiz-adv-x="1402" d="M57 696v103h99v635h174v-635h743v635h174v-635h99v-103h-99v-86q0 -420 -230 -555q-127 -75 -321 -75q-158 0 -284 75q-74 44 -129 111.5t-91 182t-36 261.5v86h-99zM1073 696h-743v-86q0 -407 244 -502q67 -26 126.5 -26t106.5 13t97 49.5t86 93.5q83 131 83 372v86z " />
<glyph unicode="&#x245;" horiz-adv-x="1298" d="M1100 0l-449 1231l-448 -1231h-164l522 1434h180l523 -1434h-164z" />
<glyph unicode="&#x248;" horiz-adv-x="987" d="M788 487q0 -211 -25 -292t-54 -115.5t-79 -58.5q-85 -41 -252 -41t-343 92l102 106q137 -96 252 -96q140 0 179 58q33 48 38 102q8 74 8 200v357h-163v102h163v533h174v-533h148v-102h-148v-312z" />
<glyph unicode="&#x249;" horiz-adv-x="618" d="M33 -195q36 -51 102 -51t91.5 58.5t25.5 187.5v348h-170v103h170v450h164v-450h151v-103h-151v-416q0 -204 -196 -264q-52 -16 -109 -16q-130 0 -207 92zM252 1249h164v-164h-164v164z" />
<glyph unicode="&#x24a;" horiz-adv-x="1290" d="M1145 -63q0 -129 25 -187.5t91.5 -58.5t102.5 51l129 -61q-78 -93 -207 -93q-117 0 -211 64q-104 71 -104 217v147q-110 -36 -211 -36t-187.5 27t-171.5 86t-151 142.5t-107 209t-41 273t37 272t97 208.5t139 143q151 113 315.5 113t280.5 -35v15h174v-1497zM971 123 v1165q-103 64 -216 64t-194 -39.5t-145.5 -115.5t-102 -200t-37.5 -267t33 -252q33 -108 85 -180q54 -72 120 -122q166 -86 247 -94q123 0 210 41z" />
<glyph unicode="&#x24b;" horiz-adv-x="1089" d="M944 -61q0 -129 25.5 -187.5t91.5 -58.5t102 51l129 -61q-78 -93 -207 -93q-116 0 -206 64q-99 70 -99 217v178q-104 -69 -234 -69t-218 37t-139 103t-75 148.5t-24 182.5q0 101 24 183t76 148q109 140 345 140q229 0 325 -108q84 -94 84 -282v-593zM780 430v168 q0 136 -87 182q-73 40 -170 40h-3q-98 0 -157 -58q-109 -105 -109 -311q0 -140 60 -249q66 -120 195.5 -120t200 98.5t70.5 249.5z" />
<glyph unicode="&#x24c;" horiz-adv-x="1189" d="M420 758h276q62 0 110.5 27t75.5 71q54 87 54 188q0 134 -80 222q-59 65 -157 65h-3h-276v-573zM643 655h-223v-655h-174v655h-164v103h164v676h420q263 0 382 -182q62 -95 62 -208q0 -107 -62 -208q-69 -111 -214 -156q104 -104 205.5 -322t101.5 -358h-168 q0 142 -108 355t-222 300z" />
<glyph unicode="&#x24d;" horiz-adv-x="770" d="M764 741q-41 78 -161 78t-200 -84v-243h164v-103h-164v-389h-163v389h-158v103h158v409h163v-27q79 48 179 48t182 -29v-152z" />
<glyph unicode="&#x251;" horiz-adv-x="1126" d="M897 901v-625q0 -194 76 -194q26 0 46.5 13.5t20.5 35.5h70q0 -60 -49 -105.5t-123 -45.5t-137 63q-108 -63 -248 -63q-202 0 -332.5 129.5t-130.5 341.5q0 104 37 194q37 89 97 149q129 128 288 128q124 0 221 -62v41h164zM733 682q-65 137 -187.5 137t-207 -102 t-84.5 -268t91.5 -266.5t238.5 -100.5q95 0 161 51q-12 37 -12 80v469z" />
<glyph unicode="&#x253;" horiz-adv-x="1079" d="M303 852q106 70 235.5 70t217.5 -37t138.5 -103t74.5 -148.5t24 -182.5t-24.5 -182.5t-75.5 -148.5q-108 -140 -344 -140q-229 0 -325 106q-84 94 -85 283v723q1 204 197 264q52 16 108 16q130 0 207 -92l-129 -61q-36 51 -102 51t-91.5 -58.5t-25.5 -187.5v-172z M303 471v-168q1 -189 195 -216q36 -5 90.5 -5t103.5 33t78 87t44 117.5t15 131.5t-15 131.5t-44 117.5q-64 119 -190 119q-91 -1 -155 -49q-122 -92 -122 -299z" />
<glyph unicode="&#x254;" horiz-adv-x="1017" d="M262 608l-133 68q53 111 150 178.5t231 67.5q159 0 288 -128q60 -60 97 -149.5t37 -193.5q0 -212 -130.5 -341.5t-332.5 -129.5q-238 0 -379 178l123 47q76 -123 224 -123t239.5 100.5t91.5 266.5t-84.5 268t-204.5 102q-81 0 -136 -57t-81 -154z" />
<glyph unicode="&#x256;" horiz-adv-x="1089" d="M780 -68v115q-105 -67 -276 -67q-190 0 -304 140q-110 136 -110 331q0 129 49.5 235.5t145.5 171t235.5 64.5t259.5 -99v529h164v-1352q0 -129 25.5 -187.5t91.5 -58.5t102 51l129 -61q-77 -92 -207 -92q-115 0 -206 64q-99 70 -99 216zM780 398q0 78 -12 148 t-38.5 133.5t-76.5 101.5t-125.5 38t-141.5 -56.5t-99 -139.5t-33 -172t33 -172.5t99 -140t149 -56.5q93 0 166 75q79 81 79 241z" />
<glyph unicode="&#x257;" horiz-adv-x="1191" d="M944 0h-164v47q-105 -67 -276 -67q-190 0 -304 140q-110 136 -110 331q0 129 49.5 235.5t145.5 171t235.5 64.5t259.5 -99v269q0 204 196 264q52 16 109 16q130 0 207 -92l-129 -61q-36 51 -102 51t-91.5 -58.5t-25.5 -187.5v-1024zM780 398q0 78 -12 148t-38.5 133.5 t-76.5 101.5t-125.5 38t-141.5 -56.5t-99 -139.5t-33 -172t33 -172.5t99 -140t149 -56.5q93 0 166 75q79 81 79 241z" />
<glyph unicode="&#x259;" horiz-adv-x="1028" d="M90 0zM100 743q142 179 379 179q202 0 332.5 -129.5t130.5 -341.5q0 -104 -37 -194q-37 -89 -97 -149q-129 -127 -288 -128q-103 0 -187 42q-83 42 -135 110q-108 143 -108 319h688q0 168 -91 268t-239.5 100t-224.5 -123zM768 348h-506q18 -120 76 -193t154 -73t173 72 t103 194z" />
<glyph unicode="&#x25b;" horiz-adv-x="897" d="M690 203l121 -25q-41 -77 -133 -137.5t-213 -60.5q-208 0 -306 74t-98 202q0 83 46 150.5t141 105.5q-68 36 -102.5 85.5t-34.5 96.5q0 105 86.5 166.5t240.5 61.5q268 0 334 -187l-121 -24q-9 52 -64.5 80t-139 28t-128.5 -34.5t-45 -93t60 -98.5t186 -40h58v-102h-72 q-281 0 -281 -195q0 -62 47 -114q54 -60 152 -60h2q96 0 168 34t96 87z" />
<glyph unicode="&#x260;" horiz-adv-x="1140" d="M729 145v463q-26 97 -81 154t-136 57q-116 0 -187 -100t-71 -270t77.5 -268.5t221.5 -98.5q107 0 176 63zM1004 1022q-34 0 -57 -19q-54 -45 -54 -215v-628q0 -214 -23 -294t-51 -114q-29 -34 -77 -59q-83 -41 -249.5 -41t-342.5 92l102 106q137 -96 252 -96 q71 0 113.5 13t66.5 47q41 57 45 209q-97 -43 -207 -43q-199 0 -315.5 127.5t-116.5 339.5t115.5 343.5t264.5 131.5t259 -78q1 204 197 264q52 16 108 16q130 0 207 -92l-129 -61q-36 51 -108 51z" />
<glyph unicode="&#x263;" horiz-adv-x="823" d="M489 117q31 -77 67 -203t36 -190t-49 -103t-127 -39t-128 39t-50 105t39.5 196t64.5 193l-324 786h152l246 -604l246 604h149zM416 -94q-41 -148 -41 -170t12 -36.5t29 -14.5t29 14.5t12 46.5t-41 160z" />
<glyph unicode="&#x265;" horiz-adv-x="1067" d="M780 172v729h164v-1311h-164v443q-112 -53 -239 -53q-212 0 -305 104t-93 326v491h164v-467q0 -207 79 -284q70 -68 185.5 -68t208.5 90z" />
<glyph unicode="&#x266;" horiz-adv-x="1087" d="M147 1092q1 168 137 240q76 40 169 40q129 0 206 -92l-129 -61q-36 51 -102 51t-91.5 -58.5t-25.5 -187.5v-154q99 52 209 52q216 0 322 -106t106 -324v-492h-164v467q0 210 -64 284q-58 68 -178 68t-231 -96v-723h-164v1092z" />
<glyph unicode="&#x268;" horiz-adv-x="512" d="M178 901h164v-280h127v-103h-127v-518h-164v518h-133v103h133v280zM178 1249h164v-164h-164v164z" />
<glyph unicode="&#x269;" horiz-adv-x="630" d="M391 -20q-163 0 -203 169q-16 66 -16 162v488h-82v102h246v-573q0 -130 15 -188t59 -58q82 0 82 154h114q0 -125 -56.5 -190.5t-158.5 -65.5z" />
<glyph unicode="&#x26a;" horiz-adv-x="507" d="M90 901h328v-102h-82v-697h82v-102h-328v102h82v697h-82v102z" />
<glyph unicode="&#x26c;" horiz-adv-x="790" d="M303 881v471h164v-715q117 26 221 137l29 -39q-104 -107 -156.5 -131.5t-93.5 -34.5v-569h-164v563q-105 15 -167 72.5t-62 127t45 104t95.5 34.5t88.5 -20zM303 633v178q-33 33 -73 33q-78 0 -78 -74q0 -53 38.5 -89t112.5 -48z" />
<glyph unicode="&#x26f;" horiz-adv-x="1605" d="M1303 172v729h163v-901h-163v27q-80 -47 -179 -47q-216 0 -309 106q-58 -45 -135 -75.5t-139 -30.5q-191 0 -292.5 107.5t-101.5 322.5v491h164v-500q0 -197 59 -263q50 -56 128 -56q166 0 227 100v719h164v-500q0 -199 50 -262q27 -34 62 -45.5t93 -11.5q116 0 209 90z " />
<glyph unicode="&#x271;" horiz-adv-x="1605" d="M1466 -68q0 -204 -196 -264q-52 -16 -109 -16q-130 0 -207 92l129 61q36 -51 102.5 -51t92 58.5t25.5 187.5v500q0 196 -59 262q-50 56 -128 57q-166 0 -227 -100v-719h-164v500q0 199 -50 262q-27 34 -62 45.5t-93 11.5q-116 0 -209 -90v-729h-164v901h164v-27 q82 48 178 48q216 0 310 -107q58 45 135 76t139 31q191 0 292 -107.5t101 -322.5v-560z" />
<glyph unicode="&#x272;" horiz-adv-x="1087" d="M311 -68q-1 -204 -197 -264q-52 -16 -108 -16q-130 0 -207 92l129 61q36 -51 102.5 -51t91.5 58.5t25 187.5v901h164v-31q99 52 209 52q216 0 322 -106t106 -324v-492h-164v467q0 210 -64 284q-58 68 -178 68t-231 -96v-791z" />
<glyph unicode="&#x275;" horiz-adv-x="1056" d="M971 451q0 -229 -126 -350t-328.5 -121t-314.5 127t-112 344q0 104 37 194q37 89 97 149q129 128 288 128q207 0 333 -121t126 -350zM805 399h-549q11 -150 83 -233.5t190.5 -83.5t191 88t84.5 229zM256 502h549q-12 141 -84.5 229t-179.5 88t-189.5 -87t-95.5 -230z" />
<glyph unicode="&#x279;" horiz-adv-x="743" d="M86 160q41 -78 160.5 -78t199.5 84v735h164v-901h-164v27q-77 -47 -179 -47t-181 28v152z" />
<glyph unicode="&#x27d;" horiz-adv-x="677" d="M672 741q-41 78 -161 78t-200 -84v-735q0 -129 25.5 -187.5t91.5 -58.5t102 51l129 -61q-77 -92 -206 -92q-151 0 -240 94q-66 69 -66 186v969h164v-27q79 48 179 48t182 -29v-152z" />
<glyph unicode="&#x27e;" horiz-adv-x="729" d="M313 -2l-163 2v621q0 204 196 264q52 16 109 16q130 0 207 -92l-130 -61q-36 51 -102 51t-91.5 -58.5t-25.5 -187.5v-555z" />
<glyph unicode="&#x283;" horiz-adv-x="722" d="M494 260q0 -168 -136 -240q-76 -40 -170 -40q-129 0 -206 92l129 61q36 -51 102 -51t91.5 58.5t25.5 187.5v768q0 125 67.5 200.5t188.5 75.5q84 0 145 -22l-43 -111q-25 31 -80.5 31t-84.5 -49t-29 -179v-782z" />
<glyph unicode="&#x288;" horiz-adv-x="567" d="M188 799h-135l31 102h104v297l164 31v-328h162v-102h-162v-799q0 -129 25.5 -187.5t91.5 -58.5t102 51l129 -61q-77 -92 -206 -92q-151 0 -240 94q-66 69 -66 186v867z" />
<glyph unicode="&#x289;" horiz-adv-x="1067" d="M68 416v102h75v383h164v-383h473v383h164v-383h76v-102h-76v-416h-164v33q-112 -53 -233.5 -53t-201 30.5t-123.5 90.5q-79 109 -79 310v5h-75zM307 416q3 -334 264 -334q116 0 209 90v244h-473z" />
<glyph unicode="&#x28a;" horiz-adv-x="1054" d="M528 -20q-99 0 -179 34q-79 34 -127 88q-98 111 -99 232q0 152 71 252q56 80 109 119v94h-117v102h281v-233q-25 -12 -59 -42t-58 -65q-63 -93 -63 -219q0 -124 65 -192q66 -68 176 -68t176 68.5t66 181.5q0 144 -64 230q-54 73 -98 96l-18 10v233h280v-102h-116v-94 q53 -39 97 -101q83 -118 83 -270q0 -122 -98 -232q-48 -54 -128.5 -88t-179.5 -34z" />
<glyph unicode="&#x28b;" horiz-adv-x="1067" d="M567 793l37 120q132 -31 230 -139q112 -123 112 -340q0 -160 -98 -301q-48 -68 -128 -110.5t-179 -42.5q-212 0 -305 104t-93 326v491h164v-467q0 -207 79 -284q70 -68 185 -68q88 0 149.5 102.5t61.5 247.5q0 297 -215 361z" />
<glyph unicode="&#x28c;" horiz-adv-x="849" d="M346 901h164l328 -901h-150l-252 696l-254 -696h-164z" />
<glyph unicode="&#x292;" horiz-adv-x="940" d="M385 270h-123l328 529h-531l31 102h744l-326 -528q102 0 190 -60q160 -110 160 -350q0 -155 -113.5 -264t-278.5 -109t-277 61t-156 152l129 50q29 -73 101.5 -116.5t156.5 -43.5q122 0 198 75t76 195q0 307 -309 307z" />
<glyph unicode="&#x294;" horiz-adv-x="933" d="M61 0zM389 0h-164v655h119q128 1 224 65q110 74 110 236.5t-74.5 238t-224.5 75.5q-72 0 -113.5 -29.5t-81.5 -93.5l-123 47q68 86 149.5 132t199.5 46q205 0 318.5 -104t113.5 -314q0 -93 -39 -170q-39 -78 -103 -126q-134 -101 -308 -101h-3v-557z" />
<glyph unicode="&#x295;" horiz-adv-x="933" d="M545 0v557h-3q-175 0 -308 101q-64 48 -103 125.5t-39 170.5q0 210 113.5 314t318.5 104q118 0 199 -46t149 -132l-122 -47q-40 64 -81.5 93.5t-113.5 29.5q-150 0 -224.5 -75.5t-74.5 -240.5q0 -160 110 -234q96 -64 224 -65h119v-655h-164z" />
<glyph unicode="&#x298;" d="M102 0zM635 650zM635 828h164v-178h-164v178zM946 24q-112 -44 -218.5 -44t-190 27t-162.5 86t-139.5 143t-97 208.5t-36.5 272.5t34 273q34 124 92 208q61 88 134 144q146 112 324 112q214 0 374 -112q277 -193 277 -622q0 -190 -51 -333q-51 -144 -139.5 -231.5 t-200.5 -131.5zM703 1352q-62 0 -120 -24t-113 -76q-54 -52 -98 -125q-96 -160 -96 -410q0 -129 30 -238.5t78 -180.5q48 -72 107 -122q112 -94 226 -94q132 0 244 100q202 181 202 535q0 370 -209 541q-115 94 -251 94z" />
<glyph unicode="&#x2b0;" horiz-adv-x="768" d="M262 1206v-444h-139v852h139v-279q58 21 105 21q138 0 208 -71.5t70 -207.5v-315h-139v301q0 123 -34 159q-29 31 -91 31t-119 -47z" />
<glyph unicode="&#x2b7;" horiz-adv-x="1064" d="M332 965l137 378h119l137 -378l137 378h142l-211 -581h-117l-144 391l-143 -391h-117l-211 581h134z" />
<glyph unicode="&#x2bb;" horiz-adv-x="356" d="M92 985zM240 985h-148q0 237 64 344q12 19 14 23h76q-49 -69 -49 -152q0 -25 21.5 -95t21.5 -120z" />
<glyph unicode="&#x2bc;" horiz-adv-x="356" d="M92 985zM98 1352h148q0 -237 -64 -344q-12 -19 -14 -23h-76q49 69 49 152q0 25 -21.5 95t-21.5 120z" />
<glyph unicode="&#x2be;" horiz-adv-x="311" d="M61 1208q47 0 81 32t34 83t-34 83t-81 32v73q78 0 133.5 -55t55.5 -133t-55.5 -133t-133.5 -55v73z" />
<glyph unicode="&#x2bf;" horiz-adv-x="311" d="M250 1438q-47 0 -81 -32t-34 -83t34 -83t81 -32v-73q-78 0 -133.5 55t-55.5 133t55.5 133t133.5 55v-73z" />
<glyph unicode="&#x2c0;" horiz-adv-x="557" d="M373 1239q0 147 -119 147q-84 0 -102 -73l-82 24q23 46 78.5 81.5t130.5 35.5t135.5 -56.5t60.5 -153t-71 -155.5t-150 -59v-129h-102v199h61q160 0 160 139z" />
<glyph unicode="&#x2c6;" horiz-adv-x="602" d="M25 1257zM576 1348l-92 -91l-183 177l-184 -177l-92 91l276 208z" />
<glyph unicode="&#x2c7;" horiz-adv-x="602" d="M62 1139zM301 1139l-239 334l63 53l176 -180l176 180l64 -53z" />
<glyph unicode="&#x2ca;" horiz-adv-x="497" d="M74 1255zM74 1255zM313 1642l111 -92l-287 -295l-63 54z" />
<glyph unicode="&#x2cb;" horiz-adv-x="497" d="M74 1255zM74 1255zM184 1642l240 -333l-64 -54l-286 295z" />
<glyph unicode="&#x2d8;" horiz-adv-x="585" d="M62 1270zM191.5 1416q46.5 -30 102 -30t102 30t51.5 65l78 -21q-9 -78 -76.5 -134t-155.5 -56t-155 56t-76 134l78 21q5 -35 51.5 -65z" />
<glyph unicode="&#x2d9;" horiz-adv-x="272" d="M53 1270zM53 1448h164v-178h-164v178z" />
<glyph unicode="&#x2da;" horiz-adv-x="434" d="M62 1167zM123 1323q0 -38 28 -66t66 -28t66 28t28 66t-28 66t-66 28t-66 -28t-28 -66zM62 1323q0 65 45.5 110.5t109.5 45.5t110 -45.5t46 -110.5t-46 -110.5t-110 -45.5t-109.5 45.5t-45.5 110.5z" />
<glyph unicode="&#x2db;" horiz-adv-x="405" d="M61 0zM291 25v-25q-47 -24 -81 -62.5t-34 -96t36.5 -91t131.5 -33.5v-36h-5q-216 0 -265 87q-12 22 -13 46q0 69 72 127.5t158 83.5z" />
<glyph unicode="&#x2dc;" horiz-adv-x="729" d="M82 1270zM563 1452h84q-9 -80 -62 -131t-139 -51q-38 0 -96.5 32.5t-77.5 32.5q-97 0 -106 -65h-84q9 80 62 131t139 51q38 0 96.5 -33t77.5 -33q97 0 106 66z" />
<glyph unicode="&#x2dd;" horiz-adv-x="718" d="M62 1255zM658 1255zM547 1642l111 -92l-287 -295l-63 54zM301 1642l111 -92l-287 -295l-63 54z" />
<glyph unicode="&#x2e3;" horiz-adv-x="813" d="M328 1079l-170 264h153l95 -145l96 145h153l-170 -264l205 -317h-155l-129 199l-127 -199h-156z" />
<glyph unicode="&#x300;" horiz-adv-x="0" d="M-586 1642l240 -333l-64 -54l-286 295z" />
<glyph unicode="&#x301;" horiz-adv-x="0" d="M-457 1642l111 -92l-287 -295l-63 54z" />
<glyph unicode="&#x302;" horiz-adv-x="0" d="M-311 1348l-92 -91l-183 177l-184 -177l-92 91l276 208z" />
<glyph unicode="&#x303;" horiz-adv-x="0" d="M-379 1452h84q-9 -80 -62 -131t-139 -51q-38 0 -96.5 32.5t-77.5 32.5q-97 0 -106 -65h-84q9 80 62 131t139 51q38 0 96.5 -33t77.5 -33q97 0 106 66z" />
<glyph unicode="&#x304;" horiz-adv-x="0" d="M-834 1352h472v-82h-472v82z" />
<glyph unicode="&#x306;" horiz-adv-x="0" d="M-689.5 1416q46.5 -30 102 -30t102 30t51.5 65l78 -21q-9 -78 -76.5 -134t-155.5 -56t-155 56t-76 134l78 21q5 -35 51.5 -65z" />
<glyph unicode="&#x307;" horiz-adv-x="0" d="M-674 1448h164v-178h-164v178z" />
<glyph unicode="&#x308;" horiz-adv-x="0" d="M-324 1270zM-488 1448h164v-178h-164v178zM-856 1448h164v-178h-164v178z" />
<glyph unicode="&#x309;" horiz-adv-x="0" d="M-543 1391q0 47 -48.5 47t-88.5 -17v43q56 35 122.5 35t98 -31.5t31.5 -63t-14 -48t-33.5 -25.5t-39.5 -19q-48 -25 -48 -85h-51q0 63 18 83l28 28q25 24 25 53z" />
<glyph unicode="&#x30a;" horiz-adv-x="0" d="M-682 1323q0 -38 28 -66t66 -28t66 28t28 66t-28 66t-66 28t-66 -28t-28 -66zM-743 1323q0 65 45.5 110.5t109.5 45.5t110 -45.5t46 -110.5t-46 -110.5t-110 -45.5t-109.5 45.5t-45.5 110.5z" />
<glyph unicode="&#x30b;" horiz-adv-x="0" d="M-223 1255zM-334 1642l111 -92l-287 -295l-63 54zM-580 1642l111 -92l-287 -295l-63 54z" />
<glyph unicode="&#x30c;" horiz-adv-x="0" d="M-588 1139l-239 334l63 53l176 -180l176 180l64 -53z" />
<glyph unicode="&#x30d;" horiz-adv-x="0" d="M-631 1257v328h82v-328h-82z" />
<glyph unicode="&#x30f;" horiz-adv-x="0" d="M-223 1255zM-709 1642l240 -333l-64 -54l-286 295zM-463 1642l240 -333l-64 -54l-286 295z" />
<glyph unicode="&#x311;" horiz-adv-x="0" d="M-588 1343q-56 0 -102 -29.5t-51 -64.5l-78 21q9 78 76 134t155 56t155.5 -56t76.5 -134l-78 -21q-5 35 -51.5 64.5t-102.5 29.5z" />
<glyph unicode="&#x312;" horiz-adv-x="0" d="M-520 1270h-148q0 202 34 284q15 37 28.5 57.5t15.5 24.5h76q-49 -69 -49 -151q0 -25 21.5 -95t21.5 -120z" />
<glyph unicode="&#x313;" horiz-adv-x="0" d="M-627 1636h148q-1 -202 -35 -284q-15 -37 -28 -57.5t-15 -24.5h-76q49 69 49 151q0 25 -21.5 95t-21.5 120z" />
<glyph unicode="&#x314;" horiz-adv-x="0" d="M-555 1636q0 -50 -21.5 -120t-21.5 -95q0 -82 49 -151h-76q-2 4 -13.5 23t-15.5 28l-14 31q-10 22 -14 46l-10 58q-10 58 -10 180h147z" />
<glyph unicode="&#x31b;" horiz-adv-x="0" d="M-94 1475q61 -1 61 -123v-39q0 -118 -55.5 -188t-124.5 -70v43q45 0 81 34.5t36 64.5q0 31 -16 57t-34 48q-49 57 -49 113q0 24 33.5 42t67.5 18z" />
<glyph unicode="&#x31d;" horiz-adv-x="0" d="M-426 -326h-328v82h123v162h82v-162h123v-82z" />
<glyph unicode="&#x323;" horiz-adv-x="0" d="M-666 -123h150v-149h-150v149z" />
<glyph unicode="&#x324;" horiz-adv-x="0" d="M-365 -94zM-815 -94h164v-178h-164v178zM-529 -94h164v-178h-164v178z" />
<glyph unicode="&#x325;" horiz-adv-x="0" d="M-682 -238q0 -38 28 -66t66 -28t66 28t28 66t-28 66.5t-66 28.5t-66 -28.5t-28 -66.5zM-697.5 -347.5q-45.5 45.5 -45.5 110t45.5 110t109.5 45.5t110 -46t46 -110t-45.5 -109.5t-110 -45.5t-110 45.5z" />
<glyph unicode="&#x326;" horiz-adv-x="0" d="M-672 -106q118 0 196.5 -42t78.5 -104t-91.5 -105.5t-256.5 -43.5v49q111 0 166 19t55 68t-32.5 70.5t-115.5 30.5v58z" />
<glyph unicode="&#x327;" horiz-adv-x="0" d="M-537 0l-12 -111q66 -11 109 -46.5t43 -96.5t-91.5 -104t-256.5 -43v49q111 0 166 19t55 68t-32.5 70.5t-115.5 30.5l29 164h106z" />
<glyph unicode="&#x328;" horiz-adv-x="0" d="M-483 25v-25q-47 -24 -81 -62.5t-34 -96t36.5 -91t131.5 -33.5v-36h-5q-216 0 -265 87q-12 22 -13 46q0 69 72 127.5t158 83.5z" />
<glyph unicode="&#x329;" horiz-adv-x="0" d="M-631 -410v328h82v-328h-82z" />
<glyph unicode="&#x32c;" horiz-adv-x="0" d="M-586 -449l-239 334l63 54l176 -181l176 181l64 -54z" />
<glyph unicode="&#x32d;" horiz-adv-x="0" d="M-586 -61l240 -334l-64 -54l-176 181l-176 -181l-63 54z" />
<glyph unicode="&#x32e;" horiz-adv-x="0" d="M-689.5 -126q46.5 -30 102 -30t102 30t51.5 65l78 -21q-9 -78 -76.5 -134t-155.5 -56t-155 56t-76 134l78 21q5 -35 51.5 -65z" />
<glyph unicode="&#x32f;" horiz-adv-x="0" d="M-588 -199q-56 0 -102 -29.5t-51 -64.5l-78 21q9 78 76 134t155 56t155.5 -56t76.5 -134l-78 -21q-5 35 -51.5 64.5t-102.5 29.5z" />
<glyph unicode="&#x330;" horiz-adv-x="0" d="M-399 -102h84q-9 -80 -62 -131.5t-139 -51.5q-38 0 -96.5 33t-77.5 33q-98 0 -107 -66h-84q9 80 62 131.5t139 51.5q38 0 96.5 -33t77.5 -33q98 0 107 66z" />
<glyph unicode="&#x331;" horiz-adv-x="0" d="M-834 -123h472v-82h-472v82z" />
<glyph unicode="&#x35f;" horiz-adv-x="0" d="M-834 -123h1233v-82h-1233v82z" />
<glyph unicode="&#x37a;" horiz-adv-x="442" d="M215 -254q0 -123 27 -123q41 0 41 76h57q0 -63 -29 -96t-83 -33t-90 38.5t-36 129.5v207h113v-199z" />
<glyph unicode="&#x37e;" horiz-adv-x="356" d="M92 0zM92 0zM98 164h148q0 -237 -64 -344q-12 -19 -14 -23h-76q49 69 49 152q0 25 -21.5 95t-21.5 120zM92 778h164v-164h-164v164z" />
<glyph unicode="&#x384;" horiz-adv-x="497" d="M74 1255zM74 1255zM313 1642l111 -92l-287 -295l-63 54z" />
<glyph unicode="&#x385;" horiz-adv-x="849" d="M53 1263zM291 1263zM291 1263zM530 1650l111 -92l-287 -295l-63 54zM53 1270zM53 1448h164v-178h-164v178zM626 1270zM626 1448h164v-178h-164v178z" />
<glyph unicode="&#x386;" horiz-adv-x="1298" d="M39 0zM74 1255zM74 1255zM313 1642l111 -92l-287 -295l-63 54zM39 0zM39 0l522 1434h180l523 -1434h-164l-150 410h-598l-149 -410h-164zM651 1231l-262 -719h524z" />
<glyph unicode="&#x387;" horiz-adv-x="272" d="M53 414zM53 414zM53 592h164v-178h-164v178z" />
<glyph unicode="&#x388;" horiz-adv-x="1363" d="M74 0zM74 1255zM74 1255zM313 1642l111 -92l-287 -295l-63 54zM420 0zM1280 0h-860v1434h827v-103h-653v-430h469v-102h-469v-697h686v-102z" />
<glyph unicode="&#x389;" horiz-adv-x="1597" d="M74 0zM74 1255zM74 1255zM313 1642l111 -92l-287 -295l-63 54zM420 0zM594 1434v-615h660v615h174v-1434h-174v717h-660v-717h-174v1434h174z" />
<glyph unicode="&#x38a;" horiz-adv-x="759" d="M74 0zM74 1255zM74 1255zM313 1642l111 -92l-287 -295l-63 54zM418 0zM592 1434v-1434h-174v1434h174z" />
<glyph unicode="&#x38c;" horiz-adv-x="1517" d="M74 0zM74 1255zM74 1255zM313 1642l111 -92l-287 -295l-63 54zM184 0zM1028 24q-112 -44 -218.5 -44t-190 27t-162.5 86t-139.5 143t-97 208.5t-36.5 272.5t34 273q34 124 92 208q61 88 134 144q146 112 324 112q214 0 374 -112q277 -193 277 -622q0 -190 -51 -333 q-51 -144 -139.5 -231.5t-200.5 -131.5zM785 1352q-62 0 -120 -24t-113 -76q-54 -52 -98 -125q-96 -160 -96 -410q0 -129 30 -238.5t78 -180.5q48 -72 107 -122q112 -94 226 -94q132 0 244 100q202 181 202 535q0 370 -209 541q-115 94 -251 94z" />
<glyph unicode="&#x38e;" horiz-adv-x="1320" d="M74 0zM74 1255zM74 1255zM313 1642l111 -92l-287 -295l-63 54zM392 0zM848 899l273 535h184l-371 -725v-709h-174v711l-368 723h184z" />
<glyph unicode="&#x38f;" horiz-adv-x="1464" d="M74 0zM74 1255zM74 1255zM313 1642l111 -92l-287 -295l-63 54zM727 1454q81 0 161.5 -23.5t157.5 -76.5q77 -54 136 -130q131 -170 131 -442q0 -171 -79 -330t-181 -257v-93h153v-102h-327v246q74 20 134 100t93 195.5t33 247.5t-33 242q-33 109 -90 179 q-116 142 -289 142q-171 0 -287 -142q-122 -151 -123 -428q0 -125 33 -240.5t93.5 -195.5t134.5 -100v-246h-328v102h153v93q-102 98 -181 257t-79 313t35.5 268.5t94.5 191t135.5 129.5t157 76.5t161.5 23.5z" />
<glyph unicode="&#x390;" horiz-adv-x="614" d="M0 0zM-62 1079zM176 1079zM176 1079zM415 1466l111 -92l-287 -295l-63 54zM-62 1086zM-62 1264h164v-178h-164v178zM511 1086zM511 1264h164v-178h-164v178zM225 0zM225 901h164v-901h-164v901z" />
<glyph unicode="&#x391;" horiz-adv-x="1298" d="M39 0zM39 0l522 1434h180l523 -1434h-164l-150 410h-598l-149 -410h-164zM651 1231l-262 -719h524z" />
<glyph unicode="&#x392;" horiz-adv-x="1116" d="M174 0zM348 727v-625h266q122 0 186 83.5t64 181t-25 172.5t-84 131.5t-141 56.5h-266zM780 795q128 -52 193 -165.5t65 -242.5q0 -161 -105 -270q-113 -117 -349 -117h-410v1434h369q269 0 359 -151q50 -84 50 -208q0 -65 -41.5 -145.5t-130.5 -134.5zM348 1331v-502 h180q62 0 112 27q50 26 79 66q59 80 59 153q0 114 -58 189q-51 67 -147 67h-225z" />
<glyph unicode="&#x393;" horiz-adv-x="1038" d="M174 0zM348 0h-174v1434h827v-103h-653v-1331z" />
<glyph unicode="&#x394;" horiz-adv-x="1298" d="M1264 0h-1225l522 1434h180zM240 102h823l-412 1129z" />
<glyph unicode="&#x395;" horiz-adv-x="1118" d="M174 0zM1034 0h-860v1434h827v-103h-653v-430h469v-102h-469v-697h686v-102z" />
<glyph unicode="&#x396;" horiz-adv-x="1040" d="M61 0zM750 1331h-678l30 103h873l-690 -1332h698v-102h-922z" />
<glyph unicode="&#x397;" horiz-adv-x="1351" d="M174 0zM348 1434v-615h660v615h174v-1434h-174v717h-660v-717h-174v1434h174z" />
<glyph unicode="&#x398;" d="M946 24q-112 -44 -218.5 -44t-190 27t-162.5 86t-139.5 143t-97 208.5t-36.5 272.5t34 273q34 124 92 208q61 88 134 144q146 112 324 112q214 0 374 -112q277 -193 277 -622q0 -190 -51 -333q-51 -144 -139.5 -231.5t-200.5 -131.5zM703 1352q-62 0 -120 -24t-113 -76 q-54 -52 -98 -125q-96 -160 -96 -410q0 -129 30 -238.5t78 -180.5q48 -72 107 -122q112 -94 226 -94q132 0 244 100q202 181 202 535q0 370 -209 541q-115 94 -251 94zM436 791h547v-144h-547v144z" />
<glyph unicode="&#x399;" horiz-adv-x="514" d="M172 0zM346 1434v-1434h-174v1434h174z" />
<glyph unicode="&#x39a;" horiz-adv-x="1243" d="M174 0zM348 469v-469h-174v1434h174v-738l656 738h204l-585 -658l610 -776h-193l-520 662z" />
<glyph unicode="&#x39b;" horiz-adv-x="1298" d="M39 0zM1100 0l-449 1231l-448 -1231h-164l522 1434h180l523 -1434h-164z" />
<glyph unicode="&#x39c;" horiz-adv-x="1626" d="M174 0zM348 1098v-1098h-174v1434h174l467 -1002l467 1002h174v-1434h-174v1098l-467 -996z" />
<glyph unicode="&#x39d;" horiz-adv-x="1406" d="M174 0zM1059 0l-711 1157v-1157h-174v1434h176l713 -1160v1160h174v-1434h-178z" />
<glyph unicode="&#x39e;" horiz-adv-x="1384" d="M215 788h795v-143h-795v143zM82 1434h1061v-144h-1061v144zM82 143h1061v-143h-1061v143z" />
<glyph unicode="&#x39f;" d="M102 0zM946 24q-112 -44 -218.5 -44t-190 27t-162.5 86t-139.5 143t-97 208.5t-36.5 272.5t34 273q34 124 92 208q61 88 134 144q146 112 324 112q214 0 374 -112q277 -193 277 -622q0 -190 -51 -333q-51 -144 -139.5 -231.5t-200.5 -131.5zM703 1352q-62 0 -120 -24 t-113 -76q-54 -52 -98 -125q-96 -160 -96 -410q0 -129 30 -238.5t78 -180.5q48 -72 107 -122q112 -94 226 -94q132 0 244 100q202 181 202 535q0 370 -209 541q-115 94 -251 94z" />
<glyph unicode="&#x3a0;" horiz-adv-x="1318" d="M174 0zM174 0v1434h975v-1434h-174v1331h-627v-1331h-174z" />
<glyph unicode="&#x3a1;" horiz-adv-x="1089" d="M174 0zM348 655v-655h-174v1434h420q263 0 382 -182q62 -95 62 -208q0 -112 -64 -208q-120 -181 -380 -181h-246zM348 1331v-573h277q124 0 185 98q54 87 54 188t-54 189q-60 98 -185 98h-277z" />
<glyph unicode="&#x3a3;" horiz-adv-x="1040" d="M61 0zM317 1331l416 -606l-426 -623h676v-102h-922l488 725l-479 709h872l31 -103h-656z" />
<glyph unicode="&#x3a4;" horiz-adv-x="1280" d="M41 0zM41 1434h1202v-103h-516v-1331h-174v1331h-512v103z" />
<glyph unicode="&#x3a5;" horiz-adv-x="952" d="M23 0zM479 899l273 535h184l-371 -725v-709h-174v711l-368 723h184z" />
<glyph unicode="&#x3a6;" d="M102 0zM633 295v848q-156 -22 -256.5 -136.5t-100.5 -286t102.5 -284.5t254.5 -141zM633 1247v187h174v-193q310 -47 456 -271q74 -114 74 -254.5t-72.5 -255.5t-191.5 -183t-266 -87v-190h-174v188q-161 20 -297 114q-234 162 -234 415q0 111 46 208t122 163 q157 138 363 159zM807 1137v-842q151 29 253.5 142.5t102.5 279t-99.5 277t-256.5 143.5z" />
<glyph unicode="&#x3a7;" horiz-adv-x="1191" d="M86 0zM258 0h-172l391 758l-350 676h174l262 -508l262 508h174l-348 -676l391 -758h-174l-305 590z" />
<glyph unicode="&#x3a8;" horiz-adv-x="1556" d="M696 545v889h174v-887q262 58 334 327q23 86 23 191v369h174v-369q0 -128 -34.5 -232.5t-88.5 -171.5t-126 -115q-126 -84 -282 -106v-440h-174v440q-264 32 -414 216q-54 66 -90 172.5t-36 236.5v369h174v-369q0 -297 172 -432q85 -67 194 -88z" />
<glyph unicode="&#x3a9;" horiz-adv-x="1464" d="M727 1454q81 0 161.5 -23.5t157.5 -76.5q77 -54 136 -130q131 -170 131 -442q0 -171 -79 -330t-181 -257v-93h153v-102h-327v246q74 20 134 100t93 195.5t33 247.5t-33 242q-33 109 -90 179q-116 142 -289 142q-171 0 -287 -142q-122 -151 -123 -428q0 -125 33 -240.5 t93.5 -195.5t134.5 -100v-246h-328v102h153v93q-102 98 -181 257t-79 313t35.5 268.5t94.5 191t135.5 129.5t157 76.5t161.5 23.5z" />
<glyph unicode="&#x3aa;" horiz-adv-x="514" d="M0 0zM0 0zM526 1516zM362 1694h164v-178h-164v178zM-6 1694h164v-178h-164v178zM346 1434v-1434h-174v1434h174z" />
<glyph unicode="&#x3ab;" horiz-adv-x="952" d="M23 0zM23 0zM741 1516zM577 1694h164v-178h-164v178zM209 1694h164v-178h-164v178zM479 899l273 535h184l-371 -725v-709h-174v711l-368 723h184z" />
<glyph unicode="&#x3ac;" horiz-adv-x="1126" d="M90 0zM461 1089zM461 1089zM700 1476l111 -92l-287 -295l-63 54zM90 0zM897 901v-625q0 -194 76 -194q26 0 46.5 13.5t20.5 35.5h70q0 -60 -49 -105.5t-123 -45.5t-137 63q-108 -63 -248 -63q-202 0 -332.5 129.5t-130.5 341.5q0 104 37 194q37 89 97 149 q129 128 288 128q124 0 221 -62v41h164zM733 682q-65 137 -187.5 137t-207 -102t-84.5 -268t91.5 -266.5t238.5 -100.5q95 0 161 51q-12 37 -12 80v469z" />
<glyph unicode="&#x3ad;" horiz-adv-x="897" d="M61 0zM324 1089zM324 1089zM563 1476l111 -92l-287 -295l-63 54zM61 0zM61 0zM690 203l121 -25q-41 -77 -133 -137.5t-213 -60.5q-208 0 -306 74t-98 202q0 83 46 150.5t141 105.5q-68 36 -102.5 85.5t-34.5 96.5q0 105 86.5 166.5t240.5 61.5q268 0 334 -187l-121 -24 q-9 52 -64.5 80t-139 28t-128.5 -34.5t-45 -93t60 -98.5t186 -40h58v-102h-72q-281 0 -281 -195q0 -62 47 -114q54 -60 152 -60h2q96 0 168 34t96 87z" />
<glyph unicode="&#x3ae;" horiz-adv-x="1087" d="M147 0zM430 1089zM430 1089zM669 1476l111 -92l-287 -295l-63 54zM147 0zM311 723v-723h-164v901h164v-31q99 52 209 52q216 0 322 -106t106 -324v-900h-164v875q0 210 -64 284q-58 68 -178 68t-231 -96z" />
<glyph unicode="&#x3af;" horiz-adv-x="407" d="M58 0zM58 1089zM58 1089zM297 1476l111 -92l-287 -295l-63 54zM123 0zM123 901h164v-901h-164v901z" />
<glyph unicode="&#x3b0;" horiz-adv-x="1056" d="M129 0zM159 1079zM397 1079zM397 1079zM636 1466l111 -92l-287 -295l-63 54zM159 1086zM159 1264h164v-178h-164v178zM732 1086zM732 1264h164v-178h-164v178zM293 901v-450q0 -182 55 -275.5t193 -93.5q111 0 167 99.5t56 269.5v450h164v-450q0 -233 -108 -352 t-306 -119t-291.5 124t-93.5 347v450h164z" />
<glyph unicode="&#x3b1;" horiz-adv-x="1126" d="M90 0zM897 901v-625q0 -194 76 -194q26 0 46.5 13.5t20.5 35.5h70q0 -60 -49 -105.5t-123 -45.5t-137 63q-108 -63 -248 -63q-202 0 -332.5 129.5t-130.5 341.5q0 104 37 194q37 89 97 149q129 128 288 128q124 0 221 -62v41h164zM733 682q-65 137 -187.5 137t-207 -102 t-84.5 -268t91.5 -266.5t238.5 -100.5q95 0 161 51q-12 37 -12 80v469z" />
<glyph unicode="&#x3b2;" horiz-adv-x="1118" d="M594 82q158 0 210 131q25 62 25 141v6q0 130 -78.5 207.5t-215.5 77.5h-205v-366q0 -63 75.5 -130t188.5 -67zM330 985v-237h180q60 0 108 28q48 30 74 72q52 85 52 137q0 51 -10 87q-8 36 -28 74q-44 83 -158 83h-3q-157 0 -203 -161q-12 -41 -12 -83zM166 -410v1340 q0 179 85.5 290t254.5 111q304 0 380 -223q22 -62 22 -138q0 -80 -54 -164q-52 -84 -90 -93q74 -31 128 -93q98 -114 99 -253q0 -182 -105.5 -284.5t-332.5 -102.5q-132 0 -223 55v-445h-164z" />
<glyph unicode="&#x3b3;" horiz-adv-x="823" d="M18 0zM489 117q31 -77 67 -203t36 -190t-49 -103t-127 -39t-128 39t-50 105t39.5 196t64.5 193l-324 786h152l246 -604l246 604h149zM416 -94q-41 -148 -41 -170t12 -36.5t29 -14.5t29 14.5t12 46.5t-41 160z" />
<glyph unicode="&#x3b4;" horiz-adv-x="1116" d="M561 74q313 0 313 399q0 173 -93 263.5t-232 90.5h-2q-98 0 -187 -85q-42 -40 -69 -106t-27 -152t29.5 -167.5t74.5 -132.5q124 -98 193 -110zM571 926q-20 12 -68.5 33t-88.5 41t-82 48q-90 60 -90 133t48 116q90 81 257 81t250 -42.5t141 -118.5l-131 -66 q-8 10 -26 38.5t-28 37.5q-9 9 -33 24q-39 25 -122.5 25t-119.5 -8t-51 -24q-21 -23 -21 -58.5t28.5 -58.5t119 -65.5t151 -78t125 -89t108.5 -112.5q100 -136 100 -309q0 -254 -146 -392q-117 -110 -329.5 -110t-337.5 143.5t-125 377.5q0 93 32.5 169t83 124t114.5 81 q118 60 241 60z" />
<glyph unicode="&#x3b5;" horiz-adv-x="897" d="M61 0zM61 0zM690 203l121 -25q-41 -77 -133 -137.5t-213 -60.5q-208 0 -306 74t-98 202q0 83 46 150.5t141 105.5q-68 36 -102.5 85.5t-34.5 96.5q0 105 86.5 166.5t240.5 61.5q268 0 334 -187l-121 -24q-9 52 -64.5 80t-139 28t-128.5 -34.5t-45 -93t60 -98.5t186 -40 h58v-102h-72q-281 0 -281 -195q0 -62 47 -114q54 -60 152 -60h2q96 0 168 34t96 87z" />
<glyph unicode="&#x3b6;" horiz-adv-x="942" d="M465 94l113 4q85 0 165 -70q87 -77 88 -233q0 -94 -99 -142q-81 -40 -161 -52l-8 108q5 2 20 6t24 8.5t21 13.5q24 18 24 72q0 56 -11 97q-9 39 -29 56q-32 28 -80 28l-124 -6q-158 0 -221 125q-58 116 -58 343t139 428t381 369h-497v103h710v-88q-218 -125 -390 -349 q-81 -106 -130 -226t-49 -261t44.5 -237.5t127.5 -96.5z" />
<glyph unicode="&#x3b7;" horiz-adv-x="1087" d="M147 0zM311 723v-723h-164v901h164v-31q99 52 209 52q216 0 322 -106t106 -324v-900h-164v875q0 210 -64 284q-58 68 -178 68t-231 -96z" />
<glyph unicode="&#x3b8;" horiz-adv-x="1056" d="M940 676q0 -154 -19.5 -272t-55.5 -198q-35 -80 -89 -131q-100 -95 -264 -95q-122 0 -218 96q-172 174 -172 600t172 600q95 96 218 96q251 0 353 -226q75 -167 75 -470zM776 627h-491q7 -309 79 -432q98 -97 179 -113q226 0 233 545zM285 729h491q-81 447 -233 541 q-183 0 -235 -280q-20 -108 -23 -261z" />
<glyph unicode="&#x3b9;" horiz-adv-x="407" d="M123 0zM123 901h164v-901h-164v901z" />
<glyph unicode="&#x3ba;" horiz-adv-x="980" d="M147 0zM311 268v-268h-164v901h164v-424l377 424h189l-357 -399l393 -502h-176l-313 395z" />
<glyph unicode="&#x3bb;" horiz-adv-x="880" d="M369 1352l495 -1352h-164l-254 696l-251 -696h-150l328 901l-166 449z" />
<glyph unicode="&#x3bc;" horiz-adv-x="972" d="M82 0zM719 186v715h164v-901h-164v49q-113 -69 -247 -69t-226 57v-330h-164v1194h164v-434q0 -202 73 -293.5t191 -91.5t209 104z" />
<glyph unicode="&#x3bd;" horiz-adv-x="849" d="M18 0zM510 0h-164l-328 901h150l252 -696l254 696h164z" />
<glyph unicode="&#x3be;" horiz-adv-x="987" d="M610 -12l-94 -8q-210 0 -321 189q-60 103 -60 210q0 91 32 178q60 162 155 201q-63 34 -100.5 138t-37.5 167q0 105 84 186h-231v103h797v-103h-299q-72 0 -129.5 -63t-57.5 -123q0 -57 27 -109q27 -54 54 -84q62 -71 162 -71h3h57v-103h-71q-85 0 -151.5 -52.5 t-98 -123.5t-31.5 -118.5t6.5 -82t23 -77t40 -77.5t62 -59t83.5 -24l137 16q113 0 195 -104q59 -76 59 -197q0 -95 -99 -144q-81 -40 -161 -52l-8 108q5 2 20 6t24 8.5t21 13.5q24 18 24 72q0 57 -10 97q-10 38 -28 55q-30 27 -78 27z" />
<glyph unicode="&#x3bf;" horiz-adv-x="1056" d="M90 0zM807 451q0 162 -74 265t-192 103t-202.5 -102t-84.5 -270.5t73 -266.5t202.5 -98t203.5 103.5t74 265.5zM971 451q0 -229 -126 -350t-328.5 -121t-314.5 127t-112 344q0 104 37 194q37 89 97 149q129 128 288 128q207 0 333 -121t126 -350z" />
<glyph unicode="&#x3c0;" horiz-adv-x="1054" d="M123 0zM934 901v-901h-164v799h-483v-799h-164v901h811z" />
<glyph unicode="&#x3c1;" horiz-adv-x="1089" d="M309 49v-459h-164v942q0 270 178 349q92 41 221 41t216.5 -37t138.5 -103t75.5 -148.5t24.5 -182.5q0 -101 -24 -183q-25 -82 -75 -148q-107 -140 -345 -140q-142 0 -246 69zM309 430q0 -208 122 -300q64 -48 141 -48t126 33q48 33 78 87q60 109 60 225t-25 197t-84 138 t-141 57h-5q-151 0 -215 -61q-57 -54 -57 -160v-168z" />
<glyph unicode="&#x3c2;" horiz-adv-x="942" d="M815 901v-102q-243 -1 -342 -39q-95 -37 -133 -101q-46 -79 -46 -179q0 -3 -1 -5q1 -97 19 -155q18 -60 49 -97.5t71.5 -65.5t85 -46.5t89 -36t85 -39.5t71.5 -51q68 -64 68 -187q0 -93 -71 -145q-55 -40 -129 -66l-27 107q18 11 25 17q22 19 22 89t-29 113.5t-75 68.5 t-101.5 47.5t-111 53t-101.5 73.5t-75 120.5t-29 183.5t29 182.5t82 126.5q54 50 140 80q153 53 425 53h10z" />
<glyph unicode="&#x3c3;" horiz-adv-x="1083" d="M971 440q0 -339 -275 -432q-83 -28 -184 -28q-199 0 -310.5 122t-111.5 338q0 104 37 192t97 146q128 122 288 123h512v-102h-195q142 -123 142 -359zM733 700q-74 99 -192 99t-202.5 -98t-84.5 -265.5t72.5 -260.5t203 -93t204 98.5t73.5 259.5t-74 260z" />
<glyph unicode="&#x3c4;" horiz-adv-x="937" d="M53 0zM555 799v-799h-164v799h-338v102h840v-102h-338z" />
<glyph unicode="&#x3c5;" horiz-adv-x="1056" d="M293 901v-450q0 -182 55 -275.5t193 -93.5q111 0 167 99.5t56 269.5v450h164v-450q0 -233 -108 -352t-306 -119t-291.5 124t-93.5 347v450h164z" />
<glyph unicode="&#x3c6;" horiz-adv-x="1271" d="M719 86q138 17 220.5 116.5t82.5 255t-48.5 258.5t-129.5 103q-55 0 -90 -77t-35 -248v-408zM379 758q-125 -106 -125 -307q0 -142 80.5 -236.5t220.5 -122.5v402q0 215 74.5 321.5t216.5 106.5t241 -126t99 -343t-119.5 -334.5t-347.5 -134.5v-394h-164v394 q-219 20 -342 144t-123 323q0 139 62 247t163 168z" />
<glyph unicode="&#x3c7;" horiz-adv-x="833" d="M8 0zM330 494l-264 407h176l176 -272l178 272h176l-264 -407l321 -494h-178l-233 358l-232 -358h-178z" />
<glyph unicode="&#x3c8;" horiz-adv-x="1261" d="M293 901v-379q0 -183 71 -292t191 -138v809h164v-809q106 32 178 142.5t72 287.5v379h164v-379q-1 -349 -255 -482q-72 -38 -159 -52v-398h-164v392q-187 16 -302 138q-124 131 -124 402v379h164z" />
<glyph unicode="&#x3c9;" horiz-adv-x="1445" d="M807 596q0 -278 40.5 -396t137.5 -118t154 99t57 270q0 104 -17.5 165.5t-28 93t-28.5 66.5t-26.5 51t-26 44t-18.5 30h168q2 -3 27 -37.5t33.5 -48.5t28.5 -56t28 -79q24 -111 24 -229q0 -223 -94 -347t-278.5 -124t-262.5 131q-78 -131 -262.5 -131t-278.5 124t-94 347 q0 231 80 364q8 14 33.5 48.5t27.5 37.5h168q-1 -2 -18.5 -30t-26 -44t-26.5 -51t-28.5 -66.5t-22.5 -73.5q-23 -80 -23 -185q0 -171 57 -270t154 -99t137.5 118t40.5 396v166h164v-166z" />
<glyph unicode="&#x3ca;" horiz-adv-x="407" d="M0 0zM-62 1088zM470 1088zM306 1266h164v-178h-164v178zM-62 1266h164v-178h-164v178zM123 0zM123 901h164v-901h-164v901z" />
<glyph unicode="&#x3cb;" horiz-adv-x="1056" d="M129 0zM264 1088zM796 1088zM632 1266h164v-178h-164v178zM264 1266h164v-178h-164v178zM293 901v-450q0 -182 55 -275.5t193 -93.5q111 0 167 99.5t56 269.5v450h164v-450q0 -233 -108 -352t-306 -119t-291.5 124t-93.5 347v450h164z" />
<glyph unicode="&#x3cc;" horiz-adv-x="1056" d="M90 0zM447 1089zM447 1089zM686 1476l111 -92l-287 -295l-63 54zM90 0zM807 451q0 162 -74 265t-192 103t-202.5 -102t-84.5 -270.5t73 -266.5t202.5 -98t203.5 103.5t74 265.5zM971 451q0 -229 -126 -350t-328.5 -121t-314.5 127t-112 344q0 104 37 194q37 89 97 149 q129 128 288 128q207 0 333 -121t126 -350z" />
<glyph unicode="&#x3cd;" horiz-adv-x="1056" d="M129 0zM293 901v-450q0 -182 55 -275.5t193 -93.5q111 0 167 99.5t56 269.5v450h164v-450q0 -233 -108 -352t-306 -119t-291.5 124t-93.5 347v450h164zM439 1089zM439 1089zM678 1476l111 -92l-287 -295l-63 54z" />
<glyph unicode="&#x3ce;" horiz-adv-x="1445" d="M90 0zM619 1089zM619 1089zM858 1476l111 -92l-287 -295l-63 54zM807 596q0 -278 40.5 -396t137.5 -118t154 99t57 270q0 104 -17.5 165.5t-28 93t-28.5 66.5t-26.5 51t-26 44t-18.5 30h168q2 -3 27 -37.5t33.5 -48.5t28.5 -56t28 -79q24 -111 24 -229q0 -223 -94 -347 t-278.5 -124t-262.5 131q-78 -131 -262.5 -131t-278.5 124t-94 347q0 231 80 364q8 14 33.5 48.5t27.5 37.5h168q-1 -2 -18.5 -30t-26 -44t-26.5 -51t-28.5 -66.5t-22.5 -73.5q-23 -80 -23 -185q0 -171 57 -270t154 -99t137.5 118t40.5 396v166h164v-166z" />
<glyph unicode="&#x400;" horiz-adv-x="1118" d="M174 0zM174 0zM483 1888l240 -333l-64 -54l-286 295zM1034 0h-860v1434h827v-103h-653v-430h469v-102h-469v-697h686v-102z" />
<glyph unicode="&#x401;" horiz-adv-x="1118" d="M174 0zM174 0zM878 1516zM714 1694h164v-178h-164v178zM346 1694h164v-178h-164v178zM1034 0h-860v1434h827v-103h-653v-430h469v-102h-469v-697h686v-102z" />
<glyph unicode="&#x402;" horiz-adv-x="1503" d="M41 1434h1202l-4 -103h-512v-461q99 52 209 52q216 0 322 -106t106 -324v-332q0 -214 -23 -294t-51 -114.5t-76 -58.5q-83 -41 -250 -41t-343 92l102 106q137 -96 252 -96q85 0 117.5 15t48.5 27.5t27 37.5t17.5 47.5t9.5 63.5q5 68 5 170v352q0 210 -64 284 q-58 68 -178 68t-231 -96v-723h-174v1331h-512v103z" />
<glyph unicode="&#x403;" horiz-adv-x="1038" d="M174 0zM735 1888l111 -92l-287 -295l-63 54zM348 0h-174v1434h827v-103h-653v-1331z" />
<glyph unicode="&#x404;" horiz-adv-x="1331" d="M1249 209q-80 -103 -213.5 -166t-294.5 -63q-177 0 -340 113q-185 129 -258 351q-41 126 -41 273.5t37 272t97 208.5t139 143q151 113 327 113q373 0 541 -209l-153 -67q-55 78 -145 126t-193 48t-178 -33.5t-137 -98.5q-134 -140 -156 -405h657v-102h-662 q1 -129 34 -237.5t85 -179.5q53 -70 119 -120q126 -93 258 -94q238 0 356 182z" />
<glyph unicode="&#x405;" horiz-adv-x="1187" d="M102 0zM102 350l160 31q15 -117 116 -208t202 -91q157 0 242 75t85 208q0 121 -94 199q-74 61 -176.5 103.5t-164 69t-117.5 60t-99 73.5q-94 89 -94 232q0 96 61.5 178.5t157 128t216.5 45.5t236 -63.5t179 -165.5l-152 -43q-92 170 -299 170q-116 0 -188 -116 q-37 -60 -37 -124t25.5 -108t68.5 -75.5t99 -59.5t117.5 -54.5t123.5 -54.5t118 -65t99 -81q94 -97 94 -257t-141.5 -268.5t-374.5 -108.5q-149 0 -287.5 111t-175.5 259z" />
<glyph unicode="&#x406;" horiz-adv-x="514" d="M172 0zM346 1434v-1434h-174v1434h174z" />
<glyph unicode="&#x407;" horiz-adv-x="514" d="M0 0zM0 0zM526 1516zM362 1694h164v-178h-164v178zM-6 1694h164v-178h-164v178zM346 1434v-1434h-174v1434h174z" />
<glyph unicode="&#x408;" horiz-adv-x="954" d="M35 0zM788 487q0 -211 -25 -292t-54 -115.5t-79 -58.5q-85 -41 -252 -41t-343 92l102 106q137 -96 252 -96q140 0 179 58q33 48 38 102q8 74 8 200v992h174v-947z" />
<glyph unicode="&#x409;" horiz-adv-x="1792" d="M1708 614.5q33 -78.5 33 -150t-16 -134.5q-15 -62 -51 -122t-88 -106q-115 -102 -300 -102h-389v1331h-340v-1071q-1 -203 -205 -264q-54 -16 -110 -16q-130 0 -207 92l129 61q36 -51 102 -51t91.5 58.5t25.5 187.5v1106h688v-533h211q101 0 189.5 -40t146 -104 t90.5 -142.5zM1071 799v-697h246q62 0 112 35t79 89q59 111 59 209.5t-25 174t-84 132.5t-141 57h-246z" />
<glyph unicode="&#x40a;" horiz-adv-x="1820" d="M348 1434v-533h578v533h174v-533h211q101 0 189 -40t146 -104q123 -136 123 -300q-1 -135 -67 -249q-122 -208 -387 -208h-389v799h-578v-799h-174v1434h174zM1100 102h246q62 0 112 35t78 89q58 112 59 231q-1 117 -59 224q-28 52 -78 85t-112 33h-246v-697z" />
<glyph unicode="&#x40b;" horiz-adv-x="1503" d="M41 1434h1202l-4 -103h-512v-461q99 52 209 52q216 0 322 -106t106 -324v-492h-164v467q0 210 -64 284q-58 68 -178 68t-231 -96v-723h-174v1331h-512v103z" />
<glyph unicode="&#x40c;" horiz-adv-x="1239" d="M174 0zM737 1888l111 -92l-287 -295l-63 54zM1192 119v-119q-150 0 -249 82q-93 78 -151 192q-46 92 -82 183t-56 134q-44 94 -97 114l-209 -236v-469h-174v1434h174v-738l656 738h204l-561 -629q111 -49 185 -190q32 -62 62 -131.5t58 -133.5q30 -64 62 -116 q72 -115 178 -115z" />
<glyph unicode="&#x40d;" horiz-adv-x="1406" d="M174 0zM563 1888l240 -333l-64 -54l-286 295zM1063 1434h174v-1434h-174v1122l-715 -1061v-61h-174v1434h174v-1125l715 1063v62z" />
<glyph unicode="&#x40e;" horiz-adv-x="1081" d="M82 0zM420 1624l-9 -43q0 -29 111 -29h102q111 0 111 29l-8 43q0 23 27 23t42 -20.5t15 -53.5q0 -58 -72.5 -97.5t-165.5 -39.5t-165 39.5t-72 97.5q0 33 15 53.5t42 20.5t27 -23zM313 -20q-55 0 -101 33t-110 102l131 65q59 -82 87 -94q10 -4 24 -4q40 0 73 67 q14 28 52 134l16 45l-403 1106h149l328 -902l330 902h174l-422 -1155q-57 -158 -131.5 -228.5t-196.5 -70.5z" />
<glyph unicode="&#x40f;" horiz-adv-x="1413" d="M92 0v1434h174v-1332h627v1332h174v-1434h-373q-39 -39 -58 -193q-7 -57 -7 -122h-99q0 104 -16.5 182.5t-32.5 105.5l-16 27h-373z" />
<glyph unicode="&#x410;" horiz-adv-x="1298" d="M39 0zM39 0l522 1434h180l523 -1434h-164l-150 410h-598l-149 -410h-164zM651 1231l-262 -719h524z" />
<glyph unicode="&#x411;" horiz-adv-x="1116" d="M348 799v-697h266q62 0 112 35t79 89q59 111 59 209.5t-25 174t-84 132.5t-141 57h-266zM348 901h232q101 0 189 -40t146 -104q123 -136 123 -300q0 -135 -66 -249q-122 -208 -388 -208h-410v1434h684v-103h-510v-430z" />
<glyph unicode="&#x412;" horiz-adv-x="1116" d="M174 0zM348 727v-625h266q122 0 186 83.5t64 181t-25 172.5t-84 131.5t-141 56.5h-266zM780 795q128 -52 193 -165.5t65 -242.5q0 -161 -105 -270q-113 -117 -349 -117h-410v1434h369q269 0 359 -151q50 -84 50 -208q0 -65 -41.5 -145.5t-130.5 -134.5zM348 1331v-502 h180q62 0 112 27q50 26 79 66q59 80 59 153q0 114 -58 189q-51 67 -147 67h-225z" />
<glyph unicode="&#x413;" horiz-adv-x="1038" d="M348 0h-174v1434h827v-103h-653v-1331z" />
<glyph unicode="&#x414;" horiz-adv-x="1310" d="M440 1434h627v-103h-43v-1229h154v-243h-164v141h-785v-141h-163v243h118q66 141 130 359q121 411 165 870h-39v103zM850 1331h-205q-51 -527 -217 -1038q-34 -106 -68 -191h490v1229z" />
<glyph unicode="&#x415;" horiz-adv-x="1118" d="M174 0zM1034 0h-860v1434h827v-103h-653v-430h469v-102h-469v-697h686v-102z" />
<glyph unicode="&#x416;" horiz-adv-x="1560" d="M895 666v-666h-174v666q-59 -24 -143 -127t-152 -217.5t-117 -210t-49 -111.5h-174q0 27 43 118t109.5 202t162.5 224.5t185 172.5q-125 81 -229 286q-41 81 -80 157q-88 171 -171 171v103q151 0 257 -114q92 -98 165 -244q93 -184 126.5 -231.5t66.5 -66.5v656h174v-656 q58 32 129 172q30 58 64 126t75 130t89 114q106 114 257 114v-103q-83 0 -171 -171q-40 -76 -80 -157q-102 -204 -228 -286q89 -59 185 -172.5t162.5 -224.5t109.5 -202t43 -118h-174q0 16 -49 111.5t-117 210t-152 217.5t-143 127z" />
<glyph unicode="&#x417;" horiz-adv-x="1077" d="M233 285q23 -108 91 -155.5t200 -47.5q71 0 129 38q57 38 91 96q68 118 69 224q0 65 -22 127t-47.5 99t-57.5 67q-72 66 -180 66h-133v102h71q158 0 233 67t75 165t-56 158.5t-164 60.5t-174 -35t-77 -119l-152 41q56 103 164 159t221 56q193 0 302.5 -93t109.5 -224 q0 -90 -48 -166.5t-153 -120.5q195 -90 249 -306q14 -52 14 -101q0 -53 -17 -114q-16 -59 -54.5 -121.5t-93 -112.5t-140.5 -82.5t-189 -32.5q-158 0 -262.5 72t-149.5 192z" />
<glyph unicode="&#x418;" horiz-adv-x="1406" d="M1063 1434h174v-1434h-174v1122l-715 -1061v-61h-174v1434h174v-1125l715 1063v62z" />
<glyph unicode="&#x419;" horiz-adv-x="1406" d="M174 0zM551 1624l-9 -43q0 -29 111 -29h102q111 0 111 29l-8 43q0 23 27 23t42 -20.5t15 -53.5q0 -58 -72.5 -97.5t-165.5 -39.5t-165 39.5t-72 97.5q0 33 15 53.5t42 20.5t27 -23zM1063 1434h174v-1434h-174v1122l-715 -1061v-61h-174v1434h174v-1125l715 1063v62z" />
<glyph unicode="&#x41a;" horiz-adv-x="1239" d="M1192 119v-119q-150 0 -249 82q-93 78 -151 192q-46 92 -82 183t-56 134q-44 94 -97 114l-209 -236v-469h-174v1434h174v-738l656 738h204l-561 -629q111 -49 185 -190q32 -62 62 -131.5t58 -133.5q30 -64 62 -116q72 -115 178 -115z" />
<glyph unicode="&#x41b;" horiz-adv-x="1280" d="M938 0v1331h-381v-1071q-1 -203 -205 -264q-54 -16 -110 -16q-130 0 -207 92l129 61q36 -51 102 -51t91.5 58.5t25.5 187.5v1106h729v-1434h-174z" />
<glyph unicode="&#x41c;" horiz-adv-x="1626" d="M174 0zM348 1098v-1098h-174v1434h174l467 -1002l467 1002h174v-1434h-174v1098l-467 -996z" />
<glyph unicode="&#x41d;" horiz-adv-x="1351" d="M174 0zM348 1434v-615h660v615h174v-1434h-174v717h-660v-717h-174v1434h174z" />
<glyph unicode="&#x41e;" d="M102 0zM946 24q-112 -44 -218.5 -44t-190 27t-162.5 86t-139.5 143t-97 208.5t-36.5 272.5t34 273q34 124 92 208q61 88 134 144q146 112 324 112q214 0 374 -112q277 -193 277 -622q0 -190 -51 -333q-51 -144 -139.5 -231.5t-200.5 -131.5zM703 1352q-62 0 -120 -24 t-113 -76q-54 -52 -98 -125q-96 -160 -96 -410q0 -129 30 -238.5t78 -180.5q48 -72 107 -122q112 -94 226 -94q132 0 244 100q202 181 202 535q0 370 -209 541q-115 94 -251 94z" />
<glyph unicode="&#x41f;" horiz-adv-x="1318" d="M174 0v1434h975v-1434h-174v1331h-627v-1331h-174z" />
<glyph unicode="&#x420;" horiz-adv-x="1089" d="M174 0zM348 655v-655h-174v1434h420q263 0 382 -182q62 -95 62 -208q0 -112 -64 -208q-120 -181 -380 -181h-246zM348 1331v-573h277q124 0 185 98q54 87 54 188t-54 189q-60 98 -185 98h-277z" />
<glyph unicode="&#x421;" horiz-adv-x="1331" d="M102 0zM1249 209q-80 -103 -213.5 -166t-294.5 -63q-177 0 -340 113q-185 129 -258 351q-41 126 -41 273.5t37 272t97 208.5t139 143q151 113 327 113q373 0 541 -209l-153 -67q-55 78 -145 126t-196.5 48t-187.5 -39.5t-145.5 -115.5t-102 -200t-37.5 -267t33 -252 q33 -108 85 -180q54 -72 120 -122q170 -86 258 -94q238 0 356 182z" />
<glyph unicode="&#x422;" horiz-adv-x="1280" d="M41 0zM41 1434h1202v-103h-516v-1331h-174v1331h-512v103z" />
<glyph unicode="&#x423;" horiz-adv-x="1081" d="M313 -20q-55 0 -101 33t-110 102l131 65q59 -82 87 -94q10 -4 24 -4q40 0 73 67q14 28 52 134l16 45l-403 1106h149l328 -902l330 902h174l-422 -1155q-57 -158 -131.5 -228.5t-196.5 -70.5z" />
<glyph unicode="&#x424;" d="M633 295v848q-156 -22 -256.5 -136.5t-100.5 -286t102.5 -284.5t254.5 -141zM633 1247v187h174v-193q310 -47 456 -271q74 -114 74 -254.5t-72.5 -255.5t-191.5 -183t-266 -87v-190h-174v188q-161 20 -297 114q-234 162 -234 415q0 111 46 208t122 163q157 138 363 159z M807 1137v-842q151 29 253.5 142.5t102.5 279t-99.5 277t-256.5 143.5z" />
<glyph unicode="&#x425;" horiz-adv-x="1191" d="M86 0zM258 0h-172l391 758l-350 676h174l262 -508l262 508h174l-348 -676l391 -758h-174l-305 590z" />
<glyph unicode="&#x426;" horiz-adv-x="1413" d="M1182 -315q0 221 -66 315h-942v1434h174v-1332h627v1332h174v-1332h131v-417h-98z" />
<glyph unicode="&#x427;" horiz-adv-x="1165" d="M821 721v713h174v-1434h-174v573q-44 -23 -125 -37t-145 -14q-218 0 -323 134.5t-105 428.5v349h174v-324q0 -400 166 -466q46 -19 112 -19h7q128 0 239 96z" />
<glyph unicode="&#x428;" horiz-adv-x="1656" d="M1487 1434v-1434h-1313v1434h174v-1332h395v1332h175v-1332h395v1332h174z" />
<glyph unicode="&#x429;" horiz-adv-x="1751" d="M1520 -315q0 221 -66 315h-1280v1434h174v-1332h395v1332h175v-1332h395v1332h174v-1332h131v-417h-98z" />
<glyph unicode="&#x42a;" horiz-adv-x="1271" d="M1188 614.5q33 -78.5 33 -150t-16 -134.5q-15 -62 -51 -122t-88 -106q-115 -102 -300 -102h-410v1331h-315v103h489v-533h232q101 0 189.5 -40t146 -104t90.5 -142.5zM530 799v-697h267q62 0 112 35t79 89q59 111 59 209.5t-25 174t-84 132.5t-141 57h-267z" />
<glyph unicode="&#x42b;" horiz-adv-x="1505" d="M174 0zM1335 1434v-1434h-174v1434h174zM348 799v-697h266q62 0 112 35t79 89q59 111 59 209.5t-25 174t-84 132.5t-141 57h-266zM1005.5 614.5q32.5 -78.5 32.5 -150t-16 -134.5q-14 -62 -50 -122t-88 -106q-115 -102 -300 -102h-410v1434h174v-533h232q101 0 189 -40 t146 -104t90.5 -142.5z" />
<glyph unicode="&#x42c;" horiz-adv-x="1089" d="M348 799v-697h266q62 0 112 35t79 89q59 111 59 209.5t-25 174t-84 132.5t-141 57h-266zM1005.5 614.5q32.5 -78.5 32.5 -150t-16 -134.5q-14 -62 -50 -122t-88 -106q-115 -102 -300 -102h-410v1434h174v-533h232q101 0 189 -40t146 -104t90.5 -142.5z" />
<glyph unicode="&#x42d;" horiz-adv-x="1347" d="M102 209l121 55q42 -65 83 -101q92 -81 304 -81q132 0 248 94q215 173 217 537h-506v102h502q-20 262 -135 399.5t-275.5 137.5t-250.5 -46t-148 -128l-153 67q52 64 112 107t162 72.5t234 29.5t243.5 -44t199.5 -131.5t138.5 -231.5t50.5 -311.5t-36.5 -291 t-99.5 -208.5q-63 -86 -149 -144q-164 -112 -384 -112q-300 0 -478 229z" />
<glyph unicode="&#x42e;" horiz-adv-x="1722" d="M1152.5 1329.5q-60.5 22.5 -121.5 22.5t-115 -24.5t-103.5 -76t-86.5 -125.5q-81 -161 -81 -409q0 -364 188 -541q135 -85 211 -94q160 0 278 155q58 76 93 200.5t35 267.5t-23.5 250.5t-63.5 180t-95 122t-115.5 72zM475 815q29 373 249 541q128 98 273 98t253.5 -44 t193 -131.5t132.5 -231.5t48 -330.5t-45 -330.5q-45 -142 -125 -230q-161 -175 -422 -176q-176 0 -314 112q-244 197 -247 621h-123v-713h-174v1434h174v-619h127z" />
<glyph unicode="&#x42f;" horiz-adv-x="1228" d="M885 1331h-277q-172 0 -226 -190q-14 -46 -14 -94q0 -51 14 -100q14 -47 41 -91q61 -98 185 -98h277v573zM469 680q-93 30 -157 94q-117 116 -117 272q0 180 145 298q111 90 299 90h420v-1434h-174v655h-228q-43 -51 -93 -155.5t-83 -170.5t-72 -123t-85 -104 q-100 -102 -238 -102v119q50 1 98 61q46 60 82 140q112 250 203 360z" />
<glyph unicode="&#x430;" horiz-adv-x="974" d="M94 0zM115 829q178 93 323 93q188 0 270 -41q48 -24 76 -58.5t46 -95.5q28 -99 28 -313v-414h-164v16q-113 -36 -223 -36q-174 0 -275.5 78.5t-101.5 252.5q0 197 174 273q89 40 195 40h3q108 0 224 -18q-6 120 -51.5 166.5t-165 46.5t-256.5 -96zM694 125v373 q-93 22 -193 22t-171.5 -54t-71.5 -156t73 -165t173 -63t190 43z" />
<glyph unicode="&#x431;" horiz-adv-x="1030" d="M639 1192l-133 10q-73 0 -132 -81.5t-91 -254.5q109 56 222 56t200.5 -37t138.5 -103q100 -129 100 -331q0 -128 -54.5 -235t-157 -171.5t-232.5 -64.5q-112 0 -188 49t-119.5 110t-73 172t-29.5 285.5t53 342.5t149 267t214 99h51q61 0 122 26.5t79 65.5l67 -27 q-16 -109 -107 -159q-35 -19 -79 -19zM258 657q-4 -94 -4 -153q0 -214 80 -318t196 -104q179 0 235 238q15 64 15 143.5t-25 160.5t-84 138t-141 57h-4q-167 0 -236 -85q-26 -32 -32 -77z" />
<glyph unicode="&#x432;" horiz-adv-x="942" d="M287 440v-338h219q94 0 142 43t48 119t-67.5 126t-182.5 50h-159zM631 508q110 -19 169.5 -93t59.5 -138.5t-17 -107.5t-58 -83q-88 -86 -320 -86h-342v901h252q399 0 399 -235q0 -92 -65 -128q-30 -16 -78 -30zM287 799v-256h135q142 0 180 85q8 19 8 41t-6 42 q-6 19 -25 41q-39 46 -163 47h-129z" />
<glyph unicode="&#x433;" horiz-adv-x="768" d="M287 0h-164v901h592v-102h-428v-799z" />
<glyph unicode="&#x434;" horiz-adv-x="1097" d="M332 901h567v-102h-37v-697h154v-243h-164v141h-606v-141h-164v243h119q128 283 215 697h-84v102zM698 799h-118q-83 -387 -203 -697h321v697z" />
<glyph unicode="&#x435;" horiz-adv-x="1028" d="M90 0zM932 158q-141 -178 -379 -178q-202 0 -332.5 129.5t-130.5 341.5q0 104 37 194q37 89 97 149q129 128 288 128q103 0 187 -42q83 -42 135 -110q108 -143 108 -319h-688q0 -168 91.5 -268.5t239.5 -100.5t224 123zM264 553h506q-18 120 -76 193t-154 73t-173 -72 t-103 -194z" />
<glyph unicode="&#x436;" horiz-adv-x="1286" d="M725 379v-379h-164v379q-45 4 -65 10q-84 -72 -163 -201t-79 -188h-174q0 49 91 195.5t206 257.5q-62 53 -118 175q-20 44 -43 84q-49 87 -144 87h-2v102q150 0 236 -71q72 -60 118 -152q57 -112 82.5 -144.5t54.5 -44.5v412h164v-412q50 21 96 109q19 36 40.5 79 t51.5 82q31 39 69 71q85 71 235 71v-102h-2q-95 0 -145 -87q-24 -40 -42 -84q-54 -120 -119 -175q115 -111 206 -257.5t91 -195.5h-174q0 60 -79 188.5t-162 200.5q-20 -6 -66 -10z" />
<glyph unicode="&#x437;" horiz-adv-x="897" d="M182 203q24 -53 96.5 -87t141.5 -34q68 0 112 16q44 18 68 44q47 52 47 114q0 195 -280 195h-72v102h57q126 0 186 40t60 98.5t-45 93t-128.5 34.5t-139 -28t-64.5 -80l-121 24q28 79 104.5 133t230.5 54t240.5 -61.5t86.5 -166.5q0 -47 -34.5 -96.5t-102.5 -85.5 q95 -38 140.5 -105.5t45.5 -150.5q0 -129 -98 -202.5t-305 -73.5q-121 0 -213.5 60.5t-133.5 137.5z" />
<glyph unicode="&#x438;" horiz-adv-x="1054" d="M123 901h164v-674l483 674h164v-901h-164v668l-483 -668h-164v901z" />
<glyph unicode="&#x439;" horiz-adv-x="1054" d="M123 0zM373 1274l-9 -43q0 -29 111 -29h102q111 0 111 29l-8 43q0 23 27 23t42 -20.5t15 -53.5q0 -58 -72.5 -97.5t-165.5 -39.5t-165 39.5t-72 97.5q0 33 15 53.5t42 20.5t27 -23zM123 901h164v-674l483 674h164v-901h-164v668l-483 -668h-164v901z" />
<glyph unicode="&#x43a;" horiz-adv-x="980" d="M147 0zM311 268v-268h-164v901h164v-424l377 424h189l-357 -399l393 -502h-176l-313 395z" />
<glyph unicode="&#x43b;" horiz-adv-x="1183" d="M899 0v799h-326v-539q-1 -204 -197 -264q-52 -16 -108 -16q-130 0 -207 92l129 61q36 -51 102.5 -51t92 58.5t25.5 187.5v573h653v-901h-164z" />
<glyph unicode="&#x43c;" horiz-adv-x="1177" d="M893 614l-303 -589l-303 589v-614h-164v901h164l303 -590l303 590h164v-901h-164v614z" />
<glyph unicode="&#x43d;" horiz-adv-x="1054" d="M123 901h164v-358h483v358h164v-901h-164v440h-483v-440h-164v901z" />
<glyph unicode="&#x43e;" horiz-adv-x="1056" d="M90 0zM807 451q0 162 -74 265t-192 103t-202.5 -102t-84.5 -270.5t73 -266.5t202.5 -98t203.5 103.5t74 265.5zM971 451q0 -229 -126 -350t-328.5 -121t-314.5 127t-112 344q0 104 37 194q37 89 97 149q129 128 288 128q207 0 333 -121t126 -350z" />
<glyph unicode="&#x43f;" horiz-adv-x="1054" d="M934 901v-901h-164v799h-483v-799h-164v901h811z" />
<glyph unicode="&#x440;" horiz-adv-x="1087" d="M147 0zM311 59v-469h-164v1315h164v-39q95 60 238 60t243 -64.5t154.5 -171.5t54.5 -235q0 -193 -132.5 -332t-321.5 -139q-139 0 -236 75zM311 508v-4q0 -308 156 -392q48 -26 114 -26t127 56t95.5 141t34.5 172.5t-29.5 171.5t-86 140t-124.5 56q-155 0 -221 -80.5 t-66 -234.5z" />
<glyph unicode="&#x441;" horiz-adv-x="1017" d="M90 0zM932 158q-141 -178 -379 -178q-202 0 -332.5 129.5t-130.5 341.5q0 104 37 194q37 89 97 149q129 128 275.5 128t243.5 -67.5t150 -178.5l-133 -68q-26 97 -81 154t-136 57q-120 0 -204.5 -102t-84.5 -268t91.5 -266.5t239.5 -100.5t224 123z" />
<glyph unicode="&#x442;" horiz-adv-x="937" d="M555 799v-799h-164v799h-338v102h840v-102h-338z" />
<glyph unicode="&#x443;" horiz-adv-x="880" d="M0 0zM201 -348q-55 0 -101 33t-110 102l131 66q47 -64 68.5 -81.5t41.5 -17.5q40 0 73 67q14 28 52 134l17 45l-328 901h150l251 -696l254 696h164l-346 -950q-54 -148 -129 -223.5t-188 -75.5z" />
<glyph unicode="&#x444;" horiz-adv-x="1495" d="M612 722q-56 101 -159 101h-2q-168 0 -191 -219q-6 -60 -6 -149q0 -369 219 -369q86 0 128 60q42 59 52 125q15 100 15 225t-56 226zM668 -410v469q-97 -75 -207.5 -75t-180.5 37t-110 103q-80 131 -80 331q0 471 332 471q151 0 246 -60v486h163v-486q53 34 98.5 47 t117.5 13q189 0 275 -116q86 -115 87 -359q0 -195 -95 -327q-100 -140 -288 -140q-65 0 -103 17t-92 58v-469h-163zM832.5 552q-1.5 -32 -1.5 -79t1 -79.5t6 -77t13.5 -74t25.5 -62t41 -50.5q78 -40 122 -44q68 0 106 32.5t59 87.5q40 105 40 249q0 368 -168 368 q-140 0 -193 -80q-35 -52 -42.5 -105.5t-9 -85.5z" />
<glyph unicode="&#x445;" horiz-adv-x="833" d="M8 0zM330 494l-264 407h176l176 -272l178 272h176l-264 -407l321 -494h-178l-233 358l-232 -358h-178z" />
<glyph unicode="&#x446;" horiz-adv-x="1114" d="M926 -315q0 221 -66 315h-737v901h164v-799h442v799h164v-799h131v-417h-98z" />
<glyph unicode="&#x447;" horiz-adv-x="942" d="M657 512v389h164v-901h-164v365q-99 -52 -192.5 -52t-144.5 11t-89.5 31.5t-64.5 57.5t-42.5 80t-25.5 109q-16 116 -16 299h164q0 -363 83 -440q30 -28 61 -36.5t79 -8.5q125 0 188 96z" />
<glyph unicode="&#x448;" horiz-adv-x="1361" d="M1241 901v-901h-1118v901h164v-799h313v799h164v-799h313v799h164z" />
<glyph unicode="&#x449;" horiz-adv-x="1462" d="M1274 -315q0 221 -66 315h-1085v901h164v-799h313v799h164v-799h313v799h164v-799h131v-417h-98z" />
<glyph unicode="&#x44a;" horiz-adv-x="1128" d="M1063 264q0 -105 -75 -178q-88 -86 -320 -86h-342v799h-273v102h436v-358h175q213 0 306 -65t93 -214zM489 440v-338h220q94 0 142 43t48 121t-50 126t-161 48h-199z" />
<glyph unicode="&#x44b;" horiz-adv-x="1226" d="M123 0zM942 901h164v-901h-164v901zM287 440v-338h219q94 0 142 43t48 121t-50 126t-161 48h-198zM860 264q0 -105 -75 -178q-88 -86 -320 -86h-342v901h164v-358h174q213 0 306 -65t93 -214z" />
<glyph unicode="&#x44c;" horiz-adv-x="925" d="M287 440v-338h219q94 0 142 43t48 121t-50 126t-161 48h-198zM860 264q0 -105 -75 -178q-88 -86 -320 -86h-342v901h164v-358h174q213 0 306 -65t93 -214z" />
<glyph unicode="&#x44d;" horiz-adv-x="989" d="M84 709q102 213 367 213q211 0 331.5 -127t120.5 -346.5t-123.5 -344t-369.5 -124.5q-118 0 -199.5 46t-149.5 132l123 47q39 -63 95 -93t131.5 -30t126 25t94.5 68.5t74 111t34 143.5h-381v102h375q-21 128 -95.5 207.5t-156.5 79.5q-120 0 -179.5 -41.5t-84.5 -136.5z " />
<glyph unicode="&#x44e;" horiz-adv-x="1308" d="M123 901h164v-369h123q23 176 133 283t252 107q198 0 313 -120.5t115 -351.5t-112.5 -350.5t-308.5 -119.5t-295 119t-104 331h-116v-430h-164v901zM1059 451q0 163 -65 265.5t-170 102.5t-181 -102q-76 -103 -76 -271t66 -266q67 -98 181 -98t179.5 103t65.5 266z" />
<glyph unicode="&#x44f;" horiz-adv-x="970" d="M113 637q0 99 92 179q97 85 268 85h4h373v-901h-164v358h-145q-94 0 -130 -71q-16 -32 -29 -70t-32.5 -76t-49.5 -70q-67 -71 -230 -71v102q50 0 81 30q31 32 45 72q42 127 103 181q-186 65 -186 252zM686 461v338h-188q-98 0 -160 -44.5t-62 -119.5t64 -124.5t178 -49.5 h168z" />
<glyph unicode="&#x450;" horiz-adv-x="1028" d="M90 0zM90 0zM399 1458l240 -333l-64 -54l-286 295zM932 158q-141 -178 -379 -178q-202 0 -332.5 129.5t-130.5 341.5q0 104 37 194q37 89 97 149q129 128 288 128q103 0 187 -42q83 -42 135 -110q108 -143 108 -319h-688q0 -168 91.5 -268.5t239.5 -100.5t224 123z M264 553h506q-18 120 -76 193t-154 73t-173 -72t-103 -194z" />
<glyph unicode="&#x451;" horiz-adv-x="1028" d="M90 0zM90 0zM794 1086zM630 1264h164v-178h-164v178zM262 1264h164v-178h-164v178zM932 158q-141 -178 -379 -178q-202 0 -332.5 129.5t-130.5 341.5q0 104 37 194q37 89 97 149q129 128 288 128q103 0 187 -42q83 -42 135 -110q108 -143 108 -319h-688 q0 -168 91.5 -268.5t239.5 -100.5t224 123zM264 553h506q-18 120 -76 193t-154 73t-173 -72t-103 -194z" />
<glyph unicode="&#x452;" horiz-adv-x="1087" d="M948 160q0 -214 -23 -294t-51 -114.5t-76 -58.5q-83 -41 -250 -41t-343 92l102 106q137 -96 252 -96q85 0 117.5 15t48.5 27.5t27 37.5t17.5 47.5t9.5 63.5q5 68 5 170v352q0 210 -64 284q-58 68 -178 68t-231 -96v-723h-164v1085h-81v103h81v164h164v-164h176v-103h-176 v-215q99 52 209 52q216 0 322 -106t106 -324v-332z" />
<glyph unicode="&#x453;" horiz-adv-x="768" d="M123 0zM553 1458l111 -92l-287 -295l-63 54zM287 0h-164v901h592v-102h-428v-799z" />
<glyph unicode="&#x454;" horiz-adv-x="1017" d="M932 158q-141 -178 -379 -178q-202 0 -332.5 129.5t-130.5 341.5q0 104 37 194q37 89 97 149q129 128 279 128q302 0 402 -211l-133 -68q-47 176 -229 176q-102 0 -182 -78t-101 -209h397v-102h-403q6 -159 97 -253.5t236.5 -94.5t221.5 123z" />
<glyph unicode="&#x455;" horiz-adv-x="897" d="M88 0zM756 795l-119 -72q-82 72 -100.5 77t-36.5 11q-23 8 -82 8t-94 -34t-35 -97q0 -112 164 -141q362 -67 362 -285q0 -141 -105 -211.5t-276 -70.5q-114 0 -174 30t-85.5 47t-86.5 60l88 76q91 -64 139.5 -87.5t148.5 -23.5t143.5 46t43.5 134q0 126 -217 162 q-150 28 -229.5 96.5t-79.5 163.5t72 166.5t186 71.5t197.5 -30.5t175.5 -96.5z" />
<glyph unicode="&#x456;" horiz-adv-x="407" d="M123 0zM123 1249h164v-164h-164v164zM123 901h164v-901h-164v901z" />
<glyph unicode="&#x457;" horiz-adv-x="407" d="M0 0zM0 0zM471 1086zM307 1264h164v-178h-164v178zM-61 1264h164v-178h-164v178zM123 901h164v-901h-164v901z" />
<glyph unicode="&#x458;" horiz-adv-x="536" d="M0 0zM33 -195q36 -51 102 -51t91.5 58.5t25.5 187.5v901h164v-969q0 -204 -196 -264q-52 -16 -109 -16q-130 0 -207 92zM252 1249h164v-164h-164v164z" />
<glyph unicode="&#x459;" horiz-adv-x="1499" d="M1434 264q0 -105 -76 -178q-89 -86 -320 -86h-280v799h-185v-539q-1 -204 -197 -264q-52 -16 -108 -16q-130 0 -207 92l129 61q36 -51 102.5 -51t92 58.5t25.5 187.5v573h512v-358h112q213 0 306.5 -65t93.5 -214zM922 102h157q94 0 142.5 43t48.5 121t-50 126t-161 48 h-137v-338z" />
<glyph unicode="&#x45a;" horiz-adv-x="1429" d="M123 901h164v-358h401v358h164v-358h113q213 0 306 -65t93 -214q0 -105 -75 -178q-88 -86 -320 -86h-281v440h-401v-440h-164v901zM852 440v-338h158q94 0 142 43t48 121t-50 126t-161 48h-137z" />
<glyph unicode="&#x45b;" horiz-adv-x="1087" d="M311 723v-723h-164v1085h-81v103h81v164h164v-164h176v-103h-176v-215q99 52 209 52q216 0 322 -106t106 -324v-492h-164v467q0 210 -64 284q-58 68 -178 68t-231 -96z" />
<glyph unicode="&#x45c;" horiz-adv-x="980" d="M147 0zM618 1458l111 -92l-287 -295l-63 54zM147 0zM311 268v-268h-164v901h164v-424l377 424h189l-357 -399l393 -502h-176l-313 395z" />
<glyph unicode="&#x45d;" horiz-adv-x="1054" d="M123 0zM403 1458l240 -333l-64 -54l-286 295zM123 901h164v-674l483 674h164v-901h-164v668l-483 -668h-164v901z" />
<glyph unicode="&#x45e;" horiz-adv-x="880" d="M0 0zM297 1274l-9 -43q0 -29 111 -29h102q111 0 111 29l-8 43q0 23 27 23t42 -20.5t15 -53.5q0 -58 -72.5 -97.5t-165.5 -39.5t-165 39.5t-72 97.5q0 33 15 53.5t42 20.5t27 -23zM0 0zM201 -348q-55 0 -101 33t-110 102l131 66q47 -64 68.5 -81.5t41.5 -17.5q40 0 73 67 q14 28 52 134l17 45l-328 901h150l251 -696l254 696h164l-346 -950q-54 -148 -129 -223.5t-188 -75.5z" />
<glyph unicode="&#x45f;" horiz-adv-x="1013" d="M465 -315q0 221 -66 315h-276v901h164v-799h442v799h164v-901h-264q-40 -40 -59 -193q-7 -57 -7 -122h-98z" />
<glyph unicode="&#x48a;" horiz-adv-x="1542" d="M551 1624l-8 -43q0 -29 110 -29h103q110 0 110 29l-8 43q0 23 27 23t42 -20.5t15 -53.5q0 -58 -72 -97.5t-165 -39.5t-165.5 39.5t-72.5 97.5q0 33 15 53.5t42 20.5t27 -23zM1063 1434h174v-1332h246l-152 -356h-94l53 254h-227v1122l-715 -1061v-61h-174v1434h174v-1125 l715 1063v62z" />
<glyph unicode="&#x48b;" horiz-adv-x="1214" d="M373 1274l-8 -43q0 -29 110 -29h103q110 0 110 29l-8 43q0 22 28 22q56 0 56 -65.5t-72.5 -105.5t-165 -40t-165 40t-72.5 98q0 33 14.5 53t42 20t27.5 -22zM123 901h164v-674l483 674h164v-799h221l-151 -356h-95l54 254h-193v668l-483 -668h-164v901z" />
<glyph unicode="&#x48c;" horiz-adv-x="1171" d="M1087.5 614.5q32.5 -78.5 32.5 -150t-16 -134.5q-14 -62 -50 -122t-88 -106q-115 -102 -300 -102h-410v1085h-174v103h174v246h174v-246h225v-103h-225v-184h232q101 0 189 -40t146 -104t90.5 -142.5zM430 799v-697h266q62 0 112 35t79 89q59 111 59 209.5t-25 174 t-84 132.5t-141 57h-266z" />
<glyph unicode="&#x48d;" horiz-adv-x="1046" d="M981 264q0 -105 -75 -178q-88 -86 -320 -86h-342v651h-193v103h193v147h164v-147h217v-103h-217v-108h174q213 0 306 -65t93 -214zM408 440v-338h219q94 0 142 43t48 121t-50 126t-161 48h-198z" />
<glyph unicode="&#x48e;" horiz-adv-x="1089" d="M774 813q90 84 90 231q0 101 -54 189q-60 98 -185 98h-277v-573h277q27 0 39 2l-107 110l111 93zM348 655v-655h-174v1434h420q263 0 382 -182q62 -95 62 -197.5t-48 -193.5t-144 -146l61 -86l-63 -54l-96 101q-68 -21 -154 -21h-246z" />
<glyph unicode="&#x48f;" horiz-adv-x="1087" d="M311 508v-4q0 -308 156 -392q48 -26 108.5 -26t120.5 47l-114 119l110 92l84 -117q62 108 62 212t-29.5 188t-86 140t-124.5 56q-155 0 -221 -80.5t-66 -234.5zM1001 455q0 -201 -143 -342l74 -103l-64 -53l-90 92q-108 -65 -239 -65t-228 75v-469h-164v1315h164v-39 q95 60 238 60t243 -64.5t154.5 -171.5t54.5 -235z" />
<glyph unicode="&#x490;" horiz-adv-x="1038" d="M348 0h-174v1434h692v172h135v-275h-653v-1331z" />
<glyph unicode="&#x491;" horiz-adv-x="768" d="M287 0h-164v901h457v184h135v-286h-428v-799z" />
<glyph unicode="&#x492;" horiz-adv-x="1136" d="M82 799v102h190v533h828v-103h-654v-430h209v-102h-209v-799h-174v799h-190z" />
<glyph unicode="&#x493;" horiz-adv-x="892" d="M51 479v103h197v319h592v-102h-428v-217h213v-103h-213v-479h-164v479h-197z" />
<glyph unicode="&#x494;" horiz-adv-x="1167" d="M348 723v-723h-174v1434h827v-103h-653v-461q99 52 225 52q219 0 337 -107.5t118 -322.5v-201q0 -336 -146 -447q-80 -61 -202 -61q-58 0 -128 25.5t-114 66.5l103 107q66 -97 170 -97q143 0 143 361v221q0 209 -72 285q-64 68 -193 68h-1q-130 0 -240 -97z" />
<glyph unicode="&#x495;" horiz-adv-x="952" d="M620 458q-40 28 -110 28q-1 0 -2 1q-68 0 -116 -23q-49 -23 -105 -71v-393h-164v901h592v-102h-428v-258q94 49 188 49q211 0 299 -103t88 -308q0 -415 -297 -415q-69 0 -129.5 24.5t-91.5 68.5l102 106q30 -55 62.5 -75.5t87.5 -20.5q102 0 102 267.5t-78 323.5z" />
<glyph unicode="&#x496;" horiz-adv-x="1796" d="M1565 -315q0 221 -66 315h-143q0 16 -49 111.5t-117 210t-152 217.5t-143 127v-666h-174v666q-59 -24 -143 -127t-152 -217.5t-117 -210t-49 -111.5h-174q0 27 43 118t109.5 202t162.5 224.5t185 172.5q-125 81 -229 286q-41 81 -80 157q-88 171 -171 171v103 q151 0 257 -114q92 -98 165 -244q93 -184 126.5 -231.5t66.5 -66.5v656h174v-656q58 32 129 172q30 58 64 126t75 130t89 114q106 114 257 114v-103q-83 0 -171 -171q-40 -76 -80 -157q-102 -204 -228 -286q193 -127 387 -465q47 -82 78 -150h168v-417h-98z" />
<glyph unicode="&#x497;" horiz-adv-x="1421" d="M1233 -315q0 221 -66 315h-135q0 60 -79 188.5t-162 200.5q-20 -6 -66 -10v-379h-164v379q-45 4 -65 10q-84 -72 -163 -201t-79 -188h-174q0 49 91 195.5t206 257.5q-62 53 -118 175q-20 44 -43 84q-49 87 -144 87h-2v102q150 0 236 -71q72 -60 118 -152 q57 -112 82.5 -144.5t54.5 -44.5v412h164v-412q50 21 96 109q19 36 40.5 79t51.5 82q31 39 69 71q85 71 235 71v-102h-2q-95 0 -145 -87q-24 -40 -42 -84q-54 -120 -119 -175q156 -150 260 -351h162v-417h-98z" />
<glyph unicode="&#x498;" horiz-adv-x="1077" d="M233 285q23 -108 91 -155.5t200 -47.5q71 0 129 38q57 38 91 96q68 118 69 224q0 65 -22 127t-47.5 99t-57.5 67q-72 66 -180 66h-133v102h71q158 0 233 67t75 165t-56 158.5t-164 60.5t-174 -35t-77 -119l-152 41q56 103 164 159t221 56q193 0 302.5 -93t109.5 -224 q0 -90 -48 -166.5t-153 -120.5q195 -90 249 -306q14 -52 14 -99q0 -50 -14 -105q-14 -53 -45 -110.5t-75 -105.5q-102 -110 -266 -136l-6 -58q66 -11 108.5 -46.5t42.5 -96.5t-91.5 -104t-256.5 -43v49q111 0 166 19t55 68t-32 70.5t-115 30.5l18 103q-151 4 -251 76 t-144 188z" />
<glyph unicode="&#x499;" horiz-adv-x="897" d="M182 203q24 -53 96.5 -87t141.5 -34q68 0 112 16q44 18 68 44q47 52 47 114q0 195 -280 195h-72v102h57q126 0 186 40t60 98.5t-45 93t-128.5 34.5t-139 -28t-64.5 -80l-121 24q28 79 104.5 133t230.5 54t240.5 -61.5t86.5 -166.5q0 -47 -34.5 -96.5t-102.5 -85.5 q95 -38 140.5 -105.5t45.5 -150.5q0 -118 -82 -190t-256 -84l-6 -52q66 -11 108.5 -46.5t42.5 -96.5t-91.5 -104t-256.5 -43v49q111 0 166.5 19t55.5 68t-32.5 70.5t-115.5 30.5l18 105q-105 11 -184.5 69t-116.5 127z" />
<glyph unicode="&#x49a;" horiz-adv-x="1488" d="M1257 -315q0 104 -16.5 182.5t-32.5 105.5l-16 27q-150 0 -249 82q-93 78 -151 192q-46 92 -82 183t-56 134q-44 94 -97 114l-209 -236v-469h-174v1434h174v-738l656 738h204l-561 -629q111 -49 185 -193q32 -64 62 -135t58 -137q30 -66 62 -120q71 -118 178 -118h164 v-417h-99z" />
<glyph unicode="&#x49b;" horiz-adv-x="1093" d="M311 268v-268h-164v901h164v-424l377 424h189l-357 -399l314 -400h170v-417h-99q0 104 -16.5 182.5t-32.5 105.5l-16 27h-103l-313 395z" />
<glyph unicode="&#x49c;" horiz-adv-x="1357" d="M348 0h-174v1434h174v-598h115v249h115v-229q45 29 141.5 131.5t240.5 264.5t162 182h205l-561 -629q112 -49 186 -190q32 -62 61.5 -131.5t58 -133.5t60.5 -116q72 -115 179 -115v-119q-95 0 -173 39.5t-129.5 103t-94.5 139.5t-76 152t-65 140q-72 142 -157 143h-38 v-262h-115v262h-115v-717z" />
<glyph unicode="&#x49d;" horiz-adv-x="1120" d="M311 0h-164v901h164v-348h74v262h115v-262h26l301 348h189l-357 -399l394 -502h-176l-359 451h-18v-267h-115v267h-74v-451z" />
<glyph unicode="&#x49e;" horiz-adv-x="1316" d="M61 1085v103h191v246h174v-246h209v-103h-209v-389l655 738h205l-561 -629q111 -49 185 -190q32 -62 62 -131.5t58 -133.5q30 -64 62 -116q72 -115 178 -115v-119q-150 0 -249 82q-93 78 -151 192q-46 92 -82 183t-56 134q-44 94 -97 114l-209 -236v-469h-174v1085h-191z " />
<glyph unicode="&#x49f;" horiz-adv-x="1099" d="M635 1085v-102h-205v-506l377 424h188l-356 -399l393 -502h-176l-313 395l-113 -127v-268h-164v983h-205v102h205v267h164v-267h205z" />
<glyph unicode="&#x4a0;" horiz-adv-x="1546" d="M1499 119v-119q-150 0 -249 82q-93 78 -151 192q-46 92 -82 183t-56 134q-44 94 -97 114l-209 -236v-469h-174v1331h-461v103h635v-738l656 738h205l-562 -629q112 -49 186 -190q32 -62 61.5 -131.5t58 -133.5t60.5 -116q72 -115 179 -115z" />
<glyph unicode="&#x4a1;" horiz-adv-x="1163" d="M494 268v-268h-164v799h-299v102h463v-424l376 424h189l-357 -399l394 -502h-176l-314 395z" />
<glyph unicode="&#x4a2;" horiz-adv-x="1505" d="M1274 -315q0 221 -66 315h-200v717h-660v-717h-174v1434h174v-615h660v615h174v-1332h190v-417h-98z" />
<glyph unicode="&#x4a3;" horiz-adv-x="1228" d="M1040 -315q0 215 -65 315h-205v440h-483v-440h-164v901h164v-358h483v358h164v-799h205v-417h-99z" />
<glyph unicode="&#x4a4;" horiz-adv-x="1871" d="M348 1434v-615h660v615h827v-103h-653v-1331h-174v717h-660v-717h-174v1434h174z" />
<glyph unicode="&#x4a5;" horiz-adv-x="1415" d="M123 901h164v-358h483v358h592v-102h-428v-799h-164v440h-483v-440h-164v901z" />
<glyph unicode="&#x4a6;" horiz-adv-x="1968" d="M1149 723v-723h-174v1331h-627v-1331h-174v1434h975v-564q99 52 225 52q219 0 337 -107.5t118 -322.5v-201q0 -336 -146 -447q-80 -61 -202 -61q-58 0 -128 25.5t-114 66.5l102 107q66 -97 170 -97q66 0 105 85.5t39 275.5v221q-1 209 -73 285q-64 68 -192 68h-2 q-130 0 -239 -97z" />
<glyph unicode="&#x4a7;" horiz-adv-x="1599" d="M1268 458q-40 28 -110 28q-1 0 -3 1q-68 0 -116 -23q-49 -23 -105 -71v-393h-164v799h-483v-799h-164v901h811v-360q94 49 188 49q211 0 299 -103t88 -308q0 -415 -297 -415q-69 0 -129.5 24.5t-91.5 68.5l103 106q31 -55 63 -75.5t86 -20.5q103 0 103 267t-78 324z" />
<glyph unicode="&#x4a8;" horiz-adv-x="1658" d="M1561 145q-57 -78 -132.5 -121.5t-152.5 -43.5q-157 0 -279 55q-113 -55 -225.5 -55t-199 27t-171.5 86t-151 142.5t-107 209t-41 273t37 270.5t97 204q60 82 139 138q149 106 327 106l3 -84q-177 0 -299 -156q-130 -165 -130 -479q0 -130 33 -239q33 -108 85 -180 q54 -72 120 -122q170 -86 258 -94q66 0 121 14q-126 94 -194 255.5t-68 408t109.5 419.5t260 173t257 -174t106.5 -445q0 -204 -68 -369.5t-192 -263.5q58 -18 128 -18q131 0 210 147zM1004 150q186 134 186 550q0 336 -88 493q-42 75 -94 75q-88 0 -145.5 -163t-57.5 -405 q0 -412 199 -550z" />
<glyph unicode="&#x4a9;" horiz-adv-x="1280" d="M610 82q-168 132 -168 373q0 140 84.5 251t207.5 111t205.5 -110.5t82.5 -251.5q0 -253 -139 -373h20q57 0 108.5 39t88.5 108l119 -84q-57 -78 -132.5 -121.5t-163 -43.5t-173.5 28q-89 -28 -175.5 -28t-151.5 19t-125 59.5t-106 97.5q-102 124 -102 315t113.5 310.5 t310.5 119.5v-102q-123 0 -191.5 -87t-68.5 -241q0 -206 108 -303q96 -86 222 -86h26zM745 123q113 74 113 299q0 139 -32 216t-90.5 77t-94 -73t-35.5 -220q0 -218 139 -299z" />
<glyph unicode="&#x4aa;" horiz-adv-x="1331" d="M102 0zM701 -19q-176 15 -324 129q-169 130 -237 346q-38 120 -38 264.5t37 269t97 208.5t139 143q151 113 327 113q373 0 541 -209l-153 -67q-55 78 -145 126t-196.5 48t-187.5 -39.5t-145.5 -115.5t-102 -200t-37.5 -267t33 -252q33 -108 85 -180q54 -72 120 -122 q170 -86 258 -94q238 0 356 182l121 -55q-71 -92 -185.5 -152.5t-254.5 -73.5l-10 -94q66 -11 108.5 -46.5t42.5 -96.5t-91.5 -104t-256.5 -43v49q111 0 166 19t55 68t-32 70.5t-115 30.5z" />
</font>
</defs>
</svg>
