<?xml version="1.0" standalone="no"?>
<!DOCTYPE svg PUBLIC "-//W3C//DTD SVG 1.1//EN" "http://www.w3.org/Graphics/SVG/1.1/DTD/svg11.dtd" >
<svg xmlns="http://www.w3.org/2000/svg" xmlns:xlink="http://www.w3.org/1999/xlink" version="1.1">
<metadata></metadata>
<defs>
<font id="pfennigitalic" horiz-adv-x="1370" >
<font-face units-per-em="2048" ascent="1638" descent="-410" />
<missing-glyph horiz-adv-x="614" />
<glyph unicode="&#xfb00;" horiz-adv-x="1191" d="M256 799l55 102h105l45 195q30 126 114 201t205 75q85 0 140 -22l-68 -111q-19 31 -66 31q-64 0 -104 -49t-70 -179l-32 -141h419l45 195q30 126 114.5 201t205.5 75q84 0 139 -22l-67 -111q-19 31 -66 31q-64 0 -104 -49t-70 -179l-33 -141h162l-25 -102h-161l-195 -842 q-23 -97 -100.5 -165t-165.5 -68q-60 0 -96.5 33.5t-36.5 86.5q0 11 4 31h69v-8q0 -18 15 -29.5t39 -11.5q31 0 67.5 57.5t55.5 136.5l180 779h-420l-195 -842q-23 -97 -100.5 -165t-165.5 -68q-60 0 -96.5 33.5t-36.5 86.5q0 11 4 31h70v-8q0 -18 14.5 -29.5t38.5 -11.5 q31 0 67.5 57.5t55.5 136.5l180 779h-135z" />
<glyph unicode="fi" horiz-adv-x="1163" d="M1057 1229h164l-39 -164h-164zM360 -43q-23 -97 -100.5 -165t-165.5 -68q-60 0 -96.5 33.5t-36.5 86.5q0 11 4 31h70v-8q0 -18 14.5 -29.5t38.5 -11.5q31 0 67.5 57.5t55.5 136.5l180 779h-135l55 102h105l45 195q30 126 114 201t205 75q85 0 140 -22l-68 -111 q-19 31 -66 31q-64 0 -104 -49t-70 -179l-32 -141h565l-146 -625q-12 -53 -12 -94q0 -45 12 -72.5t33 -27.5q28 0 50.5 14.5t27.5 34.5h70q-13 -63 -71.5 -107t-127.5 -44q-73 0 -119.5 49.5t-46.5 126.5q0 27 6 57l135 586h-401z" />
<glyph unicode="fl" horiz-adv-x="1153" d="M360 -43q-23 -97 -100.5 -165t-165.5 -68q-60 0 -96.5 33.5t-36.5 86.5q0 11 4 31h70v-8q0 -18 14.5 -29.5t38.5 -11.5q31 0 67.5 57.5t55.5 136.5l180 779h-135l55 102h105l45 195q63 276 401 276q49 0 120 -6t95 -14h148l-248 -1076q-12 -53 -12 -94q0 -45 12 -72.5 t33 -27.5q28 0 50 14.5t27 34.5h70q-13 -63 -71.5 -107t-127.5 -44q-73 0 -119 50t-46 126q0 27 6 57l237 1028q-14 10 -76.5 19.5t-91.5 9.5q-34 0 -54 -1.5t-55 -13.5t-58.5 -34.5t-48.5 -68t-40 -110.5l-32 -141h161l-24 -102h-162z" />
<glyph unicode="&#xfb03;" horiz-adv-x="1746" d="M256 799l55 102h105l45 195q30 126 114 201t205 75q85 0 140 -22l-68 -111q-19 31 -66 31q-64 0 -104 -49t-70 -179l-32 -141h419l45 195q30 126 114.5 201t205.5 75q84 0 139 -22l-67 -111q-19 31 -66 31q-64 0 -104 -49t-70 -179l-33 -141h566l-146 -625 q-12 -53 -12 -94q0 -45 12 -72.5t33 -27.5q28 0 50.5 14.5t27.5 34.5h69q-13 -63 -71 -107t-127 -44q-73 0 -119.5 49.5t-46.5 126.5q0 27 6 57l135 586h-401l-195 -842q-23 -97 -100.5 -165t-165.5 -68q-60 0 -96.5 33.5t-36.5 86.5q0 11 4 31h69v-8q0 -18 15 -29.5 t39 -11.5q31 0 67.5 57.5t55.5 136.5l180 779h-420l-195 -842q-23 -97 -100.5 -165t-165.5 -68q-60 0 -96.5 33.5t-36.5 86.5q0 11 4 31h70v-8q0 -18 14.5 -29.5t38.5 -11.5q31 0 67.5 57.5t55.5 136.5l180 779h-135zM1640 1229h164l-39 -164h-163z" />
<glyph unicode="&#xfb04;" horiz-adv-x="1738" d="M946 -43q-23 -97 -100.5 -165t-165.5 -68q-60 0 -96.5 33.5t-36.5 86.5q0 11 4 31h70v-8q0 -18 14.5 -29.5t38.5 -11.5q31 0 67.5 57.5t55.5 136.5l180 779h-422l-195 -842q-23 -97 -100.5 -165t-165.5 -68q-60 0 -96.5 33.5t-36.5 86.5q0 11 4 31h70v-8 q0 -18 14.5 -29.5t38.5 -11.5q31 0 67.5 57.5t55.5 136.5l180 779h-135l55 102h105l45 195q30 126 114 201t205 75q85 0 140 -22l-68 -111q-19 31 -66 31q-64 0 -104 -49t-70 -179l-32 -141h421l46 195q63 276 401 276q49 0 120 -6t95 -14h147l-247 -1076q-13 -57 -13 -94 q0 -45 12 -72.5t33 -27.5q28 0 50.5 14.5t27.5 34.5h70q-13 -63 -71.5 -107t-127.5 -44q-73 0 -119.5 50t-46.5 126q0 27 6 57l238 1028q-14 10 -76.5 19.5t-91.5 9.5q-34 0 -54 -1.5t-55 -13.5t-58.5 -34.5t-48.5 -68t-40 -110.5l-33 -141h162l-24 -102h-162z" />
<glyph unicode=" "  horiz-adv-x="614" />
<glyph unicode="&#x09;" horiz-adv-x="614" />
<glyph unicode="&#xa0;" horiz-adv-x="614" />
<glyph unicode="!" horiz-adv-x="356" d="M129 164h164l-37 -164h-164zM588 1434l-277 -1065h-102l215 1065h164z" />
<glyph unicode="&#x22;" horiz-adv-x="540" d="M299 1024zM603.018 1434l-221.643 -410h-82l160.643 410h143zM808.018 1434l-221.643 -410h-82l160.643 410h143z" />
<glyph unicode="#" horiz-adv-x="991" d="M467 410l-117 -287h-145l117 287h-125l24 102h141l136 328h-150l23 102h168l116 287h146l-117 -287h154l116 287h146l-117 -287h123l-23 -102h-141l-133 -328h147l-24 -102h-164l-117 -287h-145l117 287h-156zM508 512h156l133 328h-154z" />
<glyph unicode="$" horiz-adv-x="860" d="M981 1087l-135 -71q-44 43 -66 61l-73 -325q99 -37 146.5 -97.5t47.5 -134.5q0 -111 -89.5 -216t-242.5 -140l-37 -164h-73l35 152q-16 -2 -52 -2h-30l-35 -150h-74l37 160q-59 12 -102 40t-111 87l106 75q6 -5 23.5 -20t23 -19.5t19.5 -15.5t22 -15.5t20 -11t24 -10.5 l96 412q-89 33 -138 88.5t-49 128.5q0 46 19 95t55 94t97 78.5t137 43.5l32 142h74l-31 -138q43 0 80 -6l33 144h74l-37 -160q81 -26 174 -105zM494 825l59 260q-51 -28 -82 -71.5t-31 -89.5q0 -60 54 -99zM530 662l-94 -408q18 -2 60 -2h20l90 391q-18 6 -42.5 11.5 t-33.5 7.5zM559 791q18 -6 43 -11t35 -8l78 336q-16 4 -62 4q-3 0 -10 -1t-10 -1zM674 610l-78 -338q53 26 96 90.5t43 129.5q0 74 -61 118z" />
<glyph unicode="%" horiz-adv-x="1089" d="M895 473q-46 0 -88.5 -37t-42.5 -90q0 -35 23.5 -58.5t60.5 -23.5q46 0 88.5 37t42.5 90q0 35 -23.5 58.5t-60.5 23.5zM653 319q0 104 84 183.5t185 79.5q76 0 122 -46t46 -118q0 -104 -83.5 -183t-183.5 -79q-76 0 -123 46t-47 117zM537 1047q-46 0 -88.5 -37t-42.5 -90 q0 -36 22.5 -59t58.5 -23q46 0 90 37.5t44 89.5q0 35 -23.5 58.5t-60.5 23.5zM293 893q0 104 83.5 183t184.5 79q76 0 123 -46.5t47 -117.5q0 -104 -83.5 -183t-184.5 -79q-76 0 -123 46.5t-47 117.5zM143 264l940 783h158l-940 -783h-158z" />
<glyph unicode="&#x26;" horiz-adv-x="1163" d="M881 1270q-74 0 -130.5 -76t-56.5 -174q0 -120 72 -295l178 -436q129 184 221 588l113 -48q-41 -178 -115 -344t-182 -286l80 -199h-133l-43 106q-162 -126 -365 -126q-169 0 -269.5 92.5t-100.5 251.5q0 196 125 359t294 218q-16 74 -16 111q0 33 5.5 69.5t28.5 91.5 t61.5 96.5t113 72t174.5 30.5q196 0 231 -164l-166 -34q-7 30 -11 42.5t-16 28t-34 20.5t-59 5zM602 801q-79 -30 -145.5 -102.5t-104 -168t-37.5 -190.5q0 -120 69 -189t189 -69q165 0 279 102z" />
<glyph unicode="'" horiz-adv-x="335" d="M567 1434l-127 -410h-82l66 410h143z" />
<glyph unicode="(" horiz-adv-x="548" d="M676 1434h102q-8 -9 -22 -26t-55 -75t-77.5 -121t-82 -162t-78 -201t-54.5 -235t-22 -266q0 -64 6 -123.5t14.5 -98.5t17.5 -69q9 -29 15 -43l6 -14h-102q-5 5 -12.5 15t-27.5 46t-35 79t-27.5 115.5t-12.5 152.5q0 137 24.5 267.5t64 229.5t87.5 187.5t95 149.5 q48 62 88 106t64 65z" />
<glyph unicode=")" horiz-adv-x="548" d="M205 0h-103q8 9 22 26t55 74.5t78 121t82 162.5t77.5 200.5t55 234.5t22.5 266q0 102 -15 189q-15 88 -30 124l-15 36h103q5 -5 12.5 -15t26.5 -46t34 -79t27 -115.5t12 -152.5q0 -138 -24.5 -269t-63.5 -230.5t-86.5 -187.5t-95 -148.5t-86.5 -104.5t-63 -65z" />
<glyph unicode="*" horiz-adv-x="864" d="M635 1057l45 295h127l-90 -295l301 112l10 -120l-305 -70l141 -225l-121 -76l-96 252l-215 -252l-84 76l244 225l-273 70l68 120zM635 1057zM592 979zM647 930zM723 979zM717 1057z" />
<glyph unicode="+" horiz-adv-x="856" d="M559 348l-67 -295h-103l68 295h-295l24 103h295l68 294h102l-67 -294h295l-25 -103h-295z" />
<glyph unicode="," horiz-adv-x="356" d="M45 -203q88 94 88 191q0 14 -3 48t-3 54q0 38 8 74h148q-15 -64 -31.5 -117t-27 -83t-30 -63.5t-25 -42t-27 -34.5t-21.5 -27h-76z" />
<glyph unicode="-" horiz-adv-x="649" d="M186 451h486l-25 -103h-485z" />
<glyph unicode="." horiz-adv-x="356" d="M129 164h164l-37 -164h-164z" />
<glyph unicode="/" horiz-adv-x="831" d="M1094 1434l-912 -1434h-121l912 1434h121z" />
<glyph unicode="0" horiz-adv-x="942" d="M502 82q85 0 176 91t152 237t61 290q0 129 -46 216.5t-130 87.5q-49 0 -106.5 -32.5t-112 -93t-99 -137.5t-71.5 -175t-27 -197q0 -127 50.5 -207t152.5 -80zM1057 707q0 -130 -49 -261.5t-130 -234t-194.5 -167t-234.5 -64.5q-102 0 -174.5 53t-106 139.5t-33.5 196.5 q0 120 39 236t102.5 204t139 156.5t153 104.5t140.5 36q160 0 254 -110.5t94 -288.5z" />
<glyph unicode="1" horiz-adv-x="942" d="M858 1096l-254 -1096h-164l226 973l-109 -12l25 102z" />
<glyph unicode="2" horiz-adv-x="942" d="M997 842q0 -82 -34 -150.5t-89.5 -117.5t-123 -92.5t-138.5 -83.5t-132.5 -81.5t-107.5 -96.5t-61 -118h533l-25 -102h-696q23 100 75 181.5t116.5 135.5t136.5 100.5t139.5 87.5t122.5 85.5t88 106.5t33 139q0 75 -39.5 111t-98.5 36q-159 0 -254 -156l-116 50 q148 208 424 208q112 0 179.5 -67.5t67.5 -175.5z" />
<glyph unicode="3" horiz-adv-x="942" d="M422 -156q28 0 65 15t77.5 46t74.5 73.5t56 103.5t22 129q0 96 -57 153.5t-183 57.5l23 102q82 0 144 25.5t95 61t53 82t25.5 80t5.5 63.5q0 75 -39 111t-98 36q-78 0 -131 -38t-102 -118l-117 50q70 98 164 153t239 55q112 0 180 -67.5t68 -175.5q0 -66 -21 -131 t-77 -131t-141 -105q135 -73 135 -242q0 -107 -45.5 -202.5t-114.5 -156.5t-147 -96.5t-146 -35.5q-147 0 -231.5 59.5t-108.5 153.5l139 49q12 -76 62 -118t131 -42z" />
<glyph unicode="4" horiz-adv-x="942" d="M113 68l708 1017h164l-225 -983h110l-24 -102h-111l-55 -238h-164l55 238h-475zM596 102l170 742l-516 -742h346z" />
<glyph unicode="5" horiz-adv-x="942" d="M422 -156q69 0 140.5 60t120 164t48.5 217q0 63 -21 110.5t-68.5 84t-130.5 56t-200 19.5l213 530h459l-22 -102h-312l-135 -336q208 -24 297.5 -105.5t89.5 -219.5q0 -115 -41.5 -223.5t-108 -186t-151.5 -124t-170 -46.5q-147 0 -231.5 59.5t-108.5 153.5l139 49 q12 -76 62 -118t131 -42z" />
<glyph unicode="6" horiz-adv-x="942" d="M481 82q67 0 133 51t106 127.5t40 149.5t-40 124.5t-104 51.5q-100 0 -213 -37q-51 -142 -51 -291q0 -86 34.5 -131t94.5 -45zM457 672q82 16 153 16q140 0 228 -72t88 -190q0 -99 -60 -202.5t-163 -173.5t-214 -70q-134 0 -216.5 78t-82.5 214q0 103 28.5 207t77 192.5 t111 173.5t131.5 154.5t138 131.5t131.5 107.5t110.5 78.5q50 33 78 50l28 17l55 -61q-17 -10 -46.5 -29.5t-113 -85t-158 -136t-161.5 -180t-143 -220.5z" />
<glyph unicode="7" horiz-adv-x="942" d="M420 1085h633l-23 -102l-610 -1221h-166l610 1221h-497z" />
<glyph unicode="8" horiz-adv-x="942" d="M592 698q-68 -34 -120.5 -80.5t-82.5 -91t-49 -92.5t-25 -83.5t-6 -65.5q0 -90 48.5 -146.5t131.5 -56.5q58 0 106.5 18t80 46.5t55.5 65.5t37 71.5t21 69.5t10 54.5t2 30.5q0 39 -12.5 73.5t-29 57.5t-49 49.5t-54.5 40.5t-64 39zM453 -20q-147 0 -232.5 85t-85.5 214 q0 142 96.5 269t262.5 212q-142 100 -142 246q0 97 43.5 183t112.5 143t153 89.5t166 32.5q126 0 205.5 -77t79.5 -201q0 -125 -76 -233t-217 -191q75 -55 117.5 -120t42.5 -159q0 -92 -36 -179.5t-101.5 -157.5t-167 -113t-221.5 -43zM532 1044q0 -39 13.5 -71.5t42 -60.5 t54.5 -46.5t69 -44.5q223 140 223 336q0 85 -44.5 140t-103.5 55q-68 0 -128 -51t-93 -121.5t-33 -135.5z" />
<glyph unicode="9" horiz-adv-x="942" d="M680 1004q-56 0 -101.5 -29t-72 -70t-44 -89.5t-24 -83.5t-6.5 -56q0 -73 39.5 -124.5t103.5 -51.5q103 0 216 37q47 136 47 266q0 95 -45.5 148t-112.5 53zM737 414q-87 -17 -153 -17q-141 0 -229.5 72t-88.5 190q0 73 35.5 151.5t95.5 144.5t150 108.5t188 42.5 q113 0 191 -79t78 -214q0 -103 -28.5 -206.5t-77 -192t-111 -173.5t-132 -155t-139 -131.5t-132 -107.5t-110.5 -79q-50 -33 -78 -50l-28 -17l-55 61q9 6 24.5 16t63.5 45t95 73t111 98t119.5 121t112.5 140.5t98 158.5z" />
<glyph unicode=":" horiz-adv-x="356" d="M92 0zM166.857 164h164l-74.8574 -164h-164zM307.857 778h164l-74.8574 -164h-164z" />
<glyph unicode=";" horiz-adv-x="356" d="M0 0zM-1.85938 -203q109.698 94 132.09 191q3.23145 14 8.08008 48q4.84766 34 9.46484 54q8.77148 38 25.082 74h148q-29.7734 -64 -58.5078 -117t-46.1602 -83q-17.4248 -30 -44.6572 -63.5q-27.2334 -33.5 -34.6953 -42t-34.9639 -34.5t-27.7324 -27h-76zM301.857 778 h164l-74.8574 -164h-164z" />
<glyph unicode="&#x3c;" horiz-adv-x="856" d="M231 504l660 397l39 -84l-520 -313l376 -311l-79 -84z" />
<glyph unicode="=" horiz-adv-x="708" d="M238 676h544l-22 -103h-545zM186 451h545l-24 -103h-545z" />
<glyph unicode="&#x3e;" horiz-adv-x="856" d="M858 506l-659 -397l-39 84l520 313l-377 311l80 84z" />
<glyph unicode="?" horiz-adv-x="882" d="M334 164h164l-37 -164h-164zM559 483l-43 -114h-102l18 215h72q73 0 135.5 25.5t106.5 68.5t75.5 100.5t46.5 122t15 131.5q0 112 -59 175t-173 63q-72 0 -119.5 -29t-103.5 -94l-111 47q88 86 180 132t210 46q163 0 251.5 -87t88.5 -241q0 -116 -40 -217.5t-107.5 -173 t-155.5 -116.5t-185 -54z" />
<glyph unicode="@" horiz-adv-x="1325" d="M1030 791q0 -30 -39 -179t-39 -196q0 -29 9 -40t28 -11q50 0 94.5 59t70.5 139.5t41 154t15 113.5q0 135 -78.5 215t-179.5 80q-103 0 -197 -38.5t-164.5 -104t-123.5 -149t-80 -177t-27 -184.5q0 -99 37 -177t96 -123t125 -68t132 -23q240 0 399 182l108 -55 q-104 -103 -252 -166t-309 -63q-90 0 -178.5 30.5t-164 88t-122.5 152.5t-47 212q0 108 34 211t92 185.5t134.5 152.5t161 117t172.5 73.5t168 26.5q205 0 322.5 -99.5t117.5 -273.5q0 -112 -46.5 -224t-115 -191.5t-146.5 -129t-142 -49.5t-82 57q-67 -40 -164 -40 q-162 0 -162 186q0 112 40.5 217.5t115.5 174.5t164 69q78 0 130 -33t52 -102zM846 399q4 69 41 207.5t37 159.5q0 35 -21 64.5t-49 29.5q-54 0 -98.5 -40.5t-69.5 -101.5t-38 -123t-13 -114q0 -63 22.5 -100t67.5 -37q44 0 68 11.5t53 43.5z" />
<glyph unicode="A" horiz-adv-x="1275" d="M1092 6zM31 0l854 1434h180l190 -1434h-163l-56 410h-598l-243 -410h-164zM928 1231l-428 -719h524z" />
<glyph unicode="B" horiz-adv-x="1052" d="M547 102q75 0 137.5 34t103 89.5t62.5 124t22 139.5q0 47 -10 88t-30.5 75.5t-56.5 54.5t-85 20h-266l-143 -625h266zM449 829h180q118 0 216.5 96.5t98.5 233.5q0 73 -35.5 122.5t-120.5 49.5h-225zM872 795q91 -39 134 -117.5t43 -177.5q0 -73 -20.5 -143.5t-65 -135.5 t-108.5 -114t-157.5 -78t-205.5 -29h-410l332 1434h368q340 0 340 -246q0 -123 -66 -227.5t-184 -165.5z" />
<glyph unicode="C" horiz-adv-x="1325" d="M1012 1352q-120 0 -226.5 -58t-179 -149t-126 -202.5t-78.5 -220t-25 -200.5q0 -89 23 -164t61 -125t87 -85t100 -50.5t102 -15.5q240 0 399 182l108 -55q-104 -103 -252 -166t-309 -63q-70 0 -139 19.5t-133.5 62t-113.5 103t-79 150t-30 195.5q0 102 27 212t76 215 t122.5 199t160.5 164.5t195.5 112t223.5 41.5q362 0 483 -209l-168 -67q-82 174 -309 174z" />
<glyph unicode="D" horiz-adv-x="1216" d="M1329 1020q0 -58 -9.5 -134.5t-34 -175.5t-61 -195.5t-96 -190.5t-133.5 -165t-179.5 -115t-227.5 -44h-496l332 1434h496q409 0 409 -414zM573 1331l-282 -1229h352q85 0 161.5 51t130.5 134t98 183.5t70.5 205.5t40 194t13.5 154q0 161 -63 234t-168 73h-353z" />
<glyph unicode="E" horiz-adv-x="962" d="M942 0h-860l332 1434h827l-24 -103h-654l-98 -430h469l-25 -102h-469l-159 -697h686z" />
<glyph unicode="F" horiz-adv-x="899" d="M92 0l332 1434h827l-24 -103h-654l-98 -430h469l-24 -102h-469l-185 -799h-174z" />
<glyph unicode="G" horiz-adv-x="1325" d="M1395 819l-138 -610q-104 -103 -252 -166t-309 -63q-70 0 -139 19.5t-133.5 62t-113.5 103t-79 150t-30 195.5q0 123 36.5 253t107 249.5t164.5 214t220.5 151t263.5 56.5q386 0 496 -189l-168 -67q-72 153 -322 153q-101 0 -191.5 -39t-157 -105t-120 -149t-86 -174.5 t-50 -178.5t-17.5 -163q0 -89 23 -164t61 -125t87 -85t100 -50.5t102 -15.5q196 0 342 127l118 508h-172l21 102h336z" />
<glyph unicode="H" horiz-adv-x="1259" d="M588 1434l-144 -615h660l143 615h174l-331 -1434h-175l166 717h-659l-166 -717h-174l332 1434h174z" />
<glyph unicode="I" horiz-adv-x="436" d="M598 1434l-332 -1434h-174l332 1434h174z" />
<glyph unicode="J" horiz-adv-x="948" d="M907 487q-25 -108 -48 -180.5t-55.5 -132.5t-69.5 -94.5t-92.5 -58.5t-121.5 -32.5t-160 -8.5q-149 0 -303 92l127 106q116 -96 230 -96q41 0 72.5 4t58 15t45.5 23.5t36 37t29 47.5t24.5 63t21.5 76.5t22 93.5l229 992h174z" />
<glyph unicode="K" horiz-adv-x="1239" d="M375 469l-109 -469h-174l332 1434h174l-170 -738l825 738h205l-737 -658l430 -776h-193l-368 662z" />
<glyph unicode="L" horiz-adv-x="1052" d="M281 102h686l-25 -102h-860l332 1434h174z" />
<glyph unicode="M" horiz-adv-x="1544" d="M512 1065l-246 -1065h-174l332 1434h174l236 -1002l698 1002h174l-332 -1434h-174l246 1065l-696 -995z" />
<glyph unicode="N" horiz-adv-x="1325" d="M977 0l-449 1137l-262 -1137h-174l332 1434h174h2l449 -1139l264 1139h174l-332 -1434h-178z" />
<glyph unicode="O" d="M659 -20q-88 0 -168.5 31t-147 91t-105.5 160t-39 227q0 135 37.5 274t109 262t165.5 219.5t216.5 153t253.5 56.5q107 0 198 -31t161.5 -91t110.5 -158.5t40 -225.5q0 -85 -16 -176t-50 -186t-82.5 -182.5t-118 -165t-152 -135t-189 -90.5t-224.5 -33zM969 1352 q-109 0 -218.5 -75.5t-191 -194.5t-133 -272.5t-51.5 -301.5q0 -107 30.5 -192t79 -134t102.5 -74.5t107 -25.5q112 0 224.5 71.5t199.5 187.5t142 274.5t55 322.5q0 105 -29 186.5t-78.5 130t-110 73t-128.5 24.5z" />
<glyph unicode="P" horiz-adv-x="970" d="M1206 1128q0 -62 -22 -127t-68 -127t-109 -111t-152 -78.5t-191 -29.5h-246l-152 -655h-174l332 1434h420q79 0 142.5 -18t103.5 -47.5t67 -69.5t38 -82.5t11 -88.5zM573 1331l-133 -573h277q90 0 164 58t112.5 142t38.5 170q0 87 -43.5 145t-138.5 58h-277z" />
<glyph unicode="Q" d="M969 1352q-89 0 -168.5 -34t-138.5 -91t-108.5 -132t-82 -156t-55.5 -164.5t-33 -156t-10 -131.5q0 -103 27 -183t73 -127t102 -71t119 -24q100 0 196.5 49.5t172 136t133.5 196t89.5 236t31.5 250.5q0 201 -97.5 301.5t-250.5 100.5zM580 -14q-77 13 -144 49.5t-121 97 t-85 152t-31 204.5q0 132 37 269t108 261t164.5 221.5t217 155.5t255.5 58q107 0 198 -30.5t161.5 -90.5t110.5 -159t40 -226q0 -96 -20.5 -198.5t-60 -205.5t-102.5 -196.5t-142 -169t-185 -126.5t-225 -66q2 -65 50.5 -120t116.5 -83.5t134 -28.5l-23 -102q-59 0 -119 9.5 t-121.5 32.5t-108.5 57t-77 87.5t-30 118.5q0 19 2 29z" />
<glyph unicode="R" horiz-adv-x="1101" d="M424 1434h420q79 0 142.5 -18t103.5 -47.5t67 -69.5t38 -82.5t11 -88.5q0 -64 -24.5 -131.5t-69.5 -129t-117 -112t-159 -75.5q64 -83 113.5 -250.5t49.5 -312.5q0 -64 -12 -117h-168q10 41 10 106q0 147 -56 312.5t-132 236.5h-223l-152 -655h-174zM573 1331l-133 -573 h277q90 0 164 58t112.5 142t38.5 170q0 87 -43.5 145t-138.5 58h-277z" />
<glyph unicode="S" horiz-adv-x="1198" d="M1200 455q0 -92 -43 -177.5t-120.5 -151.5t-195 -106t-255.5 -40q-149 0 -262.5 111t-116.5 259l168 31q0 -4 -1 -13.5t-1 -13.5q0 -109 78 -190.5t172 -81.5q91 0 163.5 25.5t116 64t72 87t39 90t10.5 77.5q0 60 -33 108.5t-85 81.5t-115.5 62.5t-127 61t-115.5 67.5 t-85 91t-33 124q0 90 48 172.5t122.5 138t164 88.5t173.5 33q140 0 240.5 -63.5t140.5 -165.5l-162 -43q-53 170 -260 170q-101 0 -194 -93t-93 -202q0 -47 25.5 -86.5t67 -67t94.5 -56.5t108 -53.5t108 -58t94.5 -70.5t67 -91t25.5 -119z" />
<glyph unicode="T" horiz-adv-x="1198" d="M352 1434h1202l-28 -103h-512l-307 -1331h-175l308 1331h-512z" />
<glyph unicode="U" horiz-adv-x="1306" d="M1311 1434h174l-191 -824q-35 -149 -90.5 -261.5t-120.5 -181.5t-147.5 -112t-163 -59t-174.5 -16q-60 0 -115 11t-112.5 40t-99.5 74.5t-68.5 120.5t-26.5 171q0 93 27 213l190 824h174l-190 -824q-27 -123 -27 -209q0 -76 19 -135t47.5 -93t67.5 -55t75 -28.5t74 -7.5 q51 0 101 13t108.5 49.5t108 93.5t95 152.5t74.5 219.5z" />
<glyph unicode="V" horiz-adv-x="1101" d="M465 0l-133 1434h172l108 -1182l658 1182h172l-797 -1434h-180z" />
<glyph unicode="W" horiz-adv-x="1701" d="M465 0l-133 1434h172l108 -1182l363 649h178l59 -649l658 1182h172l-797 -1434h-180l-61 645l-359 -645h-180z" />
<glyph unicode="X" horiz-adv-x="1075" d="M786 760l211 -760h-184l-162 578l-428 -578h-182l561 758l-188 676h184l137 -496l367 496h184z" />
<glyph unicode="Y" horiz-adv-x="1075" d="M745 899l398 535h184l-539 -725l-163 -709h-174l163 711l-200 723h184z" />
<glyph unicode="Z" horiz-adv-x="1075" d="M1026 1331h-668l56 103h872l-987 -1332h688l-24 -102h-922z" />
<glyph unicode="[" horiz-adv-x="432" d="M340 0h-248l311 1352h248l-18 -82h-135l-275 -1188h135z" />
<glyph unicode="\" horiz-adv-x="831" d="M393 1434h121l248 -1434h-121z" />
<glyph unicode="]" horiz-adv-x="432" d="M403 1352h248l-311 -1352h-248l19 82h135l274 1188h-135z" />
<glyph unicode="^" horiz-adv-x="856" d="M614 819l267 -569l-95 -57l-213 446l-413 -446l-70 57z" />
<glyph unicode="_" horiz-adv-x="692" d="M-18 -82h692l-25 -102h-692z" />
<glyph unicode="`" horiz-adv-x="497" d="M432 1255zM563 1642l164 -333l-76 -54l-219 295z" />
<glyph unicode="a" horiz-adv-x="1058" d="M154 309q0 111 49 224.5t124 198t170.5 137.5t184.5 53q79 0 148 -14t106 -29t88 -41l-129 -562q-12 -53 -12 -98q0 -43 11.5 -69.5t31.5 -26.5q28 0 50.5 14.5t27.5 34.5h71q-13 -63 -72.5 -107t-128.5 -44q-84 0 -131 63q-151 -63 -303 -63q-132 0 -209 92.5t-77 236.5 zM852 797q-61 22 -164 22q-72 0 -132 -30t-99.5 -80t-69.5 -108.5t-45.5 -121t-23 -111t-7.5 -85.5q0 -108 51 -154.5t132 -46.5q110 0 217 49v25q0 27 6 57z" />
<glyph unicode="b" horiz-adv-x="1069" d="M1120 606q0 -45 -7 -96t-25.5 -112.5t-46.5 -119t-74 -112.5t-103 -96t-138.5 -65.5t-176.5 -24.5q-72 0 -126.5 9.5t-105.5 35t-78.5 77.5t-27.5 129q0 61 18 138l162 706q12 53 12 94q0 45 -12 73t-33 28q-27 0 -48.5 -14.5t-26.5 -34.5h-70q13 63 71.5 107t127.5 44 q73 0 119.5 -49.5t46.5 -126.5q0 -12 -9 -57l-65 -289q123 72 262 72q184 0 269 -85t85 -231zM377 303q-8 -33 -8 -67q0 -46 18.5 -78t53.5 -48t73 -22t88 -6q76 0 143.5 48t111.5 122.5t69.5 161.5t25.5 168q0 104 -44 170.5t-136 66.5q-91 0 -166 -48.5t-121.5 -125.5 t-68.5 -174z" />
<glyph unicode="c" horiz-adv-x="944" d="M150 324q0 119 49.5 231t128 191.5t176.5 127.5t192 48q134 0 216 -67.5t108 -178.5l-148 -68q-3 97 -45.5 154t-124.5 57q-101 0 -191.5 -71.5t-143 -182t-52.5 -225.5q0 -120 69 -189t189 -69q147 0 254 123l113 -47q-84 -82 -191.5 -130t-228.5 -48 q-169 0 -269.5 92.5t-100.5 251.5z" />
<glyph unicode="d" horiz-adv-x="1142" d="M150 317q0 103 39.5 210t108 195t171.5 144t219 56q158 0 254 -99l121 529h164l-248 -1076q-10 -44 -10 -94q0 -100 43 -100q28 0 50.5 14.5t27.5 34.5h69q-13 -63 -71 -107t-127 -44q-53 0 -93 26.5t-59 71.5q-132 -98 -338 -98q-154 0 -237.5 93t-83.5 244zM524 82 q99 0 178.5 71t121.5 185.5t42 247.5q0 105 -40.5 169t-131.5 64q-95 0 -183.5 -72t-141 -181t-52.5 -218q0 -112 54 -189t153 -77z" />
<glyph unicode="e" horiz-adv-x="964" d="M1032 571q0 -120 -188 -120h-516q-13 -60 -13 -111q0 -120 69 -189t189 -69q147 0 254 123l113 -47q-84 -82 -191.5 -130t-228.5 -48q-169 0 -269.5 92.5t-100.5 251.5q0 119 49.5 231t128 191.5t176.5 127.5t192 48q84 0 150 -28.5t106 -78t60 -111.5t20 -133zM362 553 h424q45 0 65.5 9.5t20.5 33.5q0 103 -42.5 163t-127.5 60q-104 0 -195.5 -74.5t-144.5 -191.5z" />
<glyph unicode="f" horiz-adv-x="608" d="M360 -43q-23 -97 -100.5 -165t-165.5 -68q-59 0 -96 33t-37 85q0 13 4 33h70v-8q0 -18 14.5 -29.5t38.5 -11.5q31 0 67.5 57.5t55.5 136.5l180 779h-135l55 102h105l45 195q30 126 114 201t205 75q85 0 140 -22l-68 -111q-19 31 -66 31q-64 0 -104 -49t-70 -179l-32 -141 h161l-24 -102h-162z" />
<glyph unicode="g" horiz-adv-x="1091" d="M672 819q-82 0 -152 -49.5t-114 -125.5t-68.5 -161.5t-24.5 -163.5q0 -112 58.5 -174.5t171.5 -62.5q109 0 190 63l109 463q-3 97 -45.5 154t-124.5 57zM705 23q-105 -43 -216 -43q-163 0 -252.5 87t-89.5 240q0 154 73 297t194 230.5t252 87.5q167 0 256 -107 q40 50 94.5 78.5t109.5 28.5q59 0 96.5 -33.5t37.5 -85.5q0 -8 -5 -33h-69v8q0 17 -16 29t-40 12q-31 0 -67 -57.5t-55 -136.5l-107 -465q-25 -109 -47 -180.5t-53.5 -132.5t-67 -95.5t-89.5 -58.5t-120 -32.5t-159 -8.5q-150 0 -304 92l127 106q116 -96 230 -96 q71 0 117 13t78 47.5t51.5 81.5t40.5 127z" />
<glyph unicode="h" horiz-adv-x="1034" d="M391 1075q12 53 12 94q0 45 -12 73t-33 28q-27 0 -48.5 -14.5t-26.5 -34.5h-70q13 63 71.5 107t127.5 44q73 0 119.5 -49.5t46.5 -126.5q0 -12 -9 -57l-61 -269q113 52 221 52q348 0 348 -281q0 -57 -20 -149l-113 -492h-164l109 467q24 108 24 176q0 98 -45.5 137 t-132.5 39q-127 0 -260 -96l-168 -723h-164z" />
<glyph unicode="i" horiz-adv-x="483" d="M377 1229h164l-39 -164h-164zM319 276q-10 -44 -10 -94q0 -100 43 -100q28 0 50.5 14.5t27.5 34.5h70q-13 -63 -71.5 -107t-127.5 -44q-73 0 -119.5 49.5t-46.5 126.5q0 27 6 57l160 688h164z" />
<glyph unicode="j" horiz-adv-x="376" d="M-141 -195q22 -51 96 -51q60 0 99 58.5t69 187.5l209 901h164l-226 -969q-22 -96 -84.5 -161.5t-134.5 -92t-149 -26.5q-130 0 -187 92zM408 1229h163l-39 -164h-163z" />
<glyph unicode="k" horiz-adv-x="917" d="M307 0h-164l248 1075q12 53 12 94q0 45 -12 73t-33 28q-27 0 -48.5 -14.5t-26.5 -34.5h-70q13 63 71.5 107t127.5 44q73 0 119.5 -49.5t46.5 -126.5q0 -12 -9 -57l-151 -662l475 424h188l-450 -399l278 -502h-176l-221 395l-143 -127z" />
<glyph unicode="l" horiz-adv-x="495" d="M319 276q-10 -44 -10 -94q0 -100 43 -100q28 0 50.5 14.5t27.5 34.5h70q-13 -63 -71.5 -107t-127.5 -44q-73 0 -119.5 49.5t-46.5 126.5q0 27 6 57l262 1139h164z" />
<glyph unicode="m" horiz-adv-x="1574" d="M328 625q12 53 12 94q0 45 -12 72.5t-33 27.5q-28 0 -49.5 -14.5t-26.5 -34.5h-69q14 63 71.5 107.5t126.5 44.5q94 0 141 -80q68 41 125 60.5t125 19.5q213 0 283 -107q161 107 285 107q164 0 237.5 -61.5t73.5 -190.5q0 -72 -25 -178l-112 -492h-164l115 500 q28 124 28 186q0 78 -35 105.5t-112 27.5q-139 0 -223 -100l-166 -719h-164l114 500q29 126 29 184q0 80 -37.5 107.5t-120.5 27.5q-115 0 -231 -92q0 -7 -3 -21.5t-3 -17.5l-160 -688h-164z" />
<glyph unicode="n" horiz-adv-x="1075" d="M328 625q12 53 12 94q0 45 -12 72.5t-33 27.5q-28 0 -49.5 -14.5t-26.5 -34.5h-69q14 63 71.5 107.5t126.5 44.5q94 0 141 -80q138 80 281 80q348 0 348 -281q0 -57 -20 -149l-113 -492h-164l109 467q24 108 24 176q0 98 -45.5 137t-132.5 39q-128 0 -264 -98 q-1 -5 -2 -16t-2 -17l-160 -688h-164z" />
<glyph unicode="o" horiz-adv-x="1013" d="M532 82q76 0 145.5 45.5t116.5 117t75 159t28 171.5q0 113 -51.5 178.5t-143.5 65.5q-100 0 -191 -71t-145.5 -189t-54.5 -248q0 -110 55.5 -169.5t165.5 -59.5zM1065 594q0 -48 -9 -101.5t-30 -114t-51.5 -116.5t-78.5 -108t-106.5 -90t-138.5 -61t-172 -23 q-161 0 -246.5 84.5t-85.5 236.5q0 129 50.5 246.5t129.5 198t177 128.5t192 48q171 0 270 -84t99 -244z" />
<glyph unicode="p" horiz-adv-x="1107" d="M635 86q75 0 158 66.5t141.5 181t58.5 235.5q0 108 -43.5 181t-124.5 73q-156 0 -240 -81.5t-120 -237.5q-25 -105 -25 -182q0 -105 46 -170.5t149 -65.5zM328 625q20 94 20 123q0 71 -53 71q-25 0 -48 -15t-28 -34h-69q13 62 72 107t126 45q103 0 148 -88q123 92 321 92 q158 0 249 -98t91 -253q0 -114 -49.5 -223t-129.5 -189.5t-185.5 -129.5t-212.5 -49q-140 0 -218 75l-108 -469h-164z" />
<glyph unicode="q" horiz-adv-x="1142" d="M156 295q0 65 14.5 140t55 163.5t102 158.5t166 117.5t235.5 47.5q57 0 102 -5.5t91 -21.5t76.5 -43t49.5 -73.5t19 -108.5t-18 -138l-150 -645q-10 -44 -10 -94q0 -100 43 -100q28 0 50.5 14.5t27.5 34.5h69q-14 -63 -71.5 -107.5t-126.5 -44.5q-73 0 -119.5 50 t-46.5 127q0 27 6 57l53 225q-117 -69 -262 -69q-184 0 -270 84.5t-86 230.5zM860 430l39 168q10 42 10 68q0 46 -19 78t-54 47.5t-73.5 21.5t-88.5 6q-76 0 -143.5 -48t-111.5 -122.5t-69.5 -161.5t-25.5 -168q0 -104 44 -170.5t136 -66.5q91 0 166 48.5t121.5 125.5 t68.5 174z" />
<glyph unicode="r" horiz-adv-x="770" d="M881 741q-21 78 -158 78q-62 0 -110 -21.5t-99 -66.5q0 -22 -6 -43l-160 -688h-164l144 625q12 53 12 94q0 45 -12 72.5t-33 27.5q-28 0 -49.5 -14.5t-26.5 -34.5h-69q14 63 71.5 107.5t126.5 44.5q94 0 141 -80q69 42 122.5 61t121.5 19q106 0 182 -29z" />
<glyph unicode="s" horiz-adv-x="860" d="M252 639q0 48 24 98t65 91t104 67.5t135 26.5q103 0 179.5 -30.5t153.5 -96.5l-137 -72l-29 29t-27 26t-22.5 16.5t-30 15t-33.5 6t-48 3.5q-47 0 -82.5 -18t-52.5 -45.5t-25 -52t-8 -46.5q0 -84 135 -110q303 -59 303 -234q0 -42 -14.5 -86t-49 -89t-84.5 -79.5 t-129 -56.5t-176 -22q-58 0 -99.5 7.5t-81 29.5t-62.5 40t-72 60l107 76l24 -20t23 -19.5t20 -16t21.5 -15t21 -12t24 -10.5t25 -7t30 -6.5t33.5 -3t40 -1.5q61 0 107 21t68.5 48t36 61t16.5 52.5t3 30.5q0 55 -48 84.5t-134 44.5q-125 25 -189.5 80t-64.5 135z" />
<glyph unicode="t" horiz-adv-x="577" d="M414 276q-11 -48 -11 -94q0 -100 43 -100q28 0 50.5 14.5t27.5 34.5h70q-13 -63 -71.5 -107t-127.5 -44q-73 0 -119.5 49.5t-46.5 126.5q0 22 7 57l135 586h-135l55 102h104l68 297l172 31l-76 -328h162l-25 -102h-161z" />
<glyph unicode="u" horiz-adv-x="1110" d="M946 276q-10 -44 -10 -94q0 -100 43 -100q28 0 50.5 14.5t27.5 34.5h69q-13 -63 -71 -107t-127 -44q-96 0 -144 81q-70 -38 -153 -59.5t-156 -21.5q-166 0 -243.5 63.5t-77.5 196.5q0 71 22 170l115 491h164l-109 -467q-20 -84 -20 -153q0 -110 53.5 -154.5t148.5 -44.5 q118 0 234 92q0 3 6 39l160 688h164z" />
<glyph unicode="v" horiz-adv-x="931" d="M553 0h-164l-119 901h150l92 -696l414 696h164z" />
<glyph unicode="w" horiz-adv-x="1587" d="M512 205l414 696h149l92 -696l414 696h164l-537 -901h-164l-90 676l-401 -676h-164l-119 901h150z" />
<glyph unicode="x" horiz-adv-x="954" d="M498 494l-170 407h176l112 -272l242 272h176l-360 -407l209 -494h-178l-150 358l-315 -358h-179z" />
<glyph unicode="y" horiz-adv-x="931" d="M137 -348q-55 0 -94 33t-86 102l145 66q31 -64 49 -81.5t39 -17.5q19 0 35.5 9.5t40 41t35.5 50.5t47 77q9 15 14 23l27 45l-119 901h150l92 -696l414 696h164l-568 -950q-88 -148 -180 -223.5t-205 -75.5z" />
<glyph unicode="z" horiz-adv-x="845" d="M668 799h-484l56 102h688l-447 -389q33 -20 63.5 -42t67 -56.5t63 -70.5t44.5 -83.5t18 -95.5q0 -73 -30.5 -135t-79 -101.5t-107 -70.5t-117.5 -47.5t-107 -26.5q-50 -10 -80 -13l-30 -3l-32 81q9 1 24 2.5t58.5 10.5t83 22t88 37.5t83 55t58.5 78.5t24 104q0 42 -15 82 t-39.5 71t-53.5 59t-58 47.5t-53.5 33.5t-39.5 21l-15 7z" />
<glyph unicode="{" horiz-adv-x="530" d="M678 1434h102q-68 -43 -111 -119.5t-65 -159.5t-47 -166t-76 -157t-131 -115q86 -59 86 -191q0 -59 -22.5 -185.5t-22.5 -182.5q0 -105 58 -158h-103q-96 62 -96 207q0 63 23.5 192t23.5 183q0 91 -49 135q45 28 77.5 75.5t51.5 101.5t35.5 114.5t36 121.5t46 117 t73 105.5t110.5 81.5z" />
<glyph unicode="|" horiz-adv-x="305" d="M537 1434l-332 -1434h-113l332 1434h113z" />
<glyph unicode="}" horiz-adv-x="530" d="M184 0h-102q68 43 111 119.5t65 159.5t47 166t76 157t131 115q-86 59 -86 190q0 59 22.5 186t22.5 183q0 106 -57 158h102q96 -62 96 -207q0 -63 -23.5 -192t-23.5 -183q0 -91 49 -135q-45 -28 -77.5 -75.5t-51.5 -101.5t-35.5 -114.5t-36 -121.5t-46 -117t-73 -105.5 t-110.5 -81.5z" />
<glyph unicode="~" horiz-adv-x="831" d="M805 602h84q-28 -78 -102 -130t-162 -52q-38 0 -119 32.5t-100 32.5q-50 0 -91.5 -16.5t-52.5 -48.5h-84q28 78 102 130t162 52q38 0 119.5 -32.5t100.5 -32.5q50 0 91 16.5t52 48.5z" />
<glyph unicode="&#xa1;" horiz-adv-x="356" d="M494 1032h-164l39 164h163zM37 -238l276 1065h103l-215 -1065h-164z" />
<glyph unicode="&#xa2;" horiz-adv-x="944" d="M379 39q-191 57 -191 270q0 86 26 174t73.5 165t121.5 135.5t162 82.5l31 138h74l-29 -125q12 2 39 2q29 0 43 -2l29 125h73l-32 -140q72 -25 111.5 -83t60.5 -146l-150 -68q-2 74 -11 118.5t-36 68.5l-145 -627q51 8 86 35.5t82 83.5l110 -47q-74 -74 -144 -116.5 t-157 -55.5l-31 -129h-73l28 122h-2q-46 0 -77 5l-31 -127h-74zM410 172l131 563q-53 -34 -92 -91t-58.5 -118.5t-28 -112t-8.5 -89.5q0 -102 56 -152zM475 137q30 -11 80 -14l152 655h-13q-40 0 -71 -8z" />
<glyph unicode="&#xa3;" horiz-adv-x="903" d="M428 991q22 96 84.5 162t134 92.5t148.5 26.5q131 0 188 -92l-145 -62q-22 51 -95 51q-62 0 -105.5 -59.5t-72.5 -185.5l-28 -125h215l-25 -103h-215l-57 -250q-16 -71 -51 -137t-73 -108.5t-64 -67t-38 -31.5h617l-25 -102h-770l25 102q20 0 66 52t94 135.5t65 156.5 l57 250h-82l56 103h51z" />
<glyph unicode="&#xa4;" horiz-adv-x="724" d="M492 561q-48 0 -92 -40t-44 -93q0 -36 24 -60t62 -24q48 0 92 40t44 93q0 36 -24 60t-62 24zM266 348q-10 30 -10 60q0 77 59 149l-79 105l88 71l79 -104q54 28 111 28q56 0 98 -28l129 104l56 -71l-129 -105q10 -30 10 -59q0 -77 -60 -150l80 -104l-88 -72l-80 104 q-54 -28 -110 -28t-98 28l-129 -104l-56 72z" />
<glyph unicode="&#xa5;" horiz-adv-x="1075" d="M745 899l398 535h184l-539 -725l-28 -123h153l-24 -103h-152l-24 -106h143l-25 -103h-143l-63 -274h-174l63 274h-168l25 103h166l24 106h-158l25 103h158l28 125l-200 723h184z" />
<glyph unicode="&#xa6;" horiz-adv-x="305" d="M537 1434l-152 -656h-113l152 656h113zM356 655l-151 -655h-113l152 655h112z" />
<glyph unicode="&#xa7;" horiz-adv-x="808" d="M733 307q0 -38 -14 -81t-44 -86.5t-71.5 -78.5t-102.5 -57t-130 -22q-41 0 -74.5 9.5t-67.5 33t-57 72.5t-33 120l99 21q3 -27 6 -43t13.5 -40t26 -37t44.5 -23.5t69 -10.5q50 0 89 27.5t58.5 66t28.5 70.5t9 51q0 92 -127 137q-83 31 -125.5 90.5t-42.5 135.5 q0 57 29.5 131.5t99.5 132.5q-37 55 -37 118q0 48 23 103t65.5 105.5t114 84t157.5 33.5q41 0 74.5 -9.5t67.5 -33t57 -72.5t33 -120l-97 -21q-3 26 -6.5 42.5t-14 40t-26 37.5t-45 24t-69.5 10q-50 0 -89 -27.5t-57.5 -66.5t-27.5 -70.5t-9 -50.5q0 -93 125 -138 q83 -32 125.5 -91t42.5 -134q0 -57 -29.5 -131.5t-99.5 -132.5q39 -58 39 -119zM504 844q-36 -42 -52 -94.5t-16 -87.5q0 -30 8 -49.5t26 -32.5t36.5 -21t48.5 -22t53 -29q36 41 51 93t15 89t-14.5 60t-33.5 32.5t-57 27t-65 34.5z" />
<glyph unicode="&#xa8;" horiz-adv-x="559" d="M331 1270zM844 1270zM694 1419h150l-35 -149h-150zM366 1419h150l-35 -149h-150z" />
<glyph unicode="&#xa9;" horiz-adv-x="1101" d="M764 946q-74 0 -152 -50t-139 -129t-100 -185t-39 -211q0 -136 64.5 -223t160.5 -87q74 0 152 50t139 129t100 185.5t39 211.5q0 136 -64.5 222.5t-160.5 86.5zM219 365q0 128 53.5 252t135.5 213t182.5 143.5t191.5 54.5q62 0 119.5 -27t103 -75t72.5 -122t27 -161 q0 -104 -35 -206.5t-93.5 -183t-131.5 -143t-152 -96.5t-151 -34q-62 0 -119.5 27t-103 75t-72.5 122t-27 161zM717 733q-55 0 -101.5 -31.5t-75 -79t-44 -100.5t-15.5 -100q0 -83 44.5 -125.5t97.5 -42.5q30 0 55.5 7t46 21.5t30 23.5t23.5 24l62 -31q-106 -106 -244 -106 q-81 0 -144 56.5t-63 162.5q0 145 98 264t232 119q92 0 138 -22t73 -68l-90 -35q-13 30 -39.5 46.5t-83.5 16.5z" />
<glyph unicode="&#xaa;" horiz-adv-x="624" d="M166 410h477l-14 -62h-477zM229 686q0 115 87 214t184 99q14 0 27.5 -0.5t26 -3t21.5 -4t20.5 -5t18 -5.5t18 -7t15 -6.5t15.5 -7t14 -6.5l-66 -282q-6 -27 -6 -47q0 -22 5 -34.5t12 -12.5q28 0 34 24h45q-10 -42 -42 -64t-66 -22q-37 0 -66 33q-81 -33 -151 -33 q-67 0 -106.5 48t-39.5 122zM502 938q-41 0 -74.5 -21.5t-53 -53t-32.5 -69.5t-18 -68t-5 -52q0 -96 87 -96q47 0 102 22q-2 14 2 39l68 289q-30 10 -76 10z" />
<glyph unicode="&#xab;" horiz-adv-x="856" d="M207 86zM563 453l199 -328l-86 -39l-223 367l391 364l70 -39zM317 453l199 -328l-86 -39l-223 367l391 364l70 -39z" />
<glyph unicode="&#xac;" horiz-adv-x="696" d="M186 451h533l-60 -256h-81l34 153h-450z" />
<glyph unicode="&#xad;" horiz-adv-x="649" d="M162 348zM186 451h486l-25 -103h-485z" />
<glyph unicode="&#xae;" horiz-adv-x="1101" d="M764 946q-74 0 -152 -50t-139 -129t-100 -185t-39 -211q0 -136 64.5 -223t160.5 -87q74 0 152 50t139 129t100 185.5t39 211.5q0 136 -64.5 222.5t-160.5 86.5zM219 365q0 128 53.5 252t135.5 213t182.5 143.5t191.5 54.5q62 0 119.5 -27t103 -75t72.5 -122t27 -161 q0 -104 -35 -206.5t-93.5 -183t-131.5 -143t-152 -96.5t-151 -34q-62 0 -119.5 27t-103 75t-72.5 122t-27 161zM881 670q0 -56 -39.5 -109t-100.5 -76q18 -31 38 -93t20 -124q0 -21 -8 -61h-89q7 31 7 55q0 63 -22.5 123.5t-47.5 83.5h-76l-61 -262h-90l137 594h178 q82 0 118 -38.5t36 -92.5zM678 530q50 0 81.5 43.5t31.5 92.5q0 73 -66 73h-100l-47 -209h100z" />
<glyph unicode="&#xaf;" horiz-adv-x="614" d="M364 1270zM383 1352h471l-19 -82h-471z" />
<glyph unicode="&#xb0;" horiz-adv-x="577" d="M586 1286q-40 0 -76.5 -32.5t-36.5 -77.5q0 -30 20 -50t52 -20q39 0 75.5 33t36.5 78q0 30 -19.5 49.5t-51.5 19.5zM373 1155q0 87 72.5 157t162.5 70q65 0 106.5 -41.5t41.5 -103.5q0 -87 -72 -157t-162 -70q-65 0 -107 41.5t-42 103.5z" />
<glyph unicode="&#xb1;" horiz-adv-x="856" d="M119 156h692l-25 -103h-692zM584 453l-45 -193h-103l45 193h-295l25 102h295l43 193h102l-43 -193h295l-24 -102h-295z" />
<glyph unicode="&#xb2;" horiz-adv-x="559" d="M258 752q14 58 43 105t64.5 77t75 55t76 47t66.5 45.5t48 57t18 75.5q0 39 -20.5 58.5t-50.5 19.5q-85 0 -136 -88l-75 31q90 123 243 123q63 0 101.5 -37.5t38.5 -99.5q0 -63 -34.5 -112t-86 -81.5t-104 -61t-96.5 -66.5t-56 -83h293l-15 -65h-393z" />
<glyph unicode="&#xb3;" horiz-adv-x="583" d="M492 1100q50 0 85 12t51.5 31.5t23.5 39t7 40.5q0 34 -21.5 50.5t-53.5 16.5q-31 0 -55 -13t-36.5 -27.5t-33.5 -45.5l-74 31q42 58 95.5 90.5t135.5 32.5q64 0 104 -40t40 -95q0 -101 -109 -156q68 -40 68 -109q0 -86 -72.5 -151.5t-171.5 -65.5q-160 0 -192 125l88 31 q4 -37 27.5 -62.5t74.5 -25.5q44 0 93.5 38t49.5 97q0 90 -139 90z" />
<glyph unicode="&#xb4;" horiz-adv-x="493" d="M375 1255zM690 1642l90 -92l-354 -295l-51 54z" />
<glyph unicode="&#xb5;" horiz-adv-x="1110" d="M946 276q-10 -44 -10 -94q0 -100 43 -100q28 0 50.5 14.5t27.5 34.5h69q-13 -63 -71 -107t-127 -44q-53 0 -93 26.5t-59 71.5q-67 -46 -149 -72t-152 -26q-142 0 -221 57l-76 -330h-164l277 1194h164l-101 -434q-22 -99 -22 -162q0 -117 52.5 -170t143.5 -53 q124 0 236 106q1 4 2 12.5t2 12.5l160 688h164z" />
<glyph unicode="&#xb6;" horiz-adv-x="995" d="M803 1331q-68 0 -128.5 -34t-100.5 -88t-63.5 -119.5t-23.5 -128.5q0 -86 44 -144.5t139 -58.5h22l133 573h-22zM1079 1331h-131l-307 -1331h-123l152 655q-96 1 -167.5 28.5t-111.5 72.5t-59 97t-19 110q0 61 21.5 125.5t67 126.5t108 110.5t151 78.5t189.5 30h377 l-332 -1434h-123z" />
<glyph unicode="&#xb7;" horiz-adv-x="288" d="M157 383zM192 532h150l-35 -149h-150z" />
<glyph unicode="&#xb8;" horiz-adv-x="471" d="M0 0zM-20 -352q54 0 91.5 4t75.5 14.5t58 34.5t20 61q0 32 -29 49.5t-98 24.5l66 164h106l-36 -111q55 -9 87.5 -37.5t32.5 -72.5q0 -46 -33 -81.5t-88.5 -56.5t-122.5 -31.5t-141 -10.5z" />
<glyph unicode="&#xb9;" horiz-adv-x="321" d="M555 1366l-141 -612h-101l123 534l-57 -6l14 66z" />
<glyph unicode="&#xba;" horiz-adv-x="620" d="M166 410h477l-14 -62h-477zM451 578q73 0 124.5 79t51.5 162q0 54 -24.5 86.5t-67.5 32.5q-73 0 -132 -75t-59 -175q0 -110 107 -110zM719 831q0 -36 -9 -75.5t-31.5 -83t-55.5 -77.5t-86 -56.5t-117 -22.5q-82 0 -126 44t-44 122q0 68 26.5 128.5t68 101t91.5 64 t96 23.5q88 0 137.5 -43t49.5 -125z" />
<glyph unicode="&#xbb;" horiz-adv-x="856" d="M131 86zM727 451l-198 327l86 39l223 -366l-391 -365l-70 39zM481 451l-198 327l86 39l223 -366l-391 -365l-70 39z" />
<glyph unicode="&#xbc;" horiz-adv-x="1081" d="M733 1366l-141 -612h-100l122 534l-57 -6l14 66zM143 264l940 783h158l-940 -783h-158zM512 174l360 432h99l-94 -409h61l-14 -66h-62l-31 -131h-100l31 131h-260zM840 473l-230 -276h166z" />
<glyph unicode="&#xbd;" horiz-adv-x="1085" d="M733 1366l-141 -612h-100l122 534l-57 -6l14 66zM143 264l940 783h158l-940 -783h-158zM610 0q14 58 43 105t64.5 77t75 55.5t76 47t66.5 45.5t48 57.5t18 75.5q0 39 -20.5 58.5t-50.5 19.5q-84 0 -135 -88l-76 30q90 123 244 123q63 0 101 -37.5t38 -99.5 q0 -63 -34.5 -112t-86 -81t-104 -60.5t-96.5 -66.5t-56 -83h293l-14 -66h-394z" />
<glyph unicode="&#xbe;" horiz-adv-x="1081" d="M492 1100q50 0 85 12t51.5 31.5t23.5 39t7 40.5q0 34 -21.5 50.5t-53.5 16.5q-31 0 -55 -13t-36.5 -27.5t-33.5 -45.5l-74 31q42 58 95.5 90.5t135.5 32.5q64 0 104 -40t40 -95q0 -101 -109 -156q68 -40 68 -109q0 -86 -72.5 -151.5t-171.5 -65.5q-160 0 -192 125l88 31 q4 -37 27.5 -62.5t74.5 -25.5q44 0 93.5 38t49.5 97q0 90 -139 90zM143 264l940 783h158l-940 -783h-158zM512 174l360 432h99l-94 -409h61l-14 -66h-62l-31 -131h-100l31 131h-260zM840 473l-230 -276h166z" />
<glyph unicode="&#xbf;" horiz-adv-x="882" d="M788 971h-163l39 164h163zM565 651l43 115h103l-19 -215h-71q-90 0 -164 -39t-120 -103t-70.5 -143t-24.5 -164q0 -112 58.5 -174.5t172.5 -62.5q72 0 119.5 29t103.5 94l111 -47q-88 -87 -179.5 -133t-209.5 -46q-163 0 -251.5 87t-88.5 241q0 116 40 217.5t107 173 t155 116.5t185 54z" />
<glyph unicode="&#xc0;" horiz-adv-x="1275" d="M1092 0zM948 1888l164 -333l-76 -54l-219 295zM1092 6zM31 0l854 1434h180l190 -1434h-163l-56 410h-598l-243 -410h-164zM928 1231l-428 -719h524z" />
<glyph unicode="&#xc1;" horiz-adv-x="1275" d="M1092 0zM1210 1888l90 -92l-354 -295l-51 54zM1092 6zM31 0l854 1434h180l190 -1434h-163l-56 410h-598l-243 -410h-164zM928 1231l-428 -719h524z" />
<glyph unicode="&#xc2;" horiz-adv-x="1275" d="M1092 0zM1288 1594l-113 -91l-141 177l-225 -177l-72 91l324 208zM1092 6zM31 0l854 1434h180l190 -1434h-163l-56 410h-598l-243 -410h-164zM928 1231l-428 -719h524z" />
<glyph unicode="&#xc3;" horiz-adv-x="1275" d="M1092 0zM1245 1698h84q-29 -80 -93.5 -131t-150.5 -51q-38 0 -88 32.5t-69 32.5q-100 0 -123 -65h-84q29 80 93 131t150 51q38 0 88.5 -33t69.5 -33q100 0 123 66zM1092 6zM31 0l854 1434h180l190 -1434h-163l-56 410h-598l-243 -410h-164zM928 1231l-428 -719h524z" />
<glyph unicode="&#xc4;" horiz-adv-x="1275" d="M1092 0zM1114 1665h150l-35 -149h-150zM786 1665h150l-35 -149h-150zM1092 6zM31 0l854 1434h180l190 -1434h-163l-56 410h-598l-243 -410h-164zM928 1231l-428 -719h524z" />
<glyph unicode="&#xc5;" horiz-adv-x="1275" d="M1081.5 1641.5q-20.5 21.5 -58 21.5t-76 -33t-38.5 -72.5t21.5 -61t59 -21.5t75 33t37.5 72.5t-20.5 61zM897 1434q-51 35 -51 106t62.5 128t125.5 57t97 -34t34 -99v-2q0 -64 -61 -120q-24 -22 -50 -36h11l190 -1434h-163l-56 410h-598l-243 -410h-164l854 1434h12z M928 1231l-428 -719h524z" />
<glyph unicode="&#xc6;" horiz-adv-x="1730" d="M904 512l189 819h-99l-487 -819h397zM881 410h-434l-244 -410h-164l853 1434h1053l-24 -103h-654l-99 -430h469l-24 -102h-469l-160 -697h687l-24 -102h-861z" />
<glyph unicode="&#xc7;" horiz-adv-x="1325" d="M487 -352q42 0 73.5 2t66 9t56 19t36 33t14.5 51q0 32 -29 49.5t-98 24.5l58 145q-86 6 -166 41t-147.5 97.5t-108.5 164t-41 226.5q0 102 27 212t76 215t122.5 199t160.5 164.5t195.5 112t223.5 41.5q362 0 483 -209l-168 -67q-82 174 -309 174q-120 0 -226.5 -58 t-179 -149t-126 -202.5t-78.5 -220t-25 -200.5q0 -89 23 -164t61 -125t87 -85t100 -50.5t102 -15.5q240 0 399 182l108 -55q-92 -91 -218 -151.5t-266 -74.5l-32 -94q55 -9 88 -37.5t33 -72.5q0 -46 -33 -81.5t-88.5 -56.5t-122.5 -31.5t-141 -10.5z" />
<glyph unicode="&#xc8;" horiz-adv-x="962" d="M82 0zM827 1888l164 -333l-76 -54l-219 295zM942 0h-860l332 1434h827l-24 -103h-654l-98 -430h469l-25 -102h-469l-159 -697h686z" />
<glyph unicode="&#xc9;" horiz-adv-x="962" d="M82 0zM1090 1888l90 -92l-354 -295l-51 54zM942 0h-860l332 1434h827l-24 -103h-654l-98 -430h469l-25 -102h-469l-159 -697h686z" />
<glyph unicode="&#xca;" horiz-adv-x="962" d="M82 0zM1168 1594l-113 -91l-141 177l-225 -177l-72 91l324 208zM942 0h-860l332 1434h827l-24 -103h-654l-98 -430h469l-25 -102h-469l-159 -697h686z" />
<glyph unicode="&#xcb;" horiz-adv-x="962" d="M82 0zM1143 1516zM993 1665h150l-35 -149h-150zM665 1665h150l-35 -149h-150zM942 0h-860l332 1434h827l-24 -103h-654l-98 -430h469l-25 -102h-469l-159 -697h686z" />
<glyph unicode="&#xcc;" horiz-adv-x="436" d="M92 0zM487 1888l164 -333l-76 -54l-219 295zM598 1434l-332 -1434h-174l332 1434h174z" />
<glyph unicode="&#xcd;" horiz-adv-x="436" d="M92 0zM750 1888l90 -92l-354 -295l-51 54zM598 1434l-332 -1434h-174l332 1434h174z" />
<glyph unicode="&#xce;" horiz-adv-x="436" d="M92 0zM828 1594l-113 -91l-141 177l-225 -177l-72 91l324 208zM598 1434l-332 -1434h-174l332 1434h174z" />
<glyph unicode="&#xcf;" horiz-adv-x="436" d="M92 0zM803 1516zM653 1665h150l-35 -149h-150zM325 1665h150l-35 -149h-150zM598 1434l-332 -1434h-174l332 1434h174z" />
<glyph unicode="&#xd0;" horiz-adv-x="1216" d="M1329 1020q0 -58 -9.5 -134.5t-34 -175.5t-61 -195.5t-96 -190.5t-133.5 -165t-179.5 -115t-227.5 -44h-496l162 700h-76l25 103h76l145 631h496q409 0 409 -414zM453 803h368l-24 -103h-369l-137 -598h352q85 0 161.5 51t130.5 134t98 183.5t70.5 205.5t40 194t13.5 154 q0 161 -63 234t-168 73h-353z" />
<glyph unicode="&#xd1;" horiz-adv-x="1325" d="M92 0zM1237 1698h84q-29 -80 -93.5 -131t-150.5 -51q-38 0 -88 32.5t-69 32.5q-100 0 -123 -65h-84q29 80 93 131t150 51q38 0 88.5 -33t69.5 -33q100 0 123 66zM977 0l-449 1137l-262 -1137h-174l332 1434h174h2l449 -1139l264 1139h174l-332 -1434h-178z" />
<glyph unicode="&#xd2;" d="M199 0zM971 1888l164 -333l-76 -54l-219 295zM659 -20q-88 0 -168.5 31t-147 91t-105.5 160t-39 227q0 135 37.5 274t109 262t165.5 219.5t216.5 153t253.5 56.5q107 0 198 -31t161.5 -91t110.5 -158.5t40 -225.5q0 -85 -16 -176t-50 -186t-82.5 -182.5t-118 -165 t-152 -135t-189 -90.5t-224.5 -33zM969 1352q-109 0 -218.5 -75.5t-191 -194.5t-133 -272.5t-51.5 -301.5q0 -107 30.5 -192t79 -134t102.5 -74.5t107 -25.5q112 0 224.5 71.5t199.5 187.5t142 274.5t55 322.5q0 105 -29 186.5t-78.5 130t-110 73t-128.5 24.5z" />
<glyph unicode="&#xd3;" d="M199 0zM1233 1888l90 -92l-354 -295l-51 54zM659 -20q-88 0 -168.5 31t-147 91t-105.5 160t-39 227q0 135 37.5 274t109 262t165.5 219.5t216.5 153t253.5 56.5q107 0 198 -31t161.5 -91t110.5 -158.5t40 -225.5q0 -85 -16 -176t-50 -186t-82.5 -182.5t-118 -165 t-152 -135t-189 -90.5t-224.5 -33zM969 1352q-109 0 -218.5 -75.5t-191 -194.5t-133 -272.5t-51.5 -301.5q0 -107 30.5 -192t79 -134t102.5 -74.5t107 -25.5q112 0 224.5 71.5t199.5 187.5t142 274.5t55 322.5q0 105 -29 186.5t-78.5 130t-110 73t-128.5 24.5z" />
<glyph unicode="&#xd4;" d="M199 0zM1311 1594l-113 -91l-141 177l-225 -177l-72 91l324 208zM659 -20q-88 0 -168.5 31t-147 91t-105.5 160t-39 227q0 135 37.5 274t109 262t165.5 219.5t216.5 153t253.5 56.5q107 0 198 -31t161.5 -91t110.5 -158.5t40 -225.5q0 -85 -16 -176t-50 -186 t-82.5 -182.5t-118 -165t-152 -135t-189 -90.5t-224.5 -33zM969 1352q-109 0 -218.5 -75.5t-191 -194.5t-133 -272.5t-51.5 -301.5q0 -107 30.5 -192t79 -134t102.5 -74.5t107 -25.5q112 0 224.5 71.5t199.5 187.5t142 274.5t55 322.5q0 105 -29 186.5t-78.5 130t-110 73 t-128.5 24.5z" />
<glyph unicode="&#xd5;" d="M199 0zM1268 1698h84q-29 -80 -93.5 -131t-150.5 -51q-38 0 -88 32.5t-69 32.5q-100 0 -123 -65h-84q29 80 93 131t150 51q38 0 88.5 -33t69.5 -33q100 0 123 66zM659 -20q-88 0 -168.5 31t-147 91t-105.5 160t-39 227q0 135 37.5 274t109 262t165.5 219.5t216.5 153 t253.5 56.5q107 0 198 -31t161.5 -91t110.5 -158.5t40 -225.5q0 -85 -16 -176t-50 -186t-82.5 -182.5t-118 -165t-152 -135t-189 -90.5t-224.5 -33zM969 1352q-109 0 -218.5 -75.5t-191 -194.5t-133 -272.5t-51.5 -301.5q0 -107 30.5 -192t79 -134t102.5 -74.5t107 -25.5 q112 0 224.5 71.5t199.5 187.5t142 274.5t55 322.5q0 105 -29 186.5t-78.5 130t-110 73t-128.5 24.5z" />
<glyph unicode="&#xd6;" d="M199 0zM1287 1516zM1137 1665h150l-35 -149h-150zM809 1665h150l-35 -149h-150zM659 -20q-88 0 -168.5 31t-147 91t-105.5 160t-39 227q0 135 37.5 274t109 262t165.5 219.5t216.5 153t253.5 56.5q107 0 198 -31t161.5 -91t110.5 -158.5t40 -225.5q0 -85 -16 -176 t-50 -186t-82.5 -182.5t-118 -165t-152 -135t-189 -90.5t-224.5 -33zM969 1352q-109 0 -218.5 -75.5t-191 -194.5t-133 -272.5t-51.5 -301.5q0 -107 30.5 -192t79 -134t102.5 -74.5t107 -25.5q112 0 224.5 71.5t199.5 187.5t142 274.5t55 322.5q0 105 -29 186.5t-78.5 130 t-110 73t-128.5 24.5z" />
<glyph unicode="&#xd7;" horiz-adv-x="856" d="M616 510l162 -209l-88 -72l-162 209l-256 -209l-55 72l256 209l-160 209l88 72l162 -209l256 209l55 -72z" />
<glyph unicode="&#xd8;" d="M969 1352q-109 0 -218.5 -75.5t-191 -194.5t-133 -272.5t-51.5 -301.5q0 -180 88 -301l694 1089q-86 56 -188 56zM1231 1227l-692 -1092q73 -53 155 -53q112 0 224.5 71.5t199.5 187.5t142 274.5t55 322.5q0 177 -84 289zM1225 1405l18 29h121l-51 -80q178 -134 178 -406 q0 -85 -16 -176t-50 -186t-82.5 -182.5t-118 -165t-152 -135t-189 -90.5t-224.5 -33q-110 0 -194 40l-12 -20h-121l45 72q-178 140 -178 417q0 135 37.5 274t109 262t165.5 219.5t216.5 153t253.5 56.5q137 0 244 -49z" />
<glyph unicode="&#xd9;" horiz-adv-x="1306" d="M176 0zM932 1888l164 -333l-76 -54l-219 295zM1311 1434h174l-191 -824q-35 -149 -90.5 -261.5t-120.5 -181.5t-147.5 -112t-163 -59t-174.5 -16q-60 0 -115 11t-112.5 40t-99.5 74.5t-68.5 120.5t-26.5 171q0 93 27 213l190 824h174l-190 -824q-27 -123 -27 -209 q0 -76 19 -135t47.5 -93t67.5 -55t75 -28.5t74 -7.5q51 0 101 13t108.5 49.5t108 93.5t95 152.5t74.5 219.5z" />
<glyph unicode="&#xda;" horiz-adv-x="1306" d="M176 0zM1194 1888l90 -92l-354 -295l-51 54zM1311 1434h174l-191 -824q-35 -149 -90.5 -261.5t-120.5 -181.5t-147.5 -112t-163 -59t-174.5 -16q-60 0 -115 11t-112.5 40t-99.5 74.5t-68.5 120.5t-26.5 171q0 93 27 213l190 824h174l-190 -824q-27 -123 -27 -209 q0 -76 19 -135t47.5 -93t67.5 -55t75 -28.5t74 -7.5q51 0 101 13t108.5 49.5t108 93.5t95 152.5t74.5 219.5z" />
<glyph unicode="&#xdb;" horiz-adv-x="1306" d="M176 0zM1272 1594l-113 -91l-141 177l-225 -177l-72 91l324 208zM1311 1434h174l-191 -824q-35 -149 -90.5 -261.5t-120.5 -181.5t-147.5 -112t-163 -59t-174.5 -16q-60 0 -115 11t-112.5 40t-99.5 74.5t-68.5 120.5t-26.5 171q0 93 27 213l190 824h174l-190 -824 q-27 -123 -27 -209q0 -76 19 -135t47.5 -93t67.5 -55t75 -28.5t74 -7.5q51 0 101 13t108.5 49.5t108 93.5t95 152.5t74.5 219.5z" />
<glyph unicode="&#xdc;" horiz-adv-x="1306" d="M176 0zM1248 1516zM1098 1665h150l-35 -149h-150zM770 1665h150l-35 -149h-150zM1311 1434h174l-191 -824q-35 -149 -90.5 -261.5t-120.5 -181.5t-147.5 -112t-163 -59t-174.5 -16q-60 0 -115 11t-112.5 40t-99.5 74.5t-68.5 120.5t-26.5 171q0 93 27 213l190 824h174 l-190 -824q-27 -123 -27 -209q0 -76 19 -135t47.5 -93t67.5 -55t75 -28.5t74 -7.5q51 0 101 13t108.5 49.5t108 93.5t95 152.5t74.5 219.5z" />
<glyph unicode="&#xdd;" horiz-adv-x="1075" d="M414 0zM1104 1888l90 -92l-354 -295l-51 54zM745 899l398 535h184l-539 -725l-163 -709h-174l163 711l-200 723h184z" />
<glyph unicode="&#xde;" horiz-adv-x="970" d="M1133 801q0 -53 -16.5 -108t-47 -107.5t-78.5 -99.5t-106.5 -82t-135.5 -55.5t-161 -20.5h-246l-76 -328h-174l332 1434h174l-76 -328h246q98 0 171.5 -26.5t114.5 -71.5t60 -97t19 -110zM498 1004l-131 -574h274q90 0 165 58.5t113.5 142.5t38.5 168q0 87 -44.5 146 t-139.5 59h-276z" />
<glyph unicode="&#xdf;" horiz-adv-x="903" d="M332 -152q7 2 19 5.5t47 17t66.5 29.5t70.5 42t67 54.5t47 68t19 82.5q0 46 -19.5 97t-48 91t-56.5 73.5t-48 51.5l-19 19l279 320h-316l-194 -842q-23 -97 -100.5 -165t-165.5 -68q-60 0 -97 33.5t-37 84.5q0 13 4 33h70v-8q0 -18 14.5 -29.5t38.5 -11.5q31 0 67.5 57.5 t55.5 136.5l195 844q26 114 45 181t48 131.5t60.5 96.5t83 57.5t115 33.5t156.5 8q53 0 104 -14.5t82.5 -30.5t83.5 -47l-127 -106q-65 53 -106.5 74.5t-92.5 21.5q-59 0 -97.5 -10t-63.5 -28.5t-42.5 -57t-29 -81.5t-28.5 -116q-11 -49 -17 -76h520l-344 -397 q193 -193 193 -350q0 -45 -20 -88t-52.5 -77.5t-74.5 -66t-85 -54.5t-86 -42.5t-75.5 -31.5t-54.5 -20l-21 -7z" />
<glyph unicode="&#xe0;" horiz-adv-x="1058" d="M154 0zM705 1458l164 -333l-76 -54l-219 295zM154 309q0 111 49 224.5t124 198t170.5 137.5t184.5 53q79 0 148 -14t106 -29t88 -41l-129 -562q-12 -53 -12 -98q0 -43 11.5 -69.5t31.5 -26.5q28 0 50.5 14.5t27.5 34.5h71q-13 -63 -72.5 -107t-128.5 -44q-84 0 -131 63 q-151 -63 -303 -63q-132 0 -209 92.5t-77 236.5zM852 797q-61 22 -164 22q-72 0 -132 -30t-99.5 -80t-69.5 -108.5t-45.5 -121t-23 -111t-7.5 -85.5q0 -108 51 -154.5t132 -46.5q110 0 217 49v25q0 27 6 57z" />
<glyph unicode="&#xe1;" horiz-adv-x="1058" d="M154 0zM967 1458l90 -92l-354 -295l-51 54zM154 309q0 111 49 224.5t124 198t170.5 137.5t184.5 53q79 0 148 -14t106 -29t88 -41l-129 -562q-12 -53 -12 -98q0 -43 11.5 -69.5t31.5 -26.5q28 0 50.5 14.5t27.5 34.5h71q-13 -63 -72.5 -107t-128.5 -44q-84 0 -131 63 q-151 -63 -303 -63q-132 0 -209 92.5t-77 236.5zM852 797q-61 22 -164 22q-72 0 -132 -30t-99.5 -80t-69.5 -108.5t-45.5 -121t-23 -111t-7.5 -85.5q0 -108 51 -154.5t132 -46.5q110 0 217 49v25q0 27 6 57z" />
<glyph unicode="&#xe2;" horiz-adv-x="1058" d="M154 0zM1045 1164l-113 -91l-141 177l-225 -177l-72 91l324 208zM154 309q0 111 49 224.5t124 198t170.5 137.5t184.5 53q79 0 148 -14t106 -29t88 -41l-129 -562q-12 -53 -12 -98q0 -43 11.5 -69.5t31.5 -26.5q28 0 50.5 14.5t27.5 34.5h71q-13 -63 -72.5 -107 t-128.5 -44q-84 0 -131 63q-151 -63 -303 -63q-132 0 -209 92.5t-77 236.5zM852 797q-61 22 -164 22q-72 0 -132 -30t-99.5 -80t-69.5 -108.5t-45.5 -121t-23 -111t-7.5 -85.5q0 -108 51 -154.5t132 -46.5q110 0 217 49v25q0 27 6 57z" />
<glyph unicode="&#xe3;" horiz-adv-x="1058" d="M154 0zM1001 1268h84q-29 -80 -93.5 -131t-150.5 -51q-38 0 -88 32.5t-69 32.5q-100 0 -123 -65h-84q29 80 93 131t150 51q38 0 88.5 -33t69.5 -33q100 0 123 66zM154 309q0 111 49 224.5t124 198t170.5 137.5t184.5 53q79 0 148 -14t106 -29t88 -41l-129 -562 q-12 -53 -12 -98q0 -43 11.5 -69.5t31.5 -26.5q28 0 50.5 14.5t27.5 34.5h71q-13 -63 -72.5 -107t-128.5 -44q-84 0 -131 63q-151 -63 -303 -63q-132 0 -209 92.5t-77 236.5zM852 797q-61 22 -164 22q-72 0 -132 -30t-99.5 -80t-69.5 -108.5t-45.5 -121t-23 -111t-7.5 -85.5 q0 -108 51 -154.5t132 -46.5q110 0 217 49v25q0 27 6 57z" />
<glyph unicode="&#xe4;" horiz-adv-x="1058" d="M154 0zM1020 1086zM870 1235h150l-35 -149h-150zM542 1235h150l-35 -149h-150zM154 309q0 111 49 224.5t124 198t170.5 137.5t184.5 53q79 0 148 -14t106 -29t88 -41l-129 -562q-12 -53 -12 -98q0 -43 11.5 -69.5t31.5 -26.5q28 0 50.5 14.5t27.5 34.5h71 q-13 -63 -72.5 -107t-128.5 -44q-84 0 -131 63q-151 -63 -303 -63q-132 0 -209 92.5t-77 236.5zM852 797q-61 22 -164 22q-72 0 -132 -30t-99.5 -80t-69.5 -108.5t-45.5 -121t-23 -111t-7.5 -85.5q0 -108 51 -154.5t132 -46.5q110 0 217 49v25q0 27 6 57z" />
<glyph unicode="&#xe5;" horiz-adv-x="1058" d="M154 0zM154 309q0 111 49 224.5t124 198t170.5 137.5t184.5 53q79 0 148 -14t106 -29t88 -41l-129 -562q-12 -53 -12 -98q0 -43 11.5 -69.5t31.5 -26.5q28 0 50.5 14.5t27.5 34.5h71q-13 -63 -72.5 -107t-128.5 -44q-84 0 -131 63q-151 -63 -303 -63q-132 0 -209 92.5 t-77 236.5zM852 797q-61 22 -164 22q-72 0 -132 -30t-99.5 -80t-69.5 -108.5t-45.5 -121t-23 -111t-7.5 -85.5q0 -108 51 -154.5t132 -46.5q110 0 217 49v25q0 27 6 57zM784 1233q-42 0 -80.5 -33t-38.5 -81q0 -31 21.5 -52.5t54.5 -21.5q42 0 79.5 33t37.5 81 q0 31 -20.5 52.5t-53.5 21.5zM602 1104q0 77 62.5 134t133.5 57q55 0 89 -34t34 -87q0 -77 -61.5 -134t-132.5 -57q-55 0 -90 34t-35 87z" />
<glyph unicode="&#xe6;" horiz-adv-x="1570" d="M127 211q0 85 31 159.5t88.5 131t145.5 89t196 32.5q101 0 217 -17q8 41 8 82q0 71 -41 101t-141 30q-116 0 -275 -96l-75 106q201 93 344 93q164 0 242 -31.5t98 -114.5q76 69 164.5 107.5t173.5 38.5q84 0 150 -28.5t105.5 -78t59.5 -111.5t20 -133q0 -48 -14 -120 h-688q-12 -56 -12 -111q0 -120 68 -189t188 -69q147 0 254 123l112 -47q-84 -82 -191.5 -130t-228.5 -48q-190 0 -286 110q-89 -52 -197 -81t-203 -29q-313 0 -313 231zM782 498q-90 22 -186 22q-129 0 -214 -77t-85 -185q0 -80 57 -128t140 -48q146 0 294 90 q-30 68 -30 154q0 74 18 145zM971 553h506q2 14 2 41q0 103 -42.5 164t-127.5 61q-104 0 -195.5 -74.5t-142.5 -191.5z" />
<glyph unicode="&#xe7;" horiz-adv-x="944" d="M303 -352q42 0 73.5 2t66 9t56 19t36 33t14.5 51q0 32 -29 49.5t-98 24.5l58 145q-152 11 -241 102.5t-89 240.5q0 119 49.5 231t128 191.5t176.5 127.5t192 48q134 0 216 -67.5t108 -178.5l-148 -68q-3 97 -45.5 154t-124.5 57q-101 0 -191.5 -71.5t-143 -182 t-52.5 -225.5q0 -120 69 -189t189 -69q147 0 254 123l113 -47q-153 -150 -352 -174l-31 -95q55 -9 88 -37.5t33 -72.5q0 -46 -33 -81.5t-88.5 -56.5t-122.5 -31.5t-141 -10.5z" />
<glyph unicode="&#xe8;" horiz-adv-x="964" d="M150 0zM706 1458l164 -333l-76 -54l-219 295zM1032 571q0 -120 -188 -120h-516q-13 -60 -13 -111q0 -120 69 -189t189 -69q147 0 254 123l113 -47q-84 -82 -191.5 -130t-228.5 -48q-169 0 -269.5 92.5t-100.5 251.5q0 119 49.5 231t128 191.5t176.5 127.5t192 48 q84 0 150 -28.5t106 -78t60 -111.5t20 -133zM362 553h424q45 0 65.5 9.5t20.5 33.5q0 103 -42.5 163t-127.5 60q-104 0 -195.5 -74.5t-144.5 -191.5z" />
<glyph unicode="&#xe9;" horiz-adv-x="964" d="M150 0zM969 1458l90 -92l-354 -295l-51 54zM1032 571q0 -120 -188 -120h-516q-13 -60 -13 -111q0 -120 69 -189t189 -69q147 0 254 123l113 -47q-84 -82 -191.5 -130t-228.5 -48q-169 0 -269.5 92.5t-100.5 251.5q0 119 49.5 231t128 191.5t176.5 127.5t192 48 q84 0 150 -28.5t106 -78t60 -111.5t20 -133zM362 553h424q45 0 65.5 9.5t20.5 33.5q0 103 -42.5 163t-127.5 60q-104 0 -195.5 -74.5t-144.5 -191.5z" />
<glyph unicode="&#xea;" horiz-adv-x="964" d="M150 0zM1047 1164l-113 -91l-141 177l-225 -177l-72 91l324 208zM1032 571q0 -120 -188 -120h-516q-13 -60 -13 -111q0 -120 69 -189t189 -69q147 0 254 123l113 -47q-84 -82 -191.5 -130t-228.5 -48q-169 0 -269.5 92.5t-100.5 251.5q0 119 49.5 231t128 191.5 t176.5 127.5t192 48q84 0 150 -28.5t106 -78t60 -111.5t20 -133zM362 553h424q45 0 65.5 9.5t20.5 33.5q0 103 -42.5 163t-127.5 60q-104 0 -195.5 -74.5t-144.5 -191.5z" />
<glyph unicode="&#xeb;" horiz-adv-x="964" d="M150 0zM1023 1086zM873 1235h150l-35 -149h-150zM545 1235h150l-35 -149h-150zM1032 571q0 -120 -188 -120h-516q-13 -60 -13 -111q0 -120 69 -189t189 -69q147 0 254 123l113 -47q-84 -82 -191.5 -130t-228.5 -48q-169 0 -269.5 92.5t-100.5 251.5q0 119 49.5 231 t128 191.5t176.5 127.5t192 48q84 0 150 -28.5t106 -78t60 -111.5t20 -133zM362 553h424q45 0 65.5 9.5t20.5 33.5q0 103 -42.5 163t-127.5 60q-104 0 -195.5 -74.5t-144.5 -191.5z" />
<glyph unicode="&#xec;" horiz-adv-x="483" d="M135 0zM381 1458l164 -333l-76 -54l-219 295zM319 276q-10 -44 -10 -94q0 -100 43 -100q28 0 50.5 14.5t27.5 34.5h70q-13 -63 -71.5 -107t-127.5 -44q-73 0 -119.5 49.5t-46.5 126.5q0 27 6 57l160 688h164z" />
<glyph unicode="&#xed;" horiz-adv-x="483" d="M135 0zM643 1458l90 -92l-354 -295l-51 54zM319 276q-10 -44 -10 -94q0 -100 43 -100q28 0 50.5 14.5t27.5 34.5h70q-13 -63 -71.5 -107t-127.5 -44q-73 0 -119.5 49.5t-46.5 126.5q0 27 6 57l160 688h164z" />
<glyph unicode="&#xee;" horiz-adv-x="483" d="M135 0zM721 1164l-113 -91l-141 177l-225 -177l-72 91l324 208zM319 276q-10 -44 -10 -94q0 -100 43 -100q28 0 50.5 14.5t27.5 34.5h70q-13 -63 -71.5 -107t-127.5 -44q-73 0 -119.5 49.5t-46.5 126.5q0 27 6 57l160 688h164z" />
<glyph unicode="&#xef;" horiz-adv-x="483" d="M135 0zM697 1086zM547 1235h150l-35 -149h-150zM219 1235h150l-35 -149h-150zM319 276q-10 -44 -10 -94q0 -100 43 -100q28 0 50.5 14.5t27.5 34.5h70q-13 -63 -71.5 -107t-127.5 -44q-73 0 -119.5 49.5t-46.5 126.5q0 27 6 57l160 688h164z" />
<glyph unicode="&#xf0;" horiz-adv-x="1007" d="M172 330q0 70 21 148.5t65.5 158t106 142.5t151.5 103t193 40t180 -39q-33 142 -119 250l-127 -89l-35 56l119 84q-37 40 -115 102l125 94q64 -60 107 -114l121 86l34 -58l-116 -82q182 -249 182 -540q0 -317 -160.5 -504.5t-412.5 -187.5q-145 0 -232.5 99t-87.5 251z M897 635q0 99 -43 141.5t-139 42.5q-95 0 -183.5 -72t-141 -181t-52.5 -218q0 -112 54 -189t153 -77q64 0 117.5 24.5t88.5 63.5t62.5 91.5t43 104t25 106.5t12.5 93.5t3 69.5z" />
<glyph unicode="&#xf1;" horiz-adv-x="1075" d="M150 0zM1034 1268h84q-29 -80 -93.5 -131t-150.5 -51q-38 0 -88 32.5t-69 32.5q-100 0 -123 -65h-84q29 80 93 131t150 51q38 0 88.5 -33t69.5 -33q100 0 123 66zM328 625q12 53 12 94q0 45 -12 72.5t-33 27.5q-28 0 -49.5 -14.5t-26.5 -34.5h-69q14 63 71.5 107.5 t126.5 44.5q94 0 141 -80q138 80 281 80q348 0 348 -281q0 -57 -20 -149l-113 -492h-164l109 467q24 108 24 176q0 98 -45.5 137t-132.5 39q-128 0 -264 -98q-1 -5 -2 -16t-2 -17l-160 -688h-164z" />
<glyph unicode="&#xf2;" horiz-adv-x="1013" d="M147 0zM711 1458l164 -333l-76 -54l-219 295zM532 82q76 0 145.5 45.5t116.5 117t75 159t28 171.5q0 113 -51.5 178.5t-143.5 65.5q-100 0 -191 -71t-145.5 -189t-54.5 -248q0 -110 55.5 -169.5t165.5 -59.5zM1065 594q0 -48 -9 -101.5t-30 -114t-51.5 -116.5t-78.5 -108 t-106.5 -90t-138.5 -61t-172 -23q-161 0 -246.5 84.5t-85.5 236.5q0 129 50.5 246.5t129.5 198t177 128.5t192 48q171 0 270 -84t99 -244z" />
<glyph unicode="&#xf3;" horiz-adv-x="1013" d="M147 0zM973 1458l90 -92l-354 -295l-51 54zM532 82q76 0 145.5 45.5t116.5 117t75 159t28 171.5q0 113 -51.5 178.5t-143.5 65.5q-100 0 -191 -71t-145.5 -189t-54.5 -248q0 -110 55.5 -169.5t165.5 -59.5zM1065 594q0 -48 -9 -101.5t-30 -114t-51.5 -116.5t-78.5 -108 t-106.5 -90t-138.5 -61t-172 -23q-161 0 -246.5 84.5t-85.5 236.5q0 129 50.5 246.5t129.5 198t177 128.5t192 48q171 0 270 -84t99 -244z" />
<glyph unicode="&#xf4;" horiz-adv-x="1013" d="M147 0zM1051 1164l-113 -91l-141 177l-225 -177l-72 91l324 208zM532 82q76 0 145.5 45.5t116.5 117t75 159t28 171.5q0 113 -51.5 178.5t-143.5 65.5q-100 0 -191 -71t-145.5 -189t-54.5 -248q0 -110 55.5 -169.5t165.5 -59.5zM1065 594q0 -48 -9 -101.5t-30 -114 t-51.5 -116.5t-78.5 -108t-106.5 -90t-138.5 -61t-172 -23q-161 0 -246.5 84.5t-85.5 236.5q0 129 50.5 246.5t129.5 198t177 128.5t192 48q171 0 270 -84t99 -244z" />
<glyph unicode="&#xf5;" horiz-adv-x="1013" d="M147 0zM1008 1268h84q-29 -80 -93.5 -131t-150.5 -51q-38 0 -88 32.5t-69 32.5q-100 0 -123 -65h-84q29 80 93 131t150 51q38 0 88.5 -33t69.5 -33q100 0 123 66zM532 82q76 0 145.5 45.5t116.5 117t75 159t28 171.5q0 113 -51.5 178.5t-143.5 65.5q-100 0 -191 -71 t-145.5 -189t-54.5 -248q0 -110 55.5 -169.5t165.5 -59.5zM1065 594q0 -48 -9 -101.5t-30 -114t-51.5 -116.5t-78.5 -108t-106.5 -90t-138.5 -61t-172 -23q-161 0 -246.5 84.5t-85.5 236.5q0 129 50.5 246.5t129.5 198t177 128.5t192 48q171 0 270 -84t99 -244z" />
<glyph unicode="&#xf6;" horiz-adv-x="1013" d="M147 0zM1027 1086zM877 1235h150l-35 -149h-150zM549 1235h150l-35 -149h-150zM532 82q76 0 145.5 45.5t116.5 117t75 159t28 171.5q0 113 -51.5 178.5t-143.5 65.5q-100 0 -191 -71t-145.5 -189t-54.5 -248q0 -110 55.5 -169.5t165.5 -59.5zM1065 594q0 -48 -9 -101.5 t-30 -114t-51.5 -116.5t-78.5 -108t-106.5 -90t-138.5 -61t-172 -23q-161 0 -246.5 84.5t-85.5 236.5q0 129 50.5 246.5t129.5 198t177 128.5t192 48q171 0 270 -84t99 -244z" />
<glyph unicode="&#xf7;" horiz-adv-x="710" d="M336 266h149l-34 -149h-150zM432 682h150l-35 -150h-150zM186 451h547l-24 -103h-547z" />
<glyph unicode="&#xf8;" horiz-adv-x="1013" d="M1065 594q0 -48 -9 -101.5t-30 -114t-51.5 -116.5t-78.5 -108t-106.5 -90t-138.5 -61t-172 -23q-48 0 -100 10l-60 -92h-120l82 129q-134 81 -134 274q0 129 50.5 246.5t129.5 198t177 128.5t192 48q74 0 142 -19l63 101h121l-90 -142q133 -84 133 -268zM532 82 q76 0 145.5 45.5t116.5 117t75 159t28 171.5q0 99 -43 164l-410 -645q38 -12 88 -12zM358 150l418 655q-40 14 -74 14q-100 0 -191 -71t-145.5 -189t-54.5 -248q0 -105 47 -161z" />
<glyph unicode="&#xf9;" horiz-adv-x="1110" d="M154 0zM692 1458l164 -333l-76 -54l-219 295zM946 276q-10 -44 -10 -94q0 -100 43 -100q28 0 50.5 14.5t27.5 34.5h69q-13 -63 -71 -107t-127 -44q-96 0 -144 81q-70 -38 -153 -59.5t-156 -21.5q-166 0 -243.5 63.5t-77.5 196.5q0 71 22 170l115 491h164l-109 -467 q-20 -84 -20 -153q0 -110 53.5 -154.5t148.5 -44.5q118 0 234 92q0 3 6 39l160 688h164z" />
<glyph unicode="&#xfa;" horiz-adv-x="1110" d="M154 0zM954 1458l90 -92l-354 -295l-51 54zM946 276q-10 -44 -10 -94q0 -100 43 -100q28 0 50.5 14.5t27.5 34.5h69q-13 -63 -71 -107t-127 -44q-96 0 -144 81q-70 -38 -153 -59.5t-156 -21.5q-166 0 -243.5 63.5t-77.5 196.5q0 71 22 170l115 491h164l-109 -467 q-20 -84 -20 -153q0 -110 53.5 -154.5t148.5 -44.5q118 0 234 92q0 3 6 39l160 688h164z" />
<glyph unicode="&#xfb;" horiz-adv-x="1110" d="M154 0zM1032 1164l-113 -91l-141 177l-225 -177l-72 91l324 208zM946 276q-10 -44 -10 -94q0 -100 43 -100q28 0 50.5 14.5t27.5 34.5h69q-13 -63 -71 -107t-127 -44q-96 0 -144 81q-70 -38 -153 -59.5t-156 -21.5q-166 0 -243.5 63.5t-77.5 196.5q0 71 22 170l115 491 h164l-109 -467q-20 -84 -20 -153q0 -110 53.5 -154.5t148.5 -44.5q118 0 234 92q0 3 6 39l160 688h164z" />
<glyph unicode="&#xfc;" horiz-adv-x="1110" d="M154 0zM1008 1086zM858 1235h150l-35 -149h-150zM530 1235h150l-35 -149h-150zM946 276q-10 -44 -10 -94q0 -100 43 -100q28 0 50.5 14.5t27.5 34.5h69q-13 -63 -71 -107t-127 -44q-96 0 -144 81q-70 -38 -153 -59.5t-156 -21.5q-166 0 -243.5 63.5t-77.5 196.5 q0 71 22 170l115 491h164l-109 -467q-20 -84 -20 -153q0 -110 53.5 -154.5t148.5 -44.5q118 0 234 92q0 3 6 39l160 688h164z" />
<glyph unicode="&#xfd;" horiz-adv-x="931" d="M0 0zM944 1458l90 -92l-354 -295l-51 54zM137 -348q-55 0 -94 33t-86 102l145 66q31 -64 49 -81.5t39 -17.5q19 0 35.5 9.5t40 41t35.5 50.5t47 77q9 15 14 23l27 45l-119 901h150l92 -696l414 696h164l-568 -950q-88 -148 -180 -223.5t-205 -75.5z" />
<glyph unicode="&#xfe;" horiz-adv-x="1087" d="M311 0l-94 -410h-164l406 1762h164l-111 -486q109 60 268 60q172 0 268.5 -62.5t96.5 -193.5q0 -138 -67 -261t-180.5 -210.5t-266 -140.5t-320.5 -58zM336 102q157 2 304 72.5t243 198.5t96 280q0 86 -49.5 128t-141.5 42q-155 0 -239.5 -80.5t-120.5 -234.5z" />
<glyph unicode="&#xff;" horiz-adv-x="931" d="M0 0zM998 1086zM848 1235h150l-35 -149h-150zM520 1235h150l-35 -149h-150zM137 -348q-55 0 -94 33t-86 102l145 66q31 -64 49 -81.5t39 -17.5q19 0 35.5 9.5t40 41t35.5 50.5t47 77q9 15 14 23l27 45l-119 901h150l92 -696l414 696h164l-568 -950q-88 -148 -180 -223.5 t-205 -75.5z" />
<glyph unicode="&#x100;" horiz-adv-x="1275" d="M1092 0zM766 1598h471l-19 -82h-471zM1092 6zM31 0l854 1434h180l190 -1434h-163l-56 410h-598l-243 -410h-164zM928 1231l-428 -719h524z" />
<glyph unicode="&#x101;" horiz-adv-x="1058" d="M154 0zM522 1168h471l-19 -82h-471zM154 309q0 111 49 224.5t124 198t170.5 137.5t184.5 53q79 0 148 -14t106 -29t88 -41l-129 -562q-12 -53 -12 -98q0 -43 11.5 -69.5t31.5 -26.5q28 0 50.5 14.5t27.5 34.5h71q-13 -63 -72.5 -107t-128.5 -44q-84 0 -131 63 q-151 -63 -303 -63q-132 0 -209 92.5t-77 236.5zM852 797q-61 22 -164 22q-72 0 -132 -30t-99.5 -80t-69.5 -108.5t-45.5 -121t-23 -111t-7.5 -85.5q0 -108 51 -154.5t132 -46.5q110 0 217 49v25q0 27 6 57z" />
<glyph unicode="&#x102;" horiz-adv-x="1275" d="M1092 0zM1020 1632q56 0 110 30t66 65l74 -21q-28 -78 -108.5 -134t-168.5 -56q-82 0 -135 50t-53 122q0 3 1 9t1 9l82 21v-4q0 -34 38.5 -62.5t92.5 -28.5zM1092 6zM31 0l854 1434h180l190 -1434h-163l-56 410h-598l-243 -410h-164zM928 1231l-428 -719h524z" />
<glyph unicode="&#x103;" horiz-adv-x="1058" d="M154 0zM776 1202q56 0 110 30t66 65l74 -21q-28 -78 -108.5 -134t-168.5 -56q-82 0 -135 50t-53 122q0 3 1 9t1 9l82 21v-4q0 -34 38.5 -62.5t92.5 -28.5zM154 309q0 111 49 224.5t124 198t170.5 137.5t184.5 53q79 0 148 -14t106 -29t88 -41l-129 -562q-12 -53 -12 -98 q0 -43 11.5 -69.5t31.5 -26.5q28 0 50.5 14.5t27.5 34.5h71q-13 -63 -72.5 -107t-128.5 -44q-84 0 -131 63q-151 -63 -303 -63q-132 0 -209 92.5t-77 236.5zM852 797q-61 22 -164 22q-72 0 -132 -30t-99.5 -80t-69.5 -108.5t-45.5 -121t-23 -111t-7.5 -85.5 q0 -108 51 -154.5t132 -46.5q110 0 217 49v25q0 27 6 57z" />
<glyph unicode="&#x104;" horiz-adv-x="1275" d="M928 1231l-428 -719h524zM31 0l854 1434h180l190 -1434h-163q-23 -10 -44.5 -23.5t-49.5 -37t-45 -58.5t-17 -76q0 -44 32.5 -66t110.5 -22l-8 -36q-139 0 -196.5 32.5t-57.5 79.5q0 65 82.5 131.5t189.5 97.5l-53 388h-598l-243 -410h-164z" />
<glyph unicode="&#x105;" horiz-adv-x="1058" d="M852 797q-61 22 -164 22q-72 0 -132 -30t-99.5 -80t-69.5 -108.5t-45.5 -121t-23 -111t-7.5 -85.5q0 -108 51 -154.5t132 -46.5q110 0 217 49v25q0 27 6 57zM154 309q0 111 49 224.5t124 198t170.5 137.5t184.5 53q79 0 148 -14t106 -29t88 -41l-129 -562 q-12 -53 -12 -98q0 -43 11.5 -69.5t31.5 -26.5q28 0 50.5 14.5t27.5 34.5h71q-13 -63 -72.5 -107t-128.5 -44h-10q-116 -68 -116 -175q0 -44 32.5 -66t110.5 -22l-8 -36q-139 0 -196.5 32.5t-57.5 79.5q0 51 53 104.5t133 92.5q-45 17 -72 53q-151 -63 -303 -63 q-132 0 -209 92.5t-77 236.5z" />
<glyph unicode="&#x106;" horiz-adv-x="1325" d="M201 0zM1243 1888l90 -92l-354 -295l-51 54zM1012 1352q-120 0 -226.5 -58t-179 -149t-126 -202.5t-78.5 -220t-25 -200.5q0 -89 23 -164t61 -125t87 -85t100 -50.5t102 -15.5q240 0 399 182l108 -55q-104 -103 -252 -166t-309 -63q-70 0 -139 19.5t-133.5 62t-113.5 103 t-79 150t-30 195.5q0 102 27 212t76 215t122.5 199t160.5 164.5t195.5 112t223.5 41.5q362 0 483 -209l-168 -67q-82 174 -309 174z" />
<glyph unicode="&#x107;" horiz-adv-x="944" d="M150 0zM971 1458l90 -92l-354 -295l-51 54zM150 324q0 119 49.5 231t128 191.5t176.5 127.5t192 48q134 0 216 -67.5t108 -178.5l-148 -68q-3 97 -45.5 154t-124.5 57q-101 0 -191.5 -71.5t-143 -182t-52.5 -225.5q0 -120 69 -189t189 -69q147 0 254 123l113 -47 q-84 -82 -191.5 -130t-228.5 -48q-169 0 -269.5 92.5t-100.5 251.5z" />
<glyph unicode="&#x108;" horiz-adv-x="1325" d="M201 0zM1321 1594l-113 -91l-141 177l-225 -177l-72 91l324 208zM1012 1352q-120 0 -226.5 -58t-179 -149t-126 -202.5t-78.5 -220t-25 -200.5q0 -89 23 -164t61 -125t87 -85t100 -50.5t102 -15.5q240 0 399 182l108 -55q-104 -103 -252 -166t-309 -63q-70 0 -139 19.5 t-133.5 62t-113.5 103t-79 150t-30 195.5q0 102 27 212t76 215t122.5 199t160.5 164.5t195.5 112t223.5 41.5q362 0 483 -209l-168 -67q-82 174 -309 174z" />
<glyph unicode="&#x109;" horiz-adv-x="944" d="M150 0zM1049 1164l-113 -91l-141 177l-225 -177l-72 91l324 208zM150 324q0 119 49.5 231t128 191.5t176.5 127.5t192 48q134 0 216 -67.5t108 -178.5l-148 -68q-3 97 -45.5 154t-124.5 57q-101 0 -191.5 -71.5t-143 -182t-52.5 -225.5q0 -120 69 -189t189 -69 q147 0 254 123l113 -47q-84 -82 -191.5 -130t-228.5 -48q-169 0 -269.5 92.5t-100.5 251.5z" />
<glyph unicode="&#x10a;" horiz-adv-x="1325" d="M201 0zM983 1665h150l-35 -149h-150zM1012 1352q-120 0 -226.5 -58t-179 -149t-126 -202.5t-78.5 -220t-25 -200.5q0 -89 23 -164t61 -125t87 -85t100 -50.5t102 -15.5q240 0 399 182l108 -55q-104 -103 -252 -166t-309 -63q-70 0 -139 19.5t-133.5 62t-113.5 103 t-79 150t-30 195.5q0 102 27 212t76 215t122.5 199t160.5 164.5t195.5 112t223.5 41.5q362 0 483 -209l-168 -67q-82 174 -309 174z" />
<glyph unicode="&#x10b;" horiz-adv-x="944" d="M150 0zM711 1235h150l-35 -149h-150zM150 324q0 119 49.5 231t128 191.5t176.5 127.5t192 48q134 0 216 -67.5t108 -178.5l-148 -68q-3 97 -45.5 154t-124.5 57q-101 0 -191.5 -71.5t-143 -182t-52.5 -225.5q0 -120 69 -189t189 -69q147 0 254 123l113 -47 q-84 -82 -191.5 -130t-228.5 -48q-169 0 -269.5 92.5t-100.5 251.5z" />
<glyph unicode="&#x10c;" horiz-adv-x="1325" d="M1012 1352q-120 0 -226.5 -58t-179 -149t-126 -202.5t-78.5 -220t-25 -200.5q0 -89 23 -164t61 -125t87 -85t100 -50.5t102 -15.5q240 0 399 182l108 -55q-104 -103 -252 -166t-309 -63q-70 0 -139 19.5t-133.5 62t-113.5 103t-79 150t-30 195.5q0 119 35.5 247 t103.5 247.5t159 217t212 160t251 71.5l-128 265l75 54l135 -181l218 181l51 -54l-253 -265q317 -14 429 -208l-168 -67q-82 174 -309 174z" />
<glyph unicode="&#x10d;" horiz-adv-x="944" d="M150 0zM723 955l-161 334l75 53l136 -180l217 180l51 -53zM150 324q0 119 49.5 231t128 191.5t176.5 127.5t192 48q134 0 216 -67.5t108 -178.5l-148 -68q-3 97 -45.5 154t-124.5 57q-101 0 -191.5 -71.5t-143 -182t-52.5 -225.5q0 -120 69 -189t189 -69q147 0 254 123 l113 -47q-84 -82 -191.5 -130t-228.5 -48q-169 0 -269.5 92.5t-100.5 251.5z" />
<glyph unicode="&#x10e;" horiz-adv-x="1216" d="M573 1331l-282 -1229h352q85 0 161.5 51t130.5 134t98 183.5t70.5 205.5t40 194t13.5 154q0 161 -63 234t-168 73h-353zM1329 1020q0 -58 -9.5 -134.5t-34 -175.5t-61 -195.5t-96 -190.5t-133.5 -165t-179.5 -115t-227.5 -44h-496l332 1434h371l-138 284l76 54l135 -181 l217 181l52 -54l-271 -284h54q409 0 409 -414z" />
<glyph unicode="&#x10f;" horiz-adv-x="1142" d="M150 0zM1210 985q88 94 88 191q0 14 -3 48t-3 54q0 38 8 74h148q-15 -64 -31.5 -117t-27 -83t-30 -63.5t-25 -42t-27 -34.5t-21.5 -27h-76zM150 317q0 103 39.5 210t108 195t171.5 144t219 56q158 0 254 -99l121 529h164l-248 -1076q-10 -44 -10 -94q0 -100 43 -100 q28 0 50.5 14.5t27.5 34.5h69q-13 -63 -71 -107t-127 -44q-53 0 -93 26.5t-59 71.5q-132 -98 -338 -98q-154 0 -237.5 93t-83.5 244zM524 82q99 0 178.5 71t121.5 185.5t42 247.5q0 105 -40.5 169t-131.5 64q-95 0 -183.5 -72t-141 -181t-52.5 -218q0 -112 54 -189t153 -77z " />
<glyph unicode="&#x110;" horiz-adv-x="1216" d="M92 0zM1329 1020q0 -58 -9.5 -134.5t-34 -175.5t-61 -195.5t-96 -190.5t-133.5 -165t-179.5 -115t-227.5 -44h-496l162 700h-76l25 103h76l145 631h496q409 0 409 -414zM453 803h368l-24 -103h-369l-137 -598h352q85 0 161.5 51t130.5 134t98 183.5t70.5 205.5t40 194 t13.5 154q0 161 -63 234t-168 73h-353z" />
<glyph unicode="&#x111;" horiz-adv-x="1142" d="M524 82q99 0 178.5 71t121.5 185.5t42 247.5q0 105 -40.5 169t-131.5 64q-95 0 -183.5 -72t-141 -181t-52.5 -218q0 -112 54 -189t153 -77zM150 317q0 103 39.5 210t108 195t171.5 144t219 56q158 0 254 -99l59 262h-221l25 103h221l37 164h164l-37 -164h100l-24 -103 h-101l-186 -809q-10 -44 -10 -94q0 -100 43 -100q28 0 50.5 14.5t27.5 34.5h69q-13 -63 -71 -107t-127 -44q-53 0 -93 26.5t-59 71.5q-132 -98 -338 -98q-154 0 -237.5 93t-83.5 244z" />
<glyph unicode="&#x112;" horiz-adv-x="962" d="M82 0zM646 1598h471l-19 -82h-471zM942 0h-860l332 1434h827l-24 -103h-654l-98 -430h469l-25 -102h-469l-159 -697h686z" />
<glyph unicode="&#x113;" horiz-adv-x="964" d="M150 0zM525 1168h471l-19 -82h-471zM1032 571q0 -120 -188 -120h-516q-13 -60 -13 -111q0 -120 69 -189t189 -69q147 0 254 123l113 -47q-84 -82 -191.5 -130t-228.5 -48q-169 0 -269.5 92.5t-100.5 251.5q0 119 49.5 231t128 191.5t176.5 127.5t192 48q84 0 150 -28.5 t106 -78t60 -111.5t20 -133zM362 553h424q45 0 65.5 9.5t20.5 33.5q0 103 -42.5 163t-127.5 60q-104 0 -195.5 -74.5t-144.5 -191.5z" />
<glyph unicode="&#x114;" horiz-adv-x="962" d="M82 0zM942 0h-860l332 1434h827l-24 -103h-654l-98 -430h469l-25 -102h-469l-159 -697h686zM899 1632q56 0 110 30t66 65l74 -21q-28 -78 -108.5 -134t-168.5 -56q-82 0 -135 50t-53 122q0 3 1 9t1 9l82 21v-4q0 -34 38.5 -62.5t92.5 -28.5z" />
<glyph unicode="&#x115;" horiz-adv-x="964" d="M150 0zM1032 571q0 -120 -188 -120h-516q-13 -60 -13 -111q0 -120 69 -189t189 -69q147 0 254 123l113 -47q-84 -82 -191.5 -130t-228.5 -48q-169 0 -269.5 92.5t-100.5 251.5q0 119 49.5 231t128 191.5t176.5 127.5t192 48q84 0 150 -28.5t106 -78t60 -111.5t20 -133z M362 553h424q45 0 65.5 9.5t20.5 33.5q0 103 -42.5 163t-127.5 60q-104 0 -195.5 -74.5t-144.5 -191.5zM779 1202q56 0 110 30t66 65l74 -21q-28 -78 -108.5 -134t-168.5 -56q-82 0 -135 50t-53 122q0 3 1 9t1 9l82 21v-4q0 -34 38.5 -62.5t92.5 -28.5z" />
<glyph unicode="&#x116;" horiz-adv-x="962" d="M82 0zM830 1665h150l-35 -149h-150zM942 0h-860l332 1434h827l-24 -103h-654l-98 -430h469l-25 -102h-469l-159 -697h686z" />
<glyph unicode="&#x117;" horiz-adv-x="964" d="M150 0zM709 1235h150l-35 -149h-150zM1032 571q0 -120 -188 -120h-516q-13 -60 -13 -111q0 -120 69 -189t189 -69q147 0 254 123l113 -47q-84 -82 -191.5 -130t-228.5 -48q-169 0 -269.5 92.5t-100.5 251.5q0 119 49.5 231t128 191.5t176.5 127.5t192 48q84 0 150 -28.5 t106 -78t60 -111.5t20 -133zM362 553h424q45 0 65.5 9.5t20.5 33.5q0 103 -42.5 163t-127.5 60q-104 0 -195.5 -74.5t-144.5 -191.5z" />
<glyph unicode="&#x118;" horiz-adv-x="962" d="M754 0q-23 -10 -44.5 -23.5t-49.5 -37t-45 -58.5t-17 -76q0 -44 32.5 -66t110.5 -22l-8 -36q-139 0 -196.5 32.5t-57.5 79.5q0 55 60.5 112.5t148.5 94.5h-606l332 1434h827l-24 -103h-654l-98 -430h469l-25 -102h-469l-159 -697h686l-25 -102h-188z" />
<glyph unicode="&#x119;" horiz-adv-x="964" d="M362 553h424q45 0 65.5 9.5t20.5 33.5q0 103 -42.5 163t-127.5 60q-104 0 -195.5 -74.5t-144.5 -191.5zM1032 571q0 -120 -188 -120h-516q-13 -60 -13 -111q0 -120 69 -189t189 -69q147 0 254 123l113 -47q-84 -82 -191.5 -130t-228.5 -48h-1q-116 -68 -116 -175 q0 -44 33 -66t111 -22l-8 -36q-139 0 -196.5 32.5t-57.5 79.5q0 49 48.5 100t123.5 90q-142 17 -224.5 107.5t-82.5 233.5q0 119 49.5 231t128 191.5t176.5 127.5t192 48q84 0 150 -28.5t106 -78t60 -111.5t20 -133z" />
<glyph unicode="&#x11a;" horiz-adv-x="962" d="M942 0h-860l332 1434h404l-138 284l76 54l135 -181l217 181l51 -54l-271 -284h353l-24 -103h-654l-98 -430h469l-25 -102h-469l-159 -697h686z" />
<glyph unicode="&#x11b;" horiz-adv-x="964" d="M150 0zM721 955l-161 334l75 53l136 -180l217 180l51 -53zM1032 571q0 -120 -188 -120h-516q-13 -60 -13 -111q0 -120 69 -189t189 -69q147 0 254 123l113 -47q-84 -82 -191.5 -130t-228.5 -48q-169 0 -269.5 92.5t-100.5 251.5q0 119 49.5 231t128 191.5t176.5 127.5 t192 48q84 0 150 -28.5t106 -78t60 -111.5t20 -133zM362 553h424q45 0 65.5 9.5t20.5 33.5q0 103 -42.5 163t-127.5 60q-104 0 -195.5 -74.5t-144.5 -191.5z" />
<glyph unicode="&#x11c;" horiz-adv-x="1325" d="M201 0zM1321 1594l-113 -91l-141 177l-225 -177l-72 91l324 208zM1395 819l-138 -610q-104 -103 -252 -166t-309 -63q-70 0 -139 19.5t-133.5 62t-113.5 103t-79 150t-30 195.5q0 123 36.5 253t107 249.5t164.5 214t220.5 151t263.5 56.5q386 0 496 -189l-168 -67 q-72 153 -322 153q-101 0 -191.5 -39t-157 -105t-120 -149t-86 -174.5t-50 -178.5t-17.5 -163q0 -89 23 -164t61 -125t87 -85t100 -50.5t102 -15.5q196 0 342 127l118 508h-172l21 102h336z" />
<glyph unicode="&#x11d;" horiz-adv-x="1091" d="M61 0zM1022 1164l-113 -91l-141 177l-225 -177l-72 91l324 208zM672 819q-82 0 -152 -49.5t-114 -125.5t-68.5 -161.5t-24.5 -163.5q0 -112 58.5 -174.5t171.5 -62.5q109 0 190 63l109 463q-3 97 -45.5 154t-124.5 57zM705 23q-105 -43 -216 -43q-163 0 -252.5 87 t-89.5 240q0 154 73 297t194 230.5t252 87.5q167 0 256 -107q40 50 94.5 78.5t109.5 28.5q59 0 96.5 -33.5t37.5 -85.5q0 -8 -5 -33h-69v8q0 17 -16 29t-40 12q-31 0 -67 -57.5t-55 -136.5l-107 -465q-25 -109 -47 -180.5t-53.5 -132.5t-67 -95.5t-89.5 -58.5t-120 -32.5 t-159 -8.5q-150 0 -304 92l127 106q116 -96 230 -96q71 0 117 13t78 47.5t51.5 81.5t40.5 127z" />
<glyph unicode="&#x11e;" horiz-adv-x="1325" d="M201 0zM1053 1632q56 0 110 30t66 65l74 -21q-28 -78 -108.5 -134t-168.5 -56q-82 0 -135 50t-53 122q0 3 1 9t1 9l82 21v-4q0 -34 38.5 -62.5t92.5 -28.5zM1395 819l-138 -610q-104 -103 -252 -166t-309 -63q-70 0 -139 19.5t-133.5 62t-113.5 103t-79 150t-30 195.5 q0 123 36.5 253t107 249.5t164.5 214t220.5 151t263.5 56.5q386 0 496 -189l-168 -67q-72 153 -322 153q-101 0 -191.5 -39t-157 -105t-120 -149t-86 -174.5t-50 -178.5t-17.5 -163q0 -89 23 -164t61 -125t87 -85t100 -50.5t102 -15.5q196 0 342 127l118 508h-172l21 102 h336z" />
<glyph unicode="&#x11f;" horiz-adv-x="1091" d="M61 0zM754 1202q56 0 110 30t66 65l74 -21q-28 -78 -108.5 -134t-168.5 -56q-82 0 -135 50t-53 122q0 3 1 9t1 9l82 21v-4q0 -34 38.5 -62.5t92.5 -28.5zM672 819q-82 0 -152 -49.5t-114 -125.5t-68.5 -161.5t-24.5 -163.5q0 -112 58.5 -174.5t171.5 -62.5q109 0 190 63 l109 463q-3 97 -45.5 154t-124.5 57zM705 23q-105 -43 -216 -43q-163 0 -252.5 87t-89.5 240q0 154 73 297t194 230.5t252 87.5q167 0 256 -107q40 50 94.5 78.5t109.5 28.5q59 0 96.5 -33.5t37.5 -85.5q0 -8 -5 -33h-69v8q0 17 -16 29t-40 12q-31 0 -67 -57.5t-55 -136.5 l-107 -465q-25 -109 -47 -180.5t-53.5 -132.5t-67 -95.5t-89.5 -58.5t-120 -32.5t-159 -8.5q-150 0 -304 92l127 106q116 -96 230 -96q71 0 117 13t78 47.5t51.5 81.5t40.5 127z" />
<glyph unicode="&#x120;" horiz-adv-x="1325" d="M201 0zM983 1665h150l-35 -149h-150zM1395 819l-138 -610q-104 -103 -252 -166t-309 -63q-70 0 -139 19.5t-133.5 62t-113.5 103t-79 150t-30 195.5q0 123 36.5 253t107 249.5t164.5 214t220.5 151t263.5 56.5q386 0 496 -189l-168 -67q-72 153 -322 153 q-101 0 -191.5 -39t-157 -105t-120 -149t-86 -174.5t-50 -178.5t-17.5 -163q0 -89 23 -164t61 -125t87 -85t100 -50.5t102 -15.5q196 0 342 127l118 508h-172l21 102h336z" />
<glyph unicode="&#x121;" horiz-adv-x="1091" d="M61 0zM684 1235h150l-35 -149h-150zM672 819q-82 0 -152 -49.5t-114 -125.5t-68.5 -161.5t-24.5 -163.5q0 -112 58.5 -174.5t171.5 -62.5q109 0 190 63l109 463q-3 97 -45.5 154t-124.5 57zM705 23q-105 -43 -216 -43q-163 0 -252.5 87t-89.5 240q0 154 73 297t194 230.5 t252 87.5q167 0 256 -107q40 50 94.5 78.5t109.5 28.5q59 0 96.5 -33.5t37.5 -85.5q0 -8 -5 -33h-69v8q0 17 -16 29t-40 12q-31 0 -67 -57.5t-55 -136.5l-107 -465q-25 -109 -47 -180.5t-53.5 -132.5t-67 -95.5t-89.5 -58.5t-120 -32.5t-159 -8.5q-150 0 -304 92l127 106 q116 -96 230 -96q71 0 117 13t78 47.5t51.5 81.5t40.5 127z" />
<glyph unicode="&#x122;" horiz-adv-x="1325" d="M201 0zM480 -352q54 0 91.5 4t75.5 14.5t58 34.5t20 61q0 32 -29 49.5t-98 24.5l13 58q108 0 175.5 -35.5t67.5 -89.5q0 -28 -20.5 -56t-62.5 -54.5t-120.5 -43t-181.5 -16.5zM1395 819l-138 -610q-104 -103 -252 -166t-309 -63q-70 0 -139 19.5t-133.5 62t-113.5 103 t-79 150t-30 195.5q0 123 36.5 253t107 249.5t164.5 214t220.5 151t263.5 56.5q386 0 496 -189l-168 -67q-72 153 -322 153q-101 0 -191.5 -39t-157 -105t-120 -149t-86 -174.5t-50 -178.5t-17.5 -163q0 -89 23 -164t61 -125t87 -85t100 -50.5t102 -15.5q196 0 342 127 l118 508h-172l21 102h336z" />
<glyph unicode="&#x123;" horiz-adv-x="1091" d="M61 0zM885 1452q-88 -94 -88 -190q0 -14 3 -48t3 -55q0 -37 -8 -73h-148q15 64 31.5 116.5t27.5 83.5t29.5 63.5t25 41.5t27 34t21.5 27h76zM672 819q-82 0 -152 -49.5t-114 -125.5t-68.5 -161.5t-24.5 -163.5q0 -112 58.5 -174.5t171.5 -62.5q109 0 190 63l109 463 q-3 97 -45.5 154t-124.5 57zM705 23q-105 -43 -216 -43q-163 0 -252.5 87t-89.5 240q0 154 73 297t194 230.5t252 87.5q167 0 256 -107q40 50 94.5 78.5t109.5 28.5q59 0 96.5 -33.5t37.5 -85.5q0 -8 -5 -33h-69v8q0 17 -16 29t-40 12q-31 0 -67 -57.5t-55 -136.5l-107 -465 q-25 -109 -47 -180.5t-53.5 -132.5t-67 -95.5t-89.5 -58.5t-120 -32.5t-159 -8.5q-150 0 -304 92l127 106q116 -96 230 -96q71 0 117 13t78 47.5t51.5 81.5t40.5 127z" />
<glyph unicode="&#x124;" horiz-adv-x="1259" d="M82 0zM1239 1594l-113 -91l-141 177l-225 -177l-72 91l324 208zM588 1434l-144 -615h660l143 615h174l-331 -1434h-175l166 717h-659l-166 -717h-174l332 1434h174z" />
<glyph unicode="&#x125;" horiz-adv-x="1034" d="M143 0zM1008 1594l-113 -91l-141 177l-225 -177l-72 91l324 208zM391 1075q12 53 12 94q0 45 -12 73t-33 28q-27 0 -48.5 -14.5t-26.5 -34.5h-70q13 63 71.5 107t127.5 44q73 0 119.5 -49.5t46.5 -126.5q0 -12 -9 -57l-61 -269q113 52 221 52q348 0 348 -281 q0 -57 -20 -149l-113 -492h-164l109 467q24 108 24 176q0 98 -45.5 137t-132.5 39q-127 0 -260 -96l-168 -723h-164z" />
<glyph unicode="&#x126;" horiz-adv-x="1189" d="M350 1159h-82l23 103h82l41 172h174l-41 -172h659l41 172h174l-41 -172h82l-22 -103h-82l-268 -1159h-175l166 717h-659l-166 -717h-174zM1184 1159h-660l-80 -340h660z" />
<glyph unicode="&#x127;" horiz-adv-x="972" d="M393 1085h-119l25 103h117l39 164h172l-41 -164h198l-24 -103h-199l-53 -215q113 52 221 52q348 0 348 -281q0 -57 -20 -149l-113 -492h-164l109 467q24 108 24 176q0 98 -45.5 137t-132.5 39q-127 0 -260 -96l-168 -723h-164z" />
<glyph unicode="&#x128;" horiz-adv-x="436" d="M92 0zM784 1698h84q-29 -80 -93.5 -131t-150.5 -51q-38 0 -88 32.5t-69 32.5q-100 0 -123 -65h-84q29 80 93 131t150 51q38 0 88.5 -33t69.5 -33q100 0 123 66zM598 1434l-332 -1434h-174l332 1434h174z" />
<glyph unicode="&#x129;" horiz-adv-x="483" d="M135 0zM678 1268h84q-29 -80 -93.5 -131t-150.5 -51q-38 0 -88 32.5t-69 32.5q-100 0 -123 -65h-84q29 80 93 131t150 51q38 0 88.5 -33t69.5 -33q100 0 123 66zM319 276q-10 -44 -10 -94q0 -100 43 -100q28 0 50.5 14.5t27.5 34.5h70q-13 -63 -71.5 -107t-127.5 -44 q-73 0 -119.5 49.5t-46.5 126.5q0 27 6 57l160 688h164z" />
<glyph unicode="&#x12a;" horiz-adv-x="436" d="M92 0zM305 1598h471l-19 -82h-471zM598 1434l-332 -1434h-174l332 1434h174z" />
<glyph unicode="&#x12b;" horiz-adv-x="483" d="M135 0zM199 1168h471l-19 -82h-471zM319 276q-10 -44 -10 -94q0 -100 43 -100q28 0 50.5 14.5t27.5 34.5h70q-13 -63 -71.5 -107t-127.5 -44q-73 0 -119.5 49.5t-46.5 126.5q0 27 6 57l160 688h164z" />
<glyph unicode="&#x12c;" horiz-adv-x="436" d="M92 0zM598 1434l-332 -1434h-174l332 1434h174zM559 1632q56 0 110 30t66 65l74 -21q-28 -78 -108.5 -134t-168.5 -56q-82 0 -135 50t-53 122q0 3 1 9t1 9l82 21v-4q0 -34 38.5 -62.5t92.5 -28.5z" />
<glyph unicode="&#x12d;" horiz-adv-x="483" d="M135 0zM319 276q-10 -44 -10 -94q0 -100 43 -100q28 0 50.5 14.5t27.5 34.5h70q-13 -63 -71.5 -107t-127.5 -44q-73 0 -119.5 49.5t-46.5 126.5q0 27 6 57l160 688h164zM453 1202q56 0 110 30t66 65l74 -21q-28 -78 -108.5 -134t-168.5 -56q-82 0 -135 50t-53 122 q0 3 1 9t1 9l82 21v-4q0 -34 38.5 -62.5t92.5 -28.5z" />
<glyph unicode="&#x12e;" horiz-adv-x="436" d="M598 1434l-332 -1434h-110q-23 -10 -44.5 -23.5t-49.5 -37t-45 -58.5t-17 -76q0 -44 32.5 -66t110.5 -22l-8 -36q-139 0 -196.5 32.5t-57.5 79.5q0 56 61 113.5t150 94.5l332 1433h174z" />
<glyph unicode="&#x12f;" horiz-adv-x="483" d="M319 276q-10 -44 -10 -94q0 -100 43 -100q28 0 50.5 14.5t27.5 34.5h70q-13 -63 -71.5 -107t-127.5 -44q-39 0 -68 13q-141 -69 -141 -188q0 -44 33 -66t111 -22l-9 -36q-139 0 -196.5 32.5t-57.5 79.5q0 58 68.5 119.5t163.5 96.5q-70 50 -70 147q0 27 6 57l160 688h164 zM377 1229h164l-39 -164h-164z" />
<glyph unicode="&#x130;" horiz-adv-x="436" d="M92 0zM489 1665h150l-35 -149h-150zM598 1434l-332 -1434h-174l332 1434h174z" />
<glyph unicode="&#x131;" horiz-adv-x="483" d="M319 276q-10 -44 -10 -94q0 -100 43 -100q28 0 50.5 14.5t27.5 34.5h70q-13 -63 -71.5 -107t-127.5 -44q-73 0 -119.5 49.5t-46.5 126.5q0 27 6 57l160 688h164z" />
<glyph unicode="&#x132;" horiz-adv-x="1386" d="M92 0zM598 1434l-332 -1434h-174l332 1434h174zM1345 487q-25 -108 -48 -180.5t-55.5 -132.5t-69.5 -94.5t-92.5 -58.5t-121.5 -32.5t-160 -8.5q-149 0 -303 92l127 106q116 -96 230 -96q41 0 72.5 4t58 15t45.5 23.5t36 37t29 47.5t24.5 63t21.5 76.5t22 93.5l229 992 h174z" />
<glyph unicode="&#x133;" horiz-adv-x="843" d="M412 1249h163l-38 -164h-164zM332 901h164l-209 -901h-164zM295 -195q22 -51 96 -51q60 0 99 58.5t69 187.5l209 901h164l-225 -969q-17 -73 -57 -129t-92 -88t-108 -47.5t-112 -15.5q-129 0 -186 92zM848 1249h164l-39 -164h-164z" />
<glyph unicode="&#x134;" horiz-adv-x="948" d="M57 0zM1356 1594l-113 -91l-141 177l-225 -177l-72 91l324 208zM907 487q-25 -108 -48 -180.5t-55.5 -132.5t-69.5 -94.5t-92.5 -58.5t-121.5 -32.5t-160 -8.5q-149 0 -303 92l127 106q116 -96 230 -96q41 0 72.5 4t58 15t45.5 23.5t36 37t29 47.5t24.5 63t21.5 76.5 t22 93.5l229 992h174z" />
<glyph unicode="&#x135;" horiz-adv-x="376" d="M0 0zM750 1164l-113 -91l-141 177l-225 -177l-72 91l324 208zM-141 -195q22 -51 96 -51q60 0 99 58.5t69 187.5l209 901h164l-226 -969q-16 -73 -55.5 -129t-92 -87.5t-108.5 -47.5t-112 -16q-130 0 -187 92z" />
<glyph unicode="&#x136;" horiz-adv-x="1239" d="M92 0zM336 -352q54 0 91.5 4t75.5 14.5t58 34.5t20 61q0 32 -29 49.5t-98 24.5l13 58q108 0 175.5 -35.5t67.5 -89.5q0 -28 -20.5 -56t-62.5 -54.5t-120.5 -43t-181.5 -16.5zM375 469l-109 -469h-174l332 1434h174l-170 -738l825 738h205l-737 -658l430 -776h-193 l-368 662z" />
<glyph unicode="&#x137;" horiz-adv-x="917" d="M143 0zM205 -352q54 0 91.5 4t75.5 14.5t58 34.5t20 61q0 32 -29 49.5t-98 24.5l13 58q108 0 175.5 -35.5t67.5 -89.5q0 -28 -20.5 -56t-62.5 -54.5t-120.5 -43t-181.5 -16.5zM307 0h-164l248 1075q12 53 12 94q0 45 -12 73t-33 28q-27 0 -48.5 -14.5t-26.5 -34.5h-70 q13 63 71.5 107t127.5 44q73 0 119.5 -49.5t46.5 -126.5q0 -12 -9 -57l-151 -662l475 424h188l-450 -399l278 -502h-176l-221 395l-143 -127z" />
<glyph unicode="&#x138;" horiz-adv-x="917" d="M309 270l-63 -270h-164l209 901h164l-99 -422l475 422h189l-451 -399l279 -502h-176l-221 395z" />
<glyph unicode="&#x139;" horiz-adv-x="1052" d="M82 0zM915 1888l90 -92l-354 -295l-51 54zM281 102h686l-25 -102h-860l332 1434h174z" />
<glyph unicode="&#x13a;" horiz-adv-x="495" d="M135 0zM741 1888l90 -92l-354 -295l-51 54zM319 276q-10 -44 -10 -94q0 -100 43 -100q28 0 50.5 14.5t27.5 34.5h70q-13 -63 -71.5 -107t-127.5 -44q-73 0 -119.5 49.5t-46.5 126.5q0 27 6 57l262 1139h164z" />
<glyph unicode="&#x13b;" horiz-adv-x="1052" d="M82 0zM267 -352q54 0 91.5 4t75.5 14.5t58 34.5t20 61q0 32 -29 49.5t-98 24.5l13 58q108 0 175.5 -35.5t67.5 -89.5q0 -28 -20.5 -56t-62.5 -54.5t-120.5 -43t-181.5 -16.5zM281 102h686l-25 -102h-860l332 1434h174z" />
<glyph unicode="&#x13c;" horiz-adv-x="495" d="M39 0zM50 -356q54 0 91.5 4t75.5 14.5t58 34.5t20 61q0 32 -29 49.5t-98 24.5l13 58q108 0 175.5 -35.5t67.5 -89.5q0 -28 -20.5 -56t-62.5 -54.5t-120.5 -43t-181.5 -16.5zM319 276q-10 -44 -10 -94q0 -100 43 -100q28 0 50.5 14.5t27.5 34.5h70q-13 -63 -71.5 -107 t-127.5 -44q-73 0 -119.5 49.5t-46.5 126.5q0 27 6 57l262 1139h164z" />
<glyph unicode="&#x13d;" horiz-adv-x="1052" d="M82 0zM629 1067q88 94 88 191q0 14 -3 48t-3 54q0 38 8 74h148q-15 -64 -31.5 -117t-27 -83t-30 -63.5t-25 -42t-27 -34.5t-21.5 -27h-76zM281 102h686l-25 -102h-860l332 1434h174z" />
<glyph unicode="&#x13e;" horiz-adv-x="544" d="M135 0zM569 985q88 94 88 191q0 14 -3 48t-3 54q0 38 8 74h148q-15 -64 -31.5 -117t-27 -83t-30 -63.5t-25 -42t-27 -34.5t-21.5 -27h-76zM319 276q-10 -44 -10 -94q0 -100 43 -100q28 0 50.5 14.5t27.5 34.5h70q-13 -63 -71.5 -107t-127.5 -44q-73 0 -119.5 49.5 t-46.5 126.5q0 27 6 57l262 1139h164z" />
<glyph unicode="&#x13f;" horiz-adv-x="1052" d="M82 0zM281 102h686l-25 -102h-860l332 1434h174zM626 608zM661 757h150l-35 -149h-150z" />
<glyph unicode="&#x140;" horiz-adv-x="729" d="M135 0zM319 276q-10 -44 -10 -94q0 -100 43 -100q28 0 50.5 14.5t27.5 34.5h70q-13 -63 -71.5 -107t-127.5 -44q-73 0 -119.5 49.5t-46.5 126.5q0 27 6 57l262 1139h164zM552 608zM587 757h150l-35 -149h-150z" />
<glyph unicode="&#x141;" horiz-adv-x="1052" d="M281 102h686l-25 -102h-860l170 735l-127 -65l-45 92l203 102l131 570h174l-109 -467l127 63l45 -92l-200 -102z" />
<glyph unicode="&#x142;" horiz-adv-x="495" d="M319 276q-10 -44 -10 -94q0 -100 43 -100q28 0 50.5 14.5t27.5 34.5h70q-13 -63 -71.5 -107t-127.5 -44q-73 0 -119.5 49.5t-46.5 126.5q0 27 6 57l121 526l-137 -69l-45 92l213 108l110 482h164l-90 -387l129 65l45 -92l-202 -104z" />
<glyph unicode="&#x143;" horiz-adv-x="1325" d="M92 0zM1202 1888l90 -92l-354 -295l-51 54zM977 0l-449 1137l-262 -1137h-174l332 1434h174h2l449 -1139l264 1139h174l-332 -1434h-178z" />
<glyph unicode="&#x144;" horiz-adv-x="1075" d="M150 0zM1052 1458l90 -92l-354 -295l-51 54zM328 625q12 53 12 94q0 45 -12 72.5t-33 27.5q-28 0 -49.5 -14.5t-26.5 -34.5h-69q14 63 71.5 107.5t126.5 44.5q94 0 141 -80q138 80 281 80q348 0 348 -281q0 -57 -20 -149l-113 -492h-164l109 467q24 108 24 176 q0 98 -45.5 137t-132.5 39q-128 0 -264 -98q-1 -5 -2 -16t-2 -17l-160 -688h-164z" />
<glyph unicode="&#x145;" horiz-adv-x="1325" d="M92 0zM377 -352q54 0 91.5 4t75.5 14.5t58 34.5t20 61q0 32 -29 49.5t-98 24.5l13 58q108 0 175.5 -35.5t67.5 -89.5q0 -28 -20.5 -56t-62.5 -54.5t-120.5 -43t-181.5 -16.5zM977 0l-449 1137l-262 -1137h-174l332 1434h174h2l449 -1139l264 1139h174l-332 -1434h-178z " />
<glyph unicode="&#x146;" horiz-adv-x="1075" d="M150 0zM381 -352q54 0 91.5 4t75.5 14.5t58 34.5t20 61q0 32 -29 49.5t-98 24.5l13 58q108 0 175.5 -35.5t67.5 -89.5q0 -28 -20.5 -56t-62.5 -54.5t-120.5 -43t-181.5 -16.5zM328 625q12 53 12 94q0 45 -12 72.5t-33 27.5q-28 0 -49.5 -14.5t-26.5 -34.5h-69 q14 63 71.5 107.5t126.5 44.5q94 0 141 -80q138 80 281 80q348 0 348 -281q0 -57 -20 -149l-113 -492h-164l109 467q24 108 24 176q0 98 -45.5 137t-132.5 39q-128 0 -264 -98q-1 -5 -2 -16t-2 -17l-160 -688h-164z" />
<glyph unicode="&#x147;" horiz-adv-x="1325" d="M92 0zM954 1385l-161 334l75 53l136 -180l217 180l51 -53zM977 0l-449 1137l-262 -1137h-174l332 1434h174h2l449 -1139l264 1139h174l-332 -1434h-178z" />
<glyph unicode="&#x148;" horiz-adv-x="1075" d="M150 0zM788 955l-161 334l75 53l136 -180l217 180l51 -53zM328 625q12 53 12 94q0 45 -12 72.5t-33 27.5q-28 0 -49.5 -14.5t-26.5 -34.5h-69q14 63 71.5 107.5t126.5 44.5q94 0 141 -80q138 80 281 80q348 0 348 -281q0 -57 -20 -149l-113 -492h-164l109 467 q24 108 24 176q0 98 -45.5 137t-132.5 39q-128 0 -264 -98q-1 -5 -2 -16t-2 -17l-160 -688h-164z" />
<glyph unicode="&#x149;" horiz-adv-x="1316" d="M289 0zM289 987q88 94 88 190q0 15 -3 49t-3 54q0 37 8 73h148q-15 -64 -31.5 -116.5t-27.5 -83.5t-29.5 -63.5t-25 -41.5t-27 -34t-21.5 -27h-76zM570 625q12 53 12 94q0 45 -12 72.5t-33 27.5q-28 0 -49.5 -14.5t-26.5 -34.5h-69q14 63 71.5 107.5t126.5 44.5 q94 0 141 -80q138 80 281 80q348 0 348 -281q0 -57 -20 -149l-113 -492h-164l109 467q24 108 24 176q0 98 -45.5 137t-132.5 39q-128 0 -264 -98q-1 -5 -2 -16t-2 -17l-160 -688h-164z" />
<glyph unicode="&#x14a;" horiz-adv-x="1271" d="M1268 639q-37 -163 -81 -277.5t-107.5 -204t-152.5 -133.5t-206 -44q-77 0 -140.5 23.5t-138.5 68.5l127 106q63 -52 108 -74t97 -22q31 0 58.5 9.5t50 23.5t43 40.5t35.5 50.5t31 64t26 70.5t23.5 80.5t21 83.5t20.5 89.5l74 324q19 84 19 137q0 215 -224 215 q-180 0 -368 -135l-262 -1135h-175l312 1352h174l-15 -70q5 2 28 13t33 15.5t34.5 14.5t40 15t41.5 12t47.5 10.5t49 6.5t54.5 3q189 0 297.5 -78.5t108.5 -232.5q0 -55 -15 -119z" />
<glyph unicode="&#x14b;" horiz-adv-x="1075" d="M967 -68q-17 -73 -57 -129t-92 -88t-108 -47.5t-112 -15.5q-129 0 -186 92l143 61q22 -51 96 -51q60 0 99 58.5t69 187.5l111 467q24 108 24 176q0 98 -45.5 137t-132.5 39q-128 0 -264 -98q-1 -5 -2 -16t-2 -17l-160 -688h-164l144 625q12 53 12 94q0 45 -12 72.5 t-33 27.5q-28 0 -49.5 -14.5t-26.5 -34.5h-69q14 63 71.5 107.5t126.5 44.5q94 0 141 -80q138 80 281 80q348 0 348 -281q0 -57 -20 -149z" />
<glyph unicode="&#x14c;" d="M199 0zM789 1598h471l-19 -82h-471zM659 -20q-88 0 -168.5 31t-147 91t-105.5 160t-39 227q0 135 37.5 274t109 262t165.5 219.5t216.5 153t253.5 56.5q107 0 198 -31t161.5 -91t110.5 -158.5t40 -225.5q0 -85 -16 -176t-50 -186t-82.5 -182.5t-118 -165t-152 -135 t-189 -90.5t-224.5 -33zM969 1352q-109 0 -218.5 -75.5t-191 -194.5t-133 -272.5t-51.5 -301.5q0 -107 30.5 -192t79 -134t102.5 -74.5t107 -25.5q112 0 224.5 71.5t199.5 187.5t142 274.5t55 322.5q0 105 -29 186.5t-78.5 130t-110 73t-128.5 24.5z" />
<glyph unicode="&#x14d;" horiz-adv-x="1013" d="M147 0zM529 1168h471l-19 -82h-471zM532 82q76 0 145.5 45.5t116.5 117t75 159t28 171.5q0 113 -51.5 178.5t-143.5 65.5q-100 0 -191 -71t-145.5 -189t-54.5 -248q0 -110 55.5 -169.5t165.5 -59.5zM1065 594q0 -48 -9 -101.5t-30 -114t-51.5 -116.5t-78.5 -108 t-106.5 -90t-138.5 -61t-172 -23q-161 0 -246.5 84.5t-85.5 236.5q0 129 50.5 246.5t129.5 198t177 128.5t192 48q171 0 270 -84t99 -244z" />
<glyph unicode="&#x14e;" d="M199 0zM659 -20q-88 0 -168.5 31t-147 91t-105.5 160t-39 227q0 135 37.5 274t109 262t165.5 219.5t216.5 153t253.5 56.5q107 0 198 -31t161.5 -91t110.5 -158.5t40 -225.5q0 -85 -16 -176t-50 -186t-82.5 -182.5t-118 -165t-152 -135t-189 -90.5t-224.5 -33zM969 1352 q-109 0 -218.5 -75.5t-191 -194.5t-133 -272.5t-51.5 -301.5q0 -107 30.5 -192t79 -134t102.5 -74.5t107 -25.5q112 0 224.5 71.5t199.5 187.5t142 274.5t55 322.5q0 105 -29 186.5t-78.5 130t-110 73t-128.5 24.5zM1043 1632q56 0 110 30t66 65l74 -21q-28 -78 -108.5 -134 t-168.5 -56q-82 0 -135 50t-53 122q0 3 1 9t1 9l82 21v-4q0 -34 38.5 -62.5t92.5 -28.5z" />
<glyph unicode="&#x14f;" horiz-adv-x="1013" d="M147 0zM532 82q76 0 145.5 45.5t116.5 117t75 159t28 171.5q0 113 -51.5 178.5t-143.5 65.5q-100 0 -191 -71t-145.5 -189t-54.5 -248q0 -110 55.5 -169.5t165.5 -59.5zM1065 594q0 -48 -9 -101.5t-30 -114t-51.5 -116.5t-78.5 -108t-106.5 -90t-138.5 -61t-172 -23 q-161 0 -246.5 84.5t-85.5 236.5q0 129 50.5 246.5t129.5 198t177 128.5t192 48q171 0 270 -84t99 -244zM783 1202q56 0 110 30t66 65l74 -21q-28 -78 -108.5 -134t-168.5 -56q-82 0 -135 50t-53 122q0 3 1 9t1 9l82 21v-4q0 -34 38.5 -62.5t92.5 -28.5z" />
<glyph unicode="&#x150;" d="M199 0zM1311 1501zM1397 1888l90 -92l-354 -295l-51 54zM1069 1888l90 -92l-354 -295l-51 54zM659 -20q-88 0 -168.5 31t-147 91t-105.5 160t-39 227q0 135 37.5 274t109 262t165.5 219.5t216.5 153t253.5 56.5q107 0 198 -31t161.5 -91t110.5 -158.5t40 -225.5 q0 -85 -16 -176t-50 -186t-82.5 -182.5t-118 -165t-152 -135t-189 -90.5t-224.5 -33zM969 1352q-109 0 -218.5 -75.5t-191 -194.5t-133 -272.5t-51.5 -301.5q0 -107 30.5 -192t79 -134t102.5 -74.5t107 -25.5q112 0 224.5 71.5t199.5 187.5t142 274.5t55 322.5 q0 105 -29 186.5t-78.5 130t-110 73t-128.5 24.5z" />
<glyph unicode="&#x151;" horiz-adv-x="1013" d="M147 0zM1051 1071zM1137 1458l90 -92l-354 -295l-51 54zM809 1458l90 -92l-354 -295l-51 54zM532 82q76 0 145.5 45.5t116.5 117t75 159t28 171.5q0 113 -51.5 178.5t-143.5 65.5q-100 0 -191 -71t-145.5 -189t-54.5 -248q0 -110 55.5 -169.5t165.5 -59.5zM1065 594 q0 -48 -9 -101.5t-30 -114t-51.5 -116.5t-78.5 -108t-106.5 -90t-138.5 -61t-172 -23q-161 0 -246.5 84.5t-85.5 236.5q0 129 50.5 246.5t129.5 198t177 128.5t192 48q171 0 270 -84t99 -244z" />
<glyph unicode="&#x152;" horiz-adv-x="1851" d="M1831 0h-860l12 55q-153 -75 -324 -75q-88 0 -168 31t-146.5 91t-106 160t-39.5 227q0 132 37 269t108 261t164.5 221.5t217 155.5t255.5 58q176 0 307 -84l15 64h827l-25 -103h-653l-98 -430h469l-25 -102h-469l-160 -697h686zM1026 236l223 966q-48 74 -121.5 112 t-158.5 38q-109 0 -218.5 -75.5t-191 -194.5t-133 -272.5t-51.5 -301.5q0 -107 30.5 -192t79 -134t102.5 -74.5t107 -25.5q76 0 163.5 39.5t168.5 114.5z" />
<glyph unicode="&#x153;" horiz-adv-x="1683" d="M532 82q76 0 145.5 45.5t116.5 117t75 159t28 171.5q0 111 -52.5 177.5t-142.5 66.5q-100 0 -191 -71t-145.5 -189t-54.5 -248q0 -110 55 -169.5t166 -59.5zM1047 451q-13 -54 -13 -111q0 -120 69 -189t189 -69q147 0 254 123l113 -47q-84 -82 -191.5 -130t-228.5 -48 q-120 0 -207.5 47.5t-128.5 134.5q-161 -182 -424 -182q-161 0 -246.5 85t-85.5 236q0 129 50.5 246.5t129.5 198t177 128.5t192 48q126 0 215 -47t127 -138q81 86 180.5 135.5t196.5 49.5q84 0 150 -28.5t106 -78t60 -111.5t20 -133q0 -63 -14 -120h-690zM1081 553h508 q2 14 2 43q0 103 -42.5 163t-127.5 60q-104 0 -195.5 -74.5t-144.5 -191.5z" />
<glyph unicode="&#x154;" horiz-adv-x="1101" d="M92 0zM1046 1888l90 -92l-354 -295l-51 54zM424 1434h420q79 0 142.5 -18t103.5 -47.5t67 -69.5t38 -82.5t11 -88.5q0 -64 -24.5 -131.5t-69.5 -129t-117 -112t-159 -75.5q64 -83 113.5 -250.5t49.5 -312.5q0 -64 -12 -117h-168q10 41 10 106q0 147 -56 312.5t-132 236.5 h-223l-152 -655h-174zM573 1331l-133 -573h277q90 0 164 58t112.5 142t38.5 170q0 87 -43.5 145t-138.5 58h-277z" />
<glyph unicode="&#x155;" horiz-adv-x="770" d="M150 0zM899 1458l90 -92l-354 -295l-51 54zM881 741q-21 78 -158 78q-62 0 -110 -21.5t-99 -66.5q0 -22 -6 -43l-160 -688h-164l144 625q12 53 12 94q0 45 -12 72.5t-33 27.5q-28 0 -49.5 -14.5t-26.5 -34.5h-69q14 63 71.5 107.5t126.5 44.5q94 0 141 -80 q69 42 122.5 61t121.5 19q106 0 182 -29z" />
<glyph unicode="&#x156;" horiz-adv-x="1101" d="M92 0zM271 -352q54 0 91.5 4t75.5 14.5t58 34.5t20 61q0 32 -29 49.5t-98 24.5l13 58q108 0 175.5 -35.5t67.5 -89.5q0 -28 -20.5 -56t-62.5 -54.5t-120.5 -43t-181.5 -16.5zM424 1434h420q79 0 142.5 -18t103.5 -47.5t67 -69.5t38 -82.5t11 -88.5q0 -64 -24.5 -131.5 t-69.5 -129t-117 -112t-159 -75.5q64 -83 113.5 -250.5t49.5 -312.5q0 -64 -12 -117h-168q10 41 10 106q0 147 -56 312.5t-132 236.5h-223l-152 -655h-174zM573 1331l-133 -573h277q90 0 164 58t112.5 142t38.5 170q0 87 -43.5 145t-138.5 58h-277z" />
<glyph unicode="&#x157;" horiz-adv-x="770" d="M55 0zM66 -352q54 0 91.5 4t75.5 14.5t58 34.5t20 61q0 32 -29 49.5t-98 24.5l13 58q108 0 175.5 -35.5t67.5 -89.5q0 -28 -20.5 -56t-62.5 -54.5t-120.5 -43t-181.5 -16.5zM881 741q-21 78 -158 78q-62 0 -110 -21.5t-99 -66.5q0 -22 -6 -43l-160 -688h-164l144 625 q12 53 12 94q0 45 -12 72.5t-33 27.5q-28 0 -49.5 -14.5t-26.5 -34.5h-69q14 63 71.5 107.5t126.5 44.5q94 0 141 -80q69 42 122.5 61t121.5 19q106 0 182 -29z" />
<glyph unicode="&#x158;" horiz-adv-x="1101" d="M573 1331l-133 -573h277q90 0 164 58t112.5 142t38.5 170q0 87 -43.5 145t-138.5 58h-277zM845 1434q98 0 171 -27t113 -72t58.5 -96.5t18.5 -110.5q0 -64 -24.5 -131.5t-69.5 -129t-117 -112t-159 -75.5q64 -83 113.5 -250.5t49.5 -312.5q0 -64 -12 -117h-168 q10 41 10 106q0 147 -56 312.5t-132 236.5h-223l-152 -655h-174l332 1434h351l-138 284l76 54l135 -181l217 181l51 -54z" />
<glyph unicode="&#x159;" horiz-adv-x="770" d="M150 0zM653 955l-161 334l75 53l136 -180l217 180l51 -53zM881 741q-21 78 -158 78q-62 0 -110 -21.5t-99 -66.5q0 -22 -6 -43l-160 -688h-164l144 625q12 53 12 94q0 45 -12 72.5t-33 27.5q-28 0 -49.5 -14.5t-26.5 -34.5h-69q14 63 71.5 107.5t126.5 44.5q94 0 141 -80 q69 42 122.5 61t121.5 19q106 0 182 -29z" />
<glyph unicode="&#x15a;" horiz-adv-x="1198" d="M207 0zM1161 1888l90 -92l-354 -295l-51 54zM1200 455q0 -92 -43 -177.5t-120.5 -151.5t-195 -106t-255.5 -40q-149 0 -262.5 111t-116.5 259l168 31q0 -4 -1 -13.5t-1 -13.5q0 -109 78 -190.5t172 -81.5q91 0 163.5 25.5t116 64t72 87t39 90t10.5 77.5q0 60 -33 108.5 t-85 81.5t-115.5 62.5t-127 61t-115.5 67.5t-85 91t-33 124q0 90 48 172.5t122.5 138t164 88.5t173.5 33q140 0 240.5 -63.5t140.5 -165.5l-162 -43q-53 170 -260 170q-101 0 -194 -93t-93 -202q0 -47 25.5 -86.5t67 -67t94.5 -56.5t108 -53.5t108 -58t94.5 -70.5t67 -91 t25.5 -119z" />
<glyph unicode="&#x15b;" horiz-adv-x="860" d="M88 0zM856 1458l90 -92l-354 -295l-51 54zM252 639q0 48 24 98t65 91t104 67.5t135 26.5q103 0 179.5 -30.5t153.5 -96.5l-137 -72l-29 29t-27 26t-22.5 16.5t-30 15t-33.5 6t-48 3.5q-47 0 -82.5 -18t-52.5 -45.5t-25 -52t-8 -46.5q0 -84 135 -110q303 -59 303 -234 q0 -42 -14.5 -86t-49 -89t-84.5 -79.5t-129 -56.5t-176 -22q-58 0 -99.5 7.5t-81 29.5t-62.5 40t-72 60l107 76l24 -20t23 -19.5t20 -16t21.5 -15t21 -12t24 -10.5t25 -7t30 -6.5t33.5 -3t40 -1.5q61 0 107 21t68.5 48t36 61t16.5 52.5t3 30.5q0 55 -48 84.5t-134 44.5 q-125 25 -189.5 80t-64.5 135z" />
<glyph unicode="&#x15c;" horiz-adv-x="1198" d="M207 0zM1239 1594l-113 -91l-141 177l-225 -177l-72 91l324 208zM1200 455q0 -92 -43 -177.5t-120.5 -151.5t-195 -106t-255.5 -40q-149 0 -262.5 111t-116.5 259l168 31q0 -4 -1 -13.5t-1 -13.5q0 -109 78 -190.5t172 -81.5q91 0 163.5 25.5t116 64t72 87t39 90 t10.5 77.5q0 60 -33 108.5t-85 81.5t-115.5 62.5t-127 61t-115.5 67.5t-85 91t-33 124q0 90 48 172.5t122.5 138t164 88.5t173.5 33q140 0 240.5 -63.5t140.5 -165.5l-162 -43q-53 170 -260 170q-101 0 -194 -93t-93 -202q0 -47 25.5 -86.5t67 -67t94.5 -56.5t108 -53.5 t108 -58t94.5 -70.5t67 -91t25.5 -119z" />
<glyph unicode="&#x15d;" horiz-adv-x="860" d="M88 0zM934 1164l-113 -91l-141 177l-225 -177l-72 91l324 208zM252 639q0 48 24 98t65 91t104 67.5t135 26.5q103 0 179.5 -30.5t153.5 -96.5l-137 -72l-29 29t-27 26t-22.5 16.5t-30 15t-33.5 6t-48 3.5q-47 0 -82.5 -18t-52.5 -45.5t-25 -52t-8 -46.5q0 -84 135 -110 q303 -59 303 -234q0 -42 -14.5 -86t-49 -89t-84.5 -79.5t-129 -56.5t-176 -22q-58 0 -99.5 7.5t-81 29.5t-62.5 40t-72 60l107 76l24 -20t23 -19.5t20 -16t21.5 -15t21 -12t24 -10.5t25 -7t30 -6.5t33.5 -3t40 -1.5q61 0 107 21t68.5 48t36 61t16.5 52.5t3 30.5 q0 55 -48 84.5t-134 44.5q-125 25 -189.5 80t-64.5 135z" />
<glyph unicode="&#x15e;" horiz-adv-x="1198" d="M360 -352q42 0 73.5 2t66 9t56 19t36 33t14.5 51q0 32 -29 49.5t-98 24.5l59 147q-134 19 -231 125.5t-100 241.5l168 31q0 -4 -1 -13.5t-1 -13.5q0 -109 78 -190.5t172 -81.5q91 0 163.5 25.5t116 64t72 87t39 90t10.5 77.5q0 60 -33 108.5t-85 81.5t-115.5 62.5 t-127 61t-115.5 67.5t-85 91t-33 124q0 90 48 172.5t122.5 138t164 88.5t173.5 33q140 0 240.5 -63.5t140.5 -165.5l-162 -43q-53 170 -260 170q-101 0 -194 -93t-93 -202q0 -47 25.5 -86.5t67 -67t94.5 -56.5t108 -53.5t108 -58t94.5 -70.5t67 -91t25.5 -119 q0 -87 -38.5 -168.5t-108.5 -146.5t-176 -108t-232 -51l-31 -92q55 -9 88 -37.5t33 -72.5q0 -46 -33 -81.5t-88.5 -56.5t-122.5 -31.5t-141 -10.5z" />
<glyph unicode="&#x15f;" horiz-adv-x="860" d="M184 -352q42 0 73.5 2t66 9t56 19t36 33t14.5 51q0 32 -29 49.5t-98 24.5l58 145q-60 4 -109 23.5t-77 40.5t-87 72l107 76l24 -20t23 -19.5t20 -16t21.5 -15t21 -12t24 -10.5t25 -7t30 -6.5t33.5 -3t40 -1.5q61 0 107 21t68.5 48t36 61t16.5 52.5t3 30.5q0 55 -48 84.5 t-134 44.5q-125 25 -189.5 80t-64.5 135q0 48 24 98t65 91t104 67.5t135 26.5q103 0 179.5 -30.5t153.5 -96.5l-137 -72l-29 29t-27 26t-22.5 16.5t-30 15t-33.5 6t-48 3.5q-47 0 -82.5 -18t-52.5 -45.5t-25 -52t-8 -46.5q0 -84 135 -110q303 -59 303 -234q0 -39 -12.5 -80 t-42 -83.5t-72.5 -76.5t-110.5 -59t-149.5 -32l-31 -93q55 -9 88 -37.5t33 -72.5q0 -46 -33 -81.5t-88.5 -56.5t-122.5 -31.5t-141 -10.5z" />
<glyph unicode="&#x160;" horiz-adv-x="1198" d="M1200 455q0 -92 -43 -177.5t-120.5 -151.5t-195 -106t-255.5 -40q-149 0 -262.5 111t-116.5 259l168 31q0 -4 -1 -13.5t-1 -13.5q0 -109 78 -190.5t172 -81.5q91 0 163.5 25.5t116 64t72 87t39 90t10.5 77.5q0 60 -33 108.5t-85 81.5t-115.5 62.5t-127 61t-115.5 67.5 t-85 91t-33 124q0 83 40.5 159.5t105.5 131t145 91t160 46.5l-129 268l75 54l136 -181l217 181l51 -54l-253 -265q125 -9 214.5 -71.5t126.5 -156.5l-162 -43q-53 170 -260 170q-101 0 -194 -93t-93 -202q0 -47 25.5 -86.5t67 -67t94.5 -56.5t108 -53.5t108 -58t94.5 -70.5 t67 -91t25.5 -119z" />
<glyph unicode="&#x161;" horiz-adv-x="860" d="M88 0zM608 955l-161 334l75 53l136 -180l217 180l51 -53zM252 639q0 48 24 98t65 91t104 67.5t135 26.5q103 0 179.5 -30.5t153.5 -96.5l-137 -72l-29 29t-27 26t-22.5 16.5t-30 15t-33.5 6t-48 3.5q-47 0 -82.5 -18t-52.5 -45.5t-25 -52t-8 -46.5q0 -84 135 -110 q303 -59 303 -234q0 -42 -14.5 -86t-49 -89t-84.5 -79.5t-129 -56.5t-176 -22q-58 0 -99.5 7.5t-81 29.5t-62.5 40t-72 60l107 76l24 -20t23 -19.5t20 -16t21.5 -15t21 -12t24 -10.5t25 -7t30 -6.5t33.5 -3t40 -1.5q61 0 107 21t68.5 48t36 61t16.5 52.5t3 30.5 q0 55 -48 84.5t-134 44.5q-125 25 -189.5 80t-64.5 135z" />
<glyph unicode="&#x162;" horiz-adv-x="1198" d="M381 -352q42 0 73.5 2t66 9t56 19t36 33t14.5 51q0 32 -29 49.5t-98 24.5l65 164h-33l308 1331h-512l24 103h1202l-28 -103h-512l-307 -1331h-35l-37 -111q55 -9 88 -37.5t33 -72.5q0 -46 -33 -81.5t-88.5 -56.5t-122.5 -31.5t-141 -10.5z" />
<glyph unicode="&#x163;" horiz-adv-x="577" d="M139 -352q42 0 73.5 2t66 9t56 19t36 33t14.5 51q0 32 -29 49.5t-98 24.5l64 159q-43 20 -68 63t-25 98q0 22 7 57l135 586h-135l55 102h104l68 297l172 31l-76 -328h162l-25 -102h-161l-121 -523q-11 -48 -11 -94q0 -100 43 -100q28 0 50.5 14.5t27.5 34.5h70 q-13 -56 -61 -98t-109 -51l-31 -93q55 -9 88 -37.5t33 -72.5q0 -46 -33 -81.5t-88.5 -56.5t-122.5 -31.5t-141 -10.5z" />
<glyph unicode="&#x164;" horiz-adv-x="1198" d="M918 1434l-138 284l76 54l135 -181l217 181l52 -54l-271 -284h565l-28 -103h-512l-307 -1331h-175l308 1331h-512l24 103h566z" />
<glyph unicode="&#x165;" horiz-adv-x="577" d="M229 0zM657 985q88 94 88 191q0 14 -3 48t-3 54q0 38 8 74h148q-15 -64 -31.5 -117t-27 -83t-30 -63.5t-25 -42t-27 -34.5t-21.5 -27h-76zM414 276q-11 -48 -11 -94q0 -100 43 -100q28 0 50.5 14.5t27.5 34.5h70q-13 -63 -71.5 -107t-127.5 -44q-73 0 -119.5 49.5 t-46.5 126.5q0 22 7 57l135 586h-135l55 102h104l68 297l172 31l-76 -328h162l-25 -102h-161z" />
<glyph unicode="&#x166;" horiz-adv-x="1198" d="M352 1434h1202l-28 -103h-512l-76 -327h152l-25 -103h-150l-208 -901h-175l209 901h-161l24 103h160l76 327h-512z" />
<glyph unicode="&#x167;" horiz-adv-x="577" d="M414 276q-11 -48 -11 -94q0 -100 43 -100q28 0 50.5 14.5t27.5 34.5h70q-13 -63 -71.5 -107t-127.5 -44q-73 0 -119.5 49.5t-46.5 126.5q0 22 7 57l65 287h-141l24 102h142l45 197h-135l55 102h104l68 297l172 31l-76 -328h162l-25 -102h-161l-46 -197h181l-25 -102h-180 z" />
<glyph unicode="&#x168;" horiz-adv-x="1306" d="M176 0zM1229 1698h84q-29 -80 -93.5 -131t-150.5 -51q-38 0 -88 32.5t-69 32.5q-100 0 -123 -65h-84q29 80 93 131t150 51q38 0 88.5 -33t69.5 -33q100 0 123 66zM1311 1434h174l-191 -824q-35 -149 -90.5 -261.5t-120.5 -181.5t-147.5 -112t-163 -59t-174.5 -16 q-60 0 -115 11t-112.5 40t-99.5 74.5t-68.5 120.5t-26.5 171q0 93 27 213l190 824h174l-190 -824q-27 -123 -27 -209q0 -76 19 -135t47.5 -93t67.5 -55t75 -28.5t74 -7.5q51 0 101 13t108.5 49.5t108 93.5t95 152.5t74.5 219.5z" />
<glyph unicode="&#x169;" horiz-adv-x="1110" d="M154 0zM989 1268h84q-29 -80 -93.5 -131t-150.5 -51q-38 0 -88 32.5t-69 32.5q-100 0 -123 -65h-84q29 80 93 131t150 51q38 0 88.5 -33t69.5 -33q100 0 123 66zM946 276q-10 -44 -10 -94q0 -100 43 -100q28 0 50.5 14.5t27.5 34.5h69q-13 -63 -71 -107t-127 -44 q-96 0 -144 81q-70 -38 -153 -59.5t-156 -21.5q-166 0 -243.5 63.5t-77.5 196.5q0 71 22 170l115 491h164l-109 -467q-20 -84 -20 -153q0 -110 53.5 -154.5t148.5 -44.5q118 0 234 92q0 3 6 39l160 688h164z" />
<glyph unicode="&#x16a;" horiz-adv-x="1306" d="M176 0zM750 1598h471l-19 -82h-471zM1311 1434h174l-191 -824q-35 -149 -90.5 -261.5t-120.5 -181.5t-147.5 -112t-163 -59t-174.5 -16q-60 0 -115 11t-112.5 40t-99.5 74.5t-68.5 120.5t-26.5 171q0 93 27 213l190 824h174l-190 -824q-27 -123 -27 -209q0 -76 19 -135 t47.5 -93t67.5 -55t75 -28.5t74 -7.5q51 0 101 13t108.5 49.5t108 93.5t95 152.5t74.5 219.5z" />
<glyph unicode="&#x16b;" horiz-adv-x="1110" d="M154 0zM510 1168h471l-19 -82h-471zM946 276q-10 -44 -10 -94q0 -100 43 -100q28 0 50.5 14.5t27.5 34.5h69q-13 -63 -71 -107t-127 -44q-96 0 -144 81q-70 -38 -153 -59.5t-156 -21.5q-166 0 -243.5 63.5t-77.5 196.5q0 71 22 170l115 491h164l-109 -467 q-20 -84 -20 -153q0 -110 53.5 -154.5t148.5 -44.5q118 0 234 92q0 3 6 39l160 688h164z" />
<glyph unicode="&#x16c;" horiz-adv-x="1306" d="M176 0zM1004 1632q56 0 110 30t66 65l74 -21q-28 -78 -108.5 -134t-168.5 -56q-82 0 -135 50t-53 122q0 3 1 9t1 9l82 21v-4q0 -34 38.5 -62.5t92.5 -28.5zM1311 1434h174l-191 -824q-35 -149 -90.5 -261.5t-120.5 -181.5t-147.5 -112t-163 -59t-174.5 -16q-60 0 -115 11 t-112.5 40t-99.5 74.5t-68.5 120.5t-26.5 171q0 93 27 213l190 824h174l-190 -824q-27 -123 -27 -209q0 -76 19 -135t47.5 -93t67.5 -55t75 -28.5t74 -7.5q51 0 101 13t108.5 49.5t108 93.5t95 152.5t74.5 219.5z" />
<glyph unicode="&#x16d;" horiz-adv-x="1110" d="M154 0zM764 1202q56 0 110 30t66 65l74 -21q-28 -78 -108.5 -134t-168.5 -56q-82 0 -135 50t-53 122q0 3 1 9t1 9l82 21v-4q0 -34 38.5 -62.5t92.5 -28.5zM946 276q-10 -44 -10 -94q0 -100 43 -100q28 0 50.5 14.5t27.5 34.5h69q-13 -63 -71 -107t-127 -44q-96 0 -144 81 q-70 -38 -153 -59.5t-156 -21.5q-166 0 -243.5 63.5t-77.5 196.5q0 71 22 170l115 491h164l-109 -467q-20 -84 -20 -153q0 -110 53.5 -154.5t148.5 -44.5q118 0 234 92q0 3 6 39l160 688h164z" />
<glyph unicode="&#x16e;" horiz-adv-x="1306" d="M176 0zM1311 1434h174l-191 -824q-35 -149 -90.5 -261.5t-120.5 -181.5t-147.5 -112t-163 -59t-174.5 -16q-60 0 -115 11t-112.5 40t-99.5 74.5t-68.5 120.5t-26.5 171q0 93 27 213l190 824h174l-190 -824q-27 -123 -27 -209q0 -76 19 -135t47.5 -93t67.5 -55t75 -28.5 t74 -7.5q51 0 101 13t108.5 49.5t108 93.5t95 152.5t74.5 219.5zM1012 1663q-42 0 -80.5 -33t-38.5 -81q0 -31 21.5 -52.5t54.5 -21.5q42 0 79.5 33t37.5 81q0 31 -20.5 52.5t-53.5 21.5zM830 1534q0 77 62.5 134t133.5 57q55 0 89 -34t34 -87q0 -77 -61.5 -134t-132.5 -57 q-55 0 -90 34t-35 87z" />
<glyph unicode="&#x16f;" horiz-adv-x="1110" d="M154 0zM946 276q-10 -44 -10 -94q0 -100 43 -100q28 0 50.5 14.5t27.5 34.5h69q-13 -63 -71 -107t-127 -44q-96 0 -144 81q-70 -38 -153 -59.5t-156 -21.5q-166 0 -243.5 63.5t-77.5 196.5q0 71 22 170l115 491h164l-109 -467q-20 -84 -20 -153q0 -110 53.5 -154.5 t148.5 -44.5q118 0 234 92q0 3 6 39l160 688h164zM772 1233q-42 0 -80.5 -33t-38.5 -81q0 -31 21.5 -52.5t54.5 -21.5q42 0 79.5 33t37.5 81q0 31 -20.5 52.5t-53.5 21.5zM590 1104q0 77 62.5 134t133.5 57q55 0 89 -34t34 -87q0 -77 -61.5 -134t-132.5 -57q-55 0 -90 34 t-35 87z" />
<glyph unicode="&#x170;" horiz-adv-x="1306" d="M176 0zM1272 1501zM1358 1888l90 -92l-354 -295l-51 54zM1030 1888l90 -92l-354 -295l-51 54zM1311 1434h174l-191 -824q-35 -149 -90.5 -261.5t-120.5 -181.5t-147.5 -112t-163 -59t-174.5 -16q-60 0 -115 11t-112.5 40t-99.5 74.5t-68.5 120.5t-26.5 171q0 93 27 213 l190 824h174l-190 -824q-27 -123 -27 -209q0 -76 19 -135t47.5 -93t67.5 -55t75 -28.5t74 -7.5q51 0 101 13t108.5 49.5t108 93.5t95 152.5t74.5 219.5z" />
<glyph unicode="&#x171;" horiz-adv-x="1110" d="M154 0zM1032 1071zM1118 1458l90 -92l-354 -295l-51 54zM790 1458l90 -92l-354 -295l-51 54zM946 276q-10 -44 -10 -94q0 -100 43 -100q28 0 50.5 14.5t27.5 34.5h69q-13 -63 -71 -107t-127 -44q-96 0 -144 81q-70 -38 -153 -59.5t-156 -21.5q-166 0 -243.5 63.5 t-77.5 196.5q0 71 22 170l115 491h164l-109 -467q-20 -84 -20 -153q0 -110 53.5 -154.5t148.5 -44.5q118 0 234 92q0 3 6 39l160 688h164z" />
<glyph unicode="&#x172;" horiz-adv-x="1306" d="M1311 1434h174l-191 -824q-35 -149 -90.5 -261.5t-120.5 -181.5t-147.5 -112t-163 -59t-174.5 -16h-15q-116 -68 -116 -175q0 -44 32.5 -66t110.5 -22l-8 -36q-139 0 -196.5 32.5t-57.5 79.5q0 49 49.5 100.5t125.5 90.5q-54 7 -101 23.5t-93.5 48.5t-79 76.5t-53 112.5 t-20.5 152q0 93 27 213l190 824h174l-190 -824q-27 -123 -27 -209q0 -76 19 -135t47.5 -93t67.5 -55t75 -28.5t74 -7.5q51 0 101 13t108.5 49.5t108 93.5t95 152.5t74.5 219.5z" />
<glyph unicode="&#x173;" horiz-adv-x="1110" d="M946 276q-10 -44 -10 -94q0 -100 43 -100q28 0 50.5 14.5t27.5 34.5h69q-13 -63 -71 -107t-127 -44q-21 0 -31 2q-121 -69 -121 -177q0 -44 33 -66t111 -22l-9 -36q-139 0 -196.5 32.5t-57.5 79.5q0 53 57 108.5t142 93.5q-46 21 -72 66q-70 -38 -153 -59.5t-156 -21.5 q-166 0 -243.5 63.5t-77.5 196.5q0 71 22 170l115 491h164l-109 -467q-20 -84 -20 -153q0 -110 53.5 -154.5t148.5 -44.5q118 0 234 92q0 3 6 39l160 688h164z" />
<glyph unicode="&#x174;" horiz-adv-x="1701" d="M332 0zM1393 1198l-113 -91l-141 177l-225 -177l-72 91l324 208zM465 0l-133 1434h172l108 -1182l363 649h178l59 -649l658 1182h172l-797 -1434h-180l-61 645l-359 -645h-180z" />
<glyph unicode="&#x175;" horiz-adv-x="1587" d="M270 0zM1337 1164l-113 -91l-141 177l-225 -177l-72 91l324 208zM512 205l414 696h149l92 -696l414 696h164l-537 -901h-164l-90 676l-401 -676h-164l-119 901h150z" />
<glyph unicode="&#x176;" horiz-adv-x="1075" d="M414 0zM1182 1594l-113 -91l-141 177l-225 -177l-72 91l324 208zM745 899l398 535h184l-539 -725l-163 -709h-174l163 711l-200 723h184z" />
<glyph unicode="&#x177;" horiz-adv-x="931" d="M0 0zM1022 1164l-113 -91l-141 177l-225 -177l-72 91l324 208zM137 -348q-55 0 -94 33t-86 102l145 66q31 -64 49 -81.5t39 -17.5q19 0 35.5 9.5t40 41t35.5 50.5t47 77q9 15 14 23l27 45l-119 901h150l92 -696l414 696h164l-568 -950q-88 -148 -180 -223.5t-205 -75.5z " />
<glyph unicode="&#x178;" horiz-adv-x="1075" d="M414 0zM1158 1516zM1008 1665h150l-35 -149h-150zM680 1665h150l-35 -149h-150zM745 899l398 535h184l-539 -725l-163 -709h-174l163 711l-200 723h184z" />
<glyph unicode="&#x179;" horiz-adv-x="1075" d="M41 0zM1059 1888l90 -92l-354 -295l-51 54zM1026 1331h-668l56 103h872l-987 -1332h688l-24 -102h-922z" />
<glyph unicode="&#x17a;" horiz-adv-x="845" d="M154 0zM811 1458l90 -92l-354 -295l-51 54zM668 799h-484l56 102h688l-447 -389q33 -20 63.5 -42t67 -56.5t63 -70.5t44.5 -83.5t18 -95.5q0 -73 -30.5 -135t-79 -101.5t-107 -70.5t-117.5 -47.5t-107 -26.5q-50 -10 -80 -13l-30 -3l-32 81q9 1 24 2.5t58.5 10.5t83 22 t88 37.5t83 55t58.5 78.5t24 104q0 42 -15 82t-39.5 71t-53.5 59t-58 47.5t-53.5 33.5t-39.5 21l-15 7z" />
<glyph unicode="&#x17b;" horiz-adv-x="1075" d="M41 0zM799 1665h150l-35 -149h-150zM1026 1331h-668l56 103h872l-987 -1332h688l-24 -102h-922z" />
<glyph unicode="&#x17c;" horiz-adv-x="845" d="M154 0zM542 1045zM577 1194h150l-35 -149h-150zM668 799h-484l56 102h688l-447 -389q33 -20 63.5 -42t67 -56.5t63 -70.5t44.5 -83.5t18 -95.5q0 -73 -30.5 -135t-79 -101.5t-107 -70.5t-117.5 -47.5t-107 -26.5q-50 -10 -80 -13l-30 -3l-32 81q9 1 24 2.5t58.5 10.5 t83 22t88 37.5t83 55t58.5 78.5t24 104q0 42 -15 82t-39.5 71t-53.5 59t-58 47.5t-53.5 33.5t-39.5 21l-15 7z" />
<glyph unicode="&#x17d;" horiz-adv-x="1075" d="M1026 1331h-668l56 103h373l-138 284l76 54l135 -181l217 181l51 -54l-270 -284h428l-987 -1332h688l-24 -102h-922z" />
<glyph unicode="&#x17e;" horiz-adv-x="845" d="M154 0zM455 1045zM616 1045l-161 334l75 53l136 -180l217 180l51 -53zM668 799h-484l56 102h688l-447 -389q33 -20 63.5 -42t67 -56.5t63 -70.5t44.5 -83.5t18 -95.5q0 -73 -30.5 -135t-79 -101.5t-107 -70.5t-117.5 -47.5t-107 -26.5q-50 -10 -80 -13l-30 -3l-32 81 q9 1 24 2.5t58.5 10.5t83 22t88 37.5t83 55t58.5 78.5t24 104q0 42 -15 82t-39.5 71t-53.5 59t-58 47.5t-53.5 33.5t-39.5 21l-15 7z" />
<glyph unicode="&#x17f;" horiz-adv-x="731" d="M92 0l199 864q26 114 45 181t48 131.5t60.5 96.5t83 57.5t115 33.5t156.5 8q53 0 104 -14.5t82.5 -30.5t83.5 -47l-127 -106q-65 53 -106.5 74.5t-92.5 21.5q-50 0 -84.5 -6.5t-60 -21.5t-42 -37.5t-29.5 -56.5t-23.5 -75.5t-22.5 -98.5q-9 -42 -14 -65l-211 -909h-164z " />
<glyph unicode="&#x180;" horiz-adv-x="1120" d="M453 471l-39 -168q-8 -33 -8 -67q0 -46 18.5 -78t53.5 -48t73 -22t88 -6q63 0 120 33t98.5 87t71.5 117.5t46 131.5q14 60 14 131q0 104 -44 170.5t-136 66.5q-91 0 -166 -48.5t-121.5 -125.5t-68.5 -174zM541 852q121 70 262 70q184 0 269 -85t85 -231q0 -76 -18 -155 q-23 -100 -66.5 -182.5t-110 -148.5t-162.5 -103t-214 -37q-72 0 -126.5 9.5t-105.5 35t-78.5 77.5t-27.5 129q0 61 18 138l164 716h-98l24 103h99l37 164h163l-37 -164h224l-25 -103h-223z" />
<glyph unicode="&#x181;" horiz-adv-x="1341" d="M946 829q118 0 217 96.5t99 233.5q0 73 -35.5 122.5t-120.5 49.5h-225l-115 -502h180zM1440 1188q0 -67 -19.5 -128t-47 -102t-64.5 -76.5t-64.5 -54t-54.5 -32.5q90 -41 133 -119.5t43 -177.5q0 -92 -34 -178t-99.5 -159t-175.5 -117t-248 -44h-410l306 1325 q-61 -10 -108 -37t-72 -63.5t-37.5 -74t-12.5 -73.5q0 -15 4.5 -26t9 -15t15.5 -12l-51 -106q-31 12 -53 23t-48.5 30.5t-40.5 48t-14 63.5q0 54 30 114t83.5 113.5t138 88.5t182.5 35h369q340 0 340 -246zM864 102q75 0 138 34t103 89.5t62.5 124t22.5 139.5q0 47 -10 88 t-30.5 75.5t-56.5 54.5t-85 20h-267l-143 -625h266z" />
<glyph unicode="&#x186;" horiz-adv-x="1331" d="M152 209l133 55q76 -182 313 -182q50 0 108 16t122 48t126 85t117 120.5t100 162t70 203.5q29 125 29 229q0 197 -95 301.5t-245 104.5q-232 0 -395 -174l-140 67q216 209 590 209q87 0 167 -31t145.5 -91t105 -160.5t39.5 -227.5q0 -101 -27 -227q-29 -124 -82.5 -232 t-121 -187t-145.5 -141t-159 -100t-157 -57.5t-144 -19.5q-161 0 -279 63t-175 166z" />
<glyph unicode="&#x187;" horiz-adv-x="1523" d="M1040 1331q-101 0 -191.5 -39t-157 -105t-120 -149t-86 -174.5t-50 -178.5t-17.5 -163q0 -89 23 -164t61 -125t87 -85t100 -50.5t102 -15.5q240 0 399 182l108 -55q-104 -103 -252 -166t-309 -63q-70 0 -139 19.5t-133.5 62t-113.5 103t-79 150t-30 195.5q0 84 26 207 q34 148 99.5 270.5t144.5 203.5t171 137t180 81t171 25q131 0 244.5 -27.5t177.5 -81.5q55 60 132 89.5t155 29.5q127 0 184 -92l-143 -62q-22 51 -96 51q-60 0 -98 -58t-68 -187l-170 -68q10 48 10 80q0 63 -28 108.5t-76.5 69.5t-102 34.5t-115.5 10.5z" />
<glyph unicode="&#x188;" horiz-adv-x="1140" d="M178 324q0 119 50 231t128 191.5t176.5 127.5t192.5 48q123 0 203 -58q37 130 142.5 195t223.5 65q128 0 185 -92l-144 -61q-22 51 -96 51q-52 0 -93 -52t-71 -182l-26 -112l-148 -68q-3 97 -45.5 154t-124.5 57q-101 0 -191.5 -71.5t-143 -182t-52.5 -225.5 q0 -120 69 -189t189 -69q147 0 254 123l113 -47q-84 -82 -191.5 -130t-228.5 -48q-170 0 -270.5 92.5t-100.5 251.5z" />
<glyph unicode="&#x189;" horiz-adv-x="1216" d="M92 0zM92 0zM1329 1020q0 -58 -9.5 -134.5t-34 -175.5t-61 -195.5t-96 -190.5t-133.5 -165t-179.5 -115t-227.5 -44h-496l162 700h-76l25 103h76l145 631h496q409 0 409 -414zM453 803h368l-24 -103h-369l-137 -598h352q85 0 161.5 51t130.5 134t98 183.5t70.5 205.5 t40 194t13.5 154q0 161 -63 234t-168 73h-353z" />
<glyph unicode="&#x18a;" horiz-adv-x="1529" d="M881 1331l-283 -1229h352q142 0 271.5 158t203.5 477q39 166 39 287q0 161 -63 234t-168 73h-352zM1636 1020q0 -58 -9.5 -134.5t-34 -175.5t-61 -195.5t-96 -190.5t-133.5 -165t-179.5 -115t-227.5 -44h-496l306 1325q-60 -10 -105 -35.5t-67.5 -54t-36.5 -63t-17.5 -56 t-3.5 -39.5q0 -15 4.5 -26t9 -15t15.5 -12l-51 -106q-31 12 -53 23t-48.5 30.5t-40.5 48t-14 63.5q0 54 30 114t83.5 113.5t138 88.5t182.5 35h496q409 0 409 -414z" />
<glyph unicode="&#x18e;" horiz-adv-x="1118" d="M96 0l25 102h686l160 697h-469l24 102h469l99 430h-654l25 103h827l-332 -1434h-860z" />
<glyph unicode="&#x18f;" horiz-adv-x="1402" d="M1284 614h-881q-6 -55 -6 -104q0 -107 30.5 -193t78 -135t98.5 -74.5t98 -25.5q73 0 153 31t160.5 92.5t152.5 167.5t116 241zM1313 717q26 118 26 221q0 200 -97 307t-241 107q-232 0 -395 -174l-139 67q216 209 590 209q85 0 164 -31.5t145.5 -92t106.5 -162t40 -228.5 q0 -105 -26 -223q-36 -158 -103.5 -285.5t-149 -210t-178.5 -138.5t-190 -79.5t-186 -23.5q-88 0 -168.5 31t-147 91t-106 160t-39.5 227q0 93 29 228h1065z" />
<glyph unicode="&#x190;" horiz-adv-x="1077" d="M748 799q-106 0 -200.5 -70.5t-147 -171.5t-52.5 -199q0 -49 11.5 -95.5t35 -88t67 -67t101.5 -25.5q132 0 211.5 48t126.5 155l141 -41q-74 -120 -193.5 -192t-277.5 -72q-87 0 -157 23t-114 60.5t-73 87t-41 99.5t-12 102q0 148 106 290.5t261 207.5q-144 68 -144 215 q0 71 33.5 139.5t94.5 124.5t156.5 90.5t209.5 34.5q113 0 208.5 -56t127.5 -159l-162 -41v19q0 73 -58 104t-171 31q-116 0 -189.5 -85t-73.5 -188q0 -80 63 -129t198 -49h71l-24 -102h-133z" />
<glyph unicode="&#x191;" horiz-adv-x="1087" d="M332 -68q-17 -73 -58.5 -129t-95.5 -87.5t-111 -47.5t-114 -16q-129 0 -186 92l143 61q22 -51 96 -51q60 0 99 58.5t69 187.5l332 1434h827l-24 -103h-654l-98 -430h469l-25 -102h-469z" />
<glyph unicode="&#x192;" horiz-adv-x="559" d="M313 -68q-22 -96 -84.5 -161.5t-134.5 -92t-149 -26.5q-130 0 -187 92l144 61q22 -51 96 -51q60 0 99 58.5t69 187.5l184 799h-135l55 102h105l45 195q28 125 113 200.5t206 75.5q85 0 140 -22l-68 -111q-19 31 -66 31q-64 0 -104 -49t-70 -179l-32 -141h161l-24 -102 h-162z" />
<glyph unicode="&#x193;" horiz-adv-x="1523" d="M1040 1331q-101 0 -191.5 -39t-157 -105t-120 -149t-86 -174.5t-50 -178.5t-17.5 -163q0 -89 23 -164t61 -125t87 -85t100 -50.5t102 -15.5q198 0 344 127l116 508h-172l23 102h336l-140 -610q-104 -103 -252 -166t-309 -63q-70 0 -139 19.5t-133.5 62t-113.5 103 t-79 150t-30 195.5q0 84 26 207q34 148 99.5 270.5t144.5 203.5t171 137t180 81t171 25q131 0 244.5 -27.5t177.5 -81.5q55 60 132 89.5t155 29.5q127 0 184 -92l-143 -62q-22 51 -96 51q-60 0 -98 -58t-68 -187l-170 -68q10 48 10 80q0 63 -28 108.5t-76.5 69.5t-102 34.5 t-115.5 10.5z" />
<glyph unicode="&#x194;" horiz-adv-x="1153" d="M506 -315q47 0 47 90q0 28 -4 102q-66 -117 -66 -166q0 -26 23 -26zM336 -305q0 94 190 411l-170 1328h162l135 -1110l654 1110h159l-786 -1325q22 -158 22 -283q0 -61 -8 -92q-18 -74 -75.5 -113t-135.5 -39q-67 0 -107 29t-40 84z" />
<glyph unicode="&#x196;" horiz-adv-x="641" d="M504 1434h174l-256 -1106q-33 -150 -33 -185q0 -61 51 -61q28 0 43.5 9.5t46.5 41.5l115 -61q-54 -50 -97 -71t-99 -21q-99 0 -163.5 48.5t-64.5 147.5q0 32 10 84z" />
<glyph unicode="&#x197;" horiz-adv-x="514" d="M231 799l25 102h125l123 533h174l-123 -533h125l-25 -102h-125l-184 -799h-174l184 799h-125z" />
<glyph unicode="&#x198;" horiz-adv-x="1374" d="M801 776l432 -776h-193l-366 662l-217 -193l-109 -469h-174l332 1434h174l-172 -738l641 570q103 91 185.5 139.5t172.5 48.5q93 0 158.5 -52.5t65.5 -144.5q0 -50 -19 -96.5t-46 -78.5t-59 -58t-55.5 -39.5t-38.5 -17.5l-34 114q43 25 69 60t32.5 58.5t6.5 45.5 q0 40 -24 68t-62 28q-42 0 -83.5 -26.5t-141.5 -116.5z" />
<glyph unicode="&#x199;" horiz-adv-x="980" d="M422 477l475 424h188l-448 -399l276 -502h-176l-221 395l-143 -127l-62 -268h-164l252 1092q17 73 57 129t93 87.5t109 47.5t112 16q127 0 184 -92l-143 -61q-22 51 -96 51q-60 0 -99 -58.5t-69 -187.5z" />
<glyph unicode="&#x19c;" horiz-adv-x="1871" d="M2015 1352l-311 -1352h-174l24 102q-23 -24 -43 -40.5t-54 -38t-79 -32.5t-98 -11q-144 0 -215.5 35t-108.5 112q-82 -76 -179.5 -111.5t-178.5 -35.5q-350 0 -350 282q0 66 18 148l217 942h174l-211 -918q-24 -111 -24 -180q0 -95 42 -133.5t126 -38.5q122 2 220.5 81.5 t137.5 246.5l217 942h174l-211 -918q-24 -111 -24 -180q0 -95 42 -133.5t126 -38.5q52 0 106 24t97 61t75.5 75t53.5 73l237 1037h174z" />
<glyph unicode="&#x19d;" horiz-adv-x="1275" d="M459 1352h174l-15 -70q5 2 28 13t33 15.5t34.5 14.5t40 15t41.5 12t47.5 10.5t49 6.5t54.5 3q190 0 298 -79.5t108 -233.5q0 -53 -15 -117l-217 -942h-174l211 918q19 84 19 137q0 215 -224 215q-180 0 -368 -135l-279 -1203q-17 -73 -58.5 -129t-95.5 -87.5t-111 -47.5 t-114 -16q-129 0 -186 92l143 61q22 -51 97 -51q60 0 98.5 58.5t68.5 187.5z" />
<glyph unicode="&#x19e;" horiz-adv-x="1034" d="M287 625q12 53 12 94q0 45 -12 72.5t-33 27.5q-28 0 -49.5 -14.5t-26.5 -34.5h-69q14 63 71.5 107.5t126.5 44.5q95 0 142 -80q138 80 280 80q348 0 348 -281q0 -57 -20 -149l-207 -902h-164l203 877q24 108 24 176q0 98 -45.5 137t-132.5 39q-128 0 -264 -98 q-1 -5 -2 -16t-2 -17l-160 -688h-164z" />
<glyph unicode="&#x19f;" horiz-adv-x="1435" d="M700 -20q-88 0 -168 31t-146.5 91t-106 160t-39.5 227q0 97 28 228q34 148 97.5 272.5t140.5 209t166.5 143t177.5 85.5t172 27q107 0 198 -30.5t161.5 -90.5t110.5 -159t40 -226q0 -109 -29 -231q-43 -186 -127.5 -330t-193.5 -231.5t-231 -131.5t-251 -44zM1315 666 h-883q-14 -80 -14 -158q0 -86 20 -158.5t52.5 -121t74.5 -82.5t85 -49t85 -15q59 0 123.5 22.5t132 70t128 115t112.5 165t84 211.5zM1339 768q17 86 17 170q0 105 -29 186.5t-78.5 130t-110 73t-128.5 24.5q-54 0 -114.5 -22.5t-124.5 -70t-122 -114.5t-109 -165t-83 -212 h882z" />
<glyph unicode="&#x1a0;" d="M969 1352q-109 0 -218.5 -75.5t-191 -194.5t-133 -272.5t-51.5 -301.5q0 -107 30.5 -192t79 -134t102.5 -74.5t107 -25.5q112 0 224.5 71.5t199.5 187.5t142 274.5t55 322.5q0 105 -29 186.5t-78.5 130t-110 73t-128.5 24.5zM659 -20q-88 0 -168.5 31t-147 91t-105.5 160 t-39 227q0 135 37.5 274t109 262t165.5 219.5t216.5 153t253.5 56.5q179 0 311 -86.5t178 -253.5q41 14 73 49.5t32 69.5q0 25 -27.5 76.5t-27.5 87.5q0 41 34 64.5t82 23.5q43 0 43 -58q0 -138 -54.5 -233.5t-143.5 -120.5q10 -49 10 -125q0 -85 -16 -176t-50 -186 t-82.5 -182.5t-118 -165t-152 -135t-189 -90.5t-224.5 -33z" />
<glyph unicode="&#x1a1;" horiz-adv-x="1013" d="M1065 594q0 -48 -9 -101.5t-30 -114t-51.5 -116.5t-78.5 -108t-106.5 -90t-138.5 -61t-172 -23q-161 0 -246.5 84.5t-85.5 236.5q0 129 50.5 246.5t129.5 198t177 128.5t192 48q149 0 244.5 -64t118.5 -188q38 18 64 49.5t26 62.5q0 25 -27.5 76.5t-27.5 87.5 q0 41 34 64.5t82 23.5q43 0 43 -57q0 -134 -52 -228t-138 -124q0 -5 1 -15.5t1 -15.5zM532 82q76 0 145.5 45.5t116.5 117t75 159t28 171.5q0 113 -51.5 178.5t-143.5 65.5q-100 0 -191 -71t-145.5 -189t-54.5 -248q0 -110 55.5 -169.5t165.5 -59.5z" />
<glyph unicode="&#x1a2;" horiz-adv-x="1765" d="M1501 -412h-174l299 1301q33 150 33 184q0 62 -51 62q-28 0 -43.5 -9.5t-46.5 -42.5q12 -64 12 -139q0 -101 -27 -227q-43 -186 -127.5 -330t-193.5 -231.5t-231 -131.5t-251 -44q-88 0 -168 31t-146.5 91t-106 160t-39.5 227q0 97 28 228q34 148 97.5 272.5t140.5 209 t166.5 143t177.5 85.5t172 27q155 0 275.5 -62.5t181.5 -187.5q56 33 120 33q99 0 163.5 -48.5t64.5 -148.5q0 -32 -10 -84zM1010 1352q-72 0 -153.5 -40t-162 -115t-149 -200.5t-103.5 -279.5q-26 -113 -26 -209q0 -107 30.5 -192t79 -134t102.5 -74.5t107 -25.5 q62 0 129.5 24t138 76t132.5 125t114 179.5t80 230.5q27 123 27 221q0 105 -29 186.5t-78.5 130t-110 73t-128.5 24.5z" />
<glyph unicode="&#x1a3;" horiz-adv-x="1392" d="M176 301q0 129 50.5 246.5t129.5 198t177 128.5t192 48q207 0 301 -117q61 43 137 43q99 0 162.5 -48.5t63.5 -148.5q0 -27 -11 -84l-225 -977h-174l209 910q33 150 33 184q0 61 -52 61q-28 0 -43.5 -9.5t-46.5 -41.5q13 -50 13 -102q0 -48 -9 -101t-29.5 -113t-51 -116 t-78.5 -108t-106 -90t-138 -61t-172 -23q-161 0 -246.5 85t-85.5 236zM561 82q76 0 145.5 45.5t116.5 117t75 159t28 171.5q0 111 -52.5 177.5t-142.5 66.5q-100 0 -191 -71t-145.5 -189t-54.5 -248q0 -110 55 -169.5t166 -59.5z" />
<glyph unicode="&#x1a4;" horiz-adv-x="1314" d="M1024 758q90 0 164 58t112.5 142t38.5 170q0 87 -43.5 145t-138.5 58h-276l-133 -573h276zM1513 1128q0 -62 -22 -127t-68 -127t-109 -111t-152 -78.5t-191 -29.5h-246l-152 -655h-174l306 1325q-60 -10 -105 -35.5t-67.5 -54t-36.5 -63t-17.5 -56t-3.5 -39.5 q0 -15 4.5 -26t9 -15t15.5 -12l-51 -106q-31 12 -53 23t-48.5 30.5t-40.5 48t-14 63.5q0 54 30 114t83.5 113.5t138 88.5t182.5 35h420q79 0 142.5 -18t103.5 -47.5t67 -69.5t38 -82.5t11 -88.5z" />
<glyph unicode="&#x1a5;" horiz-adv-x="1087" d="M1120 575q0 -114 -49.5 -223t-129.5 -189.5t-185.5 -129.5t-212.5 -49q-136 0 -217 75l-109 -469h-164l320 1383q22 96 84.5 161.5t134.5 92t149 26.5q130 0 187 -92l-144 -61q-22 51 -96 51q-60 0 -99 -58.5t-69 -187.5l-8 -39q109 60 268 60q158 0 249 -98t91 -253z M598 86q75 0 158 66.5t141.5 181t58.5 235.5q0 108 -43.5 181t-124.5 73q-156 0 -240 -81.5t-120 -237.5q-25 -105 -25 -182q0 -105 46 -170.5t149 -65.5z" />
<glyph unicode="&#x1a9;" horiz-adv-x="1040" d="M625 1331l276 -606l-569 -623h676l-25 -102h-922l656 725l-316 709h873l6 -103h-655z" />
<glyph unicode="&#x1ac;" horiz-adv-x="1314" d="M297 1083q0 54 30 114t83.5 113.5t138 88.5t182.5 35h844l-25 -103h-516l-307 -1331h-174l307 1331h-139q-98 0 -172 -77.5t-74 -176.5q0 -15 4.5 -26t9 -15t15.5 -12l-51 -106q-31 12 -53 23t-48.5 30.5t-40.5 48t-14 63.5z" />
<glyph unicode="&#x1ad;" horiz-adv-x="577" d="M559 901h162l-25 -102h-161l-121 -523q-11 -48 -11 -94q0 -100 43 -100q28 0 50.5 14.5t27.5 34.5h70q-13 -63 -71.5 -107t-127.5 -44q-73 0 -119.5 49.5t-46.5 126.5q0 22 7 57l135 586h-135l55 102h104l45 191q17 73 57 129t93 87.5t109 47.5t112 16q127 0 184 -92 l-143 -61q-22 51 -96 51q-60 0 -99 -58.5t-69 -187.5z" />
<glyph unicode="&#x1ae;" horiz-adv-x="1280" d="M727 0q-22 -96 -22 -147q0 -99 75 -99q72 0 121 51l115 -61q-99 -92 -228 -92q-67 0 -123.5 20t-96.5 69.5t-40 121.5q0 31 9 69l323 1399h-512l25 103h1202l-25 -103h-516z" />
<glyph unicode="&#x1af;" horiz-adv-x="1357" d="M1311 1434h174l-76 -326h66q50 0 96.5 40.5t46.5 84.5q0 25 -27.5 76.5t-27.5 87.5q0 41 34 64.5t82 23.5q43 0 43 -58q0 -161 -73 -261.5t-185 -100.5h-65l-105 -455q-35 -149 -90.5 -261.5t-120.5 -181.5t-147.5 -112t-163 -59t-174.5 -16q-60 0 -115 11t-112.5 40 t-99.5 74.5t-68.5 120.5t-26.5 171q0 93 27 213l190 824h174l-190 -824q-27 -123 -27 -209q0 -76 19 -135t47.5 -93t67.5 -55t75 -28.5t74 -7.5q51 0 101 13t108.5 49.5t108 93.5t95 152.5t74.5 219.5z" />
<glyph unicode="&#x1b0;" horiz-adv-x="1110" d="M946 276q-10 -44 -10 -94q0 -100 43 -100q28 0 50.5 14.5t27.5 34.5h69q-13 -63 -71 -107t-127 -44q-96 0 -144 81q-70 -38 -153 -59.5t-156 -21.5q-166 0 -243.5 63.5t-77.5 196.5q0 71 22 170l115 491h164l-109 -467q-20 -84 -20 -153q0 -110 53.5 -154.5t148.5 -44.5 q118 0 234 92q0 3 6 39l160 688h164l-58 -244h64q50 0 96.5 40.5t46.5 84.5q0 25 -27.5 76.5t-27.5 87.5q0 41 34.5 64.5t82.5 23.5q43 0 43 -57q0 -161 -73.5 -262t-185.5 -101h-63z" />
<glyph unicode="&#x1b1;" horiz-adv-x="1402" d="M717 82q87 0 165 37t135 99.5t102.5 141.5t73.5 165.5t43 169t15 155.5q0 131 -41.5 223t-117.5 115l57 246h328l-25 -103h-154l-20 -92q59 -72 100 -186.5t41 -243.5q0 -79 -18 -158q-32 -138 -91 -252t-130.5 -190t-155.5 -129t-166.5 -76.5t-163.5 -23.5 q-67 0 -128.5 16.5t-116.5 52.5t-95.5 88.5t-64 129t-23.5 169.5q0 105 26.5 209t68.5 188.5t99 163t113.5 136.5t116.5 106l21 92h-154l25 103h327l-57 -246q-102 -26 -198.5 -145.5t-156 -289t-59.5 -333.5q0 -166 73.5 -252t205.5 -86z" />
<glyph unicode="&#x1b2;" horiz-adv-x="1402" d="M1159 1434h195q31 -89 46 -137t28.5 -125.5t13.5 -157.5q0 -164 -58 -416q-32 -139 -108 -258t-173 -196t-204.5 -120.5t-206.5 -43.5q-63 0 -114.5 6.5t-112.5 30.5t-102 64t-69 113.5t-28 172.5q0 118 31 247l190 820h175l-191 -820q-31 -129 -31 -237q0 -79 20 -136.5 t47.5 -87t70.5 -46.5t75 -21t74 -4q97 0 200 77t179 195.5t104 243.5q52 225 52 383q0 46 -5 92t-9.5 75t-19 79t-19.5 65t-26 74t-24 68z" />
<glyph unicode="&#x1b3;" horiz-adv-x="1189" d="M1364 1198q4 14 4 39q0 48 -26 78.5t-68 30.5q-27 0 -51 -11t-52 -40t-45 -50.5t-53 -70.5q-9 -13 -14 -19l-330 -446l-164 -709h-174l164 711l-201 723h185l147 -535l211 285q29 40 55 71t68 71.5t82.5 67t95 45.5t109.5 19q99 0 154 -56t55 -138q0 -22 -7 -54z" />
<glyph unicode="&#x1b4;" horiz-adv-x="1116" d="M741 623q88 148 181 223.5t206 75.5q55 0 94.5 -33.5t86.5 -102.5l-148 -65q-21 44 -38 66.5t-26.5 27t-23.5 4.5q-18 0 -34 -9t-38.5 -39t-33.5 -47t-44 -73q-13 -22 -20 -33l-397 -667q-88 -148 -180 -223.5t-205 -75.5q-55 0 -94 33t-86 102l145 66q31 -64 49 -81.5 t39 -17.5q19 0 35.5 9.5t40 41t35.5 50.5t47 77q9 15 14 23l27 45l-119 901h149l91 -696z" />
<glyph unicode="&#x1b5;" horiz-adv-x="1040" d="M1057 1331h-678l55 103h873l-478 -635h168l-24 -103h-221l-443 -594h699l-25 -102h-922l521 696h-176l24 103h229z" />
<glyph unicode="&#x1b6;" horiz-adv-x="860" d="M758 799h-531l56 102h743l-338 -383h111l-23 -102h-178l-274 -314h524l-25 -102h-770l367 416h-129l22 102h197z" />
<glyph unicode="&#x1b7;" horiz-adv-x="1030" d="M506 82q61 0 125.5 35t118 93.5t88 144.5t34.5 180q0 109 -56.5 178t-182.5 69h-123l455 549h-500l24 103h744l-453 -549q105 0 186 -93.5t81 -246.5q0 -117 -50 -225t-127.5 -181t-172 -116t-183.5 -43q-197 0 -289 76t-92 212q0 18 4 58l139 14q-2 -16 -2 -45 q0 -99 58 -156t174 -57z" />
<glyph unicode="&#x1c0;" horiz-adv-x="456" d="M174 0zM619 1434l-332 -1434h-113l332 1434h113z" />
<glyph unicode="&#x1c1;" horiz-adv-x="722" d="M174 0zM619 1434l-332 -1434h-113l332 1434h113zM885 1434l-332 -1434h-113l332 1434h113z" />
<glyph unicode="&#x1c2;" horiz-adv-x="708" d="M383 573h-221l24 103h220l28 123h-219l23 102h221l123 533h112l-123 -533h211l-22 -102h-213l-29 -123h213l-24 -103h-211l-134 -573h-112z" />
<glyph unicode="&#x1c3;" horiz-adv-x="356" d="M92 0zM129 164h164l-37 -164h-164zM588 1434l-277 -1065h-102l215 1065h164z" />
<glyph unicode="&#x1cd;" horiz-adv-x="1275" d="M31 0zM1092 6zM31 0l854 1434h180l190 -1434h-163l-56 410h-598l-243 -410h-164zM928 1231l-428 -719h524zM826 1516zM987 1516l-161 334l75 53l136 -180l217 180l51 -53z" />
<glyph unicode="&#x1ce;" horiz-adv-x="1058" d="M154 0zM154 309q0 111 49 224.5t124 198t170.5 137.5t184.5 53q79 0 148 -14t106 -29t88 -41l-129 -562q-12 -53 -12 -98q0 -43 11.5 -69.5t31.5 -26.5q28 0 50.5 14.5t27.5 34.5h71q-13 -63 -72.5 -107t-128.5 -44q-84 0 -131 63q-151 -63 -303 -63q-132 0 -209 92.5 t-77 236.5zM852 797q-61 22 -164 22q-72 0 -132 -30t-99.5 -80t-69.5 -108.5t-45.5 -121t-23 -111t-7.5 -85.5q0 -108 51 -154.5t132 -46.5q110 0 217 49v25q0 27 6 57zM539 1045zM700 1045l-161 334l75 53l136 -180l217 180l51 -53z" />
<glyph unicode="&#x1cf;" horiz-adv-x="436" d="M92 0zM598 1434l-332 -1434h-174l332 1434h174zM359 1516zM520 1516l-161 334l75 53l136 -180l217 180l51 -53z" />
<glyph unicode="&#x1d0;" horiz-adv-x="483" d="M135 0zM319 276q-10 -44 -10 -94q0 -100 43 -100q28 0 50.5 14.5t27.5 34.5h70q-13 -63 -71.5 -107t-127.5 -44q-73 0 -119.5 49.5t-46.5 126.5q0 27 6 57l160 688h164zM273 1045zM434 1045l-161 334l75 53l136 -180l217 180l51 -53z" />
<glyph unicode="&#x1d1;" d="M199 0zM659 -20q-88 0 -168.5 31t-147 91t-105.5 160t-39 227q0 135 37.5 274t109 262t165.5 219.5t216.5 153t253.5 56.5q107 0 198 -31t161.5 -91t110.5 -158.5t40 -225.5q0 -85 -16 -176t-50 -186t-82.5 -182.5t-118 -165t-152 -135t-189 -90.5t-224.5 -33zM969 1352 q-109 0 -218.5 -75.5t-191 -194.5t-133 -272.5t-51.5 -301.5q0 -107 30.5 -192t79 -134t102.5 -74.5t107 -25.5q112 0 224.5 71.5t199.5 187.5t142 274.5t55 322.5q0 105 -29 186.5t-78.5 130t-110 73t-128.5 24.5zM912 1516zM1073 1516l-161 334l75 53l136 -180l217 180 l51 -53z" />
<glyph unicode="&#x1d2;" horiz-adv-x="1013" d="M147 0zM532 82q76 0 145.5 45.5t116.5 117t75 159t28 171.5q0 113 -51.5 178.5t-143.5 65.5q-100 0 -191 -71t-145.5 -189t-54.5 -248q0 -110 55.5 -169.5t165.5 -59.5zM1065 594q0 -48 -9 -101.5t-30 -114t-51.5 -116.5t-78.5 -108t-106.5 -90t-138.5 -61t-172 -23 q-161 0 -246.5 84.5t-85.5 236.5q0 129 50.5 246.5t129.5 198t177 128.5t192 48q171 0 270 -84t99 -244zM613 1045zM774 1045l-161 334l75 53l136 -180l217 180l51 -53z" />
<glyph unicode="&#x1d3;" horiz-adv-x="1306" d="M176 0zM1311 1434h174l-191 -824q-35 -149 -90.5 -261.5t-120.5 -181.5t-147.5 -112t-163 -59t-174.5 -16q-60 0 -115 11t-112.5 40t-99.5 74.5t-68.5 120.5t-26.5 171q0 93 27 213l190 824h174l-190 -824q-27 -123 -27 -209q0 -76 19 -135t47.5 -93t67.5 -55t75 -28.5 t74 -7.5q51 0 101 13t108.5 49.5t108 93.5t95 152.5t74.5 219.5zM801 1434zM962 1434l-161 334l75 53l136 -180l217 180l51 -53z" />
<glyph unicode="&#x1d4;" horiz-adv-x="1110" d="M154 0zM946 276q-10 -44 -10 -94q0 -100 43 -100q28 0 50.5 14.5t27.5 34.5h69q-13 -63 -71 -107t-127 -44q-96 0 -144 81q-70 -38 -153 -59.5t-156 -21.5q-166 0 -243.5 63.5t-77.5 196.5q0 71 22 170l115 491h164l-109 -467q-20 -84 -20 -153q0 -110 53.5 -154.5 t148.5 -44.5q118 0 234 92q0 3 6 39l160 688h164zM645 1045zM806 1045l-161 334l75 53l136 -180l217 180l51 -53z" />
<glyph unicode="&#x1d5;" horiz-adv-x="1306" d="M176 0zM1311 1434h174l-191 -824q-35 -149 -90.5 -261.5t-120.5 -181.5t-147.5 -112t-163 -59t-174.5 -16q-60 0 -115 11t-112.5 40t-99.5 74.5t-68.5 120.5t-26.5 171q0 93 27 213l190 824h174l-190 -824q-27 -123 -27 -209q0 -76 19 -135t47.5 -93t67.5 -55t75 -28.5 t74 -7.5q51 0 101 13t108.5 49.5t108 93.5t95 152.5t74.5 219.5zM1219 1434zM1069 1583h150l-35 -149h-150zM741 1583h150l-35 -149h-150zM787 1751h471l-19 -82h-471z" />
<glyph unicode="&#x1d6;" horiz-adv-x="1110" d="M154 0zM154 0zM1008 1086zM858 1235h150l-35 -149h-150zM530 1235h150l-35 -149h-150zM946 276q-10 -44 -10 -94q0 -100 43 -100q28 0 50.5 14.5t27.5 34.5h69q-13 -63 -71 -107t-127 -44q-96 0 -144 81q-70 -38 -153 -59.5t-156 -21.5q-166 0 -243.5 63.5t-77.5 196.5 q0 71 22 170l115 491h164l-109 -467q-20 -84 -20 -153q0 -110 53.5 -154.5t148.5 -44.5q118 0 234 92q0 3 6 39l160 688h164zM602 1469h471l-19 -82h-471z" />
<glyph unicode="&#x1d7;" horiz-adv-x="1306" d="M176 0zM1168 1917l90 -92l-256 -186l-51 53zM1311 1434h174l-191 -824q-35 -149 -90.5 -261.5t-120.5 -181.5t-147.5 -112t-163 -59t-174.5 -16q-60 0 -115 11t-112.5 40t-99.5 74.5t-68.5 120.5t-26.5 171q0 93 27 213l190 824h174l-190 -824q-27 -123 -27 -209 q0 -76 19 -135t47.5 -93t67.5 -55t75 -28.5t74 -7.5q51 0 101 13t108.5 49.5t108 93.5t95 152.5t74.5 219.5zM1211 1434zM1061 1583h150l-35 -149h-150zM733 1583h150l-35 -149h-150z" />
<glyph unicode="&#x1d8;" horiz-adv-x="1110" d="M154 0zM973 1632l90 -92l-256 -186l-51 53zM154 0zM1008 1086zM858 1235h150l-35 -149h-150zM530 1235h150l-35 -149h-150zM946 276q-10 -44 -10 -94q0 -100 43 -100q28 0 50.5 14.5t27.5 34.5h69q-13 -63 -71 -107t-127 -44q-96 0 -144 81q-70 -38 -153 -59.5 t-156 -21.5q-166 0 -243.5 63.5t-77.5 196.5q0 71 22 170l115 491h164l-109 -467q-20 -84 -20 -153q0 -110 53.5 -154.5t148.5 -44.5q118 0 234 92q0 3 6 39l160 688h164z" />
<glyph unicode="&#x1d9;" horiz-adv-x="1306" d="M176 0zM1311 1434h174l-191 -824q-35 -149 -90.5 -261.5t-120.5 -181.5t-147.5 -112t-163 -59t-174.5 -16q-60 0 -115 11t-112.5 40t-99.5 74.5t-68.5 120.5t-26.5 171q0 93 27 213l190 824h174l-190 -824q-27 -123 -27 -209q0 -76 19 -135t47.5 -93t67.5 -55t75 -28.5 t74 -7.5q51 0 101 13t108.5 49.5t108 93.5t95 152.5t74.5 219.5zM1207 1434zM1057 1583h150l-35 -149h-150zM729 1583h150l-35 -149h-150zM803 1579zM964 1579l-161 334l75 53l136 -180l217 180l51 -53z" />
<glyph unicode="&#x1da;" horiz-adv-x="1110" d="M154 0zM154 0zM1008 1086zM858 1235h150l-35 -149h-150zM530 1235h150l-35 -149h-150zM946 276q-10 -44 -10 -94q0 -100 43 -100q28 0 50.5 14.5t27.5 34.5h69q-13 -63 -71 -107t-127 -44q-96 0 -144 81q-70 -38 -153 -59.5t-156 -21.5q-166 0 -243.5 63.5t-77.5 196.5 q0 71 22 170l115 491h164l-109 -467q-20 -84 -20 -153q0 -110 53.5 -154.5t148.5 -44.5q118 0 234 92q0 3 6 39l160 688h164zM611 1258zM772 1258l-161 334l75 53l136 -180l217 180l51 -53z" />
<glyph unicode="&#x1db;" horiz-adv-x="1306" d="M176 0zM943 1917l114 -225l-76 -53l-170 186zM1311 1434h174l-191 -824q-35 -149 -90.5 -261.5t-120.5 -181.5t-147.5 -112t-163 -59t-174.5 -16q-60 0 -115 11t-112.5 40t-99.5 74.5t-68.5 120.5t-26.5 171q0 93 27 213l190 824h174l-190 -824q-27 -123 -27 -209 q0 -76 19 -135t47.5 -93t67.5 -55t75 -28.5t74 -7.5q51 0 101 13t108.5 49.5t108 93.5t95 152.5t74.5 219.5zM1211 1434zM1061 1583h150l-35 -149h-150zM733 1583h150l-35 -149h-150z" />
<glyph unicode="&#x1dc;" horiz-adv-x="1110" d="M154 0zM756 1630l114 -225l-76 -53l-170 186zM154 0zM1008 1086zM858 1235h150l-35 -149h-150zM530 1235h150l-35 -149h-150zM946 276q-10 -44 -10 -94q0 -100 43 -100q28 0 50.5 14.5t27.5 34.5h69q-13 -63 -71 -107t-127 -44q-96 0 -144 81q-70 -38 -153 -59.5 t-156 -21.5q-166 0 -243.5 63.5t-77.5 196.5q0 71 22 170l115 491h164l-109 -467q-20 -84 -20 -153q0 -110 53.5 -154.5t148.5 -44.5q118 0 234 92q0 3 6 39l160 688h164z" />
<glyph unicode="&#x1dd;" horiz-adv-x="964" d="M150 330q0 121 188 121h516q12 56 12 110q0 120 -69 189t-189 69q-147 0 -254 -123l-112 47q84 82 191.5 130.5t228.5 48.5q169 0 269.5 -92.5t100.5 -251.5q0 -119 -50 -231t-128 -191.5t-176.5 -127.5t-192.5 -48q-84 0 -150 28.5t-105.5 78t-59.5 111t-20 132.5z M819 348h-424q-45 0 -65.5 -9.5t-20.5 -33.5q0 -103 42.5 -163t127.5 -60q104 0 195.5 74.5t144.5 191.5z" />
<glyph unicode="&#x1de;" horiz-adv-x="1275" d="M31 0zM1092 0zM1114 1665h150l-35 -149h-150zM786 1665h150l-35 -149h-150zM1092 6zM31 0l854 1434h180l190 -1434h-163l-56 410h-598l-243 -410h-164zM928 1231l-428 -719h524zM830 1833h471l-19 -82h-471z" />
<glyph unicode="&#x1df;" horiz-adv-x="1058" d="M154 0zM154 0zM1020 1086zM870 1235h150l-35 -149h-150zM542 1235h150l-35 -149h-150zM154 309q0 111 49 224.5t124 198t170.5 137.5t184.5 53q79 0 148 -14t106 -29t88 -41l-129 -562q-12 -53 -12 -98q0 -43 11.5 -69.5t31.5 -26.5q28 0 50.5 14.5t27.5 34.5h71 q-13 -63 -72.5 -107t-128.5 -44q-84 0 -131 63q-151 -63 -303 -63q-132 0 -209 92.5t-77 236.5zM852 797q-61 22 -164 22q-72 0 -132 -30t-99.5 -80t-69.5 -108.5t-45.5 -121t-23 -111t-7.5 -85.5q0 -108 51 -154.5t132 -46.5q110 0 217 49v25q0 27 6 57zM604 1465h471 l-19 -82h-471z" />
<glyph unicode="&#x1e4;" horiz-adv-x="1458" d="M1312 451l-55 -242q-104 -103 -252 -166t-309 -63q-70 0 -139 19.5t-133.5 62t-113.5 103t-79 150t-30 195.5q0 123 36.5 253t107 249.5t164.5 214t220.5 151t263.5 56.5q386 0 496 -189l-168 -67q-72 153 -322 153q-101 0 -191.5 -39t-157 -105t-120 -149t-86 -174.5 t-50 -178.5t-17.5 -163q0 -89 23 -164t61 -125t87 -85t100 -50.5t102 -15.5q196 0 342 127l56 242h-167l25 102h166l38 164h-172l21 102h336l-60 -266h156l-25 -102h-154z" />
<glyph unicode="&#x1e5;" horiz-adv-x="1091" d="M723 104q-105 -43 -215 -43q-163 0 -252.5 87t-89.5 241q0 115 40.5 215.5t109 169.5t159.5 108.5t191 39.5q167 0 256 -107q40 50 94.5 78.5t109.5 28.5q59 0 96.5 -33.5t37.5 -85.5q0 -8 -5 -33h-69v8q0 17 -16 29t-40 12q-31 0 -67 -57.5t-55 -136.5l-88 -383 q-44 -187 -80 -275h182l-25 -102h-204q-64 -111 -164.5 -162t-263.5 -51q-150 0 -304 92l127 106q116 -96 230 -96q136 0 211 111h-203l25 102h229q25 65 43 137zM672 819q-66 0 -123 -24t-96 -65t-67 -95t-41 -113.5t-13 -120.5q0 -113 58 -175t171 -62q110 0 191 63 l90 381q-3 97 -45.5 154t-124.5 57z" />
<glyph unicode="&#x1e6;" horiz-adv-x="1325" d="M1395 819l-138 -610q-104 -103 -252 -166t-309 -63q-70 0 -139 19.5t-133.5 62t-113.5 103t-79 150t-30 195.5q0 121 35.5 249t104 246t160.5 212.5t214.5 153t256.5 62.5l-138 285l75 54l135 -181l218 181l51 -54l-272 -285q345 -11 448 -188l-168 -67q-72 153 -322 153 q-101 0 -191.5 -39t-157 -105t-120 -149t-86 -174.5t-50 -178.5t-17.5 -163q0 -89 23 -164t61 -125t87 -85t100 -50.5t102 -15.5q196 0 342 127l118 508h-172l21 102h336z" />
<glyph unicode="&#x1e7;" horiz-adv-x="1091" d="M61 0zM723 955l-161 334l75 53l136 -180l217 180l51 -53zM672 819q-82 0 -152 -49.5t-114 -125.5t-68.5 -161.5t-24.5 -163.5q0 -112 58.5 -174.5t171.5 -62.5q109 0 190 63l109 463q-3 97 -45.5 154t-124.5 57zM705 23q-105 -43 -216 -43q-163 0 -252.5 87t-89.5 240 q0 154 73 297t194 230.5t252 87.5q167 0 256 -107q40 50 94.5 78.5t109.5 28.5q59 0 96.5 -33.5t37.5 -85.5q0 -8 -5 -33h-69v8q0 17 -16 29t-40 12q-31 0 -67 -57.5t-55 -136.5l-107 -465q-25 -109 -47 -180.5t-53.5 -132.5t-67 -95.5t-89.5 -58.5t-120 -32.5t-159 -8.5 q-150 0 -304 92l127 106q116 -96 230 -96q71 0 117 13t78 47.5t51.5 81.5t40.5 127z" />
<glyph unicode="&#x1e8;" horiz-adv-x="1239" d="M92 0zM696 1385zM857 1385l-161 334l75 53l136 -180l217 180l51 -53zM375 469l-109 -469h-174l332 1434h174l-170 -738l825 738h205l-737 -658l430 -776h-193l-368 662z" />
<glyph unicode="&#x1e9;" horiz-adv-x="917" d="M143 0zM578 1309zM739 1309l-161 334l75 53l136 -180l217 180l51 -53zM307 0h-164l248 1075q12 53 12 94q0 45 -12 73t-33 28q-27 0 -48.5 -14.5t-26.5 -34.5h-70q13 63 71.5 107t127.5 44q73 0 119.5 -49.5t46.5 -126.5q0 -12 -9 -57l-151 -662l475 424h188l-450 -399 l278 -502h-176l-221 395l-143 -127z" />
<glyph unicode="&#x1ea;" d="M969 1352q-109 0 -218.5 -75.5t-191 -194.5t-133 -272.5t-51.5 -301.5q0 -107 30.5 -192t79 -134t102.5 -74.5t107 -25.5q112 0 224.5 71.5t199.5 187.5t142 274.5t55 322.5q0 105 -29 186.5t-78.5 130t-110 73t-128.5 24.5zM686 -20q-117 -69 -117 -175q0 -44 33 -66 t111 -22l-8 -36q-139 0 -196.5 32.5t-57.5 79.5q0 48 47 98.5t121 89.5q-83 7 -156.5 41t-133.5 94.5t-95 156.5t-35 216q0 135 37.5 274t109 262t165.5 219.5t216.5 153t253.5 56.5q107 0 198 -31t161.5 -91t110.5 -158.5t40 -225.5q0 -118 -30 -246t-96 -255t-158 -228.5 t-227.5 -167.5t-293.5 -71z" />
<glyph unicode="&#x1eb;" horiz-adv-x="1013" d="M532 82q76 0 145.5 45.5t116.5 117t75 159t28 171.5q0 113 -51.5 178.5t-143.5 65.5q-100 0 -191 -71t-145.5 -189t-54.5 -248q0 -110 55.5 -169.5t165.5 -59.5zM461 -20q-152 5 -233 89t-81 232q0 129 50.5 246.5t129.5 198t177 128.5t192 48q171 0 270 -84t99 -244 q0 -46 -8 -97t-27 -109t-47.5 -112t-71.5 -105t-96.5 -90.5t-126 -66t-155.5 -32.5q-119 -68 -119 -177q0 -44 32.5 -66t110.5 -22l-8 -36q-139 0 -196.5 32.5t-57.5 79.5q0 48 46.5 98.5t119.5 88.5z" />
<glyph unicode="&#x1ee;" horiz-adv-x="1030" d="M506 82q61 0 125.5 35t118 93.5t88 144.5t34.5 180q0 109 -56.5 178t-182.5 69h-123l455 549h-500l24 103h335l-138 284l76 54l135 -181l217 181l51 -54l-270 -284h338l-453 -549q105 0 186 -93.5t81 -246.5q0 -117 -50 -225t-127.5 -181t-172 -116t-183.5 -43 q-197 0 -289 76t-92 212q0 18 4 58l139 14q-2 -16 -2 -45q0 -99 58 -156t174 -57z" />
<glyph unicode="&#x1ef;" horiz-adv-x="940" d="M0 0zM348 -307q147 0 248.5 105.5t101.5 264.5q0 207 -252 207h-122l450 529h-530l55 102h743l-448 -528q51 0 97.5 -16.5t86 -49.5t63 -89.5t23.5 -129.5q0 -109 -42.5 -203.5t-113 -158t-162.5 -100t-190 -36.5q-150 0 -247.5 61t-120.5 152l139 50q12 -73 74.5 -116.5 t146.5 -43.5zM700 955l-161 334l75 53l136 -180l217 180l51 -53z" />
<glyph unicode="&#x1f4;" horiz-adv-x="1325" d="M201 0zM1243 1888l90 -92l-354 -295l-51 54zM1395 819l-138 -610q-104 -103 -252 -166t-309 -63q-70 0 -139 19.5t-133.5 62t-113.5 103t-79 150t-30 195.5q0 123 36.5 253t107 249.5t164.5 214t220.5 151t263.5 56.5q386 0 496 -189l-168 -67q-72 153 -322 153 q-101 0 -191.5 -39t-157 -105t-120 -149t-86 -174.5t-50 -178.5t-17.5 -163q0 -89 23 -164t61 -125t87 -85t100 -50.5t102 -15.5q196 0 342 127l118 508h-172l21 102h336z" />
<glyph unicode="&#x1f5;" horiz-adv-x="1091" d="M61 0zM944 1458l90 -92l-354 -295l-51 54zM672 819q-82 0 -152 -49.5t-114 -125.5t-68.5 -161.5t-24.5 -163.5q0 -112 58.5 -174.5t171.5 -62.5q109 0 190 63l109 463q-3 97 -45.5 154t-124.5 57zM705 23q-105 -43 -216 -43q-163 0 -252.5 87t-89.5 240q0 154 73 297 t194 230.5t252 87.5q167 0 256 -107q40 50 94.5 78.5t109.5 28.5q59 0 96.5 -33.5t37.5 -85.5q0 -8 -5 -33h-69v8q0 17 -16 29t-40 12q-31 0 -67 -57.5t-55 -136.5l-107 -465q-25 -109 -47 -180.5t-53.5 -132.5t-67 -95.5t-89.5 -58.5t-120 -32.5t-159 -8.5q-150 0 -304 92 l127 106q116 -96 230 -96q71 0 117 13t78 47.5t51.5 81.5t40.5 127z" />
<glyph unicode="&#x1f8;" horiz-adv-x="1325" d="M92 0zM977 0l-449 1137l-262 -1137h-174l332 1434h174h2l449 -1139l264 1139h174l-332 -1434h-178zM777 1577zM777 1577zM908 1964l164 -333l-76 -54l-219 295z" />
<glyph unicode="&#x1f9;" horiz-adv-x="1075" d="M150 0zM328 625q12 53 12 94q0 45 -12 72.5t-33 27.5q-28 0 -49.5 -14.5t-26.5 -34.5h-69q14 63 71.5 107.5t126.5 44.5q94 0 141 -80q138 80 281 80q348 0 348 -281q0 -57 -20 -149l-113 -492h-164l109 467q24 108 24 176q0 98 -45.5 137t-132.5 39q-128 0 -264 -98 q-1 -5 -2 -16t-2 -17l-160 -688h-164zM567 1044zM567 1044zM698 1431l164 -333l-76 -54l-219 295z" />
<glyph unicode="&#x1fa;" horiz-adv-x="1298" d="M31 0zM1081.5 1641.5q-20.5 21.5 -58 21.5t-76 -33t-38.5 -72.5t21.5 -61t59 -21.5t75 33t37.5 72.5t-20.5 61zM897 1434q-51 35 -51 106t62.5 128t125.5 57t97 -34t34 -99v-2q0 -64 -61 -120q-24 -22 -50 -36h11l190 -1434h-163l-56 410h-598l-243 -410h-164l854 1434 h12zM928 1231l-428 -719h524zM1208 2054l90 -92l-256 -186l-51 53z" />
<glyph unicode="&#x1fb;" horiz-adv-x="974" d="M154 0zM154 0zM154 309q0 111 49 224.5t124 198t170.5 137.5t184.5 53q79 0 148 -14t106 -29t88 -41l-129 -562q-12 -53 -12 -98q0 -43 11.5 -69.5t31.5 -26.5q28 0 50.5 14.5t27.5 34.5h71q-13 -63 -72.5 -107t-128.5 -44q-84 0 -131 63q-151 -63 -303 -63 q-132 0 -209 92.5t-77 236.5zM852 797q-61 22 -164 22q-72 0 -132 -30t-99.5 -80t-69.5 -108.5t-45.5 -121t-23 -111t-7.5 -85.5q0 -108 51 -154.5t132 -46.5q110 0 217 49v25q0 27 6 57zM784 1233q-42 0 -80.5 -33t-38.5 -81q0 -31 21.5 -52.5t54.5 -21.5q42 0 79.5 33 t37.5 81q0 31 -20.5 52.5t-53.5 21.5zM602 1104q0 77 62.5 134t133.5 57q55 0 89 -34t34 -87q0 -77 -61.5 -134t-132.5 -57q-55 0 -90 34t-35 87zM999 1740l90 -92l-354 -295l-51 54z" />
<glyph unicode="&#x1fc;" horiz-adv-x="1730" d="M39 0zM904 512l189 819h-99l-487 -819h397zM881 410h-434l-244 -410h-164l853 1434h1053l-24 -103h-654l-99 -430h469l-24 -102h-469l-160 -697h687l-24 -102h-861zM1413 1888l90 -92l-354 -295l-51 54z" />
<glyph unicode="&#x1fd;" horiz-adv-x="1570" d="M127 0zM127 211q0 85 31 159.5t88.5 131t145.5 89t196 32.5q101 0 217 -17q8 41 8 82q0 71 -41 101t-141 30q-116 0 -275 -96l-75 106q201 93 344 93q164 0 242 -31.5t98 -114.5q76 69 164.5 107.5t173.5 38.5q84 0 150 -28.5t105.5 -78t59.5 -111.5t20 -133 q0 -48 -14 -120h-688q-12 -56 -12 -111q0 -120 68 -189t188 -69q147 0 254 123l112 -47q-84 -82 -191.5 -130t-228.5 -48q-190 0 -286 110q-89 -52 -197 -81t-203 -29q-313 0 -313 231zM782 498q-90 22 -186 22q-129 0 -214 -77t-85 -185q0 -80 57 -128t140 -48 q146 0 294 90q-30 68 -30 154q0 74 18 145zM971 553h506q2 14 2 41q0 103 -42.5 164t-127.5 61q-104 0 -195.5 -74.5t-142.5 -191.5zM1372 1458l90 -92l-354 -295l-51 54z" />
<glyph unicode="&#x1fe;" d="M199 0zM1233 1888l90 -92l-354 -295l-51 54zM969 1352q-109 0 -218.5 -75.5t-191 -194.5t-133 -272.5t-51.5 -301.5q0 -180 88 -301l694 1089q-86 56 -188 56zM1231 1227l-692 -1092q73 -53 155 -53q112 0 224.5 71.5t199.5 187.5t142 274.5t55 322.5q0 177 -84 289z M1225 1405l18 29h121l-51 -80q178 -134 178 -406q0 -85 -16 -176t-50 -186t-82.5 -182.5t-118 -165t-152 -135t-189 -90.5t-224.5 -33q-110 0 -194 40l-12 -20h-121l45 72q-178 140 -178 417q0 135 37.5 274t109 262t165.5 219.5t216.5 153t253.5 56.5q137 0 244 -49z" />
<glyph unicode="&#x1ff;" horiz-adv-x="1013" d="M147 0zM1027 1513l90 -92l-354 -295l-51 54zM1065 594q0 -48 -9 -101.5t-30 -114t-51.5 -116.5t-78.5 -108t-106.5 -90t-138.5 -61t-172 -23q-48 0 -100 10l-60 -92h-120l82 129q-134 81 -134 274q0 129 50.5 246.5t129.5 198t177 128.5t192 48q74 0 142 -19l63 101h121 l-90 -142q133 -84 133 -268zM532 82q76 0 145.5 45.5t116.5 117t75 159t28 171.5q0 99 -43 164l-410 -645q38 -12 88 -12zM358 150l418 655q-40 14 -74 14q-100 0 -191 -71t-145.5 -189t-54.5 -248q0 -105 47 -161z" />
<glyph unicode="&#x200;" horiz-adv-x="1275" d="M31 0zM1155 1501zM1112 1888l164 -333l-76 -54l-219 295zM784 1888l164 -333l-76 -54l-219 295zM1092 6zM31 0l854 1434h180l190 -1434h-163l-56 410h-598l-243 -410h-164zM928 1231l-428 -719h524z" />
<glyph unicode="&#x201;" horiz-adv-x="1058" d="M154 0zM911 1071zM868 1458l164 -333l-76 -54l-219 295zM540 1458l164 -333l-76 -54l-219 295zM154 309q0 111 49 224.5t124 198t170.5 137.5t184.5 53q79 0 148 -14t106 -29t88 -41l-129 -562q-12 -53 -12 -98q0 -43 11.5 -69.5t31.5 -26.5q28 0 50.5 14.5t27.5 34.5h71 q-13 -63 -72.5 -107t-128.5 -44q-84 0 -131 63q-151 -63 -303 -63q-132 0 -209 92.5t-77 236.5zM852 797q-61 22 -164 22q-72 0 -132 -30t-99.5 -80t-69.5 -108.5t-45.5 -121t-23 -111t-7.5 -85.5q0 -108 51 -154.5t132 -46.5q110 0 217 49v25q0 27 6 57z" />
<glyph unicode="&#x202;" horiz-adv-x="1275" d="M31 0zM1009 1589q-56 0 -109 -29.5t-65 -64.5l-73 21q28 78 108 134t168 56q82 0 135.5 -50t53.5 -122q0 -3 -1 -9t-1 -9l-82 -21v4q0 33 -40 61.5t-94 28.5zM1092 6zM31 0l854 1434h180l190 -1434h-163l-56 410h-598l-243 -410h-164zM928 1231l-428 -719h524z" />
<glyph unicode="&#x203;" horiz-adv-x="1058" d="M154 0zM765 1159q-56 0 -109 -29.5t-65 -64.5l-73 21q28 78 108 134t168 56q82 0 135.5 -50t53.5 -122q0 -3 -1 -9t-1 -9l-82 -21v4q0 33 -40 61.5t-94 28.5zM154 309q0 111 49 224.5t124 198t170.5 137.5t184.5 53q79 0 148 -14t106 -29t88 -41l-129 -562 q-12 -53 -12 -98q0 -43 11.5 -69.5t31.5 -26.5q28 0 50.5 14.5t27.5 34.5h71q-13 -63 -72.5 -107t-128.5 -44q-84 0 -131 63q-151 -63 -303 -63q-132 0 -209 92.5t-77 236.5zM852 797q-61 22 -164 22q-72 0 -132 -30t-99.5 -80t-69.5 -108.5t-45.5 -121t-23 -111t-7.5 -85.5 q0 -108 51 -154.5t132 -46.5q110 0 217 49v25q0 27 6 57z" />
<glyph unicode="&#x204;" horiz-adv-x="962" d="M82 0zM1034 1501zM991 1888l164 -333l-76 -54l-219 295zM663 1888l164 -333l-76 -54l-219 295zM942 0h-860l332 1434h827l-24 -103h-654l-98 -430h469l-25 -102h-469l-159 -697h686z" />
<glyph unicode="&#x205;" horiz-adv-x="964" d="M150 0zM913 1071zM870 1458l164 -333l-76 -54l-219 295zM542 1458l164 -333l-76 -54l-219 295zM1032 571q0 -120 -188 -120h-516q-13 -60 -13 -111q0 -120 69 -189t189 -69q147 0 254 123l113 -47q-84 -82 -191.5 -130t-228.5 -48q-169 0 -269.5 92.5t-100.5 251.5 q0 119 49.5 231t128 191.5t176.5 127.5t192 48q84 0 150 -28.5t106 -78t60 -111.5t20 -133zM362 553h424q45 0 65.5 9.5t20.5 33.5q0 103 -42.5 163t-127.5 60q-104 0 -195.5 -74.5t-144.5 -191.5z" />
<glyph unicode="&#x206;" horiz-adv-x="962" d="M82 0zM888 1589q-56 0 -109 -29.5t-65 -64.5l-73 21q28 78 108 134t168 56q82 0 135.5 -50t53.5 -122q0 -3 -1 -9t-1 -9l-82 -21v4q0 33 -40 61.5t-94 28.5zM942 0h-860l332 1434h827l-24 -103h-654l-98 -430h469l-25 -102h-469l-159 -697h686z" />
<glyph unicode="&#x207;" horiz-adv-x="964" d="M150 0zM768 1159q-56 0 -109 -29.5t-65 -64.5l-73 21q28 78 108 134t168 56q82 0 135.5 -50t53.5 -122q0 -3 -1 -9t-1 -9l-82 -21v4q0 33 -40 61.5t-94 28.5zM1032 571q0 -120 -188 -120h-516q-13 -60 -13 -111q0 -120 69 -189t189 -69q147 0 254 123l113 -47 q-84 -82 -191.5 -130t-228.5 -48q-169 0 -269.5 92.5t-100.5 251.5q0 119 49.5 231t128 191.5t176.5 127.5t192 48q84 0 150 -28.5t106 -78t60 -111.5t20 -133zM362 553h424q45 0 65.5 9.5t20.5 33.5q0 103 -42.5 163t-127.5 60q-104 0 -195.5 -74.5t-144.5 -191.5z" />
<glyph unicode="&#x208;" horiz-adv-x="436" d="M92 0zM694 1501zM651 1888l164 -333l-76 -54l-219 295zM323 1888l164 -333l-76 -54l-219 295zM598 1434l-332 -1434h-174l332 1434h174z" />
<glyph unicode="&#x209;" horiz-adv-x="483" d="M86 0zM588 1071zM545 1458l164 -333l-76 -54l-219 295zM217 1458l164 -333l-76 -54l-219 295zM319 276q-10 -44 -10 -94q0 -100 43 -100q28 0 50.5 14.5t27.5 34.5h70q-13 -63 -71.5 -107t-127.5 -44q-73 0 -119.5 49.5t-46.5 126.5q0 27 6 57l160 688h164z" />
<glyph unicode="&#x20a;" horiz-adv-x="436" d="M92 0zM548 1589q-56 0 -109 -29.5t-65 -64.5l-73 21q28 78 108 134t168 56q82 0 135.5 -50t53.5 -122q0 -3 -1 -9t-1 -9l-82 -21v4q0 33 -40 61.5t-94 28.5zM598 1434l-332 -1434h-174l332 1434h174z" />
<glyph unicode="&#x20b;" horiz-adv-x="483" d="M135 0zM442 1159q-56 0 -109 -29.5t-65 -64.5l-73 21q28 78 108 134t168 56q82 0 135.5 -50t53.5 -122q0 -3 -1 -9t-1 -9l-82 -21v4q0 33 -40 61.5t-94 28.5zM319 276q-10 -44 -10 -94q0 -100 43 -100q28 0 50.5 14.5t27.5 34.5h70q-13 -63 -71.5 -107t-127.5 -44 q-73 0 -119.5 49.5t-46.5 126.5q0 27 6 57l160 688h164z" />
<glyph unicode="&#x20c;" d="M199 0zM1178 1501zM1135 1888l164 -333l-76 -54l-219 295zM807 1888l164 -333l-76 -54l-219 295zM659 -20q-88 0 -168.5 31t-147 91t-105.5 160t-39 227q0 135 37.5 274t109 262t165.5 219.5t216.5 153t253.5 56.5q107 0 198 -31t161.5 -91t110.5 -158.5t40 -225.5 q0 -85 -16 -176t-50 -186t-82.5 -182.5t-118 -165t-152 -135t-189 -90.5t-224.5 -33zM969 1352q-109 0 -218.5 -75.5t-191 -194.5t-133 -272.5t-51.5 -301.5q0 -107 30.5 -192t79 -134t102.5 -74.5t107 -25.5q112 0 224.5 71.5t199.5 187.5t142 274.5t55 322.5 q0 105 -29 186.5t-78.5 130t-110 73t-128.5 24.5z" />
<glyph unicode="&#x20d;" horiz-adv-x="1013" d="M147 0zM918 1071zM875 1458l164 -333l-76 -54l-219 295zM547 1458l164 -333l-76 -54l-219 295zM532 82q76 0 145.5 45.5t116.5 117t75 159t28 171.5q0 113 -51.5 178.5t-143.5 65.5q-100 0 -191 -71t-145.5 -189t-54.5 -248q0 -110 55.5 -169.5t165.5 -59.5zM1065 594 q0 -48 -9 -101.5t-30 -114t-51.5 -116.5t-78.5 -108t-106.5 -90t-138.5 -61t-172 -23q-161 0 -246.5 84.5t-85.5 236.5q0 129 50.5 246.5t129.5 198t177 128.5t192 48q171 0 270 -84t99 -244z" />
<glyph unicode="&#x20e;" d="M199 0zM1032 1589q-56 0 -109 -29.5t-65 -64.5l-73 21q28 78 108 134t168 56q82 0 135.5 -50t53.5 -122q0 -3 -1 -9t-1 -9l-82 -21v4q0 33 -40 61.5t-94 28.5zM659 -20q-88 0 -168.5 31t-147 91t-105.5 160t-39 227q0 135 37.5 274t109 262t165.5 219.5t216.5 153 t253.5 56.5q107 0 198 -31t161.5 -91t110.5 -158.5t40 -225.5q0 -85 -16 -176t-50 -186t-82.5 -182.5t-118 -165t-152 -135t-189 -90.5t-224.5 -33zM969 1352q-109 0 -218.5 -75.5t-191 -194.5t-133 -272.5t-51.5 -301.5q0 -107 30.5 -192t79 -134t102.5 -74.5t107 -25.5 q112 0 224.5 71.5t199.5 187.5t142 274.5t55 322.5q0 105 -29 186.5t-78.5 130t-110 73t-128.5 24.5z" />
<glyph unicode="&#x20f;" horiz-adv-x="1013" d="M147 0zM772 1159q-56 0 -109 -29.5t-65 -64.5l-73 21q28 78 108 134t168 56q82 0 135.5 -50t53.5 -122q0 -3 -1 -9t-1 -9l-82 -21v4q0 33 -40 61.5t-94 28.5zM532 82q76 0 145.5 45.5t116.5 117t75 159t28 171.5q0 113 -51.5 178.5t-143.5 65.5q-100 0 -191 -71 t-145.5 -189t-54.5 -248q0 -110 55.5 -169.5t165.5 -59.5zM1065 594q0 -48 -9 -101.5t-30 -114t-51.5 -116.5t-78.5 -108t-106.5 -90t-138.5 -61t-172 -23q-161 0 -246.5 84.5t-85.5 236.5q0 129 50.5 246.5t129.5 198t177 128.5t192 48q171 0 270 -84t99 -244z" />
<glyph unicode="&#x210;" horiz-adv-x="1101" d="M92 0zM991 1501zM948 1888l164 -333l-76 -54l-219 295zM620 1888l164 -333l-76 -54l-219 295zM424 1434h420q79 0 142.5 -18t103.5 -47.5t67 -69.5t38 -82.5t11 -88.5q0 -64 -24.5 -131.5t-69.5 -129t-117 -112t-159 -75.5q64 -83 113.5 -250.5t49.5 -312.5 q0 -64 -12 -117h-168q10 41 10 106q0 147 -56 312.5t-132 236.5h-223l-152 -655h-174zM573 1331l-133 -573h277q90 0 164 58t112.5 142t38.5 170q0 87 -43.5 145t-138.5 58h-277z" />
<glyph unicode="&#x211;" horiz-adv-x="770" d="M150 0zM846 1071zM803 1458l164 -333l-76 -54l-219 295zM475 1458l164 -333l-76 -54l-219 295zM881 741q-21 78 -158 78q-62 0 -110 -21.5t-99 -66.5q0 -22 -6 -43l-160 -688h-164l144 625q12 53 12 94q0 45 -12 72.5t-33 27.5q-28 0 -49.5 -14.5t-26.5 -34.5h-69 q14 63 71.5 107.5t126.5 44.5q94 0 141 -80q69 42 122.5 61t121.5 19q106 0 182 -29z" />
<glyph unicode="&#x212;" horiz-adv-x="1101" d="M92 0zM845 1589q-56 0 -109 -29.5t-65 -64.5l-73 21q28 78 108 134t168 56q82 0 135.5 -50t53.5 -122q0 -3 -1 -9t-1 -9l-82 -21v4q0 33 -40 61.5t-94 28.5zM424 1434h420q79 0 142.5 -18t103.5 -47.5t67 -69.5t38 -82.5t11 -88.5q0 -64 -24.5 -131.5t-69.5 -129 t-117 -112t-159 -75.5q64 -83 113.5 -250.5t49.5 -312.5q0 -64 -12 -117h-168q10 41 10 106q0 147 -56 312.5t-132 236.5h-223l-152 -655h-174zM573 1331l-133 -573h277q90 0 164 58t112.5 142t38.5 170q0 87 -43.5 145t-138.5 58h-277z" />
<glyph unicode="&#x213;" horiz-adv-x="770" d="M150 0zM700 1159q-56 0 -109 -29.5t-65 -64.5l-73 21q28 78 108 134t168 56q82 0 135.5 -50t53.5 -122q0 -3 -1 -9t-1 -9l-82 -21v4q0 33 -40 61.5t-94 28.5zM881 741q-21 78 -158 78q-62 0 -110 -21.5t-99 -66.5q0 -22 -6 -43l-160 -688h-164l144 625q12 53 12 94 q0 45 -12 72.5t-33 27.5q-28 0 -49.5 -14.5t-26.5 -34.5h-69q14 63 71.5 107.5t126.5 44.5q94 0 141 -80q69 42 122.5 61t121.5 19q106 0 182 -29z" />
<glyph unicode="&#x214;" horiz-adv-x="1306" d="M176 0zM1139 1501zM1096 1888l164 -333l-76 -54l-219 295zM768 1888l164 -333l-76 -54l-219 295zM1311 1434h174l-191 -824q-35 -149 -90.5 -261.5t-120.5 -181.5t-147.5 -112t-163 -59t-174.5 -16q-60 0 -115 11t-112.5 40t-99.5 74.5t-68.5 120.5t-26.5 171 q0 93 27 213l190 824h174l-190 -824q-27 -123 -27 -209q0 -76 19 -135t47.5 -93t67.5 -55t75 -28.5t74 -7.5q51 0 101 13t108.5 49.5t108 93.5t95 152.5t74.5 219.5z" />
<glyph unicode="&#x215;" horiz-adv-x="1110" d="M154 0zM899 1071zM856 1458l164 -333l-76 -54l-219 295zM528 1458l164 -333l-76 -54l-219 295zM946 276q-10 -44 -10 -94q0 -100 43 -100q28 0 50.5 14.5t27.5 34.5h69q-13 -63 -71 -107t-127 -44q-96 0 -144 81q-70 -38 -153 -59.5t-156 -21.5q-166 0 -243.5 63.5 t-77.5 196.5q0 71 22 170l115 491h164l-109 -467q-20 -84 -20 -153q0 -110 53.5 -154.5t148.5 -44.5q118 0 234 92q0 3 6 39l160 688h164z" />
<glyph unicode="&#x216;" horiz-adv-x="1306" d="M176 0zM993 1589q-56 0 -109 -29.5t-65 -64.5l-73 21q28 78 108 134t168 56q82 0 135.5 -50t53.5 -122q0 -3 -1 -9t-1 -9l-82 -21v4q0 33 -40 61.5t-94 28.5zM1311 1434h174l-191 -824q-35 -149 -90.5 -261.5t-120.5 -181.5t-147.5 -112t-163 -59t-174.5 -16 q-60 0 -115 11t-112.5 40t-99.5 74.5t-68.5 120.5t-26.5 171q0 93 27 213l190 824h174l-190 -824q-27 -123 -27 -209q0 -76 19 -135t47.5 -93t67.5 -55t75 -28.5t74 -7.5q51 0 101 13t108.5 49.5t108 93.5t95 152.5t74.5 219.5z" />
<glyph unicode="&#x217;" horiz-adv-x="1110" d="M154 0zM753 1159q-56 0 -109 -29.5t-65 -64.5l-73 21q28 78 108 134t168 56q82 0 135.5 -50t53.5 -122q0 -3 -1 -9t-1 -9l-82 -21v4q0 33 -40 61.5t-94 28.5zM946 276q-10 -44 -10 -94q0 -100 43 -100q28 0 50.5 14.5t27.5 34.5h69q-13 -63 -71 -107t-127 -44 q-96 0 -144 81q-70 -38 -153 -59.5t-156 -21.5q-166 0 -243.5 63.5t-77.5 196.5q0 71 22 170l115 491h164l-109 -467q-20 -84 -20 -153q0 -110 53.5 -154.5t148.5 -44.5q118 0 234 92q0 3 6 39l160 688h164z" />
<glyph unicode="&#x218;" horiz-adv-x="1198" d="M207 0zM361 -352q54 0 91.5 4t75.5 14.5t58 34.5t20 61q0 32 -29 49.5t-98 24.5l13 58q108 0 175.5 -35.5t67.5 -89.5q0 -28 -20.5 -56t-62.5 -54.5t-120.5 -43t-181.5 -16.5zM1200 455q0 -92 -43 -177.5t-120.5 -151.5t-195 -106t-255.5 -40q-149 0 -262.5 111 t-116.5 259l168 31q0 -4 -1 -13.5t-1 -13.5q0 -109 78 -190.5t172 -81.5q91 0 163.5 25.5t116 64t72 87t39 90t10.5 77.5q0 60 -33 108.5t-85 81.5t-115.5 62.5t-127 61t-115.5 67.5t-85 91t-33 124q0 90 48 172.5t122.5 138t164 88.5t173.5 33q140 0 240.5 -63.5 t140.5 -165.5l-162 -43q-53 170 -260 170q-101 0 -194 -93t-93 -202q0 -47 25.5 -86.5t67 -67t94.5 -56.5t108 -53.5t108 -58t94.5 -70.5t67 -91t25.5 -119z" />
<glyph unicode="&#x219;" horiz-adv-x="860" d="M88 0zM185 -352q54 0 91.5 4t75.5 14.5t58 34.5t20 61q0 32 -29 49.5t-98 24.5l13 58q108 0 175.5 -35.5t67.5 -89.5q0 -28 -20.5 -56t-62.5 -54.5t-120.5 -43t-181.5 -16.5zM252 639q0 48 24 98t65 91t104 67.5t135 26.5q103 0 179.5 -30.5t153.5 -96.5l-137 -72l-29 29 t-27 26t-22.5 16.5t-30 15t-33.5 6t-48 3.5q-47 0 -82.5 -18t-52.5 -45.5t-25 -52t-8 -46.5q0 -84 135 -110q303 -59 303 -234q0 -42 -14.5 -86t-49 -89t-84.5 -79.5t-129 -56.5t-176 -22q-58 0 -99.5 7.5t-81 29.5t-62.5 40t-72 60l107 76l24 -20t23 -19.5t20 -16t21.5 -15 t21 -12t24 -10.5t25 -7t30 -6.5t33.5 -3t40 -1.5q61 0 107 21t68.5 48t36 61t16.5 52.5t3 30.5q0 55 -48 84.5t-134 44.5q-125 25 -189.5 80t-64.5 135z" />
<glyph unicode="&#x21a;" horiz-adv-x="1198" d="M328 0zM381 -352q54 0 91.5 4t75.5 14.5t58 34.5t20 61q0 32 -29 49.5t-98 24.5l13 58q108 0 175.5 -35.5t67.5 -89.5q0 -28 -20.5 -56t-62.5 -54.5t-120.5 -43t-181.5 -16.5zM352 1434h1202l-28 -103h-512l-307 -1331h-175l308 1331h-512z" />
<glyph unicode="&#x21b;" horiz-adv-x="577" d="M145 0zM156 -348q54 0 91.5 4t75.5 14.5t58 34.5t20 61q0 32 -29 49.5t-98 24.5l13 58q108 0 175.5 -35.5t67.5 -89.5q0 -28 -20.5 -56t-62.5 -54.5t-120.5 -43t-181.5 -16.5zM414 276q-11 -48 -11 -94q0 -100 43 -100q28 0 50.5 14.5t27.5 34.5h70q-13 -63 -71.5 -107 t-127.5 -44q-73 0 -119.5 49.5t-46.5 126.5q0 22 7 57l135 586h-135l55 102h104l68 297l172 31l-76 -328h162l-25 -102h-161z" />
<glyph unicode="&#x21e;" horiz-adv-x="1259" d="M82 0zM737 1385zM898 1385l-161 334l75 53l136 -180l217 180l51 -53zM588 1434l-144 -615h660l143 615h174l-331 -1434h-175l166 717h-659l-166 -717h-174l332 1434h174z" />
<glyph unicode="&#x21f;" horiz-adv-x="1034" d="M143 0zM617 1309zM778 1309l-161 334l75 53l136 -180l217 180l51 -53zM391 1075q12 53 12 94q0 45 -12 73t-33 28q-27 0 -48.5 -14.5t-26.5 -34.5h-70q13 63 71.5 107t127.5 44q73 0 119.5 -49.5t46.5 -126.5q0 -12 -9 -57l-61 -269q113 52 221 52q348 0 348 -281 q0 -57 -20 -149l-113 -492h-164l109 467q24 108 24 176q0 98 -45.5 137t-132.5 39q-127 0 -260 -96l-168 -723h-164z" />
<glyph unicode="&#x220;" horiz-adv-x="1275" d="M147 0l330 1434h174l-14 -70q5 2 28 13t33 15.5t34.5 14.5t40 15t41.5 12t47.5 10.5t49 6.5t54.5 3q190 0 297.5 -79t107.5 -234q0 -57 -14 -117l-330 -1436h-174l324 1411q18 80 18 138q0 215 -223 215q-181 0 -369 -135l-280 -1217h-175z" />
<glyph unicode="&#x222;" horiz-adv-x="1126" d="M799 829q45 17 80 33.5t76.5 45t68 61t45 79.5t18.5 103q0 82 -40 141.5t-97 59.5l25 102q123 0 206 -82.5t83 -206.5q0 -31 -11 -80q-16 -70 -48.5 -123t-80.5 -89.5t-96.5 -60.5t-114.5 -46q49 -29 84 -57t67.5 -65t49 -83.5t16.5 -101.5q0 -92 -41 -178t-115 -153 t-185.5 -107.5t-243.5 -40.5q-174 0 -275.5 88t-101.5 221q0 40 8 76q18 80 56.5 143t96 107.5t113 74t131.5 58.5q-89 50 -138.5 113t-49.5 155q0 112 68.5 215t172 163t205.5 60l-24 -102q-60 0 -118 -50t-91 -117.5t-33 -123.5q0 -39 17.5 -72t55.5 -62.5t70.5 -48.5 t90.5 -49zM582 82q86 0 154 27.5t107 66.5t64.5 88.5t34 88t8.5 69.5q0 48 -18 86t-64.5 73t-74.5 51.5t-100 53.5q-7 4 -11 6q-63 -22 -111 -47t-94 -62.5t-78.5 -92.5t-48.5 -125q-8 -46 -8 -64q0 -95 66 -157t174 -62z" />
<glyph unicode="&#x223;" horiz-adv-x="1003" d="M709 799q36 17 61.5 31t63.5 43.5t62 60.5t42 78.5t18 101.5q0 115 -114 115l22 102q125 0 195.5 -50.5t70.5 -154.5q0 -65 -20.5 -121.5t-50 -94.5t-74.5 -72.5t-80.5 -53.5t-81.5 -39q86 -47 136.5 -110.5t50.5 -163.5q0 -33 -15 -106q-46 -196 -172.5 -290.5 t-339.5 -94.5q-151 0 -236 67.5t-85 200.5q0 83 25.5 154.5t60.5 118t89.5 88t93.5 62.5t91 44q-76 41 -118 90.5t-42 124.5q0 122 86 209.5t220 87.5q48 0 98 -15l-49 -98q-38 12 -68 12q-32 0 -55.5 -22.5t-33 -54t-13.5 -52.5t-4 -32q0 -56 42 -93t124 -73zM520 82 q71 0 131.5 35.5t98 89t58.5 112.5t21 111q0 45 -15.5 81t-47 64t-61 46t-76.5 41q-287 -132 -287 -375q0 -91 48 -148t130 -57z" />
<glyph unicode="&#x228;" horiz-adv-x="962" d="M283 -352q42 0 73.5 2t66 9t56 19t36 33t14.5 51q0 32 -29 49.5t-98 24.5l65 164h-385l332 1434h827l-24 -103h-654l-98 -430h469l-25 -102h-469l-159 -697h686l-25 -102h-368l-37 -111q55 -9 88 -37.5t33 -72.5q0 -46 -33 -81.5t-88.5 -56.5t-122.5 -31.5t-141 -10.5z " />
<glyph unicode="&#x229;" horiz-adv-x="964" d="M297 -352q42 0 73.5 2t66 9t56 19t36 33t14.5 51q0 32 -29 49.5t-98 24.5l58 145q-150 13 -237 104t-87 239q0 119 49.5 231t128 191.5t176.5 127.5t192 48q84 0 150 -28.5t106 -78t60 -111.5t20 -133q0 -120 -188 -120h-516q-13 -60 -13 -111q0 -120 69 -189t189 -69 q147 0 254 123l113 -47q-156 -152 -358 -175l-31 -94q55 -9 88 -37.5t33 -72.5q0 -46 -33 -81.5t-88.5 -56.5t-122.5 -31.5t-141 -10.5zM362 553h424q45 0 65.5 9.5t20.5 33.5q0 103 -42.5 163t-127.5 60q-104 0 -195.5 -74.5t-144.5 -191.5z" />
<glyph unicode="&#x22a;" d="M199 0zM199 0zM1287 1516zM1137 1665h150l-35 -149h-150zM809 1665h150l-35 -149h-150zM659 -20q-88 0 -168.5 31t-147 91t-105.5 160t-39 227q0 135 37.5 274t109 262t165.5 219.5t216.5 153t253.5 56.5q107 0 198 -31t161.5 -91t110.5 -158.5t40 -225.5q0 -85 -16 -176 t-50 -186t-82.5 -182.5t-118 -165t-152 -135t-189 -90.5t-224.5 -33zM969 1352q-109 0 -218.5 -75.5t-191 -194.5t-133 -272.5t-51.5 -301.5q0 -107 30.5 -192t79 -134t102.5 -74.5t107 -25.5q112 0 224.5 71.5t199.5 187.5t142 274.5t55 322.5q0 105 -29 186.5t-78.5 130 t-110 73t-128.5 24.5zM852 1833h471l-19 -82h-471z" />
<glyph unicode="&#x22b;" horiz-adv-x="1013" d="M147 0zM147 0zM1027 1086zM877 1235h150l-35 -149h-150zM549 1235h150l-35 -149h-150zM532 82q76 0 145.5 45.5t116.5 117t75 159t28 171.5q0 113 -51.5 178.5t-143.5 65.5q-100 0 -191 -71t-145.5 -189t-54.5 -248q0 -110 55.5 -169.5t165.5 -59.5zM1065 594 q0 -48 -9 -101.5t-30 -114t-51.5 -116.5t-78.5 -108t-106.5 -90t-138.5 -61t-172 -23q-161 0 -246.5 84.5t-85.5 236.5q0 129 50.5 246.5t129.5 198t177 128.5t192 48q171 0 270 -84t99 -244zM608 1465h471l-19 -82h-471z" />
<glyph unicode="&#x22c;" d="M199 0zM199 0zM1268 1698h84q-29 -80 -93.5 -131t-150.5 -51q-38 0 -88 32.5t-69 32.5q-100 0 -123 -65h-84q29 80 93 131t150 51q38 0 88.5 -33t69.5 -33q100 0 123 66zM659 -20q-88 0 -168.5 31t-147 91t-105.5 160t-39 227q0 135 37.5 274t109 262t165.5 219.5 t216.5 153t253.5 56.5q107 0 198 -31t161.5 -91t110.5 -158.5t40 -225.5q0 -85 -16 -176t-50 -186t-82.5 -182.5t-118 -165t-152 -135t-189 -90.5t-224.5 -33zM969 1352q-109 0 -218.5 -75.5t-191 -194.5t-133 -272.5t-51.5 -301.5q0 -107 30.5 -192t79 -134t102.5 -74.5 t107 -25.5q112 0 224.5 71.5t199.5 187.5t142 274.5t55 322.5q0 105 -29 186.5t-78.5 130t-110 73t-128.5 24.5zM860 1833h471l-19 -82h-471z" />
<glyph unicode="&#x22d;" horiz-adv-x="1013" d="M147 0zM147 0zM1008 1268h84q-29 -80 -93.5 -131t-150.5 -51q-38 0 -88 32.5t-69 32.5q-100 0 -123 -65h-84q29 80 93 131t150 51q38 0 88.5 -33t69.5 -33q100 0 123 66zM532 82q76 0 145.5 45.5t116.5 117t75 159t28 171.5q0 113 -51.5 178.5t-143.5 65.5 q-100 0 -191 -71t-145.5 -189t-54.5 -248q0 -110 55.5 -169.5t165.5 -59.5zM1065 594q0 -48 -9 -101.5t-30 -114t-51.5 -116.5t-78.5 -108t-106.5 -90t-138.5 -61t-172 -23q-161 0 -246.5 84.5t-85.5 236.5q0 129 50.5 246.5t129.5 198t177 128.5t192 48q171 0 270 -84 t99 -244zM629 1465h471l-19 -82h-471z" />
<glyph unicode="&#x22e;" d="M240 0zM1012 1665h150l-35 -149h-150zM700 -20q-88 0 -168.5 31t-147 91t-105.5 160t-39 227q0 135 37.5 274t109 262t165.5 219.5t216.5 153t253.5 56.5q107 0 198 -31t161.5 -91t110.5 -158.5t40 -225.5q0 -85 -16 -176t-50 -186t-82.5 -182.5t-118 -165t-152 -135 t-189 -90.5t-224.5 -33zM1010 1352q-109 0 -218.5 -75.5t-191 -194.5t-133 -272.5t-51.5 -301.5q0 -107 30.5 -192t79 -134t102.5 -74.5t107 -25.5q112 0 224.5 71.5t199.5 187.5t142 274.5t55 322.5q0 105 -29 186.5t-78.5 130t-110 73t-128.5 24.5z" />
<glyph unicode="&#x22f;" horiz-adv-x="1013" d="M176 0zM760 1235h150l-35 -149h-150zM561 82q76 0 145.5 45.5t116.5 117t75 159t28 171.5q0 113 -51.5 178.5t-143.5 65.5q-100 0 -191 -71t-145.5 -189t-54.5 -248q0 -110 55.5 -169.5t165.5 -59.5zM1094 594q0 -48 -9 -101.5t-30 -114t-51.5 -116.5t-78.5 -108 t-106.5 -90t-138.5 -61t-172 -23q-161 0 -246.5 84.5t-85.5 236.5q0 129 50.5 246.5t129.5 198t177 128.5t192 48q171 0 270 -84t99 -244z" />
<glyph unicode="&#x230;" d="M240 0zM240 0zM1012 1665h150l-35 -149h-150zM700 -20q-88 0 -168.5 31t-147 91t-105.5 160t-39 227q0 135 37.5 274t109 262t165.5 219.5t216.5 153t253.5 56.5q107 0 198 -31t161.5 -91t110.5 -158.5t40 -225.5q0 -85 -16 -176t-50 -186t-82.5 -182.5t-118 -165 t-152 -135t-189 -90.5t-224.5 -33zM1010 1352q-109 0 -218.5 -75.5t-191 -194.5t-133 -272.5t-51.5 -301.5q0 -107 30.5 -192t79 -134t102.5 -74.5t107 -25.5q112 0 224.5 71.5t199.5 187.5t142 274.5t55 322.5q0 105 -29 186.5t-78.5 130t-110 73t-128.5 24.5zM877 1833 h471l-19 -82h-471z" />
<glyph unicode="&#x231;" horiz-adv-x="1013" d="M176 0zM176 0zM760 1235h150l-35 -149h-150zM561 82q76 0 145.5 45.5t116.5 117t75 159t28 171.5q0 113 -51.5 178.5t-143.5 65.5q-100 0 -191 -71t-145.5 -189t-54.5 -248q0 -110 55.5 -169.5t165.5 -59.5zM1094 594q0 -48 -9 -101.5t-30 -114t-51.5 -116.5t-78.5 -108 t-106.5 -90t-138.5 -61t-172 -23q-161 0 -246.5 84.5t-85.5 236.5q0 129 50.5 246.5t129.5 198t177 128.5t192 48q171 0 270 -84t99 -244zM670 1465h471l-19 -82h-471z" />
<glyph unicode="&#x232;" horiz-adv-x="1075" d="M414 0zM745 899l398 535h184l-539 -725l-163 -709h-174l163 711l-200 723h184zM645 1598h471l-19 -82h-471z" />
<glyph unicode="&#x233;" horiz-adv-x="931" d="M0 0zM137 -348q-55 0 -94 33t-86 102l145 66q31 -64 49 -81.5t39 -17.5q19 0 35.5 9.5t40 41t35.5 50.5t47 77q9 15 14 23l27 45l-119 901h150l92 -696l414 696h164l-568 -950q-88 -148 -180 -223.5t-205 -75.5zM506 1168h471l-19 -82h-471z" />
<glyph unicode="&#x237;" horiz-adv-x="376" d="M-141 -195q22 -51 96 -51q60 0 99 58.5t69 187.5l209 901h164l-226 -969q-16 -73 -55.5 -129t-92 -87.5t-108.5 -47.5t-112 -16q-130 0 -187 92z" />
<glyph unicode="&#x241;" horiz-adv-x="933" d="M1079 1087q0 -99 -32.5 -185.5t-88 -148.5t-127.5 -107t-152 -67t-161 -22l-129 -557h-164l152 655h119q188 0 302.5 116t114.5 300q0 199 -241 199q-72 0 -119.5 -29t-103.5 -94l-111 47q88 86 179.5 132t209.5 46q170 0 261 -71t91 -214z" />
<glyph unicode="&#x242;" horiz-adv-x="872" d="M928 647q0 -95 -31.5 -177.5t-83.5 -140.5t-118 -100t-135.5 -62t-135.5 -20l-35 -147h-164l58 246h82q81 0 147 19.5t107.5 53t71 73t44.5 85.5t21 83t6 73q0 186 -191 186q-37 0 -69 -10.5t-62 -34t-49.5 -43t-50.5 -55.5l-113 47q94 92 189.5 145.5t210.5 53.5 q136 0 218.5 -69t82.5 -206z" />
<glyph unicode="&#x243;" horiz-adv-x="1116" d="M936 795q90 -39 133 -117.5t43 -177.5q0 -73 -20.5 -143.5t-65 -135.5t-108.5 -114t-157.5 -78t-205.5 -29h-410l90 389h-112l24 103h112l218 942h369q340 0 340 -246q0 -123 -66 -227.5t-184 -165.5zM512 829h180q118 0 217 96.5t99 233.5q0 73 -35.5 122.5t-120.5 49.5 h-225zM610 102q75 0 138 34t103 89.5t62.5 124t22.5 139.5q0 47 -10 88t-30.5 75.5t-56.5 54.5t-85 20h-267l-54 -235h200l-25 -103h-198l-66 -287h266z" />
<glyph unicode="&#x244;" horiz-adv-x="1402" d="M217 696l25 103h98l147 635h175l-148 -635h743l148 635h174l-147 -635h98l-25 -103h-98l-18 -86q-32 -151 -87.5 -264t-120.5 -182t-149 -111t-164.5 -57.5t-175.5 -15.5q-59 0 -114 11t-112.5 40.5t-99.5 75t-69 120t-27 170.5q0 93 27 213l18 86h-98zM1233 696h-744 l-18 -86q-27 -123 -27 -209q0 -76 19 -135t47.5 -93t67.5 -55t75 -28.5t74 -7.5q51 0 102 13.5t110 50t109 93.5t95 152.5t71 218.5z" />
<glyph unicode="&#x245;" horiz-adv-x="1275" d="M928 1231l-733 -1231h-164l854 1434h180l190 -1434h-163z" />
<glyph unicode="&#x24a;" horiz-adv-x="1290" d="M1130 -63q-22 -96 -22 -148q0 -98 76 -98q72 0 121 51l114 -61q-100 -93 -227 -93q-67 0 -123.5 20t-96.5 69.5t-40 121.5q0 37 8 70l35 147q-119 -36 -238 -36q-70 0 -139 19.5t-133.5 62t-113.5 103t-79 150t-30 195.5q0 125 28.5 241.5t77.5 209t114 173t138.5 138.5 t150.5 99.5t150 62t137 20.5q153 0 260 -35l5 15h174zM999 123l269 1165q-90 64 -224 64q-79 0 -165.5 -37t-168 -110.5t-147 -171.5t-105.5 -231.5t-40 -279.5q0 -89 23 -164t61 -125t87 -85t100 -50.5t102 -15.5q112 0 208 41z" />
<glyph unicode="&#x24b;" horiz-adv-x="1089" d="M930 -61q-21 -91 -21 -148q0 -98 74 -98q72 0 121 51l115 -61q-100 -93 -228 -93q-104 0 -177 52t-73 155q0 34 9 74l43 178q-120 -69 -263 -69q-184 0 -270 84.5t-86 230.5q0 174 67.5 315.5t199.5 226.5t307 85q57 0 102 -5.5t90.5 -21.5t76 -43t49.5 -73.5t19 -108.5 t-18 -138zM879 430l39 168q10 42 10 68q0 46 -19 78t-54.5 47.5t-74 21.5t-88.5 6q-97 0 -179.5 -77t-126.5 -191t-44 -232q0 -104 44 -170.5t136 -66.5q91 0 166.5 48.5t122 125.5t68.5 174z" />
<glyph unicode="&#x24c;" horiz-adv-x="1189" d="M496 1434h419q98 0 171.5 -26.5t113.5 -72t59 -97t19 -110.5q0 -87 -41 -175t-127.5 -164t-202.5 -109q64 -84 114 -251t50 -312q0 -64 -12 -117h-168q10 41 10 106q0 147 -56 312.5t-132 236.5h-224l-151 -655h-174l152 655h-154l24 103h153zM512 758h276q68 0 128.5 34 t100.5 88t63.5 119.5t23.5 128.5q0 87 -43.5 145t-138.5 58h-277z" />
<glyph unicode="&#x24d;" horiz-adv-x="770" d="M881 741q-21 78 -158 78q-62 0 -110 -21.5t-99 -66.5q0 -22 -6 -43l-46 -196h197l-24 -103h-197l-90 -389h-164l90 389h-124l24 103h123l31 133q12 53 12 94q0 45 -12 72.5t-33 27.5q-28 0 -49.5 -14.5t-26.5 -34.5h-69q14 63 71.5 107.5t126.5 44.5q94 0 141 -80 q69 42 122.5 61t121.5 19q106 0 182 -29z" />
<glyph unicode="&#x251;" horiz-adv-x="1126" d="M178 324q0 119 50 231t128 191.5t176.5 127.5t192.5 48q123 0 207 -62l10 41h164l-145 -625q-17 -80 -17 -114q0 -80 47 -80q27 0 51.5 13.5t28.5 35.5h70q-14 -60 -73.5 -105.5t-125.5 -45.5q-81 0 -131 63q-123 -63 -262 -63q-170 0 -270.5 92.5t-100.5 251.5zM731 819 q-101 0 -191.5 -71.5t-143 -182t-52.5 -225.5q0 -120 69 -189t189 -69q95 0 174 51q0 3 -1 10.5t-1 10.5q0 19 8 59l109 469q-16 64 -56 100.5t-104 36.5z" />
<glyph unicode="&#x253;" horiz-adv-x="1079" d="M1116 606q0 -45 -7 -96t-25.5 -112.5t-46.5 -119t-74 -112.5t-103 -96t-138.5 -65.5t-176.5 -24.5q-72 0 -126.5 9.5t-105.5 35t-78.5 77.5t-27.5 129q0 61 18 138l166 723q17 73 57 129t93 87.5t109 47.5t112 16q127 0 184 -92l-143 -61q-22 51 -96 51q-60 0 -99 -58.5 t-69 -187.5l-39 -172q121 70 262 70q184 0 269 -85t85 -231zM598 82q76 0 143.5 48t111.5 122.5t69.5 161.5t25.5 168q0 104 -44 170.5t-136 66.5q-91 0 -166 -48.5t-121.5 -125.5t-68.5 -174l-39 -168q-8 -33 -8 -67q0 -46 18.5 -78t53.5 -48t73 -22t88 -6z" />
<glyph unicode="&#x254;" horiz-adv-x="1017" d="M457 82q96 0 178.5 43.5t136 113.5t83.5 154.5t30 169.5q0 118 -60 187t-157 69q-81 0 -149 -57t-116 -154l-118 68q78 111 191 178.5t247 67.5q135 0 231.5 -97.5t96.5 -255.5q0 -106 -43 -211t-117.5 -189t-186.5 -136.5t-239 -52.5q-121 0 -207 48t-131 130l133 47 q47 -123 197 -123z" />
<glyph unicode="&#x256;" horiz-adv-x="1089" d="M178 317q0 82 24.5 168t73 163.5t112.5 139t150 98t179 36.5q158 0 254 -99l121 529h163l-311 -1352q-22 -96 -22 -147q0 -99 75 -99q72 0 121 51l115 -61q-99 -92 -227 -92q-104 0 -177 52t-73 155q0 37 8 73l27 115q-120 -67 -291 -67q-154 0 -238 93t-84 244zM553 82 q99 0 178.5 71t121.5 185.5t42 247.5q0 105 -40.5 169t-131.5 64q-95 0 -183.5 -72t-141 -181t-52.5 -218q0 -112 54 -189t153 -77z" />
<glyph unicode="&#x257;" horiz-adv-x="1204" d="M979 276q-10 -44 -10 -94q0 -100 43 -100q28 0 50.5 14.5t27.5 34.5h69q-13 -63 -71 -107t-127 -44q-53 0 -93 26.5t-59 71.5q-132 -98 -338 -98q-154 0 -237.5 93t-83.5 244q0 103 39.5 210t108 195t171.5 144t219 56q158 0 254 -99l62 269q22 96 85 161.5t135.5 92 t149.5 26.5q128 0 185 -92l-144 -61q-22 51 -96 51q-60 0 -99 -58.5t-69 -187.5zM524 82q99 0 178.5 71t121.5 185.5t42 247.5q0 105 -40.5 169t-131.5 64q-95 0 -183.5 -72t-141 -181t-52.5 -218q0 -112 54 -189t153 -77z" />
<glyph unicode="&#x259;" horiz-adv-x="964" d="M150 0zM150 330q0 121 188 121h516q12 56 12 110q0 120 -69 189t-189 69q-147 0 -254 -123l-112 47q84 82 191.5 130.5t228.5 48.5q169 0 269.5 -92.5t100.5 -251.5q0 -119 -50 -231t-128 -191.5t-176.5 -127.5t-192.5 -48q-84 0 -150 28.5t-105.5 78t-59.5 111 t-20 132.5zM819 348h-424q-45 0 -65.5 -9.5t-20.5 -33.5q0 -103 42.5 -163t127.5 -60q104 0 195.5 74.5t144.5 191.5z" />
<glyph unicode="&#x25b;" horiz-adv-x="897" d="M610 451q-80 0 -141.5 -17t-96 -42t-56 -58.5t-28.5 -60t-7 -52.5q0 -59 42.5 -99t135.5 -40q81 0 161.5 34t116.5 87l115 -25q-60 -78 -165 -138t-226 -60q-348 0 -348 210q0 96 63 185t191 137q-99 61 -99 152q0 32 11.5 65.5t41.5 68.5t75 62t118 44.5t164 17.5 q127 0 190.5 -54t73.5 -133l-127 -24q0 108 -186 108q-97 0 -147 -49t-50 -102q0 -52 51.5 -83.5t163.5 -31.5h58l-23 -102h-72z" />
<glyph unicode="&#x260;" horiz-adv-x="1140" d="M700 819q-82 0 -152 -49.5t-113.5 -125.5t-68 -161.5t-24.5 -163.5q0 -113 58 -175t171 -62q106 0 191 63l108 463q-3 97 -45.5 154t-124.5 57zM176 307q0 154 73 297t193.5 230.5t251.5 87.5q139 0 230 -78q22 96 85 161.5t135.5 92t149.5 26.5q128 0 185 -92l-144 -61 q-22 51 -96 51q-55 0 -96.5 -54t-71.5 -192l-141 -616q-25 -109 -47 -181t-53.5 -132.5t-67.5 -95t-90 -58.5t-120 -32.5t-159 -8.5q-149 0 -303 92l127 106q116 -96 229 -96q94 0 148.5 27.5t84 81.5t56.5 160q-108 -43 -217 -43q-163 0 -252.5 87t-89.5 240z" />
<glyph unicode="&#x263;" horiz-adv-x="823" d="M172 -305q0 45 49.5 150.5t93.5 181t54 88.5l-142 786h152l104 -604l387 604h150l-504 -784q23 -140 23 -279q0 -66 -9 -104q-18 -74 -75.5 -113t-135.5 -39q-67 0 -107 29t-40 84zM393 -94q-6 -13 -17 -34.5t-17.5 -34t-15 -30t-13.5 -28.5t-10 -23.5t-7 -20.5t-2 -14 q0 -15 9 -25.5t22 -10.5q17 0 33 14.5t20 34.5q4 24 4 59q0 51 -6 113z" />
<glyph unicode="&#x265;" horiz-adv-x="1036" d="M836 -416q-45 0 -79 16t-51 41.5t-27.5 57t-8.5 62t6 57.5l51 215q-124 -53 -252 -53q-166 0 -243.5 63.5t-77.5 196.5q0 71 22 170l115 491h164l-109 -467q-20 -84 -20 -153q0 -110 53.5 -154.5t148.5 -44.5q118 0 230 88l170 731h164l-238 -1020q-10 -44 -10 -94 q0 -100 43 -100q28 0 50.5 14.5t27.5 34.5h69q-14 -63 -71.5 -107.5t-126.5 -44.5z" />
<glyph unicode="&#x266;" horiz-adv-x="1087" d="M399 1092q17 73 57 129t93 87.5t109 47.5t112 16q127 0 184 -92l-143 -61q-22 51 -96 51q-60 0 -99 -58.5t-69 -187.5l-35 -154q113 52 221 52q348 0 348 -281q0 -57 -20 -149l-113 -492h-164l109 467q25 112 25 176q0 98 -46 137t-133 39q-129 0 -262 -96l-166 -723 h-164z" />
<glyph unicode="&#x268;" horiz-adv-x="512" d="M406 276q-11 -48 -11 -94q0 -100 43 -100q28 0 50.5 14.5t27.5 34.5h70q-13 -63 -71.5 -107t-127.5 -44q-73 0 -119.5 49.5t-46.5 126.5q0 27 6 57l70 305h-133l24 103h134l65 280h164l-66 -280h127l-24 -103h-127zM467 1249h164l-39 -164h-164z" />
<glyph unicode="&#x269;" horiz-adv-x="630" d="M299 901h246l-133 -573q-33 -150 -33 -185q0 -31 15 -46t50 -15q36 0 60 36t43 118h115q-34 -149 -84 -202.5t-140 -53.5q-97 0 -157 47t-60 145q0 47 10 88l125 539h-82z" />
<glyph unicode="&#x26a;" horiz-adv-x="524" d="M360 102h82l-24 -102h-328l25 102h80l161 697h-82l25 102h328l-25 -102h-82z" />
<glyph unicode="&#x26c;" horiz-adv-x="790" d="M530 276q-10 -44 -10 -94q0 -100 43 -100q28 0 50.5 14.5t27.5 34.5h70q-13 -63 -71.5 -107t-129.5 -44t-117.5 49.5t-46.5 126.5q0 27 6 57l81 350q-102 15 -144.5 65.5t-42.5 100.5q0 17 4 33q16 70 69 104.5t103.5 34.5t83.5 -20l109 471h164l-165 -715 q123 26 253 137l20 -39q-129 -107 -187 -131.5t-102 -34.5zM425 844q-98 0 -98 -113q0 -24 25.5 -55t96.5 -43l41 178q-25 33 -65 33z" />
<glyph unicode="&#x26f;" horiz-adv-x="1605" d="M1444 297q-12 -52 -12 -94q0 -45 12 -73t33 -28q27 0 48.5 14.5t26.5 35.5h70q-14 -63 -72 -107.5t-127 -44.5q-94 0 -141 80q-68 -41 -125 -60.5t-125 -19.5q-213 0 -282 106q-160 -106 -285 -106q-164 0 -237.5 61.5t-73.5 190.5q0 76 24 178l113 492h164l-115 -500 q-29 -129 -29 -186q0 -79 35.5 -106.5t112.5 -27.5q138 0 223 101l166 719h164l-115 -500q-29 -126 -29 -184q0 -80 37.5 -108t120.5 -28q114 0 231 93q0 7 3 20t4 18l159 689h164z" />
<glyph unicode="&#x271;" horiz-adv-x="1570" d="M1464 -68q-22 -96 -84.5 -161.5t-134.5 -92t-149 -26.5q-130 0 -187 92l144 61q22 -51 96 -51q60 0 99 58.5t69 187.5l115 500q28 124 28 186q0 78 -35 105.5t-112 27.5q-139 0 -223 -100l-166 -719h-164l114 500q29 126 29 184q0 80 -37.5 107.5t-120.5 27.5 q-115 0 -231 -92q0 -7 -3 -21.5t-3 -17.5l-160 -688h-164l144 625q12 53 12 94q0 45 -12 72.5t-33 27.5q-28 0 -49.5 -14.5t-26.5 -34.5h-69q14 63 71.5 107.5t126.5 44.5q94 0 141 -80q68 41 125 60.5t125 19.5q213 0 283 -107q161 107 285 107q164 0 237.5 -61.5 t73.5 -190.5q0 -72 -25 -178z" />
<glyph unicode="&#x272;" horiz-adv-x="1075" d="M332 -68q-17 -73 -57 -129t-92 -88t-108 -47.5t-112 -15.5q-129 0 -186 92l143 61q22 -51 96 -51q60 0 99 58.5t69 187.5l144 625q12 53 12 94q0 45 -12 72.5t-33 27.5q-28 0 -49.5 -14.5t-26.5 -34.5h-69q14 63 71.5 107.5t126.5 44.5q94 0 141 -80q138 80 281 80 q348 0 348 -281q0 -57 -20 -149l-115 -492h-164l111 467q24 108 24 176q0 98 -45.5 137t-132.5 39q-128 0 -264 -98q-1 -5 -2 -16t-2 -17z" />
<glyph unicode="&#x275;" horiz-adv-x="1056" d="M1094 594q0 -48 -9 -101.5t-30 -114t-51.5 -116.5t-78.5 -108t-106.5 -90t-138.5 -61t-172 -23q-161 0 -246.5 85t-85.5 236q0 129 50.5 246.5t129.5 198t177 128.5t192 48q171 0 270 -84t99 -244zM897 399h-549q-8 -62 -8 -88q0 -110 55 -169.5t166 -59.5q106 0 199 88 t137 229zM373 502h549q4 27 4 73q0 112 -52 178t-143 66q-109 0 -210.5 -87t-147.5 -230z" />
<glyph unicode="&#x27d;" horiz-adv-x="729" d="M287 625q12 53 12 94q0 45 -12 72.5t-33 27.5q-28 0 -49.5 -14.5t-26.5 -34.5h-69q14 63 71.5 107.5t126.5 44.5q95 0 142 -80q70 42 123 61t120 19q106 0 182 -29l-34 -152q-21 78 -158 78q-62 0 -110 -21.5t-99 -66.5q0 -22 -6 -43l-160 -688q-22 -96 -22 -147 q0 -99 75 -99q72 0 121 51l115 -61q-99 -92 -227 -92q-104 0 -177 52t-73 155q0 37 8 73z" />
<glyph unicode="&#x27e;" horiz-adv-x="729" d="M313 -2l-163 2l143 621q17 73 57 129t93 87.5t109 47.5t112 16q127 0 184 -92l-143 -61q-22 51 -97 51q-60 0 -99 -58.5t-69 -187.5z" />
<glyph unicode="&#x283;" horiz-adv-x="722" d="M553 260q-17 -73 -57 -129t-92 -88t-108 -47.5t-112 -15.5q-129 0 -186 92l143 61q22 -51 97 -51q60 0 99 58.5t69 187.5l178 768q28 125 113 200.5t206 75.5q84 0 139 -22l-67 -111q-19 31 -66 31q-64 0 -104 -49t-70 -179z" />
<glyph unicode="&#x288;" horiz-adv-x="567" d="M373 799h-135l55 102h104l68 297l172 31l-76 -328h162l-25 -102h-161l-185 -799q-22 -96 -22 -147q0 -99 76 -99q71 0 120 51l115 -61q-99 -92 -227 -92q-104 0 -177 52t-73 155q0 37 8 73z" />
<glyph unicode="&#x289;" horiz-adv-x="1110" d="M154 240q0 73 24 176h-74l23 102h74l90 383h164l-88 -383h473l88 383h164l-91 -383h89l-23 -102h-88l-33 -140q-10 -44 -10 -94q0 -100 43 -100q28 0 50.5 14.5t27.5 34.5h69q-13 -63 -71 -107t-127 -44q-96 0 -144 81q-70 -38 -153 -59.5t-156 -21.5q-166 0 -243.5 63.5 t-77.5 196.5zM815 416h-473q-16 -82 -16 -135q0 -110 53.5 -154.5t148.5 -44.5q118 0 234 92q0 3 6 39z" />
<glyph unicode="&#x28a;" horiz-adv-x="1054" d="M1024 444q0 -131 -71 -239t-185 -166.5t-244 -58.5q-86 0 -151.5 25.5t-103.5 67.5t-57 91.5t-19 103.5q0 98 70 226t202 211l22 94h-116l24 102h281l-55 -233q-8 -3 -22 -10t-51.5 -34.5t-69.5 -62.5t-65.5 -96t-50.5 -133q-8 -33 -8 -72q0 -84 50.5 -131t142.5 -47 q139 0 226 102t87 254q0 48 -12 89.5t-29 66t-34.5 42.5t-29.5 25l-12 7l56 233h280l-24 -102h-117l-23 -94q40 -33 74.5 -100t34.5 -161z" />
<glyph unicode="&#x28b;" horiz-adv-x="1067" d="M590 82q74 0 146.5 73t117.5 186.5t45 225.5q0 179 -149 226l65 120q105 -26 176.5 -111t71.5 -227q0 -147 -69.5 -284t-192 -224t-264.5 -87q-166 0 -244 63.5t-78 196.5q0 66 23 170l114 491h164l-108 -467q-21 -88 -21 -153q0 -110 54 -154.5t149 -44.5z" />
<glyph unicode="&#x28c;" horiz-adv-x="931" d="M586 901h164l118 -901h-149l-92 696l-414 -696h-164z" />
<glyph unicode="&#x292;" horiz-adv-x="940" d="M348 -307q147 0 248.5 105.5t101.5 264.5q0 207 -252 207h-122l450 529h-530l55 102h743l-448 -528q51 0 97.5 -16.5t86 -49.5t63 -89.5t23.5 -129.5q0 -109 -42.5 -203.5t-113 -158t-162.5 -100t-190 -36.5q-150 0 -247.5 61t-120.5 152l139 50q12 -73 74.5 -116.5 t146.5 -43.5z" />
<glyph unicode="&#x294;" horiz-adv-x="933" d="M225 0zM1079 1087q0 -99 -32.5 -185.5t-88 -148.5t-127.5 -107t-152 -67t-161 -22l-129 -557h-164l152 655h119q188 0 302.5 116t114.5 300q0 199 -241 199q-72 0 -119.5 -29t-103.5 -94l-111 47q88 86 179.5 132t209.5 46q170 0 261 -71t91 -214z" />
<glyph unicode="&#x295;" horiz-adv-x="933" d="M545 0l129 557q-101 0 -184 34t-136 105t-53 168q0 123 46.5 222t124 160t172.5 93.5t198 32.5q118 0 189 -46t118 -132l-135 -47q-24 64 -59 93.5t-107 29.5q-77 0 -144.5 -24.5t-121 -72.5t-84.5 -125t-31 -174q0 -78 42 -129t101 -70.5t131 -19.5h119l-151 -655h-164z " />
<glyph unicode="&#x298;" horiz-adv-x="1435" d="M199 0zM659 -20q-88 0 -168.5 31t-147 91t-105.5 160t-39 227q0 135 37.5 274t109 262t165.5 219.5t216.5 153t253.5 56.5q107 0 198 -31t161.5 -91t110.5 -158.5t40 -225.5q0 -85 -16 -176t-50 -186t-82.5 -182.5t-118 -165t-152 -135t-189 -90.5t-224.5 -33zM969 1352 q-109 0 -218.5 -75.5t-191 -194.5t-133 -272.5t-51.5 -301.5q0 -107 30.5 -192t79 -134t102.5 -74.5t107 -25.5q112 0 224.5 71.5t199.5 187.5t142 274.5t55 322.5q0 105 -29 186.5t-78.5 130t-110 73t-128.5 24.5zM749 643zM784 792h150l-35 -149h-150z" />
<glyph unicode="&#x2bc;" horiz-adv-x="356" d="M319 985zM319 985q89 96 89 191q0 14 -3.5 48t-3.5 54q0 34 9 74h147q-15 -64 -31.5 -117t-27 -83t-30 -63.5t-25 -42t-27 -34.5t-21.5 -27h-76z" />
<glyph unicode="&#x2c0;" horiz-adv-x="557" d="M768 1300q0 -79 -46 -143t-108.5 -95.5t-121.5 -31.5l-29 -129h-103l46 199h61q81 0 141 49t60 149q0 88 -95 88q-82 0 -118 -73l-76 24q33 45 97 81t124 36q75 0 121.5 -40t46.5 -114z" />
<glyph unicode="&#x2c6;" horiz-adv-x="602" d="M336 1257zM887 1348l-113 -91l-141 177l-225 -177l-72 91l324 208z" />
<glyph unicode="&#x2c7;" horiz-adv-x="602" d="M402 1139zM563 1139l-161 334l75 53l136 -180l217 180l51 -53z" />
<glyph unicode="&#x2ca;" horiz-adv-x="493" d="M375 1255zM375 1255zM690 1642l90 -92l-354 -295l-51 54z" />
<glyph unicode="&#x2cb;" horiz-adv-x="497" d="M432 1255zM432 1255zM563 1642l164 -333l-76 -54l-219 295z" />
<glyph unicode="&#x2d8;" horiz-adv-x="585" d="M398 1270zM613 1386q56 0 110 30t66 65l74 -21q-28 -78 -108.5 -134t-168.5 -56q-82 0 -135 50t-53 122q0 3 1 9t1 9l82 21v-4q0 -34 38.5 -62.5t92.5 -28.5z" />
<glyph unicode="&#x2d9;" horiz-adv-x="272" d="M354 1270zM389 1419h150l-35 -149h-150z" />
<glyph unicode="&#x2da;" horiz-adv-x="434" d="M363 1167zM545 1417q-42 0 -80.5 -33t-38.5 -81q0 -31 21.5 -52.5t54.5 -21.5q42 0 79.5 33t37.5 81q0 31 -20.5 52.5t-53.5 21.5zM363 1288q0 77 62.5 134t133.5 57q55 0 89 -34t34 -87q0 -77 -61.5 -134t-132.5 -57q-55 0 -90 34t-35 87z" />
<glyph unicode="&#x2db;" horiz-adv-x="405" d="M16 0zM297 25l-6 -25q-23 -10 -44.5 -23.5t-49.5 -37t-45 -58.5t-17 -76q0 -44 32.5 -66t110.5 -22l-8 -36q-139 0 -196.5 32.5t-57.5 79.5q0 67 86 135t195 97z" />
<glyph unicode="&#x2dc;" horiz-adv-x="729" d="M375 1270zM899 1452h84q-29 -80 -93.5 -131t-150.5 -51q-38 0 -88 32.5t-69 32.5q-100 0 -123 -65h-84q29 80 93 131t150 51q38 0 88.5 -33t69.5 -33q100 0 123 66z" />
<glyph unicode="&#x2dd;" horiz-adv-x="718" d="M324 1255zM881 1255zM967 1642l90 -92l-354 -295l-51 54zM639 1642l90 -92l-354 -295l-51 54z" />
<glyph unicode="&#x300;" horiz-adv-x="0" d="M-207 1642l164 -333l-76 -54l-219 295z" />
<glyph unicode="&#x301;" horiz-adv-x="0" d="M-78 1642l90 -92l-354 -295l-51 54z" />
<glyph unicode="&#x302;" horiz-adv-x="0" d="M0 1348l-113 -91l-141 177l-225 -177l-72 91l324 208z" />
<glyph unicode="&#x303;" horiz-adv-x="0" d="M-43 1452h84q-29 -80 -93.5 -131t-150.5 -51q-38 0 -88 32.5t-69 32.5q-100 0 -123 -65h-84q29 80 93 131t150 51q38 0 88.5 -33t69.5 -33q100 0 123 66z" />
<glyph unicode="&#x304;" horiz-adv-x="0" d="M-522 1352h471l-19 -82h-471z" />
<glyph unicode="&#x306;" horiz-adv-x="0" d="M-268 1386q56 0 110 30t66 65l74 -21q-28 -78 -108.5 -134t-168.5 -56q-82 0 -135 50t-53 122q0 3 1 9t1 9l82 21v-4q0 -34 38.5 -62.5t92.5 -28.5z" />
<glyph unicode="&#x307;" horiz-adv-x="0" d="M-338 1419h150l-35 -149h-150z" />
<glyph unicode="&#x308;" horiz-adv-x="0" d="M-24 1270zM-174 1419h150l-35 -149h-150zM-502 1419h150l-35 -149h-150z" />
<glyph unicode="&#x309;" horiz-adv-x="0" d="M-281 1227h-51q10 41 30 67.5t37.5 36.5t31.5 28t14 46q0 33 -39 33q-24 0 -48 -4q-22 -4 -34 -8l-12 -5l10 43q64 35 127 35q60 0 86.5 -23.5t26.5 -56.5t-15.5 -53.5t-39.5 -31t-48.5 -21t-46 -32t-29.5 -54.5z" />
<glyph unicode="&#x30a;" horiz-adv-x="0" d="M-260 1417q-42 0 -80.5 -33t-38.5 -81q0 -31 21.5 -52.5t54.5 -21.5q42 0 79.5 33t37.5 81q0 31 -20.5 52.5t-53.5 21.5zM-442 1288q0 77 62.5 134t133.5 57q55 0 89 -34t34 -87q0 -77 -61.5 -134t-132.5 -57q-55 0 -90 34t-35 87z" />
<glyph unicode="&#x30b;" horiz-adv-x="0" d="M0 1255zM86 1642l90 -92l-354 -295l-51 54zM-242 1642l90 -92l-354 -295l-51 54z" />
<glyph unicode="&#x30c;" horiz-adv-x="0" d="M-326 1139l-161 334l75 53l136 -180l217 180l51 -53z" />
<glyph unicode="&#x30d;" horiz-adv-x="0" d="M-340 1257l76 328h82l-76 -328h-82z" />
<glyph unicode="&#x30f;" horiz-adv-x="0" d="M0 1255zM-43 1642l164 -333l-76 -54l-219 295zM-371 1642l164 -333l-76 -54l-219 295z" />
<glyph unicode="&#x311;" horiz-adv-x="0" d="M-279 1343q-56 0 -109 -29.5t-65 -64.5l-73 21q28 78 108 134t168 56q82 0 135.5 -50t53.5 -122q0 -3 -1 -9t-1 -9l-82 -21v4q0 33 -40 61.5t-94 28.5z" />
<glyph unicode="&#x312;" horiz-adv-x="0" d="M-137 1636q-88 -94 -88 -190q0 -14 3 -48t3 -55q0 -37 -8 -73h-148q15 64 31.5 116.5t27.5 83.5t29.5 63.5t25 41.5t27 34t21.5 27h76z" />
<glyph unicode="&#x313;" horiz-adv-x="0" d="M-340 1270q88 94 88 190q0 15 -3 49t-3 54q0 37 8 73h148q-15 -64 -31.5 -116.5t-27.5 -83.5t-29.5 -63.5t-25 -41.5t-27 -34t-21.5 -27h-76z" />
<glyph unicode="&#x314;" horiz-adv-x="0" d="M-178 1636q-12 -49 -38 -96t-44.5 -87.5t-18.5 -90.5q0 -45 23 -92h-76q-2 5 -8 23.5t-9 29t-6 33t-3 47.5q0 91 32 233h148z" />
<glyph unicode="&#x31b;" horiz-adv-x="0" d="M-57 1055l10 43h88q50 0 96.5 40.5t46.5 84.5q0 25 -27.5 76t-27.5 87q0 41 34.5 65t82.5 24q43 0 43 -58q0 -161 -73 -261.5t-185 -100.5h-88z" />
<glyph unicode="&#x31d;" horiz-adv-x="0" d="M-502 -326h-327l20 82h123l37 162h82l-37 -162h123z" />
<glyph unicode="&#x323;" horiz-adv-x="0" d="M-694 -123h149l-35 -149h-149z" />
<glyph unicode="&#x324;" horiz-adv-x="0" d="M-43 -123zM-193 -123h150l-35 -149h-150zM-479 -123h150l-35 -149h-150z" />
<glyph unicode="&#x325;" horiz-adv-x="0" d="M-621 -143q-42 0 -80 -33.5t-38 -81.5q0 -31 21 -52.5t54 -21.5q41 0 79 33.5t38 81.5q0 31 -21 52.5t-53 21.5zM-803 -272q0 77 62.5 133.5t134.5 56.5q55 0 89 -34t34 -87q0 -77 -62 -133.5t-133 -56.5q-55 0 -90 34t-35 87z" />
<glyph unicode="&#x326;" horiz-adv-x="0" d="M-827 -352q54 0 91.5 4t75.5 14.5t58 34.5t20 61q0 32 -29 49.5t-98 24.5l13 58q108 0 175.5 -35.5t67.5 -89.5q0 -28 -20.5 -56t-62.5 -54.5t-120.5 -43t-181.5 -16.5z" />
<glyph unicode="&#x327;" horiz-adv-x="0" d="M-827 -352q54 0 91.5 4t75.5 14.5t58 34.5t20 61q0 32 -29 49.5t-98 24.5l66 164h106l-36 -111q55 -9 87.5 -37.5t32.5 -72.5q0 -46 -33 -81.5t-88.5 -56.5t-122.5 -31.5t-141 -10.5z" />
<glyph unicode="&#x328;" horiz-adv-x="0" d="M-477 25l-6 -25q-23 -10 -44.5 -23.5t-49.5 -37t-45 -58.5t-17 -76q0 -44 32.5 -66t110.5 -22l-8 -36q-139 0 -196.5 32.5t-57.5 79.5q0 67 86 135t195 97z" />
<glyph unicode="&#x329;" horiz-adv-x="0" d="M-725 -410l76 328h82l-76 -328h-82z" />
<glyph unicode="&#x32c;" horiz-adv-x="0" d="M-690 -449l-162 334l76 54l135 -181l217 181l51 -54z" />
<glyph unicode="&#x32d;" horiz-adv-x="0" d="M-600 -61l162 -334l-76 -54l-133 181l-219 -181l-52 54z" />
<glyph unicode="&#x32e;" horiz-adv-x="0" d="M-625 -156q56 0 110 30t66 65l74 -21q-28 -78 -108 -134t-168 -56q-82 0 -135.5 50t-53.5 122q0 12 2 18l82 21v-5q0 -35 38.5 -62.5t92.5 -27.5z" />
<glyph unicode="&#x32f;" horiz-adv-x="0" d="M-633 -199q-56 0 -110 -29.5t-66 -64.5l-74 21q28 78 108.5 134t168.5 56q82 0 135 -50t53 -122q0 -12 -2 -18l-82 -21v4q0 35 -38.5 62.5t-92.5 27.5z" />
<glyph unicode="&#x330;" horiz-adv-x="0" d="M-424 -102h84q-28 -80 -92 -131.5t-150 -51.5q-38 0 -89 33t-70 33q-98 0 -121 -66h-84q28 80 91.5 131.5t149.5 51.5q38 0 89.5 -33t70.5 -33q98 0 121 66z" />
<glyph unicode="&#x331;" horiz-adv-x="0" d="M-862 -123h471l-19 -82h-471z" />
<glyph unicode="&#x37a;" horiz-adv-x="442" d="M90 -55h113l-47 -199q-17 -73 -17 -96q0 -27 17 -27q40 0 57 76h57q-15 -63 -50.5 -96t-86.5 -33q-100 0 -100 102q0 33 8 66z" />
<glyph unicode="&#x37e;" horiz-adv-x="356" d="M0 0zM0 0zM-1.85938 -203q109.698 94 132.09 191q3.23145 14 8.08008 48q4.84766 34 9.46484 54q8.77148 38 25.082 74h148q-29.7734 -64 -58.5078 -117t-46.1602 -83q-17.4248 -30 -44.6572 -63.5q-27.2334 -33.5 -34.6953 -42t-34.9639 -34.5t-27.7324 -27h-76z M301.857 778h164l-74.8574 -164h-164z" />
<glyph unicode="&#x384;" horiz-adv-x="493" d="M375 1255zM375 1255zM690 1642l90 -92l-354 -295l-51 54z" />
<glyph unicode="&#x385;" horiz-adv-x="849" d="M354 1263zM927 1270zM962 1419h150l-35 -149h-150zM354 1270zM389 1419h150l-35 -149h-150zM592 1263zM592 1263zM907 1650l90 -92l-354 -295l-51 54z" />
<glyph unicode="&#x386;" horiz-adv-x="1275" d="M31 0zM31 0zM1092 6zM31 0l854 1434h180l190 -1434h-163l-56 410h-598l-243 -410h-164zM928 1231l-428 -719h524zM375 1255zM375 1255zM690 1642l90 -92l-354 -295l-51 54z" />
<glyph unicode="&#x387;" horiz-adv-x="288" d="M157 383zM157 383zM192 532h150l-35 -149h-150z" />
<glyph unicode="&#x388;" horiz-adv-x="1331" d="M375 0zM451 0zM1311 0h-860l332 1434h827l-24 -103h-654l-98 -430h469l-25 -102h-469l-159 -697h686zM375 1255zM375 1255zM690 1642l90 -92l-354 -295l-51 54z" />
<glyph unicode="&#x389;" horiz-adv-x="1527" d="M375 0zM420 0zM926 1434l-144 -615h660l143 615h174l-331 -1434h-175l166 717h-659l-166 -717h-174l332 1434h174zM375 1255zM375 1255zM690 1642l90 -92l-354 -295l-51 54z" />
<glyph unicode="&#x38a;" horiz-adv-x="704" d="M375 0zM430 0zM936 1434l-332 -1434h-174l332 1434h174zM375 1255zM375 1255zM690 1642l90 -92l-354 -295l-51 54z" />
<glyph unicode="&#x38c;" horiz-adv-x="1513" d="M342 0zM342 0zM802 -20q-88 0 -168.5 31t-147 91t-105.5 160t-39 227q0 135 37.5 274t109 262t165.5 219.5t216.5 153t253.5 56.5q107 0 198 -31t161.5 -91t110.5 -158.5t40 -225.5q0 -85 -16 -176t-50 -186t-82.5 -182.5t-118 -165t-152 -135t-189 -90.5t-224.5 -33z M1112 1352q-109 0 -218.5 -75.5t-191 -194.5t-133 -272.5t-51.5 -301.5q0 -107 30.5 -192t79 -134t102.5 -74.5t107 -25.5q112 0 224.5 71.5t199.5 187.5t142 274.5t55 322.5q0 105 -29 186.5t-78.5 130t-110 73t-128.5 24.5zM375 1255zM375 1255zM690 1642l90 -92 l-354 -295l-51 54z" />
<glyph unicode="&#x38e;" horiz-adv-x="1443" d="M375 0zM375 1255zM375 1255zM690 1642l90 -92l-354 -295l-51 54zM783 0zM1114 899l398 535h184l-539 -725l-163 -709h-174l163 711l-200 723h184z" />
<glyph unicode="&#x38f;" horiz-adv-x="1464" d="M250 0zM375 1255zM375 1255zM690 1642l90 -92l-354 -295l-51 54zM1063 1454q68 0 132.5 -17t123.5 -54.5t103 -91.5t70 -134t26 -176q0 -128 -39.5 -253t-105 -224.5t-133.5 -175t-142 -133.5l-21 -93h154l-25 -102h-327l57 246q99 25 194 138.5t155.5 278.5t60.5 326 q0 176 -84.5 269.5t-223.5 93.5q-113 0 -218 -61.5t-192.5 -193t-129.5 -315.5q-23 -98 -23 -198q0 -131 42 -223t118 -115l-57 -246h-328l24 102h154l21 93q-59 73 -101.5 187.5t-42.5 242.5q0 73 19 157q32 137 94.5 251.5t138.5 191t165 129.5t174.5 76.5t166.5 23.5z " />
<glyph unicode="&#x390;" horiz-adv-x="565" d="M172 0zM172 1079zM745 1086zM780 1235h150l-35 -149h-150zM172 1086zM207 1235h150l-35 -149h-150zM410 1079zM410 1079zM725 1466l90 -92l-354 -295l-51 54zM217 0zM401 276q-10 -44 -10 -94q0 -100 43 -100q28 0 50.5 14.5t27.5 34.5h70q-13 -63 -71.5 -107t-127.5 -44 q-73 0 -119.5 49.5t-46.5 126.5q0 27 6 57l160 688h164z" />
<glyph unicode="&#x391;" horiz-adv-x="1275" d="M31 0zM1092 6zM31 0l854 1434h180l190 -1434h-163l-56 410h-598l-243 -410h-164zM928 1231l-428 -719h524z" />
<glyph unicode="&#x392;" horiz-adv-x="1052" d="M82 0zM547 102q75 0 137.5 34t103 89.5t62.5 124t22 139.5q0 47 -10 88t-30.5 75.5t-56.5 54.5t-85 20h-266l-143 -625h266zM449 829h180q118 0 216.5 96.5t98.5 233.5q0 73 -35.5 122.5t-120.5 49.5h-225zM872 795q91 -39 134 -117.5t43 -177.5q0 -73 -20.5 -143.5 t-65 -135.5t-108.5 -114t-157.5 -78t-205.5 -29h-410l332 1434h368q340 0 340 -246q0 -123 -66 -227.5t-184 -165.5z" />
<glyph unicode="&#x393;" horiz-adv-x="899" d="M92 0zM266 0h-174l332 1434h827l-24 -103h-654z" />
<glyph unicode="&#x394;" horiz-adv-x="1298" d="M1264 0h-1225l854 1434h180zM264 102h823l-151 1129z" />
<glyph unicode="&#x395;" horiz-adv-x="962" d="M82 0zM942 0h-860l332 1434h827l-24 -103h-654l-98 -430h469l-25 -102h-469l-159 -697h686z" />
<glyph unicode="&#x396;" horiz-adv-x="1075" d="M41 0zM1026 1331h-668l56 103h872l-987 -1332h688l-24 -102h-922z" />
<glyph unicode="&#x397;" horiz-adv-x="1259" d="M82 0zM588 1434l-144 -615h660l143 615h174l-331 -1434h-175l166 717h-659l-166 -717h-174l332 1434h174z" />
<glyph unicode="&#x398;" horiz-adv-x="1435" d="M700 -20q-88 0 -168 31t-146.5 91t-106 160t-39.5 227q0 97 28 228q34 148 97.5 272.5t140.5 209t166.5 143t177.5 85.5t172 27q107 0 198 -30.5t161.5 -90.5t110.5 -159t40 -226q0 -109 -29 -231q-43 -186 -127.5 -330t-193.5 -231.5t-231 -131.5t-251 -44zM1010 1352 q-72 0 -153.5 -40t-162 -115t-149 -200.5t-103.5 -279.5q-26 -113 -26 -209q0 -107 30.5 -192t79 -134t102.5 -74.5t107 -25.5q62 0 129.5 24t138 76t132.5 125t114 179.5t80 230.5q27 123 27 221q0 105 -29 186.5t-78.5 130t-110 73t-128.5 24.5zM618 791h547l-32 -144 h-547z" />
<glyph unicode="&#x399;" horiz-adv-x="436" d="M92 0zM598 1434l-332 -1434h-174l332 1434h174z" />
<glyph unicode="&#x39a;" horiz-adv-x="1239" d="M92 0zM375 469l-109 -469h-174l332 1434h174l-170 -738l825 738h205l-737 -658l430 -776h-193l-368 662z" />
<glyph unicode="&#x39b;" horiz-adv-x="1275" d="M31 0zM928 1231l-733 -1231h-164l854 1434h180l190 -1434h-163z" />
<glyph unicode="&#x39c;" horiz-adv-x="1544" d="M92 0zM512 1065l-246 -1065h-174l332 1434h174l236 -1002l698 1002h174l-332 -1434h-174l246 1065l-696 -995z" />
<glyph unicode="&#x39d;" horiz-adv-x="1325" d="M92 0zM977 0l-449 1137l-262 -1137h-174l332 1434h174h2l449 -1139l264 1139h174l-332 -1434h-178z" />
<glyph unicode="&#x39e;" horiz-adv-x="1384" d="M397 788h795l-33 -143h-794zM414 1434h1061l-35 -144h-1061zM115 143h1061l-33 -143h-1061z" />
<glyph unicode="&#x39f;" d="M199 0zM659 -20q-88 0 -168.5 31t-147 91t-105.5 160t-39 227q0 135 37.5 274t109 262t165.5 219.5t216.5 153t253.5 56.5q107 0 198 -31t161.5 -91t110.5 -158.5t40 -225.5q0 -85 -16 -176t-50 -186t-82.5 -182.5t-118 -165t-152 -135t-189 -90.5t-224.5 -33zM969 1352 q-109 0 -218.5 -75.5t-191 -194.5t-133 -272.5t-51.5 -301.5q0 -107 30.5 -192t79 -134t102.5 -74.5t107 -25.5q112 0 224.5 71.5t199.5 187.5t142 274.5t55 322.5q0 105 -29 186.5t-78.5 130t-110 73t-128.5 24.5z" />
<glyph unicode="&#x3a0;" horiz-adv-x="1173" d="M92 0zM92 0l332 1434h975l-332 -1434h-174l307 1331h-627l-307 -1331h-174z" />
<glyph unicode="&#x3a1;" horiz-adv-x="970" d="M92 0zM1206 1128q0 -62 -22 -127t-68 -127t-109 -111t-152 -78.5t-191 -29.5h-246l-152 -655h-174l332 1434h420q79 0 142.5 -18t103.5 -47.5t67 -69.5t38 -82.5t11 -88.5zM573 1331l-133 -573h277q90 0 164 58t112.5 142t38.5 170q0 87 -43.5 145t-138.5 58h-277z" />
<glyph unicode="&#x3a3;" horiz-adv-x="1040" d="M61 0zM625 1331l276 -606l-569 -623h676l-25 -102h-922l656 725l-316 709h873l6 -103h-655z" />
<glyph unicode="&#x3a4;" horiz-adv-x="1198" d="M328 0zM352 1434h1202l-28 -103h-512l-307 -1331h-175l308 1331h-512z" />
<glyph unicode="&#x3a5;" horiz-adv-x="1075" d="M414 0zM745 899l398 535h184l-539 -725l-163 -709h-174l163 711l-200 723h184z" />
<glyph unicode="&#x3a6;" d="M215 0zM659 295l197 848q-198 -26 -332.5 -184.5t-134.5 -344.5q0 -128 74.5 -212.5t195.5 -106.5zM881 1247l43 187h174l-45 -193q187 -30 304.5 -140.5t117.5 -275.5q0 -111 -51 -219.5t-139 -194t-212 -145t-262 -76.5l-45 -190h-174l43 188q-111 15 -205 68.5 t-154.5 147t-60.5 208.5q0 120 59.5 234.5t154 197.5t214 137.5t238.5 65.5zM1028 1137l-194 -842q191 35 328.5 185t137.5 339q0 125 -73 208t-199 110z" />
<glyph unicode="&#x3a7;" horiz-adv-x="1075" d="M41 0zM786 760l211 -760h-184l-162 578l-428 -578h-182l561 758l-188 676h184l137 -496l367 496h184z" />
<glyph unicode="&#x3a8;" horiz-adv-x="1556" d="M821 545l207 889h174l-205 -887q53 11 103.5 31t109 60.5t106.5 95t90.5 140t66.5 191.5l86 369h174l-86 -369q-29 -128 -87.5 -232.5t-127.5 -171.5t-153 -115.5t-157.5 -72t-148.5 -33.5l-103 -440h-174l103 440q-59 7 -114.5 24.5t-112.5 52.5t-98.5 83t-68 121.5 t-26.5 163.5q0 87 22 180l86 369h175l-87 -369q-22 -104 -22 -174q0 -69 17 -125.5t43 -93t62.5 -64t71.5 -41.5t74 -22z" />
<glyph unicode="&#x3a9;" horiz-adv-x="1464" d="M1063 1454q68 0 132.5 -17t123.5 -54.5t103 -91.5t70 -134t26 -176q0 -128 -39.5 -253t-105 -224.5t-133.5 -175t-142 -133.5l-21 -93h154l-25 -102h-327l57 246q99 25 194 138.5t155.5 278.5t60.5 326q0 176 -84.5 269.5t-223.5 93.5q-113 0 -218 -61.5t-192.5 -193 t-129.5 -315.5q-23 -98 -23 -198q0 -131 42 -223t118 -115l-57 -246h-328l24 102h154l21 93q-59 73 -101.5 187.5t-42.5 242.5q0 73 19 157q32 137 94.5 251.5t138.5 191t165 129.5t174.5 76.5t166.5 23.5z" />
<glyph unicode="&#x3aa;" horiz-adv-x="436" d="M92 0zM92 0zM803 1516zM653 1665h150l-35 -149h-150zM325 1665h150l-35 -149h-150zM598 1434l-332 -1434h-174l332 1434h174z" />
<glyph unicode="&#x3ab;" horiz-adv-x="1075" d="M414 0zM414 0zM1158 1516zM1008 1665h150l-35 -149h-150zM680 1665h150l-35 -149h-150zM745 899l398 535h184l-539 -725l-163 -709h-174l163 711l-200 723h184z" />
<glyph unicode="&#x3ac;" horiz-adv-x="1058" d="M154 0zM678 1085zM678 1085zM993 1472l90 -92l-354 -295l-51 54zM154 0zM154 309q0 111 49 224.5t124 198t170.5 137.5t184.5 53q79 0 148 -14t106 -29t88 -41l-129 -562q-12 -53 -12 -98q0 -43 11.5 -69.5t31.5 -26.5q28 0 50.5 14.5t27.5 34.5h71q-13 -63 -72.5 -107 t-128.5 -44q-84 0 -131 63q-151 -63 -303 -63q-132 0 -209 92.5t-77 236.5zM852 797q-61 22 -164 22q-72 0 -132 -30t-99.5 -80t-69.5 -108.5t-45.5 -121t-23 -111t-7.5 -85.5q0 -108 51 -154.5t132 -46.5q110 0 217 49v25q0 27 6 57z" />
<glyph unicode="&#x3ad;" horiz-adv-x="897" d="M113 0zM613 1085zM613 1085zM928 1472l90 -92l-354 -295l-51 54zM113 0zM610 451q-80 0 -141.5 -17t-96 -42t-56 -58.5t-28.5 -60t-7 -52.5q0 -59 42.5 -99t135.5 -40q81 0 161.5 34t116.5 87l115 -25q-60 -78 -165 -138t-226 -60q-348 0 -348 210q0 96 63 185t191 137 q-99 61 -99 152q0 32 11.5 65.5t41.5 68.5t75 62t118 44.5t164 17.5q127 0 190.5 -54t73.5 -133l-127 -24q0 108 -186 108q-97 0 -147 -49t-50 -102q0 -52 51.5 -83.5t163.5 -31.5h58l-23 -102h-72z" />
<glyph unicode="&#x3ae;" horiz-adv-x="1034" d="M109 0zM617 1085zM617 1085zM932 1472l90 -92l-354 -295l-51 54zM109 0zM287 625q12 53 12 94q0 45 -12 72.5t-33 27.5q-28 0 -49.5 -14.5t-26.5 -34.5h-69q14 63 71.5 107.5t126.5 44.5q95 0 142 -80q138 80 280 80q348 0 348 -281q0 -57 -20 -149l-207 -902h-164 l203 877q24 108 24 176q0 98 -45.5 137t-132.5 39q-128 0 -264 -98q-1 -5 -2 -16t-2 -17l-160 -688h-164z" />
<glyph unicode="&#x3af;" horiz-adv-x="483" d="M135 0zM348 1085zM348 1085zM663 1472l90 -92l-354 -295l-51 54zM135 0zM319 276q-10 -44 -10 -94q0 -100 43 -100q28 0 50.5 14.5t27.5 34.5h70q-13 -63 -71.5 -107t-127.5 -44q-73 0 -119.5 49.5t-46.5 126.5q0 27 6 57l160 688h164z" />
<glyph unicode="&#x3b0;" horiz-adv-x="1056" d="M211 0zM409 1079zM982 1086zM1017 1235h150l-35 -149h-150zM409 1086zM444 1235h150l-35 -149h-150zM647 1079zM647 1079zM962 1466l90 -92l-354 -295l-51 54zM502 901l-105 -450q-24 -102 -24 -179q0 -94 43.5 -142t142.5 -48q112 0 191.5 100t117.5 269l105 450h164 l-105 -450q-55 -234 -189.5 -352.5t-336.5 -118.5q-295 0 -295 290q0 77 22 181l105 450h164z" />
<glyph unicode="&#x3b1;" horiz-adv-x="1058" d="M154 0zM154 309q0 111 49 224.5t124 198t170.5 137.5t184.5 53q79 0 148 -14t106 -29t88 -41l-129 -562q-12 -53 -12 -98q0 -43 11.5 -69.5t31.5 -26.5q28 0 50.5 14.5t27.5 34.5h71q-13 -63 -72.5 -107t-128.5 -44q-84 0 -131 63q-151 -63 -303 -63q-132 0 -209 92.5 t-77 236.5zM852 797q-61 22 -164 22q-72 0 -132 -30t-99.5 -80t-69.5 -108.5t-45.5 -121t-23 -111t-7.5 -85.5q0 -108 51 -154.5t132 -46.5q110 0 217 49v25q0 27 6 57z" />
<glyph unicode="&#x3b2;" horiz-adv-x="1118" d="M612 82q79 0 140.5 32.5t97.5 85.5t54 114.5t18 125.5q0 96 -62 150.5t-176 54.5h-205l-86 -366q-2 -6 -2 -21q0 -62 60 -119t161 -57zM557 985l-55 -237h180q71 0 130.5 33t95.5 83t55.5 105t19.5 104q0 67 -35 111.5t-119 44.5q-57 0 -106 -23t-81.5 -60t-53.5 -77.5 t-31 -83.5zM72 -410l309 1340q41 179 152 290t280 111q172 0 251 -69.5t79 -188.5q0 -77 -37.5 -160t-87.5 -137t-90 -63q79 -36 117 -110t38 -159q0 -214 -145.5 -339t-388.5 -125q-132 0 -211 55l-102 -445h-164z" />
<glyph unicode="&#x3b3;" horiz-adv-x="823" d="M172 0zM172 -305q0 45 49.5 150.5t93.5 181t54 88.5l-142 786h152l104 -604l387 604h150l-504 -784q23 -140 23 -279q0 -66 -9 -104q-18 -74 -75.5 -113t-135.5 -39q-67 0 -107 29t-40 84zM393 -94q-6 -13 -17 -34.5t-17.5 -34t-15 -30t-13.5 -28.5t-10 -23.5t-7 -20.5 t-2 -14q0 -15 9 -25.5t22 -10.5q17 0 33 14.5t20 34.5q4 24 4 59q0 51 -6 113z" />
<glyph unicode="&#x3b4;" horiz-adv-x="1116" d="M739 827q-59 0 -124.5 -33t-122 -90.5t-93.5 -145.5t-37 -187q0 -132 67.5 -214.5t148.5 -82.5q82 0 157.5 36.5t133.5 101.5t93 161.5t35 208.5q0 120 -72 182.5t-186 62.5zM784 926q-17 11 -56 30.5t-72 37.5t-67.5 42.5t-54.5 56.5t-20 68q0 57 34 100.5t90 68 t119.5 36.5t131.5 12q75 0 132.5 -12.5t95 -36.5t60.5 -50t42 -62l-146 -66q-6 12 -15 33t-14.5 31t-19 24t-31.5 20.5t-50 11.5t-77 5q-62 0 -102 -9t-57.5 -26.5t-23 -33.5t-5.5 -40q0 -28 26.5 -49t110.5 -65q56 -29 101.5 -59t92.5 -72.5t79 -89t52.5 -108.5t20.5 -130 q0 -118 -39.5 -228.5t-113 -199t-191 -142t-262.5 -53.5q-171 0 -265.5 97.5t-94.5 265.5q0 119 40 220t103 168t142.5 114.5t157 68.5t146.5 21z" />
<glyph unicode="&#x3b5;" horiz-adv-x="897" d="M113 0zM610 451q-80 0 -141.5 -17t-96 -42t-56 -58.5t-28.5 -60t-7 -52.5q0 -59 42.5 -99t135.5 -40q81 0 161.5 34t116.5 87l115 -25q-60 -78 -165 -138t-226 -60q-348 0 -348 210q0 96 63 185t191 137q-99 61 -99 152q0 32 11.5 65.5t41.5 68.5t75 62t118 44.5 t164 17.5q127 0 190.5 -54t73.5 -133l-127 -24q0 108 -186 108q-97 0 -147 -49t-50 -102q0 -52 51.5 -83.5t163.5 -31.5h58l-23 -102h-72z" />
<glyph unicode="&#x3b6;" horiz-adv-x="942" d="M530 -10q-12 0 -63 -3t-64 -3q-44 0 -76.5 8.5t-63 31t-46.5 69.5t-16 118q0 145 37 274.5t99.5 232t159 199.5t201 173.5t240.5 158.5h-498l23 103h711l-21 -88q-116 -59 -223.5 -132.5t-210 -171t-178.5 -203t-122 -233t-46 -256.5q0 -174 114 -174q7 0 49.5 2t63.5 2 q75 0 135 -55.5t60 -159.5q0 -233 -316 -282l17 108q55 22 88.5 63t33.5 126q0 57 -23.5 74.5t-64.5 17.5z" />
<glyph unicode="&#x3b7;" horiz-adv-x="1034" d="M109 0zM287 625q12 53 12 94q0 45 -12 72.5t-33 27.5q-28 0 -49.5 -14.5t-26.5 -34.5h-69q14 63 71.5 107.5t126.5 44.5q95 0 142 -80q138 80 280 80q348 0 348 -281q0 -57 -20 -149l-207 -902h-164l203 877q24 108 24 176q0 98 -45.5 137t-132.5 39q-128 0 -264 -98 q-1 -5 -2 -16t-2 -17l-160 -688h-164z" />
<glyph unicode="&#x3b8;" horiz-adv-x="1056" d="M1096 676q-45 -191 -105.5 -327.5t-136 -216.5t-160 -116t-186.5 -36q-118 0 -195 92t-77 288q0 144 40 316q43 187 110 327t142.5 217.5t150.5 114.5t150 37q153 0 233.5 -84.5t80.5 -273.5q0 -133 -47 -338zM922 627h-492q-39 -181 -39 -299q0 -131 44 -188.5 t126 -57.5q51 0 97 26.5t92.5 86.5t90 169t81.5 263zM453 729h491q41 196 41 309q0 232 -149 232q-56 0 -106 -26t-99.5 -86t-94.5 -168t-83 -261z" />
<glyph unicode="&#x3b9;" horiz-adv-x="483" d="M135 0zM319 276q-10 -44 -10 -94q0 -100 43 -100q28 0 50.5 14.5t27.5 34.5h70q-13 -63 -71.5 -107t-127.5 -44q-73 0 -119.5 49.5t-46.5 126.5q0 27 6 57l160 688h164z" />
<glyph unicode="&#x3ba;" horiz-adv-x="917" d="M82 0zM309 270l-63 -270h-164l209 901h164l-99 -422l475 422h189l-451 -399l279 -502h-176l-221 395z" />
<glyph unicode="&#x3bb;" horiz-adv-x="880" d="M680 1352l184 -1352h-164l-94 696l-411 -696h-150l537 901l-64 449z" />
<glyph unicode="&#x3bc;" horiz-adv-x="1110" d="M14 0zM946 276q-10 -44 -10 -94q0 -100 43 -100q28 0 50.5 14.5t27.5 34.5h69q-13 -63 -71 -107t-127 -44q-53 0 -93 26.5t-59 71.5q-67 -46 -149 -72t-152 -26q-142 0 -221 57l-76 -330h-164l277 1194h164l-101 -434q-22 -99 -22 -162q0 -117 52.5 -170t143.5 -53 q124 0 236 106q1 4 2 12.5t2 12.5l160 688h164z" />
</font>
</defs>
</svg>
